# Blender v3.4.1 OBJ File: ''
# www.blender.org
mtllib Lamp_Post2.mtl
o cube_Mesh_0.009
v 0.245000 0.061250 0.245000
v 0.245000 0.061250 -0.245000
v 0.245000 0.000000 0.245000
v 0.245000 0.000000 -0.245000
v -0.245000 0.061250 -0.245000
v -0.245000 0.061250 0.245000
v -0.245000 0.000000 -0.245000
v -0.245000 0.000000 0.245000
v -0.245000 0.061250 -0.245000
v 0.245000 0.061250 -0.245000
v -0.245000 0.061250 0.245000
v 0.245000 0.061250 0.245000
v -0.245000 0.000000 0.245000
v 0.245000 0.000000 0.245000
v -0.245000 0.000000 -0.245000
v 0.245000 0.000000 -0.245000
v -0.245000 0.061250 0.245000
v 0.245000 0.061250 0.245000
v -0.245000 0.000000 0.245000
v 0.245000 0.000000 0.245000
v 0.245000 0.061250 -0.245000
v -0.245000 0.061250 -0.245000
v 0.245000 0.000000 -0.245000
v -0.245000 0.000000 -0.245000
vt 0.000000 0.937500
vt 0.000000 0.929688
vt 0.062500 0.937500
vt 0.062500 0.929688
vt 0.125000 0.937500
vt 0.125000 0.929688
vt 0.187500 0.937500
vt 0.187500 0.929688
vt 0.125000 0.937500
vt 0.125000 1.000000
vt 0.062500 0.937500
vt 0.062500 1.000000
vt 0.187500 1.000000
vt 0.187500 0.937500
vt 0.125000 1.000000
vt 0.125000 0.937500
vt 0.187500 0.937500
vt 0.187500 0.929688
vt 0.250000 0.937500
vt 0.250000 0.929688
vt 0.062500 0.937500
vt 0.062500 0.929688
vt 0.125000 0.937500
vt 0.125000 0.929688
vn 1.0000 0.0000 0.0000
vn -1.0000 0.0000 0.0000
vn 0.0000 1.0000 0.0000
vn 0.0000 -1.0000 0.0000
vn 0.0000 0.0000 1.0000
vn 0.0000 0.0000 -1.0000
usemtl Material_0.016
s off
f 1/1/1 3/2/1 2/3/1
f 3/2/1 4/4/1 2/3/1
f 5/5/2 7/6/2 6/7/2
f 7/6/2 8/8/2 6/7/2
f 9/9/3 11/10/3 10/11/3
f 11/10/3 12/12/3 10/11/3
f 13/13/4 15/14/4 14/15/4
f 15/14/4 16/16/4 14/15/4
f 17/17/5 19/18/5 18/19/5
f 19/18/5 20/20/5 18/19/5
f 21/21/6 23/22/6 22/23/6
f 23/22/6 24/24/6 22/23/6
o cube.001_Mesh_1.007
v 0.214375 0.153125 0.214375
v 0.214375 0.153125 -0.214375
v 0.214375 0.061250 0.214375
v 0.214375 0.061250 -0.214375
v -0.214375 0.153125 -0.214375
v -0.214375 0.153125 0.214375
v -0.214375 0.061250 -0.214375
v -0.214375 0.061250 0.214375
v -0.214375 0.153125 -0.214375
v 0.214375 0.153125 -0.214375
v -0.214375 0.153125 0.214375
v 0.214375 0.153125 0.214375
v -0.214375 0.061250 0.214375
v 0.214375 0.061250 0.214375
v -0.214375 0.061250 -0.214375
v 0.214375 0.061250 -0.214375
v -0.214375 0.153125 0.214375
v 0.214375 0.153125 0.214375
v -0.214375 0.061250 0.214375
v 0.214375 0.061250 0.214375
v 0.214375 0.153125 -0.214375
v -0.214375 0.153125 -0.214375
v 0.214375 0.061250 -0.214375
v -0.214375 0.061250 -0.214375
vt 0.000000 0.804688
vt 0.000000 0.792969
vt 0.054688 0.804688
vt 0.054688 0.792969
vt 0.109375 0.804688
vt 0.109375 0.792969
vt 0.164062 0.804688
vt 0.164062 0.792969
vt 0.109375 0.804688
vt 0.109375 0.859375
vt 0.054688 0.804688
vt 0.054688 0.859375
vt 0.164062 0.859375
vt 0.164062 0.804688
vt 0.109375 0.859375
vt 0.109375 0.804688
vt 0.164062 0.804688
vt 0.164062 0.792969
vt 0.218750 0.804688
vt 0.218750 0.792969
vt 0.054688 0.804688
vt 0.054688 0.792969
vt 0.109375 0.804688
vt 0.109375 0.792969
vn 1.0000 0.0000 0.0000
vn -1.0000 0.0000 0.0000
vn 0.0000 1.0000 0.0000
vn 0.0000 -1.0000 0.0000
vn 0.0000 0.0000 1.0000
vn 0.0000 0.0000 -1.0000
usemtl Material_0.016
s off
f 25/25/7 27/26/7 26/27/7
f 27/26/7 28/28/7 26/27/7
f 29/29/8 31/30/8 30/31/8
f 31/30/8 32/32/8 30/31/8
f 33/33/9 35/34/9 34/35/9
f 35/34/9 36/36/9 34/35/9
f 37/37/10 39/38/10 38/39/10
f 39/38/10 40/40/10 38/39/10
f 41/41/11 43/42/11 42/43/11
f 43/42/11 44/44/11 42/43/11
f 45/45/12 47/46/12 46/47/12
f 47/46/12 48/48/12 46/47/12
o cube.002_Mesh_2.007
v 0.153125 0.336875 0.153125
v 0.153125 0.336875 -0.153125
v 0.153125 0.214375 0.153125
v 0.153125 0.214375 -0.153125
v -0.153125 0.336875 -0.153125
v -0.153125 0.336875 0.153125
v -0.153125 0.214375 -0.153125
v -0.153125 0.214375 0.153125
v -0.153125 0.336875 -0.153125
v 0.153125 0.336875 -0.153125
v -0.153125 0.336875 0.153125
v 0.153125 0.336875 0.153125
v -0.153125 0.214375 0.153125
v 0.153125 0.214375 0.153125
v -0.153125 0.214375 -0.153125
v 0.153125 0.214375 -0.153125
v -0.153125 0.336875 0.153125
v 0.153125 0.336875 0.153125
v -0.153125 0.214375 0.153125
v 0.153125 0.214375 0.153125
v 0.153125 0.336875 -0.153125
v -0.153125 0.336875 -0.153125
v 0.153125 0.214375 -0.153125
v -0.153125 0.214375 -0.153125
vt 0.281250 0.730469
vt 0.281250 0.714844
vt 0.320312 0.730469
vt 0.320312 0.714844
vt 0.359375 0.730469
vt 0.359375 0.714844
vt 0.398438 0.730469
vt 0.398438 0.714844
vt 0.359375 0.730469
vt 0.359375 0.769531
vt 0.320312 0.730469
vt 0.320312 0.769531
vt 0.398438 0.769531
vt 0.398438 0.730469
vt 0.359375 0.769531
vt 0.359375 0.730469
vt 0.398438 0.730469
vt 0.398438 0.714844
vt 0.437500 0.730469
vt 0.437500 0.714844
vt 0.320312 0.730469
vt 0.320312 0.714844
vt 0.359375 0.730469
vt 0.359375 0.714844
vn 1.0000 0.0000 0.0000
vn -1.0000 0.0000 0.0000
vn 0.0000 1.0000 0.0000
vn 0.0000 -1.0000 0.0000
vn 0.0000 0.0000 1.0000
vn 0.0000 0.0000 -1.0000
usemtl Material_0.016
s off
f 49/49/13 51/50/13 50/51/13
f 51/50/13 52/52/13 50/51/13
f 53/53/14 55/54/14 54/55/14
f 55/54/14 56/56/14 54/55/14
f 57/57/15 59/58/15 58/59/15
f 59/58/15 60/60/15 58/59/15
f 61/61/16 63/62/16 62/63/16
f 63/62/16 64/64/16 62/63/16
f 65/65/17 67/66/17 66/67/17
f 67/66/17 68/68/17 66/67/17
f 69/69/18 71/70/18 70/71/18
f 71/70/18 72/72/18 70/71/18
o cube.003_Mesh_3.007
v 0.122500 0.428750 0.122500
v 0.122500 0.428750 -0.122500
v 0.122500 0.336875 0.122500
v 0.122500 0.336875 -0.122500
v -0.122500 0.428750 -0.122500
v -0.122500 0.428750 0.122500
v -0.122500 0.336875 -0.122500
v -0.122500 0.336875 0.122500
v -0.122500 0.428750 -0.122500
v 0.122500 0.428750 -0.122500
v -0.122500 0.428750 0.122500
v 0.122500 0.428750 0.122500
v -0.122500 0.336875 0.122500
v 0.122500 0.336875 0.122500
v -0.122500 0.336875 -0.122500
v 0.122500 0.336875 -0.122500
v -0.122500 0.428750 0.122500
v 0.122500 0.428750 0.122500
v -0.122500 0.336875 0.122500
v 0.122500 0.336875 0.122500
v 0.122500 0.428750 -0.122500
v -0.122500 0.428750 -0.122500
v 0.122500 0.336875 -0.122500
v -0.122500 0.336875 -0.122500
vt 0.359375 0.632812
vt 0.359375 0.621094
vt 0.390625 0.632812
vt 0.390625 0.621094
vt 0.421875 0.632812
vt 0.421875 0.621094
vt 0.453125 0.632812
vt 0.453125 0.621094
vt 0.421875 0.632812
vt 0.421875 0.664062
vt 0.390625 0.632812
vt 0.390625 0.664062
vt 0.453125 0.664062
vt 0.453125 0.632812
vt 0.421875 0.664062
vt 0.421875 0.632812
vt 0.453125 0.632812
vt 0.453125 0.621094
vt 0.484375 0.632812
vt 0.484375 0.621094
vt 0.390625 0.632812
vt 0.390625 0.621094
vt 0.421875 0.632812
vt 0.421875 0.621094
vn 1.0000 0.0000 0.0000
vn -1.0000 0.0000 0.0000
vn 0.0000 1.0000 0.0000
vn 0.0000 -1.0000 0.0000
vn 0.0000 0.0000 1.0000
vn 0.0000 0.0000 -1.0000
usemtl Material_0.016
s off
f 73/73/19 75/74/19 74/75/19
f 75/74/19 76/76/19 74/75/19
f 77/77/20 79/78/20 78/79/20
f 79/78/20 80/80/20 78/79/20
f 81/81/21 83/82/21 82/83/21
f 83/82/21 84/84/21 82/83/21
f 85/85/22 87/86/22 86/87/22
f 87/86/22 88/88/22 86/87/22
f 89/89/23 91/90/23 90/91/23
f 91/90/23 92/92/23 90/91/23
f 93/93/24 95/94/24 94/95/24
f 95/94/24 96/96/24 94/95/24
o cube.004_Mesh_4.007
v 0.061250 2.082500 0.061250
v 0.061250 2.082500 -0.061250
v 0.061250 0.428750 0.061250
v 0.061250 0.428750 -0.061250
v -0.061250 2.082500 -0.061250
v -0.061250 2.082500 0.061250
v -0.061250 0.428750 -0.061250
v -0.061250 0.428750 0.061250
v -0.061250 2.082500 -0.061250
v 0.061250 2.082500 -0.061250
v -0.061250 2.082500 0.061250
v 0.061250 2.082500 0.061250
v -0.061250 0.428750 0.061250
v 0.061250 0.428750 0.061250
v -0.061250 0.428750 -0.061250
v 0.061250 0.428750 -0.061250
v -0.061250 2.082500 0.061250
v 0.061250 2.082500 0.061250
v -0.061250 0.428750 0.061250
v 0.061250 0.428750 0.061250
v 0.061250 2.082500 -0.061250
v -0.061250 2.082500 -0.061250
v 0.061250 0.428750 -0.061250
v -0.061250 0.428750 -0.061250
vt 0.218750 0.843750
vt 0.218750 0.664062
vt 0.234375 0.843750
vt 0.234375 0.664062
vt 0.250000 0.843750
vt 0.250000 0.664062
vt 0.265625 0.843750
vt 0.265625 0.664062
vt 0.250000 0.843750
vt 0.250000 0.859375
vt 0.234375 0.843750
vt 0.234375 0.859375
vt 0.265625 0.859375
vt 0.265625 0.843750
vt 0.250000 0.859375
vt 0.250000 0.843750
vt 0.265625 0.843750
vt 0.265625 0.664062
vt 0.281250 0.843750
vt 0.281250 0.664062
vt 0.234375 0.843750
vt 0.234375 0.664062
vt 0.250000 0.843750
vt 0.250000 0.664062
vn 1.0000 0.0000 0.0000
vn -1.0000 0.0000 0.0000
vn 0.0000 1.0000 0.0000
vn 0.0000 -1.0000 0.0000
vn 0.0000 0.0000 1.0000
vn 0.0000 0.0000 -1.0000
usemtl Material_0.016
s off
f 97/97/25 99/98/25 98/99/25
f 99/98/25 100/100/25 98/99/25
f 101/101/26 103/102/26 102/103/26
f 103/102/26 104/104/26 102/103/26
f 105/105/27 107/106/27 106/107/27
f 107/106/27 108/108/27 106/107/27
f 109/109/28 111/110/28 110/111/28
f 111/110/28 112/112/28 110/111/28
f 113/113/29 115/114/29 114/115/29
f 115/114/29 116/116/29 114/115/29
f 117/117/30 119/118/30 118/119/30
f 119/118/30 120/120/30 118/119/30
o cube.005_Mesh_5.007
v 0.183750 0.214375 0.183750
v 0.183750 0.214375 -0.183750
v 0.183750 0.153125 0.183750
v 0.183750 0.153125 -0.183750
v -0.183750 0.214375 -0.183750
v -0.183750 0.214375 0.183750
v -0.183750 0.153125 -0.183750
v -0.183750 0.153125 0.183750
v -0.183750 0.214375 -0.183750
v 0.183750 0.214375 -0.183750
v -0.183750 0.214375 0.183750
v 0.183750 0.214375 0.183750
v -0.183750 0.153125 0.183750
v 0.183750 0.153125 0.183750
v -0.183750 0.153125 -0.183750
v 0.183750 0.153125 -0.183750
v -0.183750 0.214375 0.183750
v 0.183750 0.214375 0.183750
v -0.183750 0.153125 0.183750
v 0.183750 0.153125 0.183750
v 0.183750 0.214375 -0.183750
v -0.183750 0.214375 -0.183750
v 0.183750 0.153125 -0.183750
v -0.183750 0.153125 -0.183750
vt 0.250000 0.886719
vt 0.250000 0.878906
vt 0.296875 0.886719
vt 0.296875 0.878906
vt 0.343750 0.886719
vt 0.343750 0.878906
vt 0.390625 0.886719
vt 0.390625 0.878906
vt 0.343750 0.886719
vt 0.343750 0.933594
vt 0.296875 0.886719
vt 0.296875 0.933594
vt 0.390625 0.933594
vt 0.390625 0.886719
vt 0.343750 0.933594
vt 0.343750 0.886719
vt 0.390625 0.886719
vt 0.390625 0.878906
vt 0.437500 0.886719
vt 0.437500 0.878906
vt 0.296875 0.886719
vt 0.296875 0.878906
vt 0.343750 0.886719
vt 0.343750 0.878906
vn 1.0000 0.0000 0.0000
vn -1.0000 0.0000 0.0000
vn 0.0000 1.0000 0.0000
vn 0.0000 -1.0000 0.0000
vn 0.0000 0.0000 1.0000
vn 0.0000 0.0000 -1.0000
usemtl Material_0.016
s off
f 121/121/31 123/122/31 122/123/31
f 123/122/31 124/124/31 122/123/31
f 125/125/32 127/126/32 126/127/32
f 127/126/32 128/128/32 126/127/32
f 129/129/33 131/130/33 130/131/33
f 131/130/33 132/132/33 130/131/33
f 133/133/34 135/134/34 134/135/34
f 135/134/34 136/136/34 134/135/34
f 137/137/35 139/138/35 138/139/35
f 139/138/35 140/140/35 138/139/35
f 141/141/36 143/142/36 142/143/36
f 143/142/36 144/144/36 142/143/36
o cube.006_Mesh_6.007
v 0.336875 2.174375 0.000063
v 0.336875 2.174375 0.000000
v 0.336875 1.531250 0.000063
v 0.336875 1.531250 0.000000
v 0.030625 2.174375 0.000000
v 0.030625 2.174375 0.000063
v 0.030625 1.531250 0.000000
v 0.030625 1.531250 0.000063
v 0.030625 2.174375 0.000000
v 0.336875 2.174375 0.000000
v 0.030625 2.174375 0.000063
v 0.336875 2.174375 0.000063
v 0.030625 1.531250 0.000063
v 0.336875 1.531250 0.000063
v 0.030625 1.531250 0.000000
v 0.336875 1.531250 0.000000
v 0.030625 2.174375 0.000063
v 0.336875 2.174375 0.000063
v 0.030625 1.531250 0.000063
v 0.336875 1.531250 0.000063
v 0.336875 2.174375 0.000000
v 0.030625 2.174375 0.000000
v 0.336875 1.531250 0.000000
v 0.030625 1.531250 0.000000
vt 0.281250 0.675781
vt 0.281250 0.593750
vt 0.281250 0.675781
vt 0.281250 0.593750
vt 0.320312 0.675781
vt 0.320312 0.593750
vt 0.320312 0.675781
vt 0.320312 0.593750
vt 0.320312 0.675781
vt 0.320312 0.675781
vt 0.281250 0.675781
vt 0.281250 0.675781
vt 0.359375 0.675781
vt 0.359375 0.675781
vt 0.320312 0.675781
vt 0.320312 0.675781
vt 0.320312 0.675781
vt 0.320312 0.593750
vt 0.359375 0.675781
vt 0.359375 0.593750
vt 0.281250 0.675781
vt 0.281250 0.593750
vt 0.324219 0.675781
vt 0.324219 0.593750
vn 1.0000 0.0000 0.0000
vn -1.0000 0.0000 0.0000
vn 0.0000 1.0000 0.0000
vn 0.0000 -1.0000 0.0000
vn 0.0000 0.0000 1.0000
vn 0.0000 0.0000 -1.0000
usemtl Material_0.016
s off
f 145/145/37 147/146/37 146/147/37
f 147/146/37 148/148/37 146/147/37
f 149/149/38 151/150/38 150/151/38
f 151/150/38 152/152/38 150/151/38
f 153/153/39 155/154/39 154/155/39
f 155/154/39 156/156/39 154/155/39
f 157/157/40 159/158/40 158/159/40
f 159/158/40 160/160/40 158/159/40
f 161/161/41 163/162/41 162/163/41
f 163/162/41 164/164/41 162/163/41
f 165/165/42 167/166/42 166/167/42
f 167/166/42 168/168/42 166/167/42
o cube.007_Mesh_7.006
v 0.000063 2.174375 0.367500
v 0.000063 2.174375 0.061250
v 0.000063 1.531250 0.367500
v 0.000063 1.531250 0.061250
v 0.000000 2.174375 0.061250
v 0.000000 2.174375 0.367500
v 0.000000 1.531250 0.061250
v 0.000000 1.531250 0.367500
v 0.000000 2.174375 0.061250
v 0.000063 2.174375 0.061250
v 0.000000 2.174375 0.367500
v 0.000063 2.174375 0.367500
v 0.000000 1.531250 0.367500
v 0.000063 1.531250 0.367500
v 0.000000 1.531250 0.061250
v 0.000063 1.531250 0.061250
v 0.000000 2.174375 0.367500
v 0.000063 2.174375 0.367500
v 0.000000 1.531250 0.367500
v 0.000063 1.531250 0.367500
v 0.000063 2.174375 0.061250
v 0.000000 2.174375 0.061250
v 0.000063 1.531250 0.061250
v 0.000000 1.531250 0.061250
vt 0.281250 0.675781
vt 0.281250 0.593750
vt 0.320312 0.675781
vt 0.320312 0.593750
vt 0.320312 0.675781
vt 0.320312 0.593750
vt 0.359375 0.675781
vt 0.359375 0.593750
vt 0.320312 0.675781
vt 0.320312 0.714844
vt 0.320312 0.675781
vt 0.320312 0.714844
vt 0.320312 0.714844
vt 0.320312 0.675781
vt 0.320312 0.714844
vt 0.320312 0.675781
vt 0.359375 0.675781
vt 0.359375 0.593750
vt 0.359375 0.675781
vt 0.359375 0.593750
vt 0.320312 0.675781
vt 0.320312 0.593750
vt 0.320312 0.675781
vt 0.320312 0.593750
vn 1.0000 0.0000 0.0000
vn -1.0000 0.0000 0.0000
vn 0.0000 1.0000 0.0000
vn 0.0000 -1.0000 0.0000
vn 0.0000 0.0000 1.0000
vn 0.0000 0.0000 -1.0000
usemtl Material_0.016
s off
f 169/169/43 171/170/43 170/171/43
f 171/170/43 172/172/43 170/171/43
f 173/173/44 175/174/44 174/175/44
f 175/174/44 176/176/44 174/175/44
f 177/177/45 179/178/45 178/179/45
f 179/178/45 180/180/45 178/179/45
f 181/181/46 183/182/46 182/183/46
f 183/182/46 184/184/46 182/183/46
f 185/185/47 187/186/47 186/187/47
f 187/186/47 188/188/47 186/187/47
f 189/189/48 191/190/48 190/191/48
f 191/190/48 192/192/48 190/191/48
o cube.008_Mesh_8.006
v 0.000063 2.174375 -0.061250
v 0.000063 2.174375 -0.367500
v 0.000063 1.531250 -0.061250
v 0.000063 1.531250 -0.367500
v 0.000000 2.174375 -0.367500
v 0.000000 2.174375 -0.061250
v 0.000000 1.531250 -0.367500
v 0.000000 1.531250 -0.061250
v 0.000000 2.174375 -0.367500
v 0.000063 2.174375 -0.367500
v 0.000000 2.174375 -0.061250
v 0.000063 2.174375 -0.061250
v 0.000000 1.531250 -0.061250
v 0.000063 1.531250 -0.061250
v 0.000000 1.531250 -0.367500
v 0.000063 1.531250 -0.367500
v 0.000000 2.174375 -0.061250
v 0.000063 2.174375 -0.061250
v 0.000000 1.531250 -0.061250
v 0.000063 1.531250 -0.061250
v 0.000063 2.174375 -0.367500
v 0.000000 2.174375 -0.367500
v 0.000063 1.531250 -0.367500
v 0.000000 1.531250 -0.367500
vt 0.320312 0.675781
vt 0.320312 0.593750
vt 0.281250 0.675781
vt 0.281250 0.593750
vt 0.320312 0.675781
vt 0.320312 0.593750
vt 0.359375 0.675781
vt 0.359375 0.593750
vt 0.320312 0.675781
vt 0.320312 0.714844
vt 0.320312 0.675781
vt 0.320312 0.714844
vt 0.320312 0.714844
vt 0.320312 0.675781
vt 0.320312 0.714844
vt 0.320312 0.675781
vt 0.359375 0.675781
vt 0.359375 0.593750
vt 0.359375 0.675781
vt 0.359375 0.593750
vt 0.320312 0.675781
vt 0.320312 0.593750
vt 0.320312 0.675781
vt 0.320312 0.593750
vn 1.0000 0.0000 0.0000
vn -1.0000 0.0000 0.0000
vn 0.0000 1.0000 0.0000
vn 0.0000 -1.0000 0.0000
vn 0.0000 0.0000 1.0000
vn 0.0000 0.0000 -1.0000
usemtl Material_0.016
s off
f 193/193/49 195/194/49 194/195/49
f 195/194/49 196/196/49 194/195/49
f 197/197/50 199/198/50 198/199/50
f 199/198/50 200/200/50 198/199/50
f 201/201/51 203/202/51 202/203/51
f 203/202/51 204/204/51 202/203/51
f 205/205/52 207/206/52 206/207/52
f 207/206/52 208/208/52 206/207/52
f 209/209/53 211/210/53 210/211/53
f 211/210/53 212/212/53 210/211/53
f 213/213/54 215/214/54 214/215/54
f 215/214/54 216/216/54 214/215/54
o cube.009_Mesh_9.006
v -0.061250 2.174375 0.000063
v -0.061250 2.174375 0.000000
v -0.061250 1.531250 0.000063
v -0.061250 1.531250 0.000000
v -0.367500 2.174375 0.000000
v -0.367500 2.174375 0.000063
v -0.367500 1.531250 0.000000
v -0.367500 1.531250 0.000063
v -0.367500 2.174375 0.000000
v -0.061250 2.174375 0.000000
v -0.367500 2.174375 0.000063
v -0.061250 2.174375 0.000063
v -0.367500 1.531250 0.000063
v -0.061250 1.531250 0.000063
v -0.367500 1.531250 0.000000
v -0.061250 1.531250 0.000000
v -0.367500 2.174375 0.000063
v -0.061250 2.174375 0.000063
v -0.367500 1.531250 0.000063
v -0.061250 1.531250 0.000063
v -0.061250 2.174375 0.000000
v -0.367500 2.174375 0.000000
v -0.061250 1.531250 0.000000
v -0.367500 1.531250 0.000000
vt 0.281250 0.675781
vt 0.281250 0.593750
vt 0.281250 0.675781
vt 0.281250 0.593750
vt 0.320312 0.675781
vt 0.320312 0.593750
vt 0.320312 0.675781
vt 0.320312 0.593750
vt 0.320312 0.675781
vt 0.320312 0.675781
vt 0.281250 0.675781
vt 0.281250 0.675781
vt 0.359375 0.675781
vt 0.359375 0.675781
vt 0.320312 0.675781
vt 0.320312 0.675781
vt 0.320312 0.675781
vt 0.320312 0.593750
vt 0.359375 0.675781
vt 0.359375 0.593750
vt 0.320312 0.675781
vt 0.320312 0.593750
vt 0.281250 0.675781
vt 0.281250 0.593750
vn 1.0000 0.0000 0.0000
vn -1.0000 0.0000 0.0000
vn 0.0000 1.0000 0.0000
vn 0.0000 -1.0000 0.0000
vn 0.0000 0.0000 1.0000
vn 0.0000 0.0000 -1.0000
usemtl Material_0.016
s off
f 217/217/55 219/218/55 218/219/55
f 219/218/55 220/220/55 218/219/55
f 221/221/56 223/222/56 222/223/56
f 223/222/56 224/224/56 222/223/56
f 225/225/57 227/226/57 226/227/57
f 227/226/57 228/228/57 226/227/57
f 229/229/58 231/230/58 230/231/58
f 231/230/58 232/232/58 230/231/58
f 233/233/59 235/234/59 234/235/59
f 235/234/59 236/236/59 234/235/59
f 237/237/60 239/238/60 238/239/60
f 239/238/60 240/240/60 238/239/60
o cube.010_Mesh_10.006
v -0.009014 2.817500 -0.008926
v -0.008970 2.817500 -0.008970
v -0.009014 2.480625 -0.008926
v -0.008970 2.480625 -0.008970
v -0.305645 2.817500 -0.305645
v -0.305690 2.817500 -0.305601
v -0.305645 2.480625 -0.305645
v -0.305690 2.480625 -0.305601
v -0.305645 2.817500 -0.305645
v -0.008970 2.817500 -0.008970
v -0.305690 2.817500 -0.305601
v -0.009014 2.817500 -0.008926
v -0.305690 2.480625 -0.305601
v -0.009014 2.480625 -0.008926
v -0.305645 2.480625 -0.305645
v -0.008970 2.480625 -0.008970
v -0.305690 2.817500 -0.305601
v -0.009014 2.817500 -0.008926
v -0.305690 2.480625 -0.305601
v -0.009014 2.480625 -0.008926
v -0.008970 2.817500 -0.008970
v -0.305645 2.817500 -0.305645
v -0.008970 2.480625 -0.008970
v -0.305645 2.480625 -0.305645
vt 0.078125 0.628906
vt 0.078125 0.585938
vt 0.078125 0.628906
vt 0.078125 0.585938
vt 0.128906 0.628906
vt 0.128906 0.585938
vt 0.128906 0.628906
vt 0.128906 0.585938
vt 0.128906 0.628906
vt 0.128906 0.628906
vt 0.078125 0.628906
vt 0.078125 0.628906
vt 0.179688 0.628906
vt 0.179688 0.628906
vt 0.128906 0.628906
vt 0.128906 0.628906
vt 0.128906 0.628906
vt 0.128906 0.585938
vt 0.179688 0.628906
vt 0.179688 0.585938
vt 0.128906 0.628906
vt 0.128906 0.585938
vt 0.078125 0.628906
vt 0.078125 0.585938
vn 0.7071 0.0000 0.7071
vn -0.7076 0.0000 -0.7066
vn -0.7069 0.0000 -0.7073
vn 0.0000 1.0000 0.0000
vn 0.0000 1.0000 -0.0004
vn 0.0000 -1.0000 0.0000
vn 0.0000 -1.0000 0.0014
vn -0.7071 0.0000 0.7071
vn 0.7071 0.0000 -0.7071
usemtl Material_0.016
s off
f 241/241/61 243/242/61 242/243/61
f 243/242/61 244/244/61 242/243/61
f 245/245/62 247/246/62 246/247/62
f 247/246/63 248/248/63 246/247/63
f 249/249/64 251/250/64 250/251/64
f 251/250/65 252/252/65 250/251/65
f 253/253/66 255/254/66 254/255/66
f 255/254/67 256/256/67 254/255/67
f 257/257/68 259/258/68 258/259/68
f 259/258/68 260/260/68 258/259/68
f 261/261/69 263/262/69 262/263/69
f 263/262/69 264/264/69 262/263/69
o cube.011_Mesh_11.006
v 0.295785 2.817500 0.295697
v 0.057579 2.817500 0.057490
v 0.295785 2.480625 0.295697
v 0.057579 2.480625 0.057490
v 0.057535 2.817500 0.057535
v 0.295741 2.817500 0.295741
v 0.057535 2.480625 0.057535
v 0.295741 2.480625 0.295741
v 0.057535 2.817500 0.057535
v 0.057579 2.817500 0.057490
v 0.295741 2.817500 0.295741
v 0.295785 2.817500 0.295697
v 0.295741 2.480625 0.295741
v 0.295785 2.480625 0.295697
v 0.057535 2.480625 0.057535
v 0.057579 2.480625 0.057490
v 0.295741 2.817500 0.295741
v 0.295785 2.817500 0.295697
v 0.295741 2.480625 0.295741
v 0.295785 2.480625 0.295697
v 0.057579 2.817500 0.057490
v 0.057535 2.817500 0.057535
v 0.057579 2.480625 0.057490
v 0.057535 2.480625 0.057535
vt 0.078125 0.628906
vt 0.078125 0.585938
vt 0.121094 0.628906
vt 0.121094 0.585938
vt 0.121094 0.628906
vt 0.121094 0.585938
vt 0.164062 0.628906
vt 0.164062 0.585938
vt 0.121094 0.628906
vt 0.121094 0.671875
vt 0.121094 0.628906
vt 0.121094 0.671875
vt 0.121094 0.671875
vt 0.121094 0.628906
vt 0.121094 0.671875
vt 0.121094 0.628906
vt 0.164062 0.628906
vt 0.164062 0.585938
vt 0.164062 0.628906
vt 0.164062 0.585938
vt 0.121094 0.628906
vt 0.121094 0.585938
vt 0.121094 0.628906
vt 0.121094 0.585938
vn 0.7071 0.0000 -0.7071
vn -0.7071 0.0000 0.7071
vn 0.0000 1.0000 0.0000
vn 0.0000 1.0000 -0.0057
vn 0.0000 -1.0000 0.0057
vn 0.0000 -1.0000 0.0000
vn 0.7065 0.0000 0.7078
vn 0.7068 0.0000 0.7074
vn -0.7071 0.0000 -0.7071
vn -0.7070 0.0000 -0.7072
usemtl Material_0.016
s off
f 265/265/70 267/266/70 266/267/70
f 267/266/70 268/268/70 266/267/70
f 269/269/71 271/270/71 270/271/71
f 271/270/71 272/272/71 270/271/71
f 273/273/72 275/274/72 274/275/72
f 275/274/73 276/276/73 274/275/73
f 277/277/74 279/278/74 278/279/74
f 279/278/75 280/280/75 278/279/75
f 281/281/76 283/282/76 282/283/76
f 283/282/77 284/284/77 282/283/77
f 285/285/78 287/286/78 286/287/78
f 287/286/79 288/288/79 286/287/79
o cube.012_Mesh_12.006
v -0.037012 2.817500 0.039986
v -0.036968 2.817500 0.040030
v -0.037012 2.480625 0.039986
v -0.036968 2.480625 0.040030
v 0.303018 2.817500 -0.299956
v 0.302974 2.817500 -0.300000
v 0.303018 2.480625 -0.299956
v 0.302974 2.480625 -0.300000
v 0.303018 2.817500 -0.299956
v -0.036968 2.817500 0.040030
v 0.302974 2.817500 -0.300000
v -0.037012 2.817500 0.039986
v 0.302974 2.480625 -0.300000
v -0.037012 2.480625 0.039986
v 0.303018 2.480625 -0.299956
v -0.036968 2.480625 0.040030
v 0.302974 2.817500 -0.300000
v -0.037012 2.817500 0.039986
v 0.302974 2.480625 -0.300000
v -0.037012 2.480625 0.039986
v -0.036968 2.817500 0.040030
v 0.303018 2.817500 -0.299956
v -0.036968 2.480625 0.040030
v 0.303018 2.480625 -0.299956
vt 0.078125 0.628906
vt 0.078125 0.585938
vt 0.078125 0.628906
vt 0.078125 0.585938
vt 0.136719 0.628906
vt 0.136719 0.585938
vt 0.136719 0.628906
vt 0.136719 0.585938
vt 0.136719 0.628906
vt 0.136719 0.628906
vt 0.078125 0.628906
vt 0.078125 0.628906
vt 0.195312 0.628906
vt 0.195312 0.628906
vt 0.136719 0.628906
vt 0.136719 0.628906
vt 0.136719 0.628906
vt 0.136719 0.585938
vt 0.195312 0.628906
vt 0.195312 0.585938
vt 0.136719 0.628906
vt 0.136719 0.585938
vt 0.078125 0.628906
vt 0.078125 0.585938
vn -0.7071 0.0000 0.7071
vn -0.7072 0.0000 0.7070
vn 0.7070 0.0000 -0.7072
vn 0.7074 0.0000 -0.7068
vn 0.0000 1.0000 0.0000
vn 0.0000 -1.0000 0.0000
vn 0.0000 -1.0000 0.0009
vn -0.7071 0.0000 -0.7071
vn 0.7071 0.0000 0.7071
usemtl Material_0.016
s off
f 289/289/80 291/290/80 290/291/80
f 291/290/81 292/292/81 290/291/81
f 293/293/82 295/294/82 294/295/82
f 295/294/83 296/296/83 294/295/83
f 297/297/84 299/298/84 298/299/84
f 299/298/84 300/300/84 298/299/84
f 301/301/85 303/302/85 302/303/85
f 303/302/86 304/304/86 302/303/86
f 305/305/87 307/306/87 306/307/87
f 307/306/87 308/308/87 306/307/87
f 309/309/88 311/310/88 310/311/88
f 311/310/88 312/312/88 310/311/88
o cube.013_Mesh_13.006
v -0.301019 2.817500 0.313550
v -0.052739 2.817500 0.042601
v -0.301019 2.480625 0.313550
v -0.052739 2.480625 0.042601
v -0.052785 2.817500 0.042559
v -0.301065 2.817500 0.313508
v -0.052785 2.480625 0.042559
v -0.301065 2.480625 0.313508
v -0.052785 2.817500 0.042559
v -0.052739 2.817500 0.042601
v -0.301065 2.817500 0.313508
v -0.301019 2.817500 0.313550
v -0.301065 2.480625 0.313508
v -0.301019 2.480625 0.313550
v -0.052785 2.480625 0.042559
v -0.052739 2.480625 0.042601
v -0.301065 2.817500 0.313508
v -0.301019 2.817500 0.313550
v -0.301065 2.480625 0.313508
v -0.301019 2.480625 0.313550
v -0.052739 2.817500 0.042601
v -0.052785 2.817500 0.042559
v -0.052739 2.480625 0.042601
v -0.052785 2.480625 0.042559
vt 0.078125 0.628906
vt 0.078125 0.585938
vt 0.125000 0.628906
vt 0.125000 0.585938
vt 0.125000 0.628906
vt 0.125000 0.585938
vt 0.171875 0.628906
vt 0.171875 0.585938
vt 0.125000 0.628906
vt 0.125000 0.675781
vt 0.125000 0.628906
vt 0.125000 0.675781
vt 0.125000 0.675781
vt 0.125000 0.628906
vt 0.125000 0.675781
vt 0.125000 0.628906
vt 0.171875 0.628906
vt 0.171875 0.585938
vt 0.171875 0.628906
vt 0.171875 0.585938
vt 0.125000 0.628906
vt 0.125000 0.585938
vt 0.125000 0.628906
vt 0.125000 0.585938
vn 0.7373 0.0000 0.6756
vn -0.7373 0.0000 -0.6756
vn 0.0000 1.0000 0.0000
vn 0.0000 -1.0000 0.0052
vn 0.0000 -1.0000 -0.0052
vn -0.6754 0.0000 0.7374
vn -0.6758 0.0000 0.7371
vn 0.6756 0.0000 -0.7373
vn 0.6757 0.0000 -0.7372
usemtl Material_0.016
s off
f 313/313/89 315/314/89 314/315/89
f 315/314/89 316/316/89 314/315/89
f 317/317/90 319/318/90 318/319/90
f 319/318/90 320/320/90 318/319/90
f 321/321/91 323/322/91 322/323/91
f 323/322/91 324/324/91 322/323/91
f 325/325/92 327/326/92 326/327/92
f 327/326/93 328/328/93 326/327/93
f 329/329/94 331/330/94 330/331/94
f 331/330/95 332/332/95 330/331/95
f 333/333/96 335/334/96 334/335/96
f 335/334/97 336/336/97 334/335/97
o cube.014_Mesh_14.006
v 0.214375 2.174375 0.214375
v 0.214375 2.174375 -0.214375
v 0.214375 2.113125 0.214375
v 0.214375 2.113125 -0.214375
v -0.214375 2.174375 -0.214375
v -0.214375 2.174375 0.214375
v -0.214375 2.113125 -0.214375
v -0.214375 2.113125 0.214375
v -0.214375 2.174375 -0.214375
v 0.214375 2.174375 -0.214375
v -0.214375 2.174375 0.214375
v 0.214375 2.174375 0.214375
v -0.214375 2.113125 0.214375
v 0.214375 2.113125 0.214375
v -0.214375 2.113125 -0.214375
v 0.214375 2.113125 -0.214375
v -0.214375 2.174375 0.214375
v 0.214375 2.174375 0.214375
v -0.214375 2.113125 0.214375
v 0.214375 2.113125 0.214375
v 0.214375 2.174375 -0.214375
v -0.214375 2.174375 -0.214375
v 0.214375 2.113125 -0.214375
v -0.214375 2.113125 -0.214375
vt 0.000000 0.738281
vt 0.000000 0.730469
vt 0.054688 0.738281
vt 0.054688 0.730469
vt 0.109375 0.738281
vt 0.109375 0.730469
vt 0.164062 0.738281
vt 0.164062 0.730469
vt 0.109375 0.738281
vt 0.109375 0.792969
vt 0.054688 0.738281
vt 0.054688 0.792969
vt 0.164062 0.792969
vt 0.164062 0.738281
vt 0.109375 0.792969
vt 0.109375 0.738281
vt 0.164062 0.738281
vt 0.164062 0.730469
vt 0.218750 0.738281
vt 0.218750 0.730469
vt 0.054688 0.738281
vt 0.054688 0.730469
vt 0.109375 0.738281
vt 0.109375 0.730469
vn 1.0000 0.0000 0.0000
vn -1.0000 0.0000 0.0000
vn 0.0000 1.0000 0.0000
vn 0.0000 -1.0000 0.0000
vn 0.0000 0.0000 1.0000
vn 0.0000 0.0000 -1.0000
usemtl Material_0.016
s off
f 337/337/98 339/338/98 338/339/98
f 339/338/98 340/340/98 338/339/98
f 341/341/99 343/342/99 342/343/99
f 343/342/99 344/344/99 342/343/99
f 345/345/100 347/346/100 346/347/100
f 347/346/100 348/348/100 346/347/100
f 349/349/101 351/350/101 350/351/101
f 351/350/101 352/352/101 350/351/101
f 353/353/102 355/354/102 354/355/102
f 355/354/102 356/356/102 354/355/102
f 357/357/103 359/358/103 358/359/103
f 359/358/103 360/360/103 358/359/103
o cube.015_Mesh_15.006
v 0.183750 2.480625 0.183750
v 0.183750 2.480625 -0.183750
v 0.183750 2.327500 0.183750
v 0.183750 2.327500 -0.183750
v -0.183750 2.480625 -0.183750
v -0.183750 2.480625 0.183750
v -0.183750 2.327500 -0.183750
v -0.183750 2.327500 0.183750
v -0.183750 2.480625 -0.183750
v 0.183750 2.480625 -0.183750
v -0.183750 2.480625 0.183750
v 0.183750 2.480625 0.183750
v -0.183750 2.327500 0.183750
v 0.183750 2.327500 0.183750
v -0.183750 2.327500 -0.183750
v 0.183750 2.327500 -0.183750
v -0.183750 2.480625 0.183750
v 0.183750 2.480625 0.183750
v -0.183750 2.327500 0.183750
v 0.183750 2.327500 0.183750
v 0.183750 2.480625 -0.183750
v -0.183750 2.480625 -0.183750
v 0.183750 2.327500 -0.183750
v -0.183750 2.327500 -0.183750
vt 0.250000 0.953125
vt 0.250000 0.933594
vt 0.296875 0.953125
vt 0.296875 0.933594
vt 0.343750 0.953125
vt 0.343750 0.933594
vt 0.390625 0.953125
vt 0.390625 0.933594
vt 0.343750 0.953125
vt 0.343750 1.000000
vt 0.296875 0.953125
vt 0.296875 1.000000
vt 0.390625 1.000000
vt 0.390625 0.953125
vt 0.343750 1.000000
vt 0.343750 0.953125
vt 0.390625 0.953125
vt 0.390625 0.933594
vt 0.437500 0.953125
vt 0.437500 0.933594
vt 0.296875 0.953125
vt 0.296875 0.933594
vt 0.343750 0.953125
vt 0.343750 0.933594
vn 1.0000 0.0000 0.0000
vn -1.0000 0.0000 0.0000
vn 0.0000 1.0000 0.0000
vn 0.0000 -1.0000 0.0000
vn 0.0000 0.0000 1.0000
vn 0.0000 0.0000 -1.0000
usemtl Material_0.016
s off
f 361/361/104 363/362/104 362/363/104
f 363/362/104 364/364/104 362/363/104
f 365/365/105 367/366/105 366/367/105
f 367/366/105 368/368/105 366/367/105
f 369/369/106 371/370/106 370/371/106
f 371/370/106 372/372/106 370/371/106
f 373/373/107 375/374/107 374/375/107
f 375/374/107 376/376/107 374/375/107
f 377/377/108 379/378/108 378/379/108
f 379/378/108 380/380/108 378/379/108
f 381/381/109 383/382/109 382/383/109
f 383/382/109 384/384/109 382/383/109
o cube.016_Mesh_16.006
v 0.153125 2.327500 0.153125
v 0.153125 2.327500 -0.153125
v 0.153125 2.174375 0.153125
v 0.153125 2.174375 -0.153125
v -0.153125 2.327500 -0.153125
v -0.153125 2.327500 0.153125
v -0.153125 2.174375 -0.153125
v -0.153125 2.174375 0.153125
v -0.153125 2.327500 -0.153125
v 0.153125 2.327500 -0.153125
v -0.153125 2.327500 0.153125
v 0.153125 2.327500 0.153125
v -0.153125 2.174375 0.153125
v 0.153125 2.174375 0.153125
v -0.153125 2.174375 -0.153125
v 0.153125 2.174375 -0.153125
v -0.153125 2.327500 0.153125
v 0.153125 2.327500 0.153125
v -0.153125 2.174375 0.153125
v 0.153125 2.174375 0.153125
v 0.153125 2.327500 -0.153125
v -0.153125 2.327500 -0.153125
v 0.153125 2.174375 -0.153125
v -0.153125 2.174375 -0.153125
vt 0.281250 0.789062
vt 0.281250 0.769531
vt 0.320312 0.789062
vt 0.320312 0.769531
vt 0.359375 0.789062
vt 0.359375 0.769531
vt 0.398438 0.789062
vt 0.398438 0.769531
vt 0.359375 0.789062
vt 0.359375 0.828125
vt 0.320312 0.789062
vt 0.320312 0.828125
vt 0.398438 0.828125
vt 0.398438 0.789062
vt 0.359375 0.828125
vt 0.359375 0.789062
vt 0.398438 0.789062
vt 0.398438 0.769531
vt 0.437500 0.789062
vt 0.437500 0.769531
vt 0.320312 0.789062
vt 0.320312 0.769531
vt 0.359375 0.789062
vt 0.359375 0.769531
vn 1.0000 0.0000 0.0000
vn -1.0000 0.0000 0.0000
vn 0.0000 1.0000 0.0000
vn 0.0000 -1.0000 0.0000
vn 0.0000 0.0000 1.0000
vn 0.0000 0.0000 -1.0000
usemtl Material_0.016
s off
f 385/385/110 387/386/110 386/387/110
f 387/386/110 388/388/110 386/387/110
f 389/389/111 391/390/111 390/391/111
f 391/390/111 392/392/111 390/391/111
f 393/393/112 395/394/112 394/395/112
f 395/394/112 396/396/112 394/395/112
f 397/397/113 399/398/113 398/399/113
f 399/398/113 400/400/113 398/399/113
f 401/401/114 403/402/114 402/403/114
f 403/402/114 404/404/114 402/403/114
f 405/405/115 407/406/115 406/407/115
f 407/406/115 408/408/115 406/407/115
o cube.017_Mesh_17.006
v 0.245000 2.541875 0.245000
v 0.245000 2.541875 -0.245000
v 0.245000 2.480625 0.245000
v 0.245000 2.480625 -0.245000
v -0.245000 2.541875 -0.245000
v -0.245000 2.541875 0.245000
v -0.245000 2.480625 -0.245000
v -0.245000 2.480625 0.245000
v -0.245000 2.541875 -0.245000
v 0.245000 2.541875 -0.245000
v -0.245000 2.541875 0.245000
v 0.245000 2.541875 0.245000
v -0.245000 2.480625 0.245000
v 0.245000 2.480625 0.245000
v -0.245000 2.480625 -0.245000
v 0.245000 2.480625 -0.245000
v -0.245000 2.541875 0.245000
v 0.245000 2.541875 0.245000
v -0.245000 2.480625 0.245000
v 0.245000 2.480625 0.245000
v 0.245000 2.541875 -0.245000
v -0.245000 2.541875 -0.245000
v 0.245000 2.480625 -0.245000
v -0.245000 2.480625 -0.245000
vt 0.000000 0.867188
vt 0.000000 0.859375
vt 0.062500 0.867188
vt 0.062500 0.859375
vt 0.125000 0.867188
vt 0.125000 0.859375
vt 0.187500 0.867188
vt 0.187500 0.859375
vt 0.125000 0.867188
vt 0.125000 0.929688
vt 0.062500 0.867188
vt 0.062500 0.929688
vt 0.187500 0.929688
vt 0.187500 0.867188
vt 0.125000 0.929688
vt 0.125000 0.867188
vt 0.187500 0.867188
vt 0.187500 0.859375
vt 0.250000 0.867188
vt 0.250000 0.859375
vt 0.062500 0.867188
vt 0.062500 0.859375
vt 0.125000 0.867188
vt 0.125000 0.859375
vn 1.0000 0.0000 0.0000
vn -1.0000 0.0000 0.0000
vn 0.0000 1.0000 0.0000
vn 0.0000 -1.0000 0.0000
vn 0.0000 0.0000 1.0000
vn 0.0000 0.0000 -1.0000
usemtl Material_0.016
s off
f 409/409/116 411/410/116 410/411/116
f 411/410/116 412/412/116 410/411/116
f 413/413/117 415/414/117 414/415/117
f 415/414/117 416/416/117 414/415/117
f 417/417/118 419/418/118 418/419/118
f 419/418/118 420/420/118 418/419/118
f 421/421/119 423/422/119 422/423/119
f 423/422/119 424/424/119 422/423/119
f 425/425/120 427/426/120 426/427/120
f 427/426/120 428/428/120 426/427/120
f 429/429/121 431/430/121 430/431/121
f 431/430/121 432/432/121 430/431/121
o cube.018_Mesh_18.006
v 0.183750 2.603125 0.183750
v 0.183750 2.603125 -0.183750
v 0.183750 2.541875 0.183750
v 0.183750 2.541875 -0.183750
v -0.183750 2.603125 -0.183750
v -0.183750 2.603125 0.183750
v -0.183750 2.541875 -0.183750
v -0.183750 2.541875 0.183750
v -0.183750 2.603125 -0.183750
v 0.183750 2.603125 -0.183750
v -0.183750 2.603125 0.183750
v 0.183750 2.603125 0.183750
v -0.183750 2.541875 0.183750
v 0.183750 2.541875 0.183750
v -0.183750 2.541875 -0.183750
v 0.183750 2.541875 -0.183750
v -0.183750 2.603125 0.183750
v 0.183750 2.603125 0.183750
v -0.183750 2.541875 0.183750
v 0.183750 2.541875 0.183750
v 0.183750 2.603125 -0.183750
v -0.183750 2.603125 -0.183750
v 0.183750 2.541875 -0.183750
v -0.183750 2.541875 -0.183750
vt 0.000000 0.683594
vt 0.000000 0.675781
vt 0.046875 0.683594
vt 0.046875 0.675781
vt 0.093750 0.683594
vt 0.093750 0.675781
vt 0.140625 0.683594
vt 0.140625 0.675781
vt 0.093750 0.683594
vt 0.093750 0.730469
vt 0.046875 0.683594
vt 0.046875 0.730469
vt 0.140625 0.730469
vt 0.140625 0.683594
vt 0.093750 0.730469
vt 0.093750 0.683594
vt 0.140625 0.683594
vt 0.140625 0.675781
vt 0.187500 0.683594
vt 0.187500 0.675781
vt 0.046875 0.683594
vt 0.046875 0.675781
vt 0.093750 0.683594
vt 0.093750 0.675781
vn 1.0000 0.0000 0.0000
vn -1.0000 0.0000 0.0000
vn 0.0000 1.0000 0.0000
vn 0.0000 -1.0000 0.0000
vn 0.0000 0.0000 1.0000
vn 0.0000 0.0000 -1.0000
usemtl Material_0.016
s off
f 433/433/122 435/434/122 434/435/122
f 435/434/122 436/436/122 434/435/122
f 437/437/123 439/438/123 438/439/123
f 439/438/123 440/440/123 438/439/123
f 441/441/124 443/442/124 442/443/124
f 443/442/124 444/444/124 442/443/124
f 445/445/125 447/446/125 446/447/125
f 447/446/125 448/448/125 446/447/125
f 449/449/126 451/450/126 450/451/126
f 451/450/126 452/452/126 450/451/126
f 453/453/127 455/454/127 454/455/127
f 455/454/127 456/456/127 454/455/127
o cube.019_Mesh_19.006
v 0.122500 2.756250 0.122500
v 0.122500 2.756250 -0.122500
v 0.122500 2.603125 0.122500
v 0.122500 2.603125 -0.122500
v -0.122500 2.756250 -0.122500
v -0.122500 2.756250 0.122500
v -0.122500 2.603125 -0.122500
v -0.122500 2.603125 0.122500
v -0.122500 2.756250 -0.122500
v 0.122500 2.756250 -0.122500
v -0.122500 2.756250 0.122500
v 0.122500 2.756250 0.122500
v -0.122500 2.603125 0.122500
v 0.122500 2.603125 0.122500
v -0.122500 2.603125 -0.122500
v 0.122500 2.603125 -0.122500
v -0.122500 2.756250 0.122500
v 0.122500 2.756250 0.122500
v -0.122500 2.603125 0.122500
v 0.122500 2.603125 0.122500
v 0.122500 2.756250 -0.122500
v -0.122500 2.756250 -0.122500
v 0.122500 2.603125 -0.122500
v -0.122500 2.603125 -0.122500
vt 0.359375 0.683594
vt 0.359375 0.664062
vt 0.390625 0.683594
vt 0.390625 0.664062
vt 0.421875 0.683594
vt 0.421875 0.664062
vt 0.453125 0.683594
vt 0.453125 0.664062
vt 0.421875 0.683594
vt 0.421875 0.714844
vt 0.390625 0.683594
vt 0.390625 0.714844
vt 0.453125 0.714844
vt 0.453125 0.683594
vt 0.421875 0.714844
vt 0.421875 0.683594
vt 0.453125 0.683594
vt 0.453125 0.664062
vt 0.484375 0.683594
vt 0.484375 0.664062
vt 0.390625 0.683594
vt 0.390625 0.664062
vt 0.421875 0.683594
vt 0.421875 0.664062
vn 1.0000 0.0000 0.0000
vn -1.0000 0.0000 0.0000
vn 0.0000 1.0000 0.0000
vn 0.0000 -1.0000 0.0000
vn 0.0000 0.0000 1.0000
vn 0.0000 0.0000 -1.0000
usemtl Material_0.016
s off
f 457/457/128 459/458/128 458/459/128
f 459/458/128 460/460/128 458/459/128
f 461/461/129 463/462/129 462/463/129
f 463/462/129 464/464/129 462/463/129
f 465/465/130 467/466/130 466/467/130
f 467/466/130 468/468/130 466/467/130
f 469/469/131 471/470/131 470/471/131
f 471/470/131 472/472/131 470/471/131
f 473/473/132 475/474/132 474/475/132
f 475/474/132 476/476/132 474/475/132
f 477/477/133 479/478/133 478/479/133
f 479/478/133 480/480/133 478/479/133
o cube.020_Mesh_20.006
v 0.183750 2.113125 0.183750
v 0.183750 2.113125 -0.183750
v 0.183750 2.082500 0.183750
v 0.183750 2.082500 -0.183750
v -0.183750 2.113125 -0.183750
v -0.183750 2.113125 0.183750
v -0.183750 2.082500 -0.183750
v -0.183750 2.082500 0.183750
v -0.183750 2.113125 -0.183750
v 0.183750 2.113125 -0.183750
v -0.183750 2.113125 0.183750
v 0.183750 2.113125 0.183750
v -0.183750 2.082500 0.183750
v 0.183750 2.082500 0.183750
v -0.183750 2.082500 -0.183750
v 0.183750 2.082500 -0.183750
v -0.183750 2.113125 0.183750
v 0.183750 2.113125 0.183750
v -0.183750 2.082500 0.183750
v 0.183750 2.082500 0.183750
v 0.183750 2.113125 -0.183750
v -0.183750 2.113125 -0.183750
v 0.183750 2.082500 -0.183750
v -0.183750 2.082500 -0.183750
vt 0.281250 0.832031
vt 0.281250 0.828125
vt 0.328125 0.832031
vt 0.328125 0.828125
vt 0.375000 0.832031
vt 0.375000 0.828125
vt 0.421875 0.832031
vt 0.421875 0.828125
vt 0.375000 0.832031
vt 0.375000 0.878906
vt 0.328125 0.832031
vt 0.328125 0.878906
vt 0.421875 0.878906
vt 0.421875 0.832031
vt 0.375000 0.878906
vt 0.375000 0.832031
vt 0.421875 0.832031
vt 0.421875 0.828125
vt 0.468750 0.832031
vt 0.468750 0.828125
vt 0.328125 0.832031
vt 0.328125 0.828125
vt 0.375000 0.832031
vt 0.375000 0.828125
vn 1.0000 0.0000 0.0000
vn -1.0000 0.0000 0.0000
vn 0.0000 1.0000 0.0000
vn 0.0000 -1.0000 0.0000
vn 0.0000 0.0000 1.0000
vn 0.0000 0.0000 -1.0000
usemtl Material_0.016
s off
f 481/481/134 483/482/134 482/483/134
f 483/482/134 484/484/134 482/483/134
f 485/485/135 487/486/135 486/487/135
f 487/486/135 488/488/135 486/487/135
f 489/489/136 491/490/136 490/491/136
f 491/490/136 492/492/136 490/491/136
f 493/493/137 495/494/137 494/495/137
f 495/494/137 496/496/137 494/495/137
f 497/497/138 499/498/138 498/499/138
f 499/498/138 500/500/138 498/499/138
f 501/501/139 503/502/139 502/503/139
f 503/502/139 504/504/139 502/503/139
o cube.021_Mesh_21.006
v 0.061250 2.909375 0.061250
v 0.061250 2.909375 -0.061250
v 0.061250 2.756250 0.061250
v 0.061250 2.756250 -0.061250
v -0.061250 2.909375 -0.061250
v -0.061250 2.909375 0.061250
v -0.061250 2.756250 -0.061250
v -0.061250 2.756250 0.061250
v -0.061250 2.909375 -0.061250
v 0.061250 2.909375 -0.061250
v -0.061250 2.909375 0.061250
v 0.061250 2.909375 0.061250
v -0.061250 2.756250 0.061250
v 0.061250 2.756250 0.061250
v -0.061250 2.756250 -0.061250
v 0.061250 2.756250 -0.061250
v -0.061250 2.909375 0.061250
v 0.061250 2.909375 0.061250
v -0.061250 2.756250 0.061250
v 0.061250 2.756250 0.061250
v 0.061250 2.909375 -0.061250
v -0.061250 2.909375 -0.061250
v 0.061250 2.756250 -0.061250
v -0.061250 2.756250 -0.061250
vt 0.195312 0.562500
vt 0.195312 0.542969
vt 0.210938 0.562500
vt 0.210938 0.542969
vt 0.226562 0.562500
vt 0.226562 0.542969
vt 0.242188 0.562500
vt 0.242188 0.542969
vt 0.226562 0.562500
vt 0.226562 0.578125
vt 0.210938 0.562500
vt 0.210938 0.578125
vt 0.242188 0.578125
vt 0.242188 0.562500
vt 0.226562 0.578125
vt 0.226562 0.562500
vt 0.242188 0.562500
vt 0.242188 0.542969
vt 0.257812 0.562500
vt 0.257812 0.542969
vt 0.210938 0.562500
vt 0.210938 0.542969
vt 0.226562 0.562500
vt 0.226562 0.542969
vn 1.0000 0.0000 0.0000
vn -1.0000 0.0000 0.0000
vn 0.0000 1.0000 0.0000
vn 0.0000 -1.0000 0.0000
vn 0.0000 0.0000 1.0000
vn 0.0000 0.0000 -1.0000
usemtl Material_0.016
s off
f 505/505/140 507/506/140 506/507/140
f 507/506/140 508/508/140 506/507/140
f 509/509/141 511/510/141 510/511/141
f 511/510/141 512/512/141 510/511/141
f 513/513/142 515/514/142 514/515/142
f 515/514/142 516/516/142 514/515/142
f 517/517/143 519/518/143 518/519/143
f 519/518/143 520/520/143 518/519/143
f 521/521/144 523/522/144 522/523/144
f 523/522/144 524/524/144 522/523/144
f 525/525/145 527/526/145 526/527/145
f 527/526/145 528/528/145 526/527/145
o cube.022_Mesh_22.006
v 0.030625 3.093125 0.030625
v 0.030625 3.093125 -0.030625
v 0.030625 2.909375 0.030625
v 0.030625 2.909375 -0.030625
v -0.030625 3.093125 -0.030625
v -0.030625 3.093125 0.030625
v -0.030625 2.909375 -0.030625
v -0.030625 2.909375 0.030625
v -0.030625 3.093125 -0.030625
v 0.030625 3.093125 -0.030625
v -0.030625 3.093125 0.030625
v 0.030625 3.093125 0.030625
v -0.030625 2.909375 0.030625
v 0.030625 2.909375 0.030625
v -0.030625 2.909375 -0.030625
v 0.030625 2.909375 -0.030625
v -0.030625 3.093125 0.030625
v 0.030625 3.093125 0.030625
v -0.030625 2.909375 0.030625
v 0.030625 2.909375 0.030625
v 0.030625 3.093125 -0.030625
v -0.030625 3.093125 -0.030625
v 0.030625 2.909375 -0.030625
v -0.030625 2.909375 -0.030625
vt 0.187500 0.722656
vt 0.187500 0.699219
vt 0.195312 0.722656
vt 0.195312 0.699219
vt 0.203125 0.722656
vt 0.203125 0.699219
vt 0.210938 0.722656
vt 0.210938 0.699219
vt 0.203125 0.722656
vt 0.203125 0.730469
vt 0.195312 0.722656
vt 0.195312 0.730469
vt 0.210938 0.730469
vt 0.210938 0.722656
vt 0.203125 0.730469
vt 0.203125 0.722656
vt 0.210938 0.722656
vt 0.210938 0.699219
vt 0.218750 0.722656
vt 0.218750 0.699219
vt 0.195312 0.722656
vt 0.195312 0.699219
vt 0.203125 0.722656
vt 0.203125 0.699219
vn 1.0000 0.0000 0.0000
vn -1.0000 0.0000 0.0000
vn 0.0000 1.0000 0.0000
vn 0.0000 -1.0000 0.0000
vn 0.0000 0.0000 1.0000
vn 0.0000 0.0000 -1.0000
usemtl Material_0.016
s off
f 529/529/146 531/530/146 530/531/146
f 531/530/146 532/532/146 530/531/146
f 533/533/147 535/534/147 534/535/147
f 535/534/147 536/536/147 534/535/147
f 537/537/148 539/538/148 538/539/148
f 539/538/148 540/540/148 538/539/148
f 541/541/149 543/542/149 542/543/149
f 543/542/149 544/544/149 542/543/149
f 545/545/150 547/546/150 546/547/150
f 547/546/150 548/548/150 546/547/150
f 549/549/151 551/550/151 550/551/151
f 551/550/151 552/552/151 550/551/151
o cube.023_Mesh_23.006
v 0.091875 2.480625 0.091875
v 0.091875 2.480625 -0.091875
v 0.091875 2.174375 0.091875
v 0.091875 2.174375 -0.091875
v -0.091875 2.480625 -0.091875
v -0.091875 2.480625 0.091875
v -0.091875 2.174375 -0.091875
v -0.091875 2.174375 0.091875
v -0.091875 2.480625 -0.091875
v 0.091875 2.480625 -0.091875
v -0.091875 2.480625 0.091875
v 0.091875 2.480625 0.091875
v -0.091875 2.174375 0.091875
v 0.091875 2.174375 0.091875
v -0.091875 2.174375 -0.091875
v 0.091875 2.174375 -0.091875
v -0.091875 2.480625 0.091875
v 0.091875 2.480625 0.091875
v -0.091875 2.174375 0.091875
v 0.091875 2.174375 0.091875
v 0.091875 2.480625 -0.091875
v -0.091875 2.480625 -0.091875
v 0.091875 2.174375 -0.091875
v -0.091875 2.174375 -0.091875
vt 0.550781 0.273438
vt 0.550781 0.234375
vt 0.574219 0.273438
vt 0.574219 0.234375
vt 0.597656 0.273438
vt 0.597656 0.234375
vt 0.621094 0.273438
vt 0.621094 0.234375
vt 0.597656 0.273438
vt 0.597656 0.296875
vt 0.574219 0.273438
vt 0.574219 0.296875
vt 0.621094 0.296875
vt 0.621094 0.273438
vt 0.597656 0.296875
vt 0.597656 0.273438
vt 0.621094 0.273438
vt 0.621094 0.234375
vt 0.644531 0.273438
vt 0.644531 0.234375
vt 0.574219 0.273438
vt 0.574219 0.234375
vt 0.597656 0.273438
vt 0.597656 0.234375
vn 1.0000 0.0000 0.0000
vn -1.0000 0.0000 0.0000
vn 0.0000 1.0000 0.0000
vn 0.0000 -1.0000 0.0000
vn 0.0000 0.0000 1.0000
vn 0.0000 0.0000 -1.0000
usemtl Material_0.016
s off
f 553/553/152 555/554/152 554/555/152
f 555/554/152 556/556/152 554/555/152
f 557/557/153 559/558/153 558/559/153
f 559/558/153 560/560/153 558/559/153
f 561/561/154 563/562/154 562/563/154
f 563/562/154 564/564/154 562/563/154
f 565/565/155 567/566/155 566/567/155
f 567/566/155 568/568/155 566/567/155
f 569/569/156 571/570/156 570/571/156
f 571/570/156 572/572/156 570/571/156
f 573/573/157 575/574/157 574/575/157
f 575/574/157 576/576/157 574/575/157
