# Blender 4.4.3
# www.blender.org
mtllib lamp_post_regular.mtl
o cube
v 0.500000 0.125000 0.500000
v 0.500000 0.125000 -0.500000
v 0.500000 0.000000 0.500000
v 0.500000 0.000000 -0.500000
v -0.500000 0.125000 -0.500000
v -0.500000 0.125000 0.500000
v -0.500000 0.000000 -0.500000
v -0.500000 0.000000 0.500000
v -0.500000 0.125000 -0.500000
v 0.500000 0.125000 -0.500000
v -0.500000 0.125000 0.500000
v 0.500000 0.125000 0.500000
v -0.500000 0.000000 0.500000
v 0.500000 0.000000 0.500000
v -0.500000 0.000000 -0.500000
v 0.500000 0.000000 -0.500000
v -0.500000 0.125000 0.500000
v 0.500000 0.125000 0.500000
v -0.500000 0.000000 0.500000
v 0.500000 0.000000 0.500000
v 0.500000 0.125000 -0.500000
v -0.500000 0.125000 -0.500000
v 0.500000 0.000000 -0.500000
v -0.500000 0.000000 -0.500000
vn 1.0000 -0.0000 -0.0000
vn -1.0000 -0.0000 -0.0000
vn -0.0000 1.0000 -0.0000
vn -0.0000 -1.0000 -0.0000
vn -0.0000 -0.0000 1.0000
vn -0.0000 -0.0000 -1.0000
vt 0.000061 0.937439
vt 0.000061 0.929749
vt 0.062439 0.937439
vt 0.062439 0.929749
vt 0.125061 0.937439
vt 0.125061 0.929749
vt 0.187439 0.937439
vt 0.187439 0.929749
vt 0.124939 0.937561
vt 0.124939 0.999939
vt 0.062561 0.937561
vt 0.062561 0.999939
vt 0.187439 0.999939
vt 0.187439 0.937561
vt 0.125061 0.999939
vt 0.125061 0.937561
vt 0.187561 0.937439
vt 0.187561 0.929749
vt 0.249939 0.937439
vt 0.249939 0.929749
vt 0.062561 0.937439
vt 0.062561 0.929749
vt 0.124939 0.937439
vt 0.124939 0.929749
s 0
usemtl texture0
f 1/1/1 3/2/1 2/3/1
f 3/2/1 4/4/1 2/3/1
f 5/5/2 7/6/2 6/7/2
f 7/6/2 8/8/2 6/7/2
f 9/9/3 11/10/3 10/11/3
f 11/10/3 12/12/3 10/11/3
f 13/13/4 15/14/4 14/15/4
f 15/14/4 16/16/4 14/15/4
f 17/17/5 19/18/5 18/19/5
f 19/18/5 20/20/5 18/19/5
f 21/21/6 23/22/6 22/23/6
f 23/22/6 24/24/6 22/23/6
o cube.001
v 0.437500 0.312500 0.437500
v 0.437500 0.312500 -0.437500
v 0.437500 0.125000 0.437500
v 0.437500 0.125000 -0.437500
v -0.437500 0.312500 -0.437500
v -0.437500 0.312500 0.437500
v -0.437500 0.125000 -0.437500
v -0.437500 0.125000 0.437500
v -0.437500 0.312500 -0.437500
v 0.437500 0.312500 -0.437500
v -0.437500 0.312500 0.437500
v 0.437500 0.312500 0.437500
v -0.437500 0.125000 0.437500
v 0.437500 0.125000 0.437500
v -0.437500 0.125000 -0.437500
v 0.437500 0.125000 -0.437500
v -0.437500 0.312500 0.437500
v 0.437500 0.312500 0.437500
v -0.437500 0.125000 0.437500
v 0.437500 0.125000 0.437500
v 0.437500 0.312500 -0.437500
v -0.437500 0.312500 -0.437500
v 0.437500 0.125000 -0.437500
v -0.437500 0.125000 -0.437500
vn 1.0000 -0.0000 -0.0000
vn -1.0000 -0.0000 -0.0000
vn -0.0000 1.0000 -0.0000
vn -0.0000 -1.0000 -0.0000
vn -0.0000 -0.0000 1.0000
vn -0.0000 -0.0000 -1.0000
vt 0.000061 0.804626
vt 0.000061 0.793030
vt 0.054626 0.804626
vt 0.054626 0.793030
vt 0.109436 0.804626
vt 0.109436 0.793030
vt 0.164001 0.804626
vt 0.164001 0.793030
vt 0.109314 0.804749
vt 0.109314 0.859314
vt 0.054749 0.804749
vt 0.054749 0.859314
vt 0.164001 0.859314
vt 0.164001 0.804749
vt 0.109436 0.859314
vt 0.109436 0.804749
vt 0.164124 0.804626
vt 0.164124 0.793030
vt 0.218689 0.804626
vt 0.218689 0.793030
vt 0.054749 0.804626
vt 0.054749 0.793030
vt 0.109314 0.804626
vt 0.109314 0.793030
s 0
usemtl texture0
f 25/25/7 27/26/7 26/27/7
f 27/26/7 28/28/7 26/27/7
f 29/29/8 31/30/8 30/31/8
f 31/30/8 32/32/8 30/31/8
f 33/33/9 35/34/9 34/35/9
f 35/34/9 36/36/9 34/35/9
f 37/37/10 39/38/10 38/39/10
f 39/38/10 40/40/10 38/39/10
f 41/41/11 43/42/11 42/43/11
f 43/42/11 44/44/11 42/43/11
f 45/45/12 47/46/12 46/47/12
f 47/46/12 48/48/12 46/47/12
o cube.002
v 0.312500 0.687500 0.312500
v 0.312500 0.687500 -0.312500
v 0.312500 0.437500 0.312500
v 0.312500 0.437500 -0.312500
v -0.312500 0.687500 -0.312500
v -0.312500 0.687500 0.312500
v -0.312500 0.437500 -0.312500
v -0.312500 0.437500 0.312500
v -0.312500 0.687500 -0.312500
v 0.312500 0.687500 -0.312500
v -0.312500 0.687500 0.312500
v 0.312500 0.687500 0.312500
v -0.312500 0.437500 0.312500
v 0.312500 0.437500 0.312500
v -0.312500 0.437500 -0.312500
v 0.312500 0.437500 -0.312500
v -0.312500 0.687500 0.312500
v 0.312500 0.687500 0.312500
v -0.312500 0.437500 0.312500
v 0.312500 0.437500 0.312500
v 0.312500 0.687500 -0.312500
v -0.312500 0.687500 -0.312500
v 0.312500 0.437500 -0.312500
v -0.312500 0.437500 -0.312500
vn 1.0000 -0.0000 -0.0000
vn -1.0000 -0.0000 -0.0000
vn -0.0000 1.0000 -0.0000
vn -0.0000 -1.0000 -0.0000
vn -0.0000 -0.0000 1.0000
vn -0.0000 -0.0000 -1.0000
vt 0.281311 0.730408
vt 0.281311 0.714905
vt 0.320251 0.730408
vt 0.320251 0.714905
vt 0.359436 0.730408
vt 0.359436 0.714905
vt 0.398376 0.730408
vt 0.398376 0.714905
vt 0.359314 0.730530
vt 0.359314 0.769470
vt 0.320374 0.730530
vt 0.320374 0.769470
vt 0.398376 0.769470
vt 0.398376 0.730530
vt 0.359436 0.769470
vt 0.359436 0.730530
vt 0.398499 0.730408
vt 0.398499 0.714905
vt 0.437439 0.730408
vt 0.437439 0.714905
vt 0.320374 0.730408
vt 0.320374 0.714905
vt 0.359314 0.730408
vt 0.359314 0.714905
s 0
usemtl texture0
f 49/49/13 51/50/13 50/51/13
f 51/50/13 52/52/13 50/51/13
f 53/53/14 55/54/14 54/55/14
f 55/54/14 56/56/14 54/55/14
f 57/57/15 59/58/15 58/59/15
f 59/58/15 60/60/15 58/59/15
f 61/61/16 63/62/16 62/63/16
f 63/62/16 64/64/16 62/63/16
f 65/65/17 67/66/17 66/67/17
f 67/66/17 68/68/17 66/67/17
f 69/69/18 71/70/18 70/71/18
f 71/70/18 72/72/18 70/71/18
o cube.003
v 0.250000 0.875000 0.250000
v 0.250000 0.875000 -0.250000
v 0.250000 0.687500 0.250000
v 0.250000 0.687500 -0.250000
v -0.250000 0.875000 -0.250000
v -0.250000 0.875000 0.250000
v -0.250000 0.687500 -0.250000
v -0.250000 0.687500 0.250000
v -0.250000 0.875000 -0.250000
v 0.250000 0.875000 -0.250000
v -0.250000 0.875000 0.250000
v 0.250000 0.875000 0.250000
v -0.250000 0.687500 0.250000
v 0.250000 0.687500 0.250000
v -0.250000 0.687500 -0.250000
v 0.250000 0.687500 -0.250000
v -0.250000 0.875000 0.250000
v 0.250000 0.875000 0.250000
v -0.250000 0.687500 0.250000
v 0.250000 0.687500 0.250000
v 0.250000 0.875000 -0.250000
v -0.250000 0.875000 -0.250000
v 0.250000 0.687500 -0.250000
v -0.250000 0.687500 -0.250000
vn 1.0000 -0.0000 -0.0000
vn -1.0000 -0.0000 -0.0000
vn -0.0000 1.0000 -0.0000
vn -0.0000 -1.0000 -0.0000
vn -0.0000 -0.0000 1.0000
vn -0.0000 -0.0000 -1.0000
vt 0.359436 0.632751
vt 0.359436 0.621155
vt 0.390564 0.632751
vt 0.390564 0.621155
vt 0.421936 0.632751
vt 0.421936 0.621155
vt 0.453064 0.632751
vt 0.453064 0.621155
vt 0.421814 0.632874
vt 0.421814 0.664001
vt 0.390686 0.632874
vt 0.390686 0.664001
vt 0.453064 0.664001
vt 0.453064 0.632874
vt 0.421936 0.664001
vt 0.421936 0.632874
vt 0.453186 0.632751
vt 0.453186 0.621155
vt 0.484314 0.632751
vt 0.484314 0.621155
vt 0.390686 0.632751
vt 0.390686 0.621155
vt 0.421814 0.632751
vt 0.421814 0.621155
s 0
usemtl texture0
f 73/73/19 75/74/19 74/75/19
f 75/74/19 76/76/19 74/75/19
f 77/77/20 79/78/20 78/79/20
f 79/78/20 80/80/20 78/79/20
f 81/81/21 83/82/21 82/83/21
f 83/82/21 84/84/21 82/83/21
f 85/85/22 87/86/22 86/87/22
f 87/86/22 88/88/22 86/87/22
f 89/89/23 91/90/23 90/91/23
f 91/90/23 92/92/23 90/91/23
f 93/93/24 95/94/24 94/95/24
f 95/94/24 96/96/24 94/95/24
o cube.004
v 0.125000 4.250000 0.125000
v 0.125000 4.250000 -0.125000
v 0.125000 0.875000 0.125000
v 0.125000 0.875000 -0.125000
v -0.125000 4.250000 -0.125000
v -0.125000 4.250000 0.125000
v -0.125000 0.875000 -0.125000
v -0.125000 0.875000 0.125000
v -0.125000 4.250000 -0.125000
v 0.125000 4.250000 -0.125000
v -0.125000 4.250000 0.125000
v 0.125000 4.250000 0.125000
v -0.125000 0.875000 0.125000
v 0.125000 0.875000 0.125000
v -0.125000 0.875000 -0.125000
v 0.125000 0.875000 -0.125000
v -0.125000 4.250000 0.125000
v 0.125000 4.250000 0.125000
v -0.125000 0.875000 0.125000
v 0.125000 0.875000 0.125000
v 0.125000 4.250000 -0.125000
v -0.125000 4.250000 -0.125000
v 0.125000 0.875000 -0.125000
v -0.125000 0.875000 -0.125000
vn 1.0000 -0.0000 -0.0000
vn -1.0000 -0.0000 -0.0000
vn -0.0000 1.0000 -0.0000
vn -0.0000 -1.0000 -0.0000
vn -0.0000 -0.0000 1.0000
vn -0.0000 -0.0000 -1.0000
vt 0.218750 0.843750
vt 0.218750 0.664062
vt 0.234375 0.843750
vt 0.234375 0.664062
vt 0.250000 0.843750
vt 0.250000 0.664062
vt 0.265625 0.843750
vt 0.265625 0.664062
vt 0.250000 0.859375
vt 0.234375 0.859375
vt 0.265625 0.859375
vt 0.281250 0.843750
vt 0.281250 0.664062
s 0
usemtl texture0
f 97/97/25 99/98/25 98/99/25
f 99/98/25 100/100/25 98/99/25
f 101/101/26 103/102/26 102/103/26
f 103/102/26 104/104/26 102/103/26
f 105/101/27 107/105/27 106/99/27
f 107/105/27 108/106/27 106/99/27
f 109/107/28 111/103/28 110/105/28
f 111/103/28 112/101/28 110/105/28
f 113/103/29 115/104/29 114/108/29
f 115/104/29 116/109/29 114/108/29
f 117/99/30 119/100/30 118/101/30
f 119/100/30 120/102/30 118/101/30
o cube.005
v 0.375000 0.437500 0.375000
v 0.375000 0.437500 -0.375000
v 0.375000 0.312500 0.375000
v 0.375000 0.312500 -0.375000
v -0.375000 0.437500 -0.375000
v -0.375000 0.437500 0.375000
v -0.375000 0.312500 -0.375000
v -0.375000 0.312500 0.375000
v -0.375000 0.437500 -0.375000
v 0.375000 0.437500 -0.375000
v -0.375000 0.437500 0.375000
v 0.375000 0.437500 0.375000
v -0.375000 0.312500 0.375000
v 0.375000 0.312500 0.375000
v -0.375000 0.312500 -0.375000
v 0.375000 0.312500 -0.375000
v -0.375000 0.437500 0.375000
v 0.375000 0.437500 0.375000
v -0.375000 0.312500 0.375000
v 0.375000 0.312500 0.375000
v 0.375000 0.437500 -0.375000
v -0.375000 0.437500 -0.375000
v 0.375000 0.312500 -0.375000
v -0.375000 0.312500 -0.375000
vn 1.0000 -0.0000 -0.0000
vn -1.0000 -0.0000 -0.0000
vn -0.0000 1.0000 -0.0000
vn -0.0000 -1.0000 -0.0000
vn -0.0000 -0.0000 1.0000
vn -0.0000 -0.0000 -1.0000
vt 0.250061 0.886658
vt 0.250061 0.878967
vt 0.296814 0.886658
vt 0.296814 0.878967
vt 0.343811 0.886658
vt 0.343811 0.878967
vt 0.390564 0.886658
vt 0.390564 0.878967
vt 0.343689 0.886780
vt 0.343689 0.933533
vt 0.296936 0.886780
vt 0.296936 0.933533
vt 0.390564 0.933533
vt 0.390564 0.886780
vt 0.343811 0.933533
vt 0.343811 0.886780
vt 0.390686 0.886658
vt 0.390686 0.878967
vt 0.437439 0.886658
vt 0.437439 0.878967
vt 0.296936 0.886658
vt 0.296936 0.878967
vt 0.343689 0.886658
vt 0.343689 0.878967
s 0
usemtl texture0
f 121/110/31 123/111/31 122/112/31
f 123/111/31 124/113/31 122/112/31
f 125/114/32 127/115/32 126/116/32
f 127/115/32 128/117/32 126/116/32
f 129/118/33 131/119/33 130/120/33
f 131/119/33 132/121/33 130/120/33
f 133/122/34 135/123/34 134/124/34
f 135/123/34 136/125/34 134/124/34
f 137/126/35 139/127/35 138/128/35
f 139/127/35 140/129/35 138/128/35
f 141/130/36 143/131/36 142/132/36
f 143/131/36 144/133/36 142/132/36
o cube.006
v 0.687500 4.437500 0.000063
v 0.687500 4.437500 0.000000
v 0.687500 3.125000 0.000063
v 0.687500 3.125000 0.000000
v 0.062500 4.437500 0.000000
v 0.062500 4.437500 0.000063
v 0.062500 3.125000 0.000000
v 0.062500 3.125000 0.000063
v 0.062500 4.437500 0.000000
v 0.687500 4.437500 0.000000
v 0.062500 4.437500 0.000063
v 0.687500 4.437500 0.000063
v 0.062500 3.125000 0.000063
v 0.687500 3.125000 0.000063
v 0.062500 3.125000 0.000000
v 0.687500 3.125000 0.000000
v 0.062500 4.437500 0.000063
v 0.687500 4.437500 0.000063
v 0.062500 3.125000 0.000063
v 0.687500 3.125000 0.000063
v 0.687500 4.437500 0.000000
v 0.062500 4.437500 0.000000
v 0.687500 3.125000 0.000000
v 0.062500 3.125000 0.000000
vn 1.0000 -0.0000 -0.0000
vn -1.0000 -0.0000 -0.0000
vn -0.0000 1.0000 -0.0000
vn -0.0000 -1.0000 -0.0000
vn -0.0000 -0.0000 1.0000
vn -0.0000 -0.0000 -1.0000
vt 0.281250 0.675781
vt 0.281250 0.593750
vt 0.320312 0.675781
vt 0.320312 0.593750
vt 0.359375 0.675781
vt 0.359375 0.593750
vt 0.324219 0.675781
vt 0.324219 0.593750
s 0
usemtl texture0
f 145/134/37 147/135/37 146/134/37
f 147/135/37 148/135/37 146/134/37
f 149/136/38 151/137/38 150/136/38
f 151/137/38 152/137/38 150/136/38
f 153/136/39 155/136/39 154/134/39
f 155/136/39 156/134/39 154/134/39
f 157/138/40 159/138/40 158/136/40
f 159/138/40 160/136/40 158/136/40
f 161/136/41 163/137/41 162/138/41
f 163/137/41 164/139/41 162/138/41
f 165/134/42 167/135/42 166/140/42
f 167/135/42 168/141/42 166/140/42
o cube.007
v 0.000063 4.437500 0.750000
v 0.000063 4.437500 0.125000
v 0.000063 3.125000 0.750000
v 0.000063 3.125000 0.125000
v 0.000000 4.437500 0.125000
v 0.000000 4.437500 0.750000
v 0.000000 3.125000 0.125000
v 0.000000 3.125000 0.750000
v 0.000000 4.437500 0.125000
v 0.000063 4.437500 0.125000
v 0.000000 4.437500 0.750000
v 0.000063 4.437500 0.750000
v 0.000000 3.125000 0.750000
v 0.000063 3.125000 0.750000
v 0.000000 3.125000 0.125000
v 0.000063 3.125000 0.125000
v 0.000000 4.437500 0.750000
v 0.000063 4.437500 0.750000
v 0.000000 3.125000 0.750000
v 0.000063 3.125000 0.750000
v 0.000063 4.437500 0.125000
v 0.000000 4.437500 0.125000
v 0.000063 3.125000 0.125000
v 0.000000 3.125000 0.125000
vn 1.0000 -0.0000 -0.0000
vn -1.0000 -0.0000 -0.0000
vn -0.0000 1.0000 -0.0000
vn -0.0000 -1.0000 -0.0000
vn -0.0000 -0.0000 1.0000
vn -0.0000 -0.0000 -1.0000
vt 0.281311 0.675720
vt 0.281311 0.593811
vt 0.320251 0.675720
vt 0.320251 0.593811
vt 0.320374 0.675720
vt 0.320374 0.593811
vt 0.359314 0.675720
vt 0.359314 0.593811
vt 0.320374 0.675842
vt 0.320374 0.714783
vt 0.320251 0.675842
vt 0.320251 0.714783
vt 0.359436 0.675720
vt 0.359436 0.593811
s 0
usemtl texture0
f 169/142/43 171/143/43 170/144/43
f 171/143/43 172/145/43 170/144/43
f 173/146/44 175/147/44 174/148/44
f 175/147/44 176/149/44 174/148/44
f 177/150/45 179/151/45 178/152/45
f 179/151/45 180/153/45 178/152/45
f 181/151/46 183/150/46 182/153/46
f 183/150/46 184/152/46 182/153/46
f 185/154/47 187/155/47 186/148/47
f 187/155/47 188/149/47 186/148/47
f 189/146/48 191/147/48 190/144/48
f 191/147/48 192/145/48 190/144/48
o cube.008
v 0.000063 4.437500 -0.125000
v 0.000063 4.437500 -0.750000
v 0.000063 3.125000 -0.125000
v 0.000063 3.125000 -0.750000
v 0.000000 4.437500 -0.750000
v 0.000000 4.437500 -0.125000
v 0.000000 3.125000 -0.750000
v 0.000000 3.125000 -0.125000
v 0.000000 4.437500 -0.750000
v 0.000063 4.437500 -0.750000
v 0.000000 4.437500 -0.125000
v 0.000063 4.437500 -0.125000
v 0.000000 3.125000 -0.125000
v 0.000063 3.125000 -0.125000
v 0.000000 3.125000 -0.750000
v 0.000063 3.125000 -0.750000
v 0.000000 4.437500 -0.125000
v 0.000063 4.437500 -0.125000
v 0.000000 3.125000 -0.125000
v 0.000063 3.125000 -0.125000
v 0.000063 4.437500 -0.750000
v 0.000000 4.437500 -0.750000
v 0.000063 3.125000 -0.750000
v 0.000000 3.125000 -0.750000
vn 1.0000 -0.0000 -0.0000
vn -1.0000 -0.0000 -0.0000
vn -0.0000 1.0000 -0.0000
vn -0.0000 -1.0000 -0.0000
vn -0.0000 -0.0000 1.0000
vn -0.0000 -0.0000 -1.0000
vt 0.320312 0.675781
vt 0.320312 0.593750
vt 0.281250 0.675781
vt 0.281250 0.593750
vt 0.359375 0.675781
vt 0.359375 0.593750
vt 0.320312 0.714844
s 0
usemtl texture0
f 193/156/49 195/157/49 194/158/49
f 195/157/49 196/159/49 194/158/49
f 197/156/50 199/157/50 198/160/50
f 199/157/50 200/161/50 198/160/50
f 201/156/51 203/162/51 202/156/51
f 203/162/51 204/162/51 202/156/51
f 205/162/52 207/156/52 206/162/52
f 207/156/52 208/156/52 206/162/52
f 209/160/53 211/161/53 210/160/53
f 211/161/53 212/161/53 210/160/53
f 213/156/54 215/157/54 214/156/54
f 215/157/54 216/157/54 214/156/54
o cube.009
v -0.125000 4.437500 0.000063
v -0.125000 4.437500 0.000000
v -0.125000 3.125000 0.000063
v -0.125000 3.125000 0.000000
v -0.750000 4.437500 0.000000
v -0.750000 4.437500 0.000063
v -0.750000 3.125000 0.000000
v -0.750000 3.125000 0.000063
v -0.750000 4.437500 0.000000
v -0.125000 4.437500 0.000000
v -0.750000 4.437500 0.000063
v -0.125000 4.437500 0.000063
v -0.750000 3.125000 0.000063
v -0.125000 3.125000 0.000063
v -0.750000 3.125000 0.000000
v -0.125000 3.125000 0.000000
v -0.750000 4.437500 0.000063
v -0.125000 4.437500 0.000063
v -0.750000 3.125000 0.000063
v -0.125000 3.125000 0.000063
v -0.125000 4.437500 0.000000
v -0.750000 4.437500 0.000000
v -0.125000 3.125000 0.000000
v -0.750000 3.125000 0.000000
vn 1.0000 -0.0000 -0.0000
vn -1.0000 -0.0000 -0.0000
vn -0.0000 1.0000 -0.0000
vn -0.0000 -1.0000 -0.0000
vn -0.0000 -0.0000 1.0000
vn -0.0000 -0.0000 -1.0000
vt 0.281250 0.675781
vt 0.281250 0.593750
vt 0.320312 0.675781
vt 0.320312 0.593750
vt 0.359375 0.675781
vt 0.359375 0.593750
s 0
usemtl texture0
f 217/163/55 219/164/55 218/163/55
f 219/164/55 220/164/55 218/163/55
f 221/165/56 223/166/56 222/165/56
f 223/166/56 224/166/56 222/165/56
f 225/165/57 227/165/57 226/163/57
f 227/165/57 228/163/57 226/163/57
f 229/167/58 231/167/58 230/165/58
f 231/167/58 232/165/58 230/165/58
f 233/165/59 235/166/59 234/167/59
f 235/166/59 236/168/59 234/167/59
f 237/165/60 239/166/60 238/163/60
f 239/166/60 240/164/60 238/163/60
o cube.010
v -0.018350 5.750000 -0.018262
v -0.018306 5.750000 -0.018306
v -0.018350 5.062500 -0.018262
v -0.018306 5.062500 -0.018306
v -0.623766 5.750000 -0.623766
v -0.623810 5.750000 -0.623722
v -0.623766 5.062500 -0.623766
v -0.623810 5.062500 -0.623722
v -0.623766 5.750000 -0.623766
v -0.018306 5.750000 -0.018306
v -0.623810 5.750000 -0.623722
v -0.018350 5.750000 -0.018262
v -0.623810 5.062500 -0.623722
v -0.018350 5.062500 -0.018262
v -0.623766 5.062500 -0.623766
v -0.018306 5.062500 -0.018306
v -0.623810 5.750000 -0.623722
v -0.018350 5.750000 -0.018262
v -0.623810 5.062500 -0.623722
v -0.018350 5.062500 -0.018262
v -0.018306 5.750000 -0.018306
v -0.623766 5.750000 -0.623766
v -0.018306 5.062500 -0.018306
v -0.623766 5.062500 -0.623766
vn 0.7071 -0.0000 0.7071
vn -0.7071 -0.0000 -0.7071
vn -0.0000 1.0000 -0.0000
vn -0.0000 -1.0000 -0.0000
vn -0.7071 -0.0000 0.7071
vn 0.7071 -0.0000 -0.7071
vt 0.078125 0.628906
vt 0.078125 0.585938
vt 0.128906 0.628906
vt 0.128906 0.585938
vt 0.179688 0.628906
vt 0.179688 0.585938
s 0
usemtl texture0
f 241/169/61 243/170/61 242/169/61
f 243/170/61 244/170/61 242/169/61
f 245/171/62 247/172/62 246/171/62
f 247/172/62 248/172/62 246/171/62
f 249/171/63 251/171/63 250/169/63
f 251/171/63 252/169/63 250/169/63
f 253/173/64 255/173/64 254/171/64
f 255/173/64 256/171/64 254/171/64
f 257/171/65 259/172/65 258/173/65
f 259/172/65 260/174/65 258/173/65
f 261/171/66 263/172/66 262/169/66
f 263/172/66 264/170/66 262/169/66
o cube.011
v 0.603598 5.750000 0.603509
v 0.117462 5.750000 0.117373
v 0.603598 5.062500 0.603509
v 0.117462 5.062500 0.117373
v 0.117417 5.750000 0.117417
v 0.603553 5.750000 0.603553
v 0.117417 5.062500 0.117417
v 0.603553 5.062500 0.603553
v 0.117417 5.750000 0.117417
v 0.117462 5.750000 0.117373
v 0.603553 5.750000 0.603553
v 0.603598 5.750000 0.603509
v 0.603553 5.062500 0.603553
v 0.603598 5.062500 0.603509
v 0.117417 5.062500 0.117417
v 0.117462 5.062500 0.117373
v 0.603553 5.750000 0.603553
v 0.603598 5.750000 0.603509
v 0.603553 5.062500 0.603553
v 0.603598 5.062500 0.603509
v 0.117462 5.750000 0.117373
v 0.117417 5.750000 0.117417
v 0.117462 5.062500 0.117373
v 0.117417 5.062500 0.117417
vn 0.7071 -0.0000 -0.7071
vn -0.7071 -0.0000 0.7071
vn -0.0000 1.0000 -0.0000
vn -0.0000 -1.0000 -0.0000
vn 0.7071 -0.0000 0.7071
vn -0.7071 -0.0000 -0.7071
vt 0.078186 0.628845
vt 0.078186 0.585999
vt 0.121033 0.628845
vt 0.121033 0.585999
vt 0.121155 0.628845
vt 0.121155 0.585999
vt 0.164001 0.628845
vt 0.164001 0.585999
vt 0.121155 0.628967
vt 0.121155 0.671814
vt 0.121033 0.628967
vt 0.121033 0.671814
vt 0.164124 0.628845
vt 0.164124 0.585999
s 0
usemtl texture0
f 265/175/67 267/176/67 266/177/67
f 267/176/67 268/178/67 266/177/67
f 269/179/68 271/180/68 270/181/68
f 271/180/68 272/182/68 270/181/68
f 273/183/69 275/184/69 274/185/69
f 275/184/69 276/186/69 274/185/69
f 277/184/70 279/183/70 278/186/70
f 279/183/70 280/185/70 278/186/70
f 281/187/71 283/188/71 282/181/71
f 283/188/71 284/182/71 282/181/71
f 285/179/72 287/180/72 286/177/72
f 287/180/72 288/178/72 286/177/72
o cube.012
v -0.075488 5.750000 0.081650
v -0.075444 5.750000 0.081694
v -0.075488 5.062500 0.081650
v -0.075444 5.062500 0.081694
v 0.618405 5.750000 -0.612154
v 0.618361 5.750000 -0.612199
v 0.618405 5.062500 -0.612154
v 0.618361 5.062500 -0.612199
v 0.618405 5.750000 -0.612154
v -0.075444 5.750000 0.081694
v 0.618361 5.750000 -0.612199
v -0.075488 5.750000 0.081650
v 0.618361 5.062500 -0.612199
v -0.075488 5.062500 0.081650
v 0.618405 5.062500 -0.612154
v -0.075444 5.062500 0.081694
v 0.618361 5.750000 -0.612199
v -0.075488 5.750000 0.081650
v 0.618361 5.062500 -0.612199
v -0.075488 5.062500 0.081650
v -0.075444 5.750000 0.081694
v 0.618405 5.750000 -0.612154
v -0.075444 5.062500 0.081694
v 0.618405 5.062500 -0.612154
vn -0.7071 -0.0000 0.7071
vn 0.7071 -0.0000 -0.7071
vn -0.0000 1.0000 -0.0000
vn -0.0000 -1.0000 -0.0000
vn -0.7071 -0.0000 -0.7071
vn 0.7071 -0.0000 0.7071
vt 0.078125 0.628906
vt 0.078125 0.585938
vt 0.136719 0.628906
vt 0.136719 0.585938
vt 0.195312 0.628906
vt 0.195312 0.585938
s 0
usemtl texture0
f 289/189/73 291/190/73 290/189/73
f 291/190/73 292/190/73 290/189/73
f 293/191/74 295/192/74 294/191/74
f 295/192/74 296/192/74 294/191/74
f 297/191/75 299/191/75 298/189/75
f 299/191/75 300/189/75 298/189/75
f 301/193/76 303/193/76 302/191/76
f 303/193/76 304/191/76 302/191/76
f 305/191/77 307/192/77 306/193/77
f 307/192/77 308/194/77 306/193/77
f 309/191/78 311/192/78 310/189/78
f 311/192/78 312/190/78 310/189/78
o cube.013
v -0.614372 5.750000 0.639855
v -0.107679 5.750000 0.086897
v -0.614372 5.062500 0.639855
v -0.107679 5.062500 0.086897
v -0.107725 5.750000 0.086855
v -0.614418 5.750000 0.639813
v -0.107725 5.062500 0.086855
v -0.614418 5.062500 0.639813
v -0.107725 5.750000 0.086855
v -0.107679 5.750000 0.086897
v -0.614418 5.750000 0.639813
v -0.614372 5.750000 0.639855
v -0.614418 5.062500 0.639813
v -0.614372 5.062500 0.639855
v -0.107725 5.062500 0.086855
v -0.107679 5.062500 0.086897
v -0.614418 5.750000 0.639813
v -0.614372 5.750000 0.639855
v -0.614418 5.062500 0.639813
v -0.614372 5.062500 0.639855
v -0.107679 5.750000 0.086897
v -0.107725 5.750000 0.086855
v -0.107679 5.062500 0.086897
v -0.107725 5.062500 0.086855
vn 0.7373 -0.0000 0.6756
vn -0.7373 -0.0000 -0.6756
vn -0.0000 1.0000 -0.0000
vn -0.0000 -1.0000 -0.0000
vn -0.6756 -0.0000 0.7373
vn 0.6756 -0.0000 -0.7373
vt 0.078186 0.628845
vt 0.078186 0.585999
vt 0.124939 0.628845
vt 0.124939 0.585999
vt 0.125061 0.628845
vt 0.125061 0.585999
vt 0.171814 0.628845
vt 0.171814 0.585999
vt 0.125061 0.628967
vt 0.125061 0.675720
vt 0.124939 0.628967
vt 0.124939 0.675720
vt 0.171936 0.628845
vt 0.171936 0.585999
s 0
usemtl texture0
f 313/195/79 315/196/79 314/197/79
f 315/196/79 316/198/79 314/197/79
f 317/199/80 319/200/80 318/201/80
f 319/200/80 320/202/80 318/201/80
f 321/203/81 323/204/81 322/205/81
f 323/204/81 324/206/81 322/205/81
f 325/204/82 327/203/82 326/206/82
f 327/203/82 328/205/82 326/206/82
f 329/207/83 331/208/83 330/201/83
f 331/208/83 332/202/83 330/201/83
f 333/199/84 335/200/84 334/197/84
f 335/200/84 336/198/84 334/197/84
o cube.014
v 0.437500 4.437500 0.437500
v 0.437500 4.437500 -0.437500
v 0.437500 4.312500 0.437500
v 0.437500 4.312500 -0.437500
v -0.437500 4.437500 -0.437500
v -0.437500 4.437500 0.437500
v -0.437500 4.312500 -0.437500
v -0.437500 4.312500 0.437500
v -0.437500 4.437500 -0.437500
v 0.437500 4.437500 -0.437500
v -0.437500 4.437500 0.437500
v 0.437500 4.437500 0.437500
v -0.437500 4.312500 0.437500
v 0.437500 4.312500 0.437500
v -0.437500 4.312500 -0.437500
v 0.437500 4.312500 -0.437500
v -0.437500 4.437500 0.437500
v 0.437500 4.437500 0.437500
v -0.437500 4.312500 0.437500
v 0.437500 4.312500 0.437500
v 0.437500 4.437500 -0.437500
v -0.437500 4.437500 -0.437500
v 0.437500 4.312500 -0.437500
v -0.437500 4.312500 -0.437500
vn 1.0000 -0.0000 -0.0000
vn -1.0000 -0.0000 -0.0000
vn -0.0000 1.0000 -0.0000
vn -0.0000 -1.0000 -0.0000
vn -0.0000 -0.0000 1.0000
vn -0.0000 -0.0000 -1.0000
vt 0.000061 0.738220
vt 0.000061 0.730530
vt 0.054626 0.738220
vt 0.054626 0.730530
vt 0.109436 0.738220
vt 0.109436 0.730530
vt 0.164001 0.738220
vt 0.164001 0.730530
vt 0.109314 0.738342
vt 0.109314 0.792908
vt 0.054749 0.738342
vt 0.054749 0.792908
vt 0.164001 0.792908
vt 0.164001 0.738342
vt 0.109436 0.792908
vt 0.109436 0.738342
vt 0.164124 0.738220
vt 0.164124 0.730530
vt 0.218689 0.738220
vt 0.218689 0.730530
vt 0.054749 0.738220
vt 0.054749 0.730530
vt 0.109314 0.738220
vt 0.109314 0.730530
s 0
usemtl texture0
f 337/209/85 339/210/85 338/211/85
f 339/210/85 340/212/85 338/211/85
f 341/213/86 343/214/86 342/215/86
f 343/214/86 344/216/86 342/215/86
f 345/217/87 347/218/87 346/219/87
f 347/218/87 348/220/87 346/219/87
f 349/221/88 351/222/88 350/223/88
f 351/222/88 352/224/88 350/223/88
f 353/225/89 355/226/89 354/227/89
f 355/226/89 356/228/89 354/227/89
f 357/229/90 359/230/90 358/231/90
f 359/230/90 360/232/90 358/231/90
o cube.015
v 0.375000 5.062500 0.375000
v 0.375000 5.062500 -0.375000
v 0.375000 4.750000 0.375000
v 0.375000 4.750000 -0.375000
v -0.375000 5.062500 -0.375000
v -0.375000 5.062500 0.375000
v -0.375000 4.750000 -0.375000
v -0.375000 4.750000 0.375000
v -0.375000 5.062500 -0.375000
v 0.375000 5.062500 -0.375000
v -0.375000 5.062500 0.375000
v 0.375000 5.062500 0.375000
v -0.375000 4.750000 0.375000
v 0.375000 4.750000 0.375000
v -0.375000 4.750000 -0.375000
v 0.375000 4.750000 -0.375000
v -0.375000 5.062500 0.375000
v 0.375000 5.062500 0.375000
v -0.375000 4.750000 0.375000
v 0.375000 4.750000 0.375000
v 0.375000 5.062500 -0.375000
v -0.375000 5.062500 -0.375000
v 0.375000 4.750000 -0.375000
v -0.375000 4.750000 -0.375000
vn 1.0000 -0.0000 -0.0000
vn -1.0000 -0.0000 -0.0000
vn -0.0000 1.0000 -0.0000
vn -0.0000 -1.0000 -0.0000
vn -0.0000 -0.0000 1.0000
vn -0.0000 -0.0000 -1.0000
vt 0.250061 0.953064
vt 0.250061 0.933655
vt 0.296814 0.953064
vt 0.296814 0.933655
vt 0.343811 0.953064
vt 0.343811 0.933655
vt 0.390564 0.953064
vt 0.390564 0.933655
vt 0.343689 0.953186
vt 0.343689 0.999939
vt 0.296936 0.953186
vt 0.296936 0.999939
vt 0.390564 0.999939
vt 0.390564 0.953186
vt 0.343811 0.999939
vt 0.343811 0.953186
vt 0.390686 0.953064
vt 0.390686 0.933655
vt 0.437439 0.953064
vt 0.437439 0.933655
vt 0.296936 0.953064
vt 0.296936 0.933655
vt 0.343689 0.953064
vt 0.343689 0.933655
s 0
usemtl texture0
f 361/233/91 363/234/91 362/235/91
f 363/234/91 364/236/91 362/235/91
f 365/237/92 367/238/92 366/239/92
f 367/238/92 368/240/92 366/239/92
f 369/241/93 371/242/93 370/243/93
f 371/242/93 372/244/93 370/243/93
f 373/245/94 375/246/94 374/247/94
f 375/246/94 376/248/94 374/247/94
f 377/249/95 379/250/95 378/251/95
f 379/250/95 380/252/95 378/251/95
f 381/253/96 383/254/96 382/255/96
f 383/254/96 384/256/96 382/255/96
o cube.016
v 0.312500 4.750000 0.312500
v 0.312500 4.750000 -0.312500
v 0.312500 4.437500 0.312500
v 0.312500 4.437500 -0.312500
v -0.312500 4.750000 -0.312500
v -0.312500 4.750000 0.312500
v -0.312500 4.437500 -0.312500
v -0.312500 4.437500 0.312500
v -0.312500 4.750000 -0.312500
v 0.312500 4.750000 -0.312500
v -0.312500 4.750000 0.312500
v 0.312500 4.750000 0.312500
v -0.312500 4.437500 0.312500
v 0.312500 4.437500 0.312500
v -0.312500 4.437500 -0.312500
v 0.312500 4.437500 -0.312500
v -0.312500 4.750000 0.312500
v 0.312500 4.750000 0.312500
v -0.312500 4.437500 0.312500
v 0.312500 4.437500 0.312500
v 0.312500 4.750000 -0.312500
v -0.312500 4.750000 -0.312500
v 0.312500 4.437500 -0.312500
v -0.312500 4.437500 -0.312500
vn 1.0000 -0.0000 -0.0000
vn -1.0000 -0.0000 -0.0000
vn -0.0000 1.0000 -0.0000
vn -0.0000 -1.0000 -0.0000
vn -0.0000 -0.0000 1.0000
vn -0.0000 -0.0000 -1.0000
vt 0.281311 0.789001
vt 0.281311 0.769592
vt 0.320251 0.789001
vt 0.320251 0.769592
vt 0.359436 0.789001
vt 0.359436 0.769592
vt 0.398376 0.789001
vt 0.398376 0.769592
vt 0.359314 0.789124
vt 0.359314 0.828064
vt 0.320374 0.789124
vt 0.320374 0.828064
vt 0.398376 0.828064
vt 0.398376 0.789124
vt 0.359436 0.828064
vt 0.359436 0.789124
vt 0.398499 0.789001
vt 0.398499 0.769592
vt 0.437439 0.789001
vt 0.437439 0.769592
vt 0.320374 0.789001
vt 0.320374 0.769592
vt 0.359314 0.789001
vt 0.359314 0.769592
s 0
usemtl texture0
f 385/257/97 387/258/97 386/259/97
f 387/258/97 388/260/97 386/259/97
f 389/261/98 391/262/98 390/263/98
f 391/262/98 392/264/98 390/263/98
f 393/265/99 395/266/99 394/267/99
f 395/266/99 396/268/99 394/267/99
f 397/269/100 399/270/100 398/271/100
f 399/270/100 400/272/100 398/271/100
f 401/273/101 403/274/101 402/275/101
f 403/274/101 404/276/101 402/275/101
f 405/277/102 407/278/102 406/279/102
f 407/278/102 408/280/102 406/279/102
o cube.017
v 0.500000 5.187500 0.500000
v 0.500000 5.187500 -0.500000
v 0.500000 5.062500 0.500000
v 0.500000 5.062500 -0.500000
v -0.500000 5.187500 -0.500000
v -0.500000 5.187500 0.500000
v -0.500000 5.062500 -0.500000
v -0.500000 5.062500 0.500000
v -0.500000 5.187500 -0.500000
v 0.500000 5.187500 -0.500000
v -0.500000 5.187500 0.500000
v 0.500000 5.187500 0.500000
v -0.500000 5.062500 0.500000
v 0.500000 5.062500 0.500000
v -0.500000 5.062500 -0.500000
v 0.500000 5.062500 -0.500000
v -0.500000 5.187500 0.500000
v 0.500000 5.187500 0.500000
v -0.500000 5.062500 0.500000
v 0.500000 5.062500 0.500000
v 0.500000 5.187500 -0.500000
v -0.500000 5.187500 -0.500000
v 0.500000 5.062500 -0.500000
v -0.500000 5.062500 -0.500000
vn 1.0000 -0.0000 -0.0000
vn -1.0000 -0.0000 -0.0000
vn -0.0000 1.0000 -0.0000
vn -0.0000 -1.0000 -0.0000
vn -0.0000 -0.0000 1.0000
vn -0.0000 -0.0000 -1.0000
vt 0.000061 0.867126
vt 0.000061 0.859436
vt 0.062439 0.867126
vt 0.062439 0.859436
vt 0.125061 0.867126
vt 0.125061 0.859436
vt 0.187439 0.867126
vt 0.187439 0.859436
vt 0.124939 0.867249
vt 0.124939 0.929626
vt 0.062561 0.867249
vt 0.062561 0.929626
vt 0.187439 0.929626
vt 0.187439 0.867249
vt 0.125061 0.929626
vt 0.125061 0.867249
vt 0.187561 0.867126
vt 0.187561 0.859436
vt 0.249939 0.867126
vt 0.249939 0.859436
vt 0.062561 0.867126
vt 0.062561 0.859436
vt 0.124939 0.867126
vt 0.124939 0.859436
s 0
usemtl texture0
f 409/281/103 411/282/103 410/283/103
f 411/282/103 412/284/103 410/283/103
f 413/285/104 415/286/104 414/287/104
f 415/286/104 416/288/104 414/287/104
f 417/289/105 419/290/105 418/291/105
f 419/290/105 420/292/105 418/291/105
f 421/293/106 423/294/106 422/295/106
f 423/294/106 424/296/106 422/295/106
f 425/297/107 427/298/107 426/299/107
f 427/298/107 428/300/107 426/299/107
f 429/301/108 431/302/108 430/303/108
f 431/302/108 432/304/108 430/303/108
o cube.018
v 0.375000 5.312500 0.375000
v 0.375000 5.312500 -0.375000
v 0.375000 5.187500 0.375000
v 0.375000 5.187500 -0.375000
v -0.375000 5.312500 -0.375000
v -0.375000 5.312500 0.375000
v -0.375000 5.187500 -0.375000
v -0.375000 5.187500 0.375000
v -0.375000 5.312500 -0.375000
v 0.375000 5.312500 -0.375000
v -0.375000 5.312500 0.375000
v 0.375000 5.312500 0.375000
v -0.375000 5.187500 0.375000
v 0.375000 5.187500 0.375000
v -0.375000 5.187500 -0.375000
v 0.375000 5.187500 -0.375000
v -0.375000 5.312500 0.375000
v 0.375000 5.312500 0.375000
v -0.375000 5.187500 0.375000
v 0.375000 5.187500 0.375000
v 0.375000 5.312500 -0.375000
v -0.375000 5.312500 -0.375000
v 0.375000 5.187500 -0.375000
v -0.375000 5.187500 -0.375000
vn 1.0000 -0.0000 -0.0000
vn -1.0000 -0.0000 -0.0000
vn -0.0000 1.0000 -0.0000
vn -0.0000 -1.0000 -0.0000
vn -0.0000 -0.0000 1.0000
vn -0.0000 -0.0000 -1.0000
vt 0.000061 0.683533
vt 0.000061 0.675842
vt 0.046814 0.683533
vt 0.046814 0.675842
vt 0.093811 0.683533
vt 0.093811 0.675842
vt 0.140564 0.683533
vt 0.140564 0.675842
vt 0.093689 0.683655
vt 0.093689 0.730408
vt 0.046936 0.683655
vt 0.046936 0.730408
vt 0.140564 0.730408
vt 0.140564 0.683655
vt 0.093811 0.730408
vt 0.093811 0.683655
vt 0.140686 0.683533
vt 0.140686 0.675842
vt 0.187439 0.683533
vt 0.187439 0.675842
vt 0.046936 0.683533
vt 0.046936 0.675842
vt 0.093689 0.683533
vt 0.093689 0.675842
s 0
usemtl texture0
f 433/305/109 435/306/109 434/307/109
f 435/306/109 436/308/109 434/307/109
f 437/309/110 439/310/110 438/311/110
f 439/310/110 440/312/110 438/311/110
f 441/313/111 443/314/111 442/315/111
f 443/314/111 444/316/111 442/315/111
f 445/317/112 447/318/112 446/319/112
f 447/318/112 448/320/112 446/319/112
f 449/321/113 451/322/113 450/323/113
f 451/322/113 452/324/113 450/323/113
f 453/325/114 455/326/114 454/327/114
f 455/326/114 456/328/114 454/327/114
o cube.019
v 0.250000 5.625000 0.250000
v 0.250000 5.625000 -0.250000
v 0.250000 5.312500 0.250000
v 0.250000 5.312500 -0.250000
v -0.250000 5.625000 -0.250000
v -0.250000 5.625000 0.250000
v -0.250000 5.312500 -0.250000
v -0.250000 5.312500 0.250000
v -0.250000 5.625000 -0.250000
v 0.250000 5.625000 -0.250000
v -0.250000 5.625000 0.250000
v 0.250000 5.625000 0.250000
v -0.250000 5.312500 0.250000
v 0.250000 5.312500 0.250000
v -0.250000 5.312500 -0.250000
v 0.250000 5.312500 -0.250000
v -0.250000 5.625000 0.250000
v 0.250000 5.625000 0.250000
v -0.250000 5.312500 0.250000
v 0.250000 5.312500 0.250000
v 0.250000 5.625000 -0.250000
v -0.250000 5.625000 -0.250000
v 0.250000 5.312500 -0.250000
v -0.250000 5.312500 -0.250000
vn 1.0000 -0.0000 -0.0000
vn -1.0000 -0.0000 -0.0000
vn -0.0000 1.0000 -0.0000
vn -0.0000 -1.0000 -0.0000
vn -0.0000 -0.0000 1.0000
vn -0.0000 -0.0000 -1.0000
vt 0.359436 0.683533
vt 0.359436 0.664124
vt 0.390564 0.683533
vt 0.390564 0.664124
vt 0.421936 0.683533
vt 0.421936 0.664124
vt 0.453064 0.683533
vt 0.453064 0.664124
vt 0.421814 0.683655
vt 0.421814 0.714783
vt 0.390686 0.683655
vt 0.390686 0.714783
vt 0.453064 0.714783
vt 0.453064 0.683655
vt 0.421936 0.714783
vt 0.421936 0.683655
vt 0.453186 0.683533
vt 0.453186 0.664124
vt 0.484314 0.683533
vt 0.484314 0.664124
vt 0.390686 0.683533
vt 0.390686 0.664124
vt 0.421814 0.683533
vt 0.421814 0.664124
s 0
usemtl texture0
f 457/329/115 459/330/115 458/331/115
f 459/330/115 460/332/115 458/331/115
f 461/333/116 463/334/116 462/335/116
f 463/334/116 464/336/116 462/335/116
f 465/337/117 467/338/117 466/339/117
f 467/338/117 468/340/117 466/339/117
f 469/341/118 471/342/118 470/343/118
f 471/342/118 472/344/118 470/343/118
f 473/345/119 475/346/119 474/347/119
f 475/346/119 476/348/119 474/347/119
f 477/349/120 479/350/120 478/351/120
f 479/350/120 480/352/120 478/351/120
o cube.020
v 0.375000 4.312500 0.375000
v 0.375000 4.312500 -0.375000
v 0.375000 4.250000 0.375000
v 0.375000 4.250000 -0.375000
v -0.375000 4.312500 -0.375000
v -0.375000 4.312500 0.375000
v -0.375000 4.250000 -0.375000
v -0.375000 4.250000 0.375000
v -0.375000 4.312500 -0.375000
v 0.375000 4.312500 -0.375000
v -0.375000 4.312500 0.375000
v 0.375000 4.312500 0.375000
v -0.375000 4.250000 0.375000
v 0.375000 4.250000 0.375000
v -0.375000 4.250000 -0.375000
v 0.375000 4.250000 -0.375000
v -0.375000 4.312500 0.375000
v 0.375000 4.312500 0.375000
v -0.375000 4.250000 0.375000
v 0.375000 4.250000 0.375000
v 0.375000 4.312500 -0.375000
v -0.375000 4.312500 -0.375000
v 0.375000 4.250000 -0.375000
v -0.375000 4.250000 -0.375000
vn 1.0000 -0.0000 -0.0000
vn -1.0000 -0.0000 -0.0000
vn -0.0000 1.0000 -0.0000
vn -0.0000 -1.0000 -0.0000
vn -0.0000 -0.0000 1.0000
vn -0.0000 -0.0000 -1.0000
vt 0.281311 0.831970
vt 0.281311 0.828186
vt 0.328064 0.831970
vt 0.328064 0.828186
vt 0.375061 0.831970
vt 0.375061 0.828186
vt 0.421814 0.831970
vt 0.421814 0.828186
vt 0.374939 0.832092
vt 0.374939 0.878845
vt 0.328186 0.832092
vt 0.328186 0.878845
vt 0.421814 0.878845
vt 0.421814 0.832092
vt 0.375061 0.878845
vt 0.375061 0.832092
vt 0.421936 0.831970
vt 0.421936 0.828186
vt 0.468689 0.831970
vt 0.468689 0.828186
vt 0.328186 0.831970
vt 0.328186 0.828186
vt 0.374939 0.831970
vt 0.374939 0.828186
s 0
usemtl texture0
f 481/353/121 483/354/121 482/355/121
f 483/354/121 484/356/121 482/355/121
f 485/357/122 487/358/122 486/359/122
f 487/358/122 488/360/122 486/359/122
f 489/361/123 491/362/123 490/363/123
f 491/362/123 492/364/123 490/363/123
f 493/365/124 495/366/124 494/367/124
f 495/366/124 496/368/124 494/367/124
f 497/369/125 499/370/125 498/371/125
f 499/370/125 500/372/125 498/371/125
f 501/373/126 503/374/126 502/375/126
f 503/374/126 504/376/126 502/375/126
o cube.021
v 0.125000 5.937500 0.125000
v 0.125000 5.937500 -0.125000
v 0.125000 5.625000 0.125000
v 0.125000 5.625000 -0.125000
v -0.125000 5.937500 -0.125000
v -0.125000 5.937500 0.125000
v -0.125000 5.625000 -0.125000
v -0.125000 5.625000 0.125000
v -0.125000 5.937500 -0.125000
v 0.125000 5.937500 -0.125000
v -0.125000 5.937500 0.125000
v 0.125000 5.937500 0.125000
v -0.125000 5.625000 0.125000
v 0.125000 5.625000 0.125000
v -0.125000 5.625000 -0.125000
v 0.125000 5.625000 -0.125000
v -0.125000 5.937500 0.125000
v 0.125000 5.937500 0.125000
v -0.125000 5.625000 0.125000
v 0.125000 5.625000 0.125000
v 0.125000 5.937500 -0.125000
v -0.125000 5.937500 -0.125000
v 0.125000 5.625000 -0.125000
v -0.125000 5.625000 -0.125000
vn 1.0000 -0.0000 -0.0000
vn -1.0000 -0.0000 -0.0000
vn -0.0000 1.0000 -0.0000
vn -0.0000 -1.0000 -0.0000
vn -0.0000 -0.0000 1.0000
vn -0.0000 -0.0000 -1.0000
vt 0.195374 0.562439
vt 0.195374 0.543030
vt 0.210876 0.562439
vt 0.210876 0.543030
vt 0.226624 0.562439
vt 0.226624 0.543030
vt 0.242126 0.562439
vt 0.242126 0.543030
vt 0.226501 0.562561
vt 0.226501 0.578064
vt 0.210999 0.562561
vt 0.210999 0.578064
vt 0.242126 0.578064
vt 0.242126 0.562561
vt 0.226624 0.578064
vt 0.226624 0.562561
vt 0.242249 0.562439
vt 0.242249 0.543030
vt 0.257751 0.562439
vt 0.257751 0.543030
vt 0.210999 0.562439
vt 0.210999 0.543030
vt 0.226501 0.562439
vt 0.226501 0.543030
s 0
usemtl texture0
f 505/377/127 507/378/127 506/379/127
f 507/378/127 508/380/127 506/379/127
f 509/381/128 511/382/128 510/383/128
f 511/382/128 512/384/128 510/383/128
f 513/385/129 515/386/129 514/387/129
f 515/386/129 516/388/129 514/387/129
f 517/389/130 519/390/130 518/391/130
f 519/390/130 520/392/130 518/391/130
f 521/393/131 523/394/131 522/395/131
f 523/394/131 524/396/131 522/395/131
f 525/397/132 527/398/132 526/399/132
f 527/398/132 528/400/132 526/399/132
o cube.022
v 0.062500 6.312500 0.062500
v 0.062500 6.312500 -0.062500
v 0.062500 5.937500 0.062500
v 0.062500 5.937500 -0.062500
v -0.062500 6.312500 -0.062500
v -0.062500 6.312500 0.062500
v -0.062500 5.937500 -0.062500
v -0.062500 5.937500 0.062500
v -0.062500 6.312500 -0.062500
v 0.062500 6.312500 -0.062500
v -0.062500 6.312500 0.062500
v 0.062500 6.312500 0.062500
v -0.062500 5.937500 0.062500
v 0.062500 5.937500 0.062500
v -0.062500 5.937500 -0.062500
v 0.062500 5.937500 -0.062500
v -0.062500 6.312500 0.062500
v 0.062500 6.312500 0.062500
v -0.062500 5.937500 0.062500
v 0.062500 5.937500 0.062500
v 0.062500 6.312500 -0.062500
v -0.062500 6.312500 -0.062500
v 0.062500 5.937500 -0.062500
v -0.062500 5.937500 -0.062500
vn 1.0000 -0.0000 -0.0000
vn -1.0000 -0.0000 -0.0000
vn -0.0000 1.0000 -0.0000
vn -0.0000 -1.0000 -0.0000
vn -0.0000 -0.0000 1.0000
vn -0.0000 -0.0000 -1.0000
vt 0.187561 0.722595
vt 0.187561 0.699280
vt 0.195251 0.722595
vt 0.195251 0.699280
vt 0.203186 0.722595
vt 0.203186 0.699280
vt 0.210876 0.722595
vt 0.210876 0.699280
vt 0.203064 0.722717
vt 0.203064 0.730408
vt 0.195374 0.722717
vt 0.195374 0.730408
vt 0.210876 0.730408
vt 0.210876 0.722717
vt 0.203186 0.730408
vt 0.203186 0.722717
vt 0.210999 0.722595
vt 0.210999 0.699280
vt 0.218689 0.722595
vt 0.218689 0.699280
vt 0.195374 0.722595
vt 0.195374 0.699280
vt 0.203064 0.722595
vt 0.203064 0.699280
s 0
usemtl texture0
f 529/401/133 531/402/133 530/403/133
f 531/402/133 532/404/133 530/403/133
f 533/405/134 535/406/134 534/407/134
f 535/406/134 536/408/134 534/407/134
f 537/409/135 539/410/135 538/411/135
f 539/410/135 540/412/135 538/411/135
f 541/413/136 543/414/136 542/415/136
f 543/414/136 544/416/136 542/415/136
f 545/417/137 547/418/137 546/419/137
f 547/418/137 548/420/137 546/419/137
f 549/421/138 551/422/138 550/423/138
f 551/422/138 552/424/138 550/423/138
o cube.023
v 0.187500 5.062500 0.187500
v 0.187500 5.062500 -0.187500
v 0.187500 4.437500 0.187500
v 0.187500 4.437500 -0.187500
v -0.187500 5.062500 -0.187500
v -0.187500 5.062500 0.187500
v -0.187500 4.437500 -0.187500
v -0.187500 4.437500 0.187500
v -0.187500 5.062500 -0.187500
v 0.187500 5.062500 -0.187500
v -0.187500 5.062500 0.187500
v 0.187500 5.062500 0.187500
v -0.187500 4.437500 0.187500
v 0.187500 4.437500 0.187500
v -0.187500 4.437500 -0.187500
v 0.187500 4.437500 -0.187500
v -0.187500 5.062500 0.187500
v 0.187500 5.062500 0.187500
v -0.187500 4.437500 0.187500
v 0.187500 4.437500 0.187500
v 0.187500 5.062500 -0.187500
v -0.187500 5.062500 -0.187500
v 0.187500 4.437500 -0.187500
v -0.187500 4.437500 -0.187500
vn 1.0000 -0.0000 -0.0000
vn -1.0000 -0.0000 -0.0000
vn -0.0000 1.0000 -0.0000
vn -0.0000 -1.0000 -0.0000
vn -0.0000 -0.0000 1.0000
vn -0.0000 -0.0000 -1.0000
vt 0.550842 0.273376
vt 0.550842 0.234436
vt 0.574158 0.273376
vt 0.574158 0.234436
vt 0.597717 0.273376
vt 0.597717 0.234436
vt 0.621033 0.273376
vt 0.621033 0.234436
vt 0.597595 0.273499
vt 0.597595 0.296814
vt 0.574280 0.273499
vt 0.574280 0.296814
vt 0.621033 0.296814
vt 0.621033 0.273499
vt 0.597717 0.296814
vt 0.597717 0.273499
vt 0.621155 0.273376
vt 0.621155 0.234436
vt 0.644470 0.273376
vt 0.644470 0.234436
vt 0.574280 0.273376
vt 0.574280 0.234436
vt 0.597595 0.273376
vt 0.597595 0.234436
s 0
usemtl texture0
f 553/425/139 555/426/139 554/427/139
f 555/426/139 556/428/139 554/427/139
f 557/429/140 559/430/140 558/431/140
f 559/430/140 560/432/140 558/431/140
f 561/433/141 563/434/141 562/435/141
f 563/434/141 564/436/141 562/435/141
f 565/437/142 567/438/142 566/439/142
f 567/438/142 568/440/142 566/439/142
f 569/441/143 571/442/143 570/443/143
f 571/442/143 572/444/143 570/443/143
f 573/445/144 575/446/144 574/447/144
f 575/446/144 576/448/144 574/447/144
