# Blender v3.4.1 OBJ File: ''
# www.blender.org
mtllib Lamp_Post3.mtl
o cube_Mesh_0.011
v -0.245000 0.061250 -0.245000
v -0.245000 0.061250 0.245000
v 0.245000 0.061250 0.245000
v -0.245000 0.000000 0.245000
v 0.245000 0.000000 0.245000
v 0.245000 0.061250 -0.245000
v 0.245000 0.000000 -0.245000
v -0.245000 0.000000 -0.245000
vt 0.000000 0.937500
vt 0.000000 0.929688
vt 0.062500 0.937500
vt 0.062500 0.929688
vt 0.125000 0.937500
vt 0.125000 0.929688
vt 0.187500 0.937500
vt 0.187500 0.929688
vt 0.125000 1.000000
vt 0.062500 1.000000
vt 0.187500 1.000000
vt 0.187500 0.937500
vt 0.125000 1.000000
vt 0.125000 0.937500
vt 0.250000 0.937500
vt 0.250000 0.929688
vn 1.0000 0.0000 0.0000
vn -1.0000 0.0000 0.0000
vn 0.0000 1.0000 0.0000
vn 0.0000 -1.0000 0.0000
vn 0.0000 0.0000 1.0000
vn 0.0000 0.0000 -1.0000
usemtl Material_0.019
s off
f 3/1/1 5/2/1 6/3/1
f 5/2/1 7/4/1 6/3/1
f 1/5/2 8/6/2 2/7/2
f 8/6/2 4/8/2 2/7/2
f 1/5/3 2/9/3 6/3/3
f 2/9/3 3/10/3 6/3/3
f 4/11/4 8/12/4 5/13/4
f 8/12/4 7/14/4 5/13/4
f 2/7/5 4/8/5 3/15/5
f 4/8/5 5/16/5 3/15/5
f 6/3/6 7/4/6 1/5/6
f 7/4/6 8/6/6 1/5/6
o cube.001_Mesh_1.009
v -0.214375 0.153125 -0.214375
v -0.214375 0.153125 0.214375
v 0.214375 0.153125 0.214375
v -0.214375 0.061250 0.214375
v 0.214375 0.061250 0.214375
v 0.214375 0.153125 -0.214375
v 0.214375 0.061250 -0.214375
v -0.214375 0.061250 -0.214375
vt 0.000000 0.804688
vt 0.000000 0.792969
vt 0.054688 0.804688
vt 0.054688 0.792969
vt 0.109375 0.804688
vt 0.109375 0.792969
vt 0.164062 0.804688
vt 0.164062 0.792969
vt 0.109375 0.859375
vt 0.054688 0.859375
vt 0.164062 0.859375
vt 0.164062 0.804688
vt 0.109375 0.859375
vt 0.109375 0.804688
vt 0.218750 0.804688
vt 0.218750 0.792969
vn 1.0000 0.0000 0.0000
vn -1.0000 0.0000 0.0000
vn 0.0000 1.0000 0.0000
vn 0.0000 -1.0000 0.0000
vn 0.0000 0.0000 1.0000
vn 0.0000 0.0000 -1.0000
usemtl Material_0.019
s off
f 11/17/7 13/18/7 14/19/7
f 13/18/7 15/20/7 14/19/7
f 9/21/8 16/22/8 10/23/8
f 16/22/8 12/24/8 10/23/8
f 9/21/9 10/25/9 14/19/9
f 10/25/9 11/26/9 14/19/9
f 12/27/10 16/28/10 13/29/10
f 16/28/10 15/30/10 13/29/10
f 10/23/11 12/24/11 11/31/11
f 12/24/11 13/32/11 11/31/11
f 14/19/12 15/20/12 9/21/12
f 15/20/12 16/22/12 9/21/12
o cube.002_Mesh_2.009
v -0.153125 0.336875 -0.153125
v -0.153125 0.336875 0.153125
v 0.153125 0.336875 0.153125
v -0.153125 0.214375 0.153125
v 0.153125 0.214375 0.153125
v 0.153125 0.336875 -0.153125
v 0.153125 0.214375 -0.153125
v -0.153125 0.214375 -0.153125
vt 0.281250 0.730469
vt 0.281250 0.714844
vt 0.320312 0.730469
vt 0.320312 0.714844
vt 0.359375 0.730469
vt 0.359375 0.714844
vt 0.398438 0.730469
vt 0.398438 0.714844
vt 0.359375 0.769531
vt 0.320312 0.769531
vt 0.398438 0.769531
vt 0.398438 0.730469
vt 0.359375 0.769531
vt 0.359375 0.730469
vt 0.437500 0.730469
vt 0.437500 0.714844
vn 1.0000 0.0000 0.0000
vn -1.0000 0.0000 0.0000
vn 0.0000 1.0000 0.0000
vn 0.0000 -1.0000 0.0000
vn 0.0000 0.0000 1.0000
vn 0.0000 0.0000 -1.0000
usemtl Material_0.019
s off
f 19/33/13 21/34/13 22/35/13
f 21/34/13 23/36/13 22/35/13
f 17/37/14 24/38/14 18/39/14
f 24/38/14 20/40/14 18/39/14
f 17/37/15 18/41/15 22/35/15
f 18/41/15 19/42/15 22/35/15
f 20/43/16 24/44/16 21/45/16
f 24/44/16 23/46/16 21/45/16
f 18/39/17 20/40/17 19/47/17
f 20/40/17 21/48/17 19/47/17
f 22/35/18 23/36/18 17/37/18
f 23/36/18 24/38/18 17/37/18
o cube.003_Mesh_3.009
v -0.122500 0.428750 -0.122500
v -0.122500 0.428750 0.122500
v 0.122500 0.428750 0.122500
v -0.122500 0.336875 0.122500
v 0.122500 0.336875 0.122500
v 0.122500 0.428750 -0.122500
v 0.122500 0.336875 -0.122500
v -0.122500 0.336875 -0.122500
vt 0.359375 0.632812
vt 0.359375 0.621094
vt 0.390625 0.632812
vt 0.390625 0.621094
vt 0.421875 0.632812
vt 0.421875 0.621094
vt 0.453125 0.632812
vt 0.453125 0.621094
vt 0.421875 0.664062
vt 0.390625 0.664062
vt 0.453125 0.664062
vt 0.453125 0.632812
vt 0.421875 0.664062
vt 0.421875 0.632812
vt 0.484375 0.632812
vt 0.484375 0.621094
vn 1.0000 0.0000 0.0000
vn -1.0000 0.0000 0.0000
vn 0.0000 1.0000 0.0000
vn 0.0000 -1.0000 0.0000
vn 0.0000 0.0000 1.0000
vn 0.0000 0.0000 -1.0000
usemtl Material_0.019
s off
f 27/49/19 29/50/19 30/51/19
f 29/50/19 31/52/19 30/51/19
f 25/53/20 32/54/20 26/55/20
f 32/54/20 28/56/20 26/55/20
f 25/53/21 26/57/21 30/51/21
f 26/57/21 27/58/21 30/51/21
f 28/59/22 32/60/22 29/61/22
f 32/60/22 31/62/22 29/61/22
f 26/55/23 28/56/23 27/63/23
f 28/56/23 29/64/23 27/63/23
f 30/51/24 31/52/24 25/53/24
f 31/52/24 32/54/24 25/53/24
o cube.004_Mesh_4.009
v -0.061250 2.082500 -0.061250
v -0.061250 2.082500 0.061250
v 0.061250 2.082500 0.061250
v -0.061250 0.428750 0.061250
v 0.061250 0.428750 0.061250
v 0.061250 2.082500 -0.061250
v 0.061250 0.428750 -0.061250
v -0.061250 0.428750 -0.061250
vt 0.218750 0.843750
vt 0.218750 0.664062
vt 0.234375 0.843750
vt 0.234375 0.664062
vt 0.250000 0.843750
vt 0.250000 0.664062
vt 0.265625 0.843750
vt 0.265625 0.664062
vt 0.250000 0.859375
vt 0.234375 0.859375
vt 0.265625 0.859375
vt 0.265625 0.843750
vt 0.250000 0.859375
vt 0.250000 0.843750
vt 0.281250 0.843750
vt 0.281250 0.664062
vn 1.0000 0.0000 0.0000
vn -1.0000 0.0000 0.0000
vn 0.0000 1.0000 0.0000
vn 0.0000 -1.0000 0.0000
vn 0.0000 0.0000 1.0000
vn 0.0000 0.0000 -1.0000
usemtl Material_0.019
s off
f 35/65/25 37/66/25 38/67/25
f 37/66/25 39/68/25 38/67/25
f 33/69/26 40/70/26 34/71/26
f 40/70/26 36/72/26 34/71/26
f 33/69/27 34/73/27 38/67/27
f 34/73/27 35/74/27 38/67/27
f 36/75/28 40/76/28 37/77/28
f 40/76/28 39/78/28 37/77/28
f 34/71/29 36/72/29 35/79/29
f 36/72/29 37/80/29 35/79/29
f 38/67/30 39/68/30 33/69/30
f 39/68/30 40/70/30 33/69/30
o cube.005_Mesh_5.009
v -0.183750 0.214375 -0.183750
v -0.183750 0.214375 0.183750
v 0.183750 0.214375 0.183750
v -0.183750 0.153125 0.183750
v 0.183750 0.153125 0.183750
v 0.183750 0.214375 -0.183750
v 0.183750 0.153125 -0.183750
v -0.183750 0.153125 -0.183750
vt 0.250000 0.886719
vt 0.250000 0.878906
vt 0.296875 0.886719
vt 0.296875 0.878906
vt 0.343750 0.886719
vt 0.343750 0.878906
vt 0.390625 0.886719
vt 0.390625 0.878906
vt 0.343750 0.933594
vt 0.296875 0.933594
vt 0.390625 0.933594
vt 0.390625 0.886719
vt 0.343750 0.933594
vt 0.343750 0.886719
vt 0.437500 0.886719
vt 0.437500 0.878906
vn 1.0000 0.0000 0.0000
vn -1.0000 0.0000 0.0000
vn 0.0000 1.0000 0.0000
vn 0.0000 -1.0000 0.0000
vn 0.0000 0.0000 1.0000
vn 0.0000 0.0000 -1.0000
usemtl Material_0.019
s off
f 43/81/31 45/82/31 46/83/31
f 45/82/31 47/84/31 46/83/31
f 41/85/32 48/86/32 42/87/32
f 48/86/32 44/88/32 42/87/32
f 41/85/33 42/89/33 46/83/33
f 42/89/33 43/90/33 46/83/33
f 44/91/34 48/92/34 45/93/34
f 48/92/34 47/94/34 45/93/34
f 42/87/35 44/88/35 43/95/35
f 44/88/35 45/96/35 43/95/35
f 46/83/36 47/84/36 41/85/36
f 47/84/36 48/86/36 41/85/36
o cube.006_Mesh_6.009
v 0.030625 2.174375 0.000063
v 0.030625 1.531250 0.000063
v 0.336875 1.531250 0.000063
v 0.336875 2.174375 0.000000
vt 0.320312 0.675781
vt 0.320312 0.593750
vt 0.359375 0.675781
vt 0.359375 0.593750
vt 0.281250 0.675781
vt 0.281250 0.593750
vt 0.324219 0.675781
vt 0.324219 0.593750
vn 0.0002 0.0000 1.0000
vn 0.0000 0.0001 1.0000
vn -0.0002 -0.0001 -1.0000
vn 0.0000 0.0000 -1.0000
usemtl Material_0.019
s off
f 49/97/37 50/98/37 52/99/37
f 50/98/38 51/100/38 52/99/38
f 52/101/39 51/102/39 49/103/39
f 51/102/40 50/104/40 49/103/40
o cube.007_Mesh_7.008
v 0.000000 2.174375 0.061250
v 0.000000 2.174375 0.367500
v 0.000000 1.531250 0.367500
v 0.000000 1.531250 0.061250
vt 0.281250 0.675781
vt 0.281250 0.593750
vt 0.320312 0.675781
vt 0.320312 0.593750
vt 0.359375 0.675781
vt 0.359375 0.593750
vn 1.0000 0.0000 0.0000
vn -1.0000 0.0000 0.0000
usemtl Material_0.019
s off
f 54/105/41 55/106/41 53/107/41
f 55/106/41 56/108/41 53/107/41
f 53/107/42 56/108/42 54/109/42
f 56/108/42 55/110/42 54/109/42
o cube.008_Mesh_8.008
v 0.000000 2.174375 -0.367500
v 0.000000 2.174375 -0.061250
v 0.000000 1.531250 -0.061250
v 0.000000 1.531250 -0.367500
vt 0.320312 0.675781
vt 0.320312 0.593750
vt 0.281250 0.675781
vt 0.281250 0.593750
vt 0.320312 0.675781
vt 0.320312 0.593750
vt 0.359375 0.675781
vt 0.359375 0.593750
vn 1.0000 0.0000 0.0000
vn -1.0000 0.0000 0.0000
usemtl Material_0.019
s off
f 58/111/43 59/112/43 57/113/43
f 59/112/43 60/114/43 57/113/43
f 57/115/44 60/116/44 58/117/44
f 60/116/44 59/118/44 58/117/44
o cube.009_Mesh_9.008
v -0.367500 2.174375 0.000063
v -0.367500 1.531250 0.000063
v -0.061250 1.531250 0.000063
v -0.061250 2.174375 0.000000
vt 0.320312 0.675781
vt 0.320312 0.593750
vt 0.359375 0.675781
vt 0.359375 0.593750
vt 0.320312 0.675781
vt 0.320312 0.593750
vt 0.281250 0.675781
vt 0.281250 0.593750
vn 0.0002 0.0000 1.0000
vn 0.0000 0.0001 1.0000
vn -0.0002 -0.0001 -1.0000
vn 0.0000 0.0000 -1.0000
usemtl Material_0.019
s off
f 61/119/45 62/120/45 64/121/45
f 62/120/46 63/122/46 64/121/46
f 64/123/47 63/124/47 61/125/47
f 63/124/48 62/126/48 61/125/48
o cube.010_Mesh_10.008
v -0.305690 2.817500 -0.305601
v -0.305690 2.480625 -0.305601
v -0.009014 2.480625 -0.008926
v -0.008970 2.817500 -0.008970
vt 0.128906 0.628906
vt 0.128906 0.585938
vt 0.179688 0.628906
vt 0.179688 0.585938
vt 0.128906 0.628906
vt 0.128906 0.585938
vt 0.078125 0.628906
vt 0.078125 0.585938
vn -0.7070 0.0000 0.7072
vn -0.7071 0.0002 0.7071
vn 0.7070 -0.0002 -0.7072
vn 0.7071 0.0000 -0.7071
usemtl Material_0.019
s off
f 65/127/49 66/128/49 68/129/49
f 66/128/50 67/130/50 68/129/50
f 68/131/51 67/132/51 65/133/51
f 67/132/52 66/134/52 65/133/52
o cube.011_Mesh_11.008
v 0.057535 2.817500 0.057535
v 0.295741 2.817500 0.295741
v 0.295741 2.480625 0.295741
v 0.057535 2.480625 0.057535
vt 0.078125 0.628906
vt 0.078125 0.585938
vt 0.121094 0.628906
vt 0.121094 0.585938
vt 0.164062 0.628906
vt 0.164062 0.585938
vn 0.7071 0.0000 -0.7071
vn -0.7071 0.0000 0.7071
usemtl Material_0.019
s off
f 70/135/53 71/136/53 69/137/53
f 71/136/53 72/138/53 69/137/53
f 69/137/54 72/138/54 70/139/54
f 72/138/54 71/140/54 70/139/54
o cube.012_Mesh_12.008
v 0.302974 2.817500 -0.300000
v 0.302974 2.480625 -0.300000
v -0.037012 2.480625 0.039986
v -0.036968 2.817500 0.040030
vt 0.136719 0.628906
vt 0.136719 0.585938
vt 0.195312 0.628906
vt 0.195312 0.585938
vt 0.136719 0.628906
vt 0.136719 0.585938
vt 0.078125 0.628906
vt 0.078125 0.585938
vn -0.7070 -0.0000 -0.7073
vn -0.7071 -0.0002 -0.7071
vn 0.7071 0.0001 0.7072
vn 0.7071 0.0000 0.7071
usemtl Material_0.019
s off
f 73/141/55 74/142/55 76/143/55
f 74/142/56 75/144/56 76/143/56
f 76/145/57 75/146/57 73/147/57
f 75/146/58 74/148/58 73/147/58
o cube.013_Mesh_13.008
v -0.052785 2.817500 0.042559
v -0.301065 2.817500 0.313508
v -0.301065 2.480625 0.313508
v -0.052785 2.480625 0.042559
vt 0.078125 0.628906
vt 0.078125 0.585938
vt 0.125000 0.628906
vt 0.125000 0.585938
vt 0.171875 0.628906
vt 0.171875 0.585938
vn 0.7373 0.0000 0.6756
vn -0.7373 0.0000 -0.6756
usemtl Material_0.019
s off
f 78/149/59 79/150/59 77/151/59
f 79/150/59 80/152/59 77/151/59
f 77/151/60 80/152/60 78/153/60
f 80/152/60 79/154/60 78/153/60
o cube.014_Mesh_14.008
v -0.214375 2.174375 -0.214375
v -0.214375 2.174375 0.214375
v 0.214375 2.174375 0.214375
v -0.214375 2.113125 0.214375
v 0.214375 2.113125 0.214375
v 0.214375 2.174375 -0.214375
v 0.214375 2.113125 -0.214375
v -0.214375 2.113125 -0.214375
vt 0.000000 0.738281
vt 0.000000 0.730469
vt 0.054688 0.738281
vt 0.054688 0.730469
vt 0.109375 0.738281
vt 0.109375 0.730469
vt 0.164062 0.738281
vt 0.164062 0.730469
vt 0.109375 0.792969
vt 0.054688 0.792969
vt 0.164062 0.792969
vt 0.164062 0.738281
vt 0.109375 0.792969
vt 0.109375 0.738281
vt 0.218750 0.738281
vt 0.218750 0.730469
vn 1.0000 0.0000 0.0000
vn -1.0000 0.0000 0.0000
vn 0.0000 1.0000 0.0000
vn 0.0000 -1.0000 0.0000
vn 0.0000 0.0000 1.0000
vn 0.0000 0.0000 -1.0000
usemtl Material_0.019
s off
f 83/155/61 85/156/61 86/157/61
f 85/156/61 87/158/61 86/157/61
f 81/159/62 88/160/62 82/161/62
f 88/160/62 84/162/62 82/161/62
f 81/159/63 82/163/63 86/157/63
f 82/163/63 83/164/63 86/157/63
f 84/165/64 88/166/64 85/167/64
f 88/166/64 87/168/64 85/167/64
f 82/161/65 84/162/65 83/169/65
f 84/162/65 85/170/65 83/169/65
f 86/157/66 87/158/66 81/159/66
f 87/158/66 88/160/66 81/159/66
o cube.015_Mesh_15.008
v -0.183750 2.480625 -0.183750
v -0.183750 2.480625 0.183750
v 0.183750 2.480625 0.183750
v -0.183750 2.327500 0.183750
v 0.183750 2.327500 0.183750
v 0.183750 2.480625 -0.183750
v 0.183750 2.327500 -0.183750
v -0.183750 2.327500 -0.183750
vt 0.250000 0.953125
vt 0.250000 0.933594
vt 0.296875 0.953125
vt 0.296875 0.933594
vt 0.343750 0.953125
vt 0.343750 0.933594
vt 0.390625 0.953125
vt 0.390625 0.933594
vt 0.343750 1.000000
vt 0.296875 1.000000
vt 0.390625 1.000000
vt 0.390625 0.953125
vt 0.343750 1.000000
vt 0.343750 0.953125
vt 0.437500 0.953125
vt 0.437500 0.933594
vn 1.0000 0.0000 0.0000
vn -1.0000 0.0000 0.0000
vn 0.0000 1.0000 0.0000
vn 0.0000 -1.0000 0.0000
vn 0.0000 0.0000 1.0000
vn 0.0000 0.0000 -1.0000
usemtl Material_0.019
s off
f 91/171/67 93/172/67 94/173/67
f 93/172/67 95/174/67 94/173/67
f 89/175/68 96/176/68 90/177/68
f 96/176/68 92/178/68 90/177/68
f 89/175/69 90/179/69 94/173/69
f 90/179/69 91/180/69 94/173/69
f 92/181/70 96/182/70 93/183/70
f 96/182/70 95/184/70 93/183/70
f 90/177/71 92/178/71 91/185/71
f 92/178/71 93/186/71 91/185/71
f 94/173/72 95/174/72 89/175/72
f 95/174/72 96/176/72 89/175/72
o cube.016_Mesh_16.008
v -0.153125 2.327500 -0.153125
v -0.153125 2.327500 0.153125
v 0.153125 2.327500 0.153125
v -0.153125 2.174375 0.153125
v 0.153125 2.174375 0.153125
v 0.153125 2.327500 -0.153125
v 0.153125 2.174375 -0.153125
v -0.153125 2.174375 -0.153125
vt 0.281250 0.789062
vt 0.281250 0.769531
vt 0.320312 0.789062
vt 0.320312 0.769531
vt 0.359375 0.789062
vt 0.359375 0.769531
vt 0.398438 0.789062
vt 0.398438 0.769531
vt 0.359375 0.828125
vt 0.320312 0.828125
vt 0.398438 0.828125
vt 0.398438 0.789062
vt 0.359375 0.828125
vt 0.359375 0.789062
vt 0.437500 0.789062
vt 0.437500 0.769531
vn 1.0000 0.0000 0.0000
vn -1.0000 0.0000 0.0000
vn 0.0000 1.0000 0.0000
vn 0.0000 -1.0000 0.0000
vn 0.0000 0.0000 1.0000
vn 0.0000 0.0000 -1.0000
usemtl Material_0.019
s off
f 99/187/73 101/188/73 102/189/73
f 101/188/73 103/190/73 102/189/73
f 97/191/74 104/192/74 98/193/74
f 104/192/74 100/194/74 98/193/74
f 97/191/75 98/195/75 102/189/75
f 98/195/75 99/196/75 102/189/75
f 100/197/76 104/198/76 101/199/76
f 104/198/76 103/200/76 101/199/76
f 98/193/77 100/194/77 99/201/77
f 100/194/77 101/202/77 99/201/77
f 102/189/78 103/190/78 97/191/78
f 103/190/78 104/192/78 97/191/78
o cube.017_Mesh_17.008
v -0.245000 2.541875 -0.245000
v -0.245000 2.541875 0.245000
v 0.245000 2.541875 0.245000
v -0.245000 2.480625 0.245000
v 0.245000 2.480625 0.245000
v 0.245000 2.541875 -0.245000
v 0.245000 2.480625 -0.245000
v -0.245000 2.480625 -0.245000
vt 0.000000 0.867188
vt 0.000000 0.859375
vt 0.062500 0.867188
vt 0.062500 0.859375
vt 0.125000 0.867188
vt 0.125000 0.859375
vt 0.187500 0.867188
vt 0.187500 0.859375
vt 0.125000 0.929688
vt 0.062500 0.929688
vt 0.187500 0.929688
vt 0.187500 0.867188
vt 0.125000 0.929688
vt 0.125000 0.867188
vt 0.250000 0.867188
vt 0.250000 0.859375
vn 1.0000 0.0000 0.0000
vn -1.0000 0.0000 0.0000
vn 0.0000 1.0000 0.0000
vn 0.0000 -1.0000 0.0000
vn 0.0000 0.0000 1.0000
vn 0.0000 0.0000 -1.0000
usemtl Material_0.019
s off
f 107/203/79 109/204/79 110/205/79
f 109/204/79 111/206/79 110/205/79
f 105/207/80 112/208/80 106/209/80
f 112/208/80 108/210/80 106/209/80
f 105/207/81 106/211/81 110/205/81
f 106/211/81 107/212/81 110/205/81
f 108/213/82 112/214/82 109/215/82
f 112/214/82 111/216/82 109/215/82
f 106/209/83 108/210/83 107/217/83
f 108/210/83 109/218/83 107/217/83
f 110/205/84 111/206/84 105/207/84
f 111/206/84 112/208/84 105/207/84
o cube.018_Mesh_18.008
v -0.183750 2.603125 -0.183750
v -0.183750 2.603125 0.183750
v 0.183750 2.603125 0.183750
v -0.183750 2.541875 0.183750
v 0.183750 2.541875 0.183750
v 0.183750 2.603125 -0.183750
v 0.183750 2.541875 -0.183750
v -0.183750 2.541875 -0.183750
vt 0.000000 0.683594
vt 0.000000 0.675781
vt 0.046875 0.683594
vt 0.046875 0.675781
vt 0.093750 0.683594
vt 0.093750 0.675781
vt 0.140625 0.683594
vt 0.140625 0.675781
vt 0.093750 0.730469
vt 0.046875 0.730469
vt 0.140625 0.730469
vt 0.140625 0.683594
vt 0.093750 0.730469
vt 0.093750 0.683594
vt 0.187500 0.683594
vt 0.187500 0.675781
vn 1.0000 0.0000 0.0000
vn -1.0000 0.0000 0.0000
vn 0.0000 1.0000 0.0000
vn 0.0000 -1.0000 0.0000
vn 0.0000 0.0000 1.0000
vn 0.0000 0.0000 -1.0000
usemtl Material_0.019
s off
f 115/219/85 117/220/85 118/221/85
f 117/220/85 119/222/85 118/221/85
f 113/223/86 120/224/86 114/225/86
f 120/224/86 116/226/86 114/225/86
f 113/223/87 114/227/87 118/221/87
f 114/227/87 115/228/87 118/221/87
f 116/229/88 120/230/88 117/231/88
f 120/230/88 119/232/88 117/231/88
f 114/225/89 116/226/89 115/233/89
f 116/226/89 117/234/89 115/233/89
f 118/221/90 119/222/90 113/223/90
f 119/222/90 120/224/90 113/223/90
o cube.019_Mesh_19.008
v -0.122500 2.756250 -0.122500
v -0.122500 2.756250 0.122500
v 0.122500 2.756250 0.122500
v -0.122500 2.603125 0.122500
v 0.122500 2.603125 0.122500
v 0.122500 2.756250 -0.122500
v 0.122500 2.603125 -0.122500
v -0.122500 2.603125 -0.122500
vt 0.359375 0.683594
vt 0.359375 0.664062
vt 0.390625 0.683594
vt 0.390625 0.664062
vt 0.421875 0.683594
vt 0.421875 0.664062
vt 0.453125 0.683594
vt 0.453125 0.664062
vt 0.421875 0.714844
vt 0.390625 0.714844
vt 0.453125 0.714844
vt 0.453125 0.683594
vt 0.421875 0.714844
vt 0.421875 0.683594
vt 0.484375 0.683594
vt 0.484375 0.664062
vn 1.0000 0.0000 0.0000
vn -1.0000 0.0000 0.0000
vn 0.0000 1.0000 0.0000
vn 0.0000 -1.0000 0.0000
vn 0.0000 0.0000 1.0000
vn 0.0000 0.0000 -1.0000
usemtl Material_0.019
s off
f 123/235/91 125/236/91 126/237/91
f 125/236/91 127/238/91 126/237/91
f 121/239/92 128/240/92 122/241/92
f 128/240/92 124/242/92 122/241/92
f 121/239/93 122/243/93 126/237/93
f 122/243/93 123/244/93 126/237/93
f 124/245/94 128/246/94 125/247/94
f 128/246/94 127/248/94 125/247/94
f 122/241/95 124/242/95 123/249/95
f 124/242/95 125/250/95 123/249/95
f 126/237/96 127/238/96 121/239/96
f 127/238/96 128/240/96 121/239/96
o cube.020_Mesh_20.008
v -0.183750 2.113125 -0.183750
v -0.183750 2.113125 0.183750
v 0.183750 2.113125 0.183750
v -0.183750 2.082500 0.183750
v 0.183750 2.082500 0.183750
v 0.183750 2.113125 -0.183750
v 0.183750 2.082500 -0.183750
v -0.183750 2.082500 -0.183750
vt 0.281250 0.832031
vt 0.281250 0.828125
vt 0.328125 0.832031
vt 0.328125 0.828125
vt 0.375000 0.832031
vt 0.375000 0.828125
vt 0.421875 0.832031
vt 0.421875 0.828125
vt 0.375000 0.878906
vt 0.328125 0.878906
vt 0.421875 0.878906
vt 0.421875 0.832031
vt 0.375000 0.878906
vt 0.375000 0.832031
vt 0.468750 0.832031
vt 0.468750 0.828125
vn 1.0000 0.0000 0.0000
vn -1.0000 0.0000 0.0000
vn 0.0000 1.0000 0.0000
vn 0.0000 -1.0000 0.0000
vn 0.0000 0.0000 1.0000
vn 0.0000 0.0000 -1.0000
usemtl Material_0.019
s off
f 131/251/97 133/252/97 134/253/97
f 133/252/97 135/254/97 134/253/97
f 129/255/98 136/256/98 130/257/98
f 136/256/98 132/258/98 130/257/98
f 129/255/99 130/259/99 134/253/99
f 130/259/99 131/260/99 134/253/99
f 132/261/100 136/262/100 133/263/100
f 136/262/100 135/264/100 133/263/100
f 130/257/101 132/258/101 131/265/101
f 132/258/101 133/266/101 131/265/101
f 134/253/102 135/254/102 129/255/102
f 135/254/102 136/256/102 129/255/102
o cube.021_Mesh_21.008
v -0.061250 2.909375 -0.061250
v -0.061250 2.909375 0.061250
v 0.061250 2.909375 0.061250
v -0.061250 2.756250 0.061250
v 0.061250 2.756250 0.061250
v 0.061250 2.909375 -0.061250
v 0.061250 2.756250 -0.061250
v -0.061250 2.756250 -0.061250
vt 0.195312 0.562500
vt 0.195312 0.542969
vt 0.210938 0.562500
vt 0.210938 0.542969
vt 0.226562 0.562500
vt 0.226562 0.542969
vt 0.242188 0.562500
vt 0.242188 0.542969
vt 0.226562 0.578125
vt 0.210938 0.578125
vt 0.242188 0.578125
vt 0.242188 0.562500
vt 0.226562 0.578125
vt 0.226562 0.562500
vt 0.257812 0.562500
vt 0.257812 0.542969
vn 1.0000 0.0000 0.0000
vn -1.0000 0.0000 0.0000
vn 0.0000 1.0000 0.0000
vn 0.0000 -1.0000 0.0000
vn 0.0000 0.0000 1.0000
vn 0.0000 0.0000 -1.0000
usemtl Material_0.019
s off
f 139/267/103 141/268/103 142/269/103
f 141/268/103 143/270/103 142/269/103
f 137/271/104 144/272/104 138/273/104
f 144/272/104 140/274/104 138/273/104
f 137/271/105 138/275/105 142/269/105
f 138/275/105 139/276/105 142/269/105
f 140/277/106 144/278/106 141/279/106
f 144/278/106 143/280/106 141/279/106
f 138/273/107 140/274/107 139/281/107
f 140/274/107 141/282/107 139/281/107
f 142/269/108 143/270/108 137/271/108
f 143/270/108 144/272/108 137/271/108
o cube.022_Mesh_22.008
v -0.030625 3.093125 -0.030625
v -0.030625 3.093125 0.030625
v 0.030625 3.093125 0.030625
v -0.030625 2.909375 0.030625
v 0.030625 2.909375 0.030625
v 0.030625 3.093125 -0.030625
v 0.030625 2.909375 -0.030625
v -0.030625 2.909375 -0.030625
vt 0.187500 0.722656
vt 0.187500 0.699219
vt 0.195312 0.722656
vt 0.195312 0.699219
vt 0.203125 0.722656
vt 0.203125 0.699219
vt 0.210938 0.722656
vt 0.210938 0.699219
vt 0.203125 0.730469
vt 0.195312 0.730469
vt 0.210938 0.730469
vt 0.210938 0.722656
vt 0.203125 0.730469
vt 0.203125 0.722656
vt 0.218750 0.722656
vt 0.218750 0.699219
vn 1.0000 0.0000 0.0000
vn -1.0000 0.0000 0.0000
vn 0.0000 1.0000 0.0000
vn 0.0000 -1.0000 0.0000
vn 0.0000 0.0000 1.0000
vn 0.0000 0.0000 -1.0000
usemtl Material_0.019
s off
f 147/283/109 149/284/109 150/285/109
f 149/284/109 151/286/109 150/285/109
f 145/287/110 152/288/110 146/289/110
f 152/288/110 148/290/110 146/289/110
f 145/287/111 146/291/111 150/285/111
f 146/291/111 147/292/111 150/285/111
f 148/293/112 152/294/112 149/295/112
f 152/294/112 151/296/112 149/295/112
f 146/289/113 148/290/113 147/297/113
f 148/290/113 149/298/113 147/297/113
f 150/285/114 151/286/114 145/287/114
f 151/286/114 152/288/114 145/287/114
o cube.023_Mesh_23.008
v -0.091875 2.480625 -0.091875
v -0.091875 2.480625 0.091875
v 0.091875 2.480625 0.091875
v -0.091875 2.174375 0.091875
v 0.091875 2.174375 0.091875
v 0.091875 2.480625 -0.091875
v 0.091875 2.174375 -0.091875
v -0.091875 2.174375 -0.091875
vt 0.550781 0.273438
vt 0.550781 0.234375
vt 0.574219 0.273438
vt 0.574219 0.234375
vt 0.597656 0.273438
vt 0.597656 0.234375
vt 0.621094 0.273438
vt 0.621094 0.234375
vt 0.597656 0.296875
vt 0.574219 0.296875
vt 0.621094 0.296875
vt 0.621094 0.273438
vt 0.597656 0.296875
vt 0.597656 0.273438
vt 0.644531 0.273438
vt 0.644531 0.234375
vn 1.0000 0.0000 0.0000
vn -1.0000 0.0000 0.0000
vn 0.0000 1.0000 0.0000
vn 0.0000 -1.0000 0.0000
vn 0.0000 0.0000 1.0000
vn 0.0000 0.0000 -1.0000
usemtl Material_0.019
s off
f 155/299/115 157/300/115 158/301/115
f 157/300/115 159/302/115 158/301/115
f 153/303/116 160/304/116 154/305/116
f 160/304/116 156/306/116 154/305/116
f 153/303/117 154/307/117 158/301/117
f 154/307/117 155/308/117 158/301/117
f 156/309/118 160/310/118 157/311/118
f 160/310/118 159/312/118 157/311/118
f 154/305/119 156/306/119 155/313/119
f 156/306/119 157/314/119 155/313/119
f 158/301/120 159/302/120 153/303/120
f 159/302/120 160/304/120 153/303/120
