# Blender 4.4.3
# www.blender.org
mtllib lord_british_throne.mtl
o cube.001_Mesh_1
v 0.895625 0.148750 -0.095000
v 0.895625 0.148750 1.095000
v 1.193125 0.148750 1.095000
v 0.895625 0.000000 1.095000
v 1.193125 0.000000 1.095000
v 1.193125 0.148750 -0.095000
v 1.193125 -0.000000 -0.095000
v 0.895625 -0.000000 -0.095000
vn 1.0000 -0.0000 -0.0000
vn -1.0000 -0.0000 -0.0000
vn -0.0000 1.0000 -0.0000
vn -0.0000 -1.0000 -0.0000
vn -0.0000 -0.0000 1.0000
vn -0.0000 -0.0000 -1.0000
vt 0.312561 0.617126
vt 0.312561 0.609436
vt 0.386658 0.617126
vt 0.386658 0.609436
vt 0.402405 0.617126
vt 0.402405 0.609436
vt 0.476501 0.617126
vt 0.476501 0.609436
vt 0.402283 0.617249
vt 0.402283 0.691345
vt 0.386780 0.617249
vt 0.386780 0.691345
vt 0.417908 0.691345
vt 0.417908 0.617249
vt 0.402405 0.691345
vt 0.402405 0.617249
vt 0.476624 0.617126
vt 0.476624 0.609436
vt 0.492126 0.617126
vt 0.492126 0.609436
vt 0.386780 0.617126
vt 0.386780 0.609436
vt 0.402283 0.617126
vt 0.402283 0.609436
s 1
usemtl Material_0
f 3/1/1 5/2/1 6/3/1
f 5/2/1 7/4/1 6/3/1
f 1/5/2 8/6/2 2/7/2
f 8/6/2 4/8/2 2/7/2
f 1/9/3 2/10/3 6/11/3
f 2/10/3 3/12/3 6/11/3
f 4/13/4 8/14/4 5/15/4
f 8/14/4 7/16/4 5/15/4
f 2/17/5 4/18/5 3/19/5
f 4/18/5 5/20/5 3/19/5
f 6/21/6 7/22/6 1/23/6
f 7/22/6 8/24/6 1/23/6
o cube.002_Mesh_2
v -0.255625 0.148750 -0.095000
v -0.255625 0.148750 1.095000
v 0.041875 0.148750 1.095000
v -0.255625 0.000000 1.095000
v 0.041875 0.000000 1.095000
v 0.041875 0.148750 -0.095000
v 0.041875 -0.000000 -0.095000
v -0.255625 -0.000000 -0.095000
vn 1.0000 -0.0000 -0.0000
vn -1.0000 -0.0000 -0.0000
vn -0.0000 1.0000 -0.0000
vn -0.0000 -1.0000 -0.0000
vn -0.0000 -0.0000 1.0000
vn -0.0000 -0.0000 -1.0000
vt 0.359436 0.925720
vt 0.359436 0.918030
vt 0.433533 0.925720
vt 0.433533 0.918030
vt 0.449280 0.925720
vt 0.449280 0.918030
vt 0.523376 0.925720
vt 0.523376 0.918030
vt 0.449158 0.925842
vt 0.449158 0.999939
vt 0.433655 0.925842
vt 0.433655 0.999939
vt 0.464783 0.999939
vt 0.464783 0.925842
vt 0.449280 0.999939
vt 0.449280 0.925842
vt 0.523499 0.925720
vt 0.523499 0.918030
vt 0.539001 0.925720
vt 0.539001 0.918030
vt 0.433655 0.925720
vt 0.433655 0.918030
vt 0.449158 0.925720
vt 0.449158 0.918030
s 1
usemtl Material_0
f 11/25/7 13/26/7 14/27/7
f 13/26/7 15/28/7 14/27/7
f 9/29/8 16/30/8 10/31/8
f 16/30/8 12/32/8 10/31/8
f 9/33/9 10/34/9 14/35/9
f 10/34/9 11/36/9 14/35/9
f 12/37/10 16/38/10 13/39/10
f 16/38/10 15/40/10 13/39/10
f 10/41/11 12/42/11 11/43/11
f 12/42/11 13/44/11 11/43/11
f 14/45/12 15/46/12 9/47/12
f 15/46/12 16/48/12 9/47/12
o cube.003_Mesh_3
v 0.076552 0.698726 -0.087563
v 0.076552 0.698726 1.087563
v 0.220234 0.660227 1.087563
v -0.099768 0.040690 1.087563
v 0.043913 0.002190 1.087563
v 0.220234 0.660227 -0.087563
v 0.043913 0.002190 -0.087563
v -0.099768 0.040690 -0.087563
vn 0.9659 -0.2588 -0.0000
vn -0.9659 0.2588 -0.0000
vn 0.2588 0.9659 -0.0000
vn -0.2588 -0.9659 -0.0000
vn -0.0000 -0.0000 1.0000
vn -0.0000 -0.0000 -1.0000
vt 0.156311 0.621033
vt 0.156311 0.582092
vt 0.226501 0.621033
vt 0.226501 0.582092
vt 0.234436 0.621033
vt 0.234436 0.582092
vt 0.304626 0.621033
vt 0.304626 0.582092
vt 0.234314 0.621155
vt 0.234314 0.691345
vt 0.226624 0.621155
vt 0.226624 0.691345
vt 0.242126 0.691345
vt 0.242126 0.621155
vt 0.234436 0.691345
vt 0.234436 0.621155
vt 0.304749 0.621033
vt 0.304749 0.582092
vt 0.312439 0.621033
vt 0.312439 0.582092
vt 0.226624 0.621033
vt 0.226624 0.582092
vt 0.234314 0.621033
vt 0.234314 0.582092
s 1
usemtl Material_0
f 19/49/13 21/50/13 22/51/13
f 21/50/13 23/52/13 22/51/13
f 17/53/14 24/54/14 18/55/14
f 24/54/14 20/56/14 18/55/14
f 17/57/15 18/58/15 22/59/15
f 18/58/15 19/60/15 22/59/15
f 20/61/16 24/62/16 21/63/16
f 24/62/16 23/64/16 21/63/16
f 18/65/17 20/66/17 19/67/17
f 20/66/17 21/68/17 19/67/17
f 22/69/18 23/70/18 17/71/18
f 23/70/18 24/72/18 17/71/18
o cube.004_Mesh_4
v 0.717049 0.661719 -0.087563
v 0.717049 0.661719 1.087563
v 0.860730 0.700218 1.087563
v 0.895294 -0.003502 1.087563
v 1.038976 0.034997 1.087563
v 0.860730 0.700218 -0.087563
v 1.038976 0.034997 -0.087563
v 0.895294 -0.003502 -0.087563
vn 0.9659 0.2588 -0.0000
vn -0.9659 -0.2588 -0.0000
vn -0.2588 0.9659 -0.0000
vn 0.2588 -0.9659 -0.0000
vn -0.0000 -0.0000 1.0000
vn -0.0000 -0.0000 -1.0000
vt 0.203186 0.734314
vt 0.203186 0.691467
vt 0.273376 0.734314
vt 0.273376 0.691467
vt 0.281311 0.734314
vt 0.281311 0.691467
vt 0.351501 0.734314
vt 0.351501 0.691467
vt 0.281189 0.734436
vt 0.281189 0.804626
vt 0.273499 0.734436
vt 0.273499 0.804626
vt 0.289001 0.804626
vt 0.289001 0.734436
vt 0.281311 0.804626
vt 0.281311 0.734436
vt 0.351624 0.734314
vt 0.351624 0.691467
vt 0.359314 0.734314
vt 0.359314 0.691467
vt 0.273499 0.734314
vt 0.273499 0.691467
vt 0.281189 0.734314
vt 0.281189 0.691467
s 1
usemtl Material_0
f 27/73/19 29/74/19 30/75/19
f 29/74/19 31/76/19 30/75/19
f 25/77/20 32/78/20 26/79/20
f 32/78/20 28/80/20 26/79/20
f 25/81/21 26/82/21 30/83/21
f 26/82/21 27/84/21 30/83/21
f 28/85/22 32/86/22 29/87/22
f 32/86/22 31/88/22 29/87/22
f 26/89/23 28/90/23 27/91/23
f 28/90/23 29/92/23 27/91/23
f 30/93/24 31/94/24 25/95/24
f 31/94/24 32/96/24 25/95/24
o cube.005_Mesh_5
v 0.118937 0.766062 -0.088750
v 0.118937 0.766062 1.088750
v 0.806062 0.766062 1.088750
v 0.118937 0.617312 1.088750
v 0.806062 0.617312 1.088750
v 0.806062 0.766062 -0.088750
v 0.806062 0.617312 -0.088750
v 0.118937 0.617312 -0.088750
vn 1.0000 -0.0000 -0.0000
vn -1.0000 -0.0000 -0.0000
vn -0.0000 1.0000 -0.0000
vn -0.0000 -1.0000 -0.0000
vn -0.0000 -0.0000 1.0000
vn -0.0000 -0.0000 -1.0000
vt 0.000061 0.929626
vt 0.000061 0.921936
vt 0.070251 0.929626
vt 0.070251 0.921936
vt 0.109436 0.929626
vt 0.109436 0.921936
vt 0.179626 0.929626
vt 0.179626 0.921936
vt 0.109314 0.929749
vt 0.109314 0.999939
vt 0.070374 0.929749
vt 0.070374 0.999939
vt 0.148376 0.999939
vt 0.148376 0.929749
vt 0.109436 0.999939
vt 0.109436 0.929749
vt 0.179749 0.929626
vt 0.179749 0.921936
vt 0.218689 0.929626
vt 0.218689 0.921936
vt 0.070374 0.929626
vt 0.070374 0.921936
vt 0.109314 0.929626
vt 0.109314 0.921936
s 1
usemtl Material_0
f 35/97/25 37/98/25 38/99/25
f 37/98/25 39/100/25 38/99/25
f 33/101/26 40/102/26 34/103/26
f 40/102/26 36/104/26 34/103/26
f 33/105/27 34/106/27 38/107/27
f 34/106/27 35/108/27 38/107/27
f 36/109/28 40/110/28 37/111/28
f 40/110/28 39/112/28 37/111/28
f 34/113/29 36/114/29 35/115/29
f 36/114/29 37/116/29 35/115/29
f 38/117/30 39/118/30 33/119/30
f 39/118/30 40/120/30 33/119/30
o cube.006_Mesh_6
v 0.580132 0.689737 -0.087563
v 0.580132 0.689737 1.087563
v 0.700873 0.722089 1.087563
v 0.628968 0.507479 1.087563
v 0.749709 0.539831 1.087563
v 0.700873 0.722089 -0.087563
v 0.749709 0.539831 -0.087563
v 0.628968 0.507479 -0.087563
vn 0.9659 0.2588 -0.0000
vn -0.9659 -0.2588 -0.0000
vn -0.2588 0.9659 -0.0000
vn 0.2588 -0.9659 -0.0000
vn -0.0000 -0.0000 1.0000
vn -0.0000 -0.0000 -1.0000
vt 0.000061 0.558533
vt 0.000061 0.546936
vt 0.070251 0.558533
vt 0.070251 0.546936
vt 0.078186 0.558533
vt 0.078186 0.546936
vt 0.148376 0.558533
vt 0.148376 0.546936
vt 0.078064 0.558655
vt 0.078064 0.628845
vt 0.070374 0.558655
vt 0.070374 0.628845
vt 0.085876 0.628845
vt 0.085876 0.558655
vt 0.078186 0.628845
vt 0.078186 0.558655
vt 0.148499 0.558533
vt 0.148499 0.546936
vt 0.156189 0.558533
vt 0.156189 0.546936
vt 0.070374 0.558533
vt 0.070374 0.546936
vt 0.078064 0.558533
vt 0.078064 0.546936
s 1
usemtl Material_0
f 43/121/31 45/122/31 46/123/31
f 45/122/31 47/124/31 46/123/31
f 41/125/32 48/126/32 42/127/32
f 48/126/32 44/128/32 42/127/32
f 41/129/33 42/130/33 46/131/33
f 42/130/33 43/132/33 46/131/33
f 44/133/34 48/134/34 45/135/34
f 48/134/34 47/136/34 45/135/34
f 42/137/35 44/138/35 43/139/35
f 44/138/35 45/140/35 43/139/35
f 46/141/36 47/142/36 41/143/36
f 47/142/36 48/144/36 41/143/36
o cube.007_Mesh_7
v 0.218616 0.654190 -0.087563
v 0.218616 0.654190 1.087563
v 0.339357 0.621838 1.087563
v 0.184646 0.527412 1.087563
v 0.305387 0.495060 1.087563
v 0.339357 0.621838 -0.087563
v 0.305387 0.495060 -0.087563
v 0.184646 0.527412 -0.087563
vn 0.9659 -0.2588 -0.0000
vn -0.9659 0.2588 -0.0000
vn 0.2588 0.9659 -0.0000
vn -0.2588 -0.9659 -0.0000
vn -0.0000 -0.0000 1.0000
vn -0.0000 -0.0000 -1.0000
vt 0.156311 0.511658
vt 0.156311 0.503967
vt 0.226501 0.511658
vt 0.226501 0.503967
vt 0.234436 0.511658
vt 0.234436 0.503967
vt 0.304626 0.511658
vt 0.304626 0.503967
vt 0.234314 0.511780
vt 0.234314 0.581970
vt 0.226624 0.511780
vt 0.226624 0.581970
vt 0.242126 0.581970
vt 0.242126 0.511780
vt 0.234436 0.581970
vt 0.234436 0.511780
vt 0.304749 0.511658
vt 0.304749 0.503967
vt 0.312439 0.511658
vt 0.312439 0.503967
vt 0.226624 0.511658
vt 0.226624 0.503967
vt 0.234314 0.511658
vt 0.234314 0.503967
s 1
usemtl Material_0
f 51/145/37 53/146/37 54/147/37
f 53/146/37 55/148/37 54/147/37
f 49/149/38 56/150/38 50/151/38
f 56/150/38 52/152/38 50/151/38
f 49/153/39 50/154/39 54/155/39
f 50/154/39 51/156/39 54/155/39
f 52/157/40 56/158/40 53/159/40
f 56/158/40 55/160/40 53/159/40
f 50/161/41 52/162/41 51/163/41
f 52/162/41 53/164/41 51/163/41
f 54/165/42 55/166/42 49/167/42
f 55/166/42 56/168/42 49/167/42
o cube.008_Mesh_8
v 0.973964 0.277626 -0.087563
v 0.973964 0.277626 1.087563
v 1.034334 0.293802 1.087563
v 1.038976 0.034997 1.087563
v 1.099346 0.051174 1.087563
v 1.034334 0.293802 -0.087563
v 1.099346 0.051174 -0.087563
v 1.038976 0.034997 -0.087563
vn 0.9659 0.2588 -0.0000
vn -0.9659 -0.2588 -0.0000
vn -0.2588 0.9659 -0.0000
vn 0.2588 -0.9659 -0.0000
vn -0.0000 -0.0000 1.0000
vn -0.0000 -0.0000 -1.0000
vt 0.000061 0.476501
vt 0.000061 0.460999
vt 0.070251 0.476501
vt 0.070251 0.460999
vt 0.074280 0.476501
vt 0.074280 0.460999
vt 0.144470 0.476501
vt 0.144470 0.460999
vt 0.074158 0.476624
vt 0.074158 0.546814
vt 0.070374 0.476624
vt 0.070374 0.546814
vt 0.078064 0.546814
vt 0.078064 0.476624
vt 0.074280 0.546814
vt 0.074280 0.476624
vt 0.144592 0.476501
vt 0.144592 0.460999
vt 0.148376 0.476501
vt 0.148376 0.460999
vt 0.070374 0.476501
vt 0.070374 0.460999
vt 0.074158 0.476501
vt 0.074158 0.460999
s 1
usemtl Material_0
f 59/169/43 61/170/43 62/171/43
f 61/170/43 63/172/43 62/171/43
f 57/173/44 64/174/44 58/175/44
f 64/174/44 60/176/44 58/175/44
f 57/177/45 58/178/45 62/179/45
f 58/178/45 59/180/45 62/179/45
f 60/181/46 64/182/46 61/183/46
f 64/182/46 63/184/46 61/183/46
f 58/185/47 60/186/47 59/187/47
f 60/186/47 61/188/47 59/187/47
f 62/189/48 63/190/48 57/191/48
f 63/190/48 64/192/48 57/191/48
o cube.009_Mesh_9
v -0.097051 0.292310 -0.087563
v -0.097051 0.292310 1.087563
v -0.036681 0.276134 1.087563
v -0.160138 0.056866 1.087563
v -0.099768 0.040690 1.087563
v -0.036681 0.276134 -0.087563
v -0.099768 0.040690 -0.087563
v -0.160138 0.056866 -0.087563
vn 0.9659 -0.2588 -0.0000
vn -0.9659 0.2588 -0.0000
vn 0.2588 0.9659 -0.0000
vn -0.2588 -0.9659 -0.0000
vn -0.0000 -0.0000 1.0000
vn -0.0000 -0.0000 -1.0000
vt 0.312561 0.449158
vt 0.312561 0.437561
vt 0.382751 0.449158
vt 0.382751 0.437561
vt 0.386780 0.449158
vt 0.386780 0.437561
vt 0.456970 0.449158
vt 0.456970 0.437561
vt 0.386658 0.449280
vt 0.386658 0.519470
vt 0.382874 0.449280
vt 0.382874 0.519470
vt 0.390564 0.519470
vt 0.390564 0.449280
vt 0.386780 0.519470
vt 0.386780 0.449280
vt 0.457092 0.449158
vt 0.457092 0.437561
vt 0.460876 0.449158
vt 0.460876 0.437561
vt 0.382874 0.449158
vt 0.382874 0.437561
vt 0.386658 0.449158
vt 0.386658 0.437561
s 1
usemtl Material_0
f 67/193/49 69/194/49 70/195/49
f 69/194/49 71/196/49 70/195/49
f 65/197/50 72/198/50 66/199/50
f 72/198/50 68/200/50 66/199/50
f 65/201/51 66/202/51 70/203/51
f 66/202/51 67/204/51 70/203/51
f 68/205/52 72/206/52 69/207/52
f 72/206/52 71/208/52 69/207/52
f 66/209/53 68/210/53 67/211/53
f 68/210/53 69/212/53 67/211/53
f 70/213/54 71/214/54 65/215/54
f 71/214/54 72/216/54 65/215/54
o cube.010_Mesh_10
v 0.181437 0.891062 -0.088750
v 0.181437 0.891062 1.088750
v 0.743562 0.891062 1.088750
v 0.181437 0.766062 1.088750
v 0.743562 0.766062 1.088750
v 0.743562 0.891062 -0.088750
v 0.743562 0.766062 -0.088750
v 0.181437 0.766062 -0.088750
vn 1.0000 -0.0000 -0.0000
vn -1.0000 -0.0000 -0.0000
vn -0.0000 1.0000 -0.0000
vn -0.0000 -1.0000 -0.0000
vn -0.0000 -0.0000 1.0000
vn -0.0000 -0.0000 -1.0000
vt 0.000061 0.749939
vt 0.000061 0.742249
vt 0.070251 0.749939
vt 0.070251 0.742249
vt 0.101624 0.749939
vt 0.101624 0.742249
vt 0.171814 0.749939
vt 0.171814 0.742249
vt 0.101501 0.750061
vt 0.101501 0.820251
vt 0.070374 0.750061
vt 0.070374 0.820251
vt 0.132751 0.820251
vt 0.132751 0.750061
vt 0.101624 0.820251
vt 0.101624 0.750061
vt 0.171936 0.749939
vt 0.171936 0.742249
vt 0.203064 0.749939
vt 0.203064 0.742249
vt 0.070374 0.749939
vt 0.070374 0.742249
vt 0.101501 0.749939
vt 0.101501 0.742249
s 1
usemtl Material_0
f 75/217/55 77/218/55 78/219/55
f 77/218/55 79/220/55 78/219/55
f 73/221/56 80/222/56 74/223/56
f 80/222/56 76/224/56 74/223/56
f 73/225/57 74/226/57 78/227/57
f 74/226/57 75/228/57 78/227/57
f 76/229/58 80/230/58 77/231/58
f 80/230/58 79/232/58 77/231/58
f 74/233/59 76/234/59 75/235/59
f 76/234/59 77/236/59 75/235/59
f 78/237/60 79/238/60 73/239/60
f 79/238/60 80/240/60 73/239/60
o cube.011_Mesh_11
v 0.235752 0.700036 -0.087563
v 0.235752 0.700036 1.087563
v 0.092071 0.661536 1.087563
v 0.041331 1.425627 1.087563
v -0.102351 1.387128 1.087563
v 0.092071 0.661536 -0.087563
v -0.102351 1.387128 -0.087563
v 0.041331 1.425627 -0.087563
vn -0.9659 -0.2588 -0.0000
vn 0.9659 0.2588 -0.0000
vn 0.2588 -0.9659 -0.0000
vn -0.2588 0.9659 -0.0000
vn -0.0000 -0.0000 1.0000
vn -0.0000 -0.0000 -1.0000
vt 0.203186 0.851501
vt 0.203186 0.804749
vt 0.273376 0.851501
vt 0.273376 0.804749
vt 0.281311 0.851501
vt 0.281311 0.804749
vt 0.351501 0.851501
vt 0.351501 0.804749
vt 0.281189 0.851624
vt 0.281189 0.921814
vt 0.273499 0.851624
vt 0.273499 0.921814
vt 0.289001 0.921814
vt 0.289001 0.851624
vt 0.281311 0.921814
vt 0.281311 0.851624
vt 0.351624 0.851501
vt 0.351624 0.804749
vt 0.359314 0.851501
vt 0.359314 0.804749
vt 0.273499 0.851501
vt 0.273499 0.804749
vt 0.281189 0.851501
vt 0.281189 0.804749
s 1
usemtl Material_0
f 83/241/61 85/242/61 86/243/61
f 85/242/61 87/244/61 86/243/61
f 81/245/62 88/246/62 82/247/62
f 88/246/62 84/248/62 82/247/62
f 81/249/63 82/250/63 86/251/63
f 82/250/63 83/252/63 86/251/63
f 84/253/64 88/254/64 85/255/64
f 88/254/64 87/256/64 85/255/64
f 82/257/65 84/258/65 83/259/65
f 84/258/65 85/260/65 83/259/65
f 86/261/66 87/262/66 81/263/66
f 87/262/66 88/264/66 81/263/66
o cube.012_Mesh_12
v 0.041000 1.273375 -0.095000
v 0.041000 1.273375 1.095000
v -0.256500 1.273375 1.095000
v 0.041000 1.422125 1.095000
v -0.256500 1.422125 1.095000
v -0.256500 1.273375 -0.095000
v -0.256500 1.422125 -0.095000
v 0.041000 1.422125 -0.095000
vn -1.0000 -0.0000 -0.0000
vn 1.0000 -0.0000 -0.0000
vn -0.0000 -1.0000 -0.0000
vn -0.0000 1.0000 -0.0000
vn -0.0000 -0.0000 1.0000
vn -0.0000 -0.0000 -1.0000
vt 0.359436 0.761658
vt 0.359436 0.753967
vt 0.433533 0.761658
vt 0.433533 0.753967
vt 0.449280 0.761658
vt 0.449280 0.753967
vt 0.523376 0.761658
vt 0.523376 0.753967
vt 0.449158 0.761780
vt 0.449158 0.835876
vt 0.433655 0.761780
vt 0.433655 0.835876
vt 0.464783 0.835876
vt 0.464783 0.761780
vt 0.449280 0.835876
vt 0.449280 0.761780
vt 0.523499 0.761658
vt 0.523499 0.753967
vt 0.539001 0.761658
vt 0.539001 0.753967
vt 0.433655 0.761658
vt 0.433655 0.753967
vt 0.449158 0.761658
vt 0.449158 0.753967
s 1
usemtl Material_0
f 91/265/67 93/266/67 94/267/67
f 93/266/67 95/268/67 94/267/67
f 89/269/68 96/270/68 90/271/68
f 96/270/68 92/272/68 90/271/68
f 89/273/69 90/274/69 94/275/69
f 90/274/69 91/276/69 94/275/69
f 92/277/70 96/278/70 93/279/70
f 96/278/70 95/280/70 93/279/70
f 90/281/71 92/282/71 91/283/71
f 92/282/71 93/284/71 91/283/71
f 94/285/72 95/286/72 89/287/72
f 95/286/72 96/288/72 89/287/72
o cube.013_Mesh_13
v -0.037339 1.144499 -0.087563
v -0.037339 1.144499 1.087563
v -0.097709 1.128323 1.087563
v -0.102351 1.387128 1.087563
v -0.162721 1.370952 1.087563
v -0.097709 1.128323 -0.087563
v -0.162721 1.370952 -0.087563
v -0.102351 1.387128 -0.087563
vn -0.9659 -0.2588 -0.0000
vn 0.9659 0.2588 -0.0000
vn 0.2588 -0.9659 -0.0000
vn -0.2588 0.9659 -0.0000
vn -0.0000 -0.0000 1.0000
vn -0.0000 -0.0000 -1.0000
vt 0.460999 0.539001
vt 0.460999 0.523499
vt 0.531189 0.539001
vt 0.531189 0.523499
vt 0.535217 0.539001
vt 0.535217 0.523499
vt 0.605408 0.539001
vt 0.605408 0.523499
vt 0.535095 0.539124
vt 0.535095 0.609314
vt 0.531311 0.539124
vt 0.531311 0.609314
vt 0.539001 0.609314
vt 0.539001 0.539124
vt 0.535217 0.609314
vt 0.535217 0.539124
vt 0.605530 0.539001
vt 0.605530 0.523499
vt 0.609314 0.539001
vt 0.609314 0.523499
vt 0.531311 0.539001
vt 0.531311 0.523499
vt 0.535095 0.539001
vt 0.535095 0.523499
s 1
usemtl Material_0
f 99/289/73 101/290/73 102/291/73
f 101/290/73 103/292/73 102/291/73
f 97/293/74 104/294/74 98/295/74
f 104/294/74 100/296/74 98/295/74
f 97/297/75 98/298/75 102/299/75
f 98/298/75 99/300/75 102/299/75
f 100/301/76 104/302/76 101/303/76
f 104/302/76 103/304/76 101/303/76
f 98/305/77 100/306/77 99/307/77
f 100/306/77 101/308/77 99/307/77
f 102/309/78 103/310/78 97/311/78
f 103/310/78 104/312/78 97/311/78
o cube.014_Mesh_14
v 0.296123 0.716212 -0.087563
v 0.296123 0.716212 1.087563
v 0.235752 0.700036 1.087563
v 0.214934 1.019211 1.087563
v 0.154564 1.003035 1.087563
v 0.235752 0.700036 -0.087563
v 0.154564 1.003035 -0.087563
v 0.214934 1.019211 -0.087563
vn -0.9659 -0.2588 -0.0000
vn 0.9659 0.2588 -0.0000
vn 0.2588 -0.9659 -0.0000
vn -0.2588 0.9659 -0.0000
vn -0.0000 -0.0000 1.0000
vn -0.0000 -0.0000 -1.0000
vt 0.312561 0.539001
vt 0.312561 0.519592
vt 0.382751 0.539001
vt 0.382751 0.519592
vt 0.386780 0.539001
vt 0.386780 0.519592
vt 0.456970 0.539001
vt 0.456970 0.519592
vt 0.386658 0.539124
vt 0.386658 0.609314
vt 0.382874 0.539124
vt 0.382874 0.609314
vt 0.390564 0.609314
vt 0.390564 0.539124
vt 0.386780 0.609314
vt 0.386780 0.539124
vt 0.457092 0.539001
vt 0.457092 0.519592
vt 0.460876 0.539001
vt 0.460876 0.519592
vt 0.382874 0.539001
vt 0.382874 0.519592
vt 0.386658 0.539001
vt 0.386658 0.519592
s 1
usemtl Material_0
f 107/313/79 109/314/79 110/315/79
f 109/314/79 111/316/79 110/315/79
f 105/317/80 112/318/80 106/319/80
f 112/318/80 108/320/80 106/319/80
f 105/321/81 106/322/81 110/323/81
f 106/322/81 107/324/81 110/323/81
f 108/325/82 112/326/82 109/327/82
f 112/326/82 111/328/82 109/327/82
f 106/329/83 108/330/83 107/331/83
f 108/330/83 109/332/83 107/331/83
f 110/333/84 111/334/84 105/335/84
f 111/334/84 112/336/84 105/335/84
o cube.015_Mesh_15
v 0.843896 0.663028 -0.087563
v 0.843896 0.663028 1.087563
v 0.700215 0.701527 1.087563
v 1.036393 1.381435 1.087563
v 0.892712 1.419935 1.087563
v 0.700215 0.701527 -0.087563
v 0.892712 1.419935 -0.087563
v 1.036393 1.381435 -0.087563
vn -0.9659 0.2588 -0.0000
vn 0.9659 -0.2588 -0.0000
vn -0.2588 -0.9659 -0.0000
vn 0.2588 0.9659 -0.0000
vn -0.0000 -0.0000 1.0000
vn -0.0000 -0.0000 -1.0000
vt 0.000061 0.671814
vt 0.000061 0.628967
vt 0.070251 0.671814
vt 0.070251 0.628967
vt 0.078186 0.671814
vt 0.078186 0.628967
vt 0.148376 0.671814
vt 0.148376 0.628967
vt 0.078064 0.671936
vt 0.078064 0.742126
vt 0.070374 0.671936
vt 0.070374 0.742126
vt 0.085876 0.742126
vt 0.085876 0.671936
vt 0.078186 0.742126
vt 0.078186 0.671936
vt 0.148499 0.671814
vt 0.148499 0.628967
vt 0.156189 0.671814
vt 0.156189 0.628967
vt 0.070374 0.671814
vt 0.070374 0.628967
vt 0.078064 0.671814
vt 0.078064 0.628967
s 1
usemtl Material_0
f 115/337/85 117/338/85 118/339/85
f 117/338/85 119/340/85 118/339/85
f 113/341/86 120/342/86 114/343/86
f 120/342/86 116/344/86 114/343/86
f 113/345/87 114/346/87 118/347/87
f 114/346/87 115/348/87 118/347/87
f 116/349/88 120/350/88 117/351/88
f 120/350/88 119/352/88 117/351/88
f 114/353/89 116/354/89 115/355/89
f 116/354/89 117/356/89 115/355/89
f 118/357/90 119/358/90 113/359/90
f 119/358/90 120/360/90 113/359/90
o cube.016_Mesh_16
v 0.699008 0.701851 -0.087563
v 0.699008 0.701851 1.087563
v 0.621734 0.722556 1.087563
v 0.778271 0.997666 1.087563
v 0.700997 1.018371 1.087563
v 0.621734 0.722556 -0.087563
v 0.700997 1.018371 -0.087563
v 0.778271 0.997666 -0.087563
vn -0.9659 0.2588 -0.0000
vn 0.9659 -0.2588 -0.0000
vn -0.2588 -0.9659 -0.0000
vn 0.2588 0.9659 -0.0000
vn -0.0000 -0.0000 1.0000
vn -0.0000 -0.0000 -1.0000
vt 0.460999 0.453064
vt 0.460999 0.437561
vt 0.531189 0.453064
vt 0.531189 0.437561
vt 0.535217 0.453064
vt 0.535217 0.437561
vt 0.605408 0.453064
vt 0.605408 0.437561
vt 0.535095 0.453186
vt 0.535095 0.523376
vt 0.531311 0.453186
vt 0.531311 0.523376
vt 0.539001 0.523376
vt 0.539001 0.453186
vt 0.535217 0.523376
vt 0.535217 0.453186
vt 0.605530 0.453064
vt 0.605530 0.437561
vt 0.609314 0.453064
vt 0.609314 0.437561
vt 0.531311 0.453064
vt 0.531311 0.437561
vt 0.535095 0.453064
vt 0.535095 0.437561
s 1
usemtl Material_0
f 123/361/91 125/362/91 126/363/91
f 125/362/91 127/364/91 126/363/91
f 121/365/92 128/366/92 122/367/92
f 128/366/92 124/368/92 122/367/92
f 121/369/93 122/370/93 126/371/93
f 122/370/93 123/372/93 126/371/93
f 124/373/94 128/374/94 125/375/94
f 128/374/94 127/376/94 125/375/94
f 122/377/95 124/378/95 123/379/95
f 124/378/95 125/380/95 123/379/95
f 126/381/96 127/382/96 121/383/96
f 127/382/96 128/384/96 121/383/96
o cube.017_Mesh_17
v 1.033676 1.129815 -0.087563
v 1.033676 1.129815 1.087563
v 0.973306 1.145991 1.087563
v 1.096763 1.365259 1.087563
v 1.036393 1.381435 1.087563
v 0.973306 1.145991 -0.087563
v 1.036393 1.381435 -0.087563
v 1.096763 1.365259 -0.087563
vn -0.9659 0.2588 -0.0000
vn 0.9659 -0.2588 -0.0000
vn -0.2588 -0.9659 -0.0000
vn 0.2588 0.9659 -0.0000
vn -0.0000 -0.0000 1.0000
vn -0.0000 -0.0000 -1.0000
vt 0.492249 0.683533
vt 0.492249 0.671936
vt 0.562439 0.683533
vt 0.562439 0.671936
vt 0.566467 0.683533
vt 0.566467 0.671936
vt 0.636658 0.683533
vt 0.636658 0.671936
vt 0.566345 0.683655
vt 0.566345 0.753845
vt 0.562561 0.683655
vt 0.562561 0.753845
vt 0.570251 0.753845
vt 0.570251 0.683655
vt 0.566467 0.753845
vt 0.566467 0.683655
vt 0.636780 0.683533
vt 0.636780 0.671936
vt 0.640564 0.683533
vt 0.640564 0.671936
vt 0.562561 0.683533
vt 0.562561 0.671936
vt 0.566345 0.683533
vt 0.566345 0.671936
s 1
usemtl Material_0
f 131/385/97 133/386/97 134/387/97
f 133/386/97 135/388/97 134/387/97
f 129/389/98 136/390/98 130/391/98
f 136/390/98 132/392/98 130/391/98
f 129/393/99 130/394/99 134/395/99
f 130/394/99 131/396/99 134/395/99
f 132/397/100 136/398/100 133/399/100
f 136/398/100 135/400/100 133/399/100
f 130/401/101 132/402/101 131/403/101
f 132/402/101 133/404/101 131/403/101
f 134/405/102 135/406/102 129/407/102
f 135/406/102 136/408/102 129/407/102
o cube.018_Mesh_18
v 1.192250 1.273375 -0.095000
v 1.192250 1.273375 1.095000
v 0.894750 1.273375 1.095000
v 1.192250 1.422125 1.095000
v 0.894750 1.422125 1.095000
v 0.894750 1.273375 -0.095000
v 0.894750 1.422125 -0.095000
v 1.192250 1.422125 -0.095000
vn -1.0000 -0.0000 -0.0000
vn 1.0000 -0.0000 -0.0000
vn -0.0000 -1.0000 -0.0000
vn -0.0000 1.0000 -0.0000
vn -0.0000 -0.0000 1.0000
vn -0.0000 -0.0000 -1.0000
vt 0.359436 0.843689
vt 0.359436 0.835999
vt 0.433533 0.843689
vt 0.433533 0.835999
vt 0.449280 0.843689
vt 0.449280 0.835999
vt 0.523376 0.843689
vt 0.523376 0.835999
vt 0.449158 0.843811
vt 0.449158 0.917908
vt 0.433655 0.843811
vt 0.433655 0.917908
vt 0.464783 0.917908
vt 0.464783 0.843811
vt 0.449280 0.917908
vt 0.449280 0.843811
vt 0.523499 0.843689
vt 0.523499 0.835999
vt 0.539001 0.843689
vt 0.539001 0.835999
vt 0.433655 0.843689
vt 0.433655 0.835999
vt 0.449158 0.843689
vt 0.449158 0.835999
s 1
usemtl Material_0
f 139/409/103 141/410/103 142/411/103
f 141/410/103 143/412/103 142/411/103
f 137/413/104 144/414/104 138/415/104
f 144/414/104 140/416/104 138/415/104
f 137/417/105 138/418/105 142/419/105
f 138/418/105 139/420/105 142/419/105
f 140/421/106 144/422/106 141/423/106
f 144/422/106 143/424/106 141/423/106
f 138/425/107 140/426/107 139/427/107
f 140/426/107 141/428/107 139/427/107
f 142/429/108 143/430/108 137/431/108
f 143/430/108 144/432/108 137/431/108
o cube_Mesh_0
v 0.393938 0.878563 -0.163750
v 0.393938 0.878563 1.163750
v 0.531062 0.878563 1.163750
v 0.393938 0.542313 1.163750
v 0.531062 0.542313 1.163750
v 0.531062 0.878563 -0.163750
v 0.531062 0.542313 -0.163750
v 0.393938 0.542313 -0.163750
vn 1.0000 -0.0000 -0.0000
vn -1.0000 -0.0000 -0.0000
vn -0.0000 1.0000 -0.0000
vn -0.0000 -1.0000 -0.0000
vn -0.0000 -0.0000 1.0000
vn -0.0000 -0.0000 -1.0000
vt 0.000061 0.839783
vt 0.000061 0.820374
vt 0.081970 0.839783
vt 0.081970 0.820374
vt 0.089905 0.839783
vt 0.089905 0.820374
vt 0.171814 0.839783
vt 0.171814 0.820374
vt 0.089783 0.839905
vt 0.089783 0.921814
vt 0.082092 0.839905
vt 0.082092 0.921814
vt 0.097595 0.921814
vt 0.097595 0.839905
vt 0.089905 0.921814
vt 0.089905 0.839905
vt 0.171936 0.839783
vt 0.171936 0.820374
vt 0.179626 0.839783
vt 0.179626 0.820374
vt 0.082092 0.839783
vt 0.082092 0.820374
vt 0.089783 0.839783
vt 0.089783 0.820374
s 1
usemtl Material_0
f 147/433/109 149/434/109 150/435/109
f 149/434/109 151/436/109 150/435/109
f 145/437/110 152/438/110 146/439/110
f 152/438/110 148/440/110 146/439/110
f 145/441/111 146/442/111 150/443/111
f 146/442/111 147/444/111 150/443/111
f 148/445/112 152/446/112 149/447/112
f 152/446/112 151/448/112 149/447/112
f 146/449/113 148/450/113 147/451/113
f 148/450/113 149/452/113 147/451/113
f 150/453/114 151/454/114 145/455/114
f 151/454/114 152/456/114 145/455/114
