# Blender 4.4.3
# www.blender.org
mtllib oval_base.mtl
o cube
v 0.906250 0.656250 0.031250
v 0.906250 0.656250 -0.031250
v 0.906250 0.093750 0.031250
v 0.906250 0.093750 -0.031250
v 0.093750 0.656250 -0.031250
v 0.093750 0.656250 0.031250
v 0.093750 0.093750 -0.031250
v 0.093750 0.093750 0.031250
vn -0.0000 -0.0000 -1.0000
vn 1.0000 -0.0000 -0.0000
vn -0.0000 -0.0000 1.0000
vn -1.0000 -0.0000 -0.0000
vn -0.0000 1.0000 -0.0000
vn -0.0000 -1.0000 -0.0000
vt 0.406250 0.718750
vt 0.000000 1.000000
vt 0.000000 0.718750
vt 0.437500 0.656250
vt 0.406250 0.937500
vt 0.406250 0.656250
vt 0.406250 0.437500
vt 0.000000 0.437500
vt 0.437500 0.375000
vt 0.406250 0.375000
vt 0.406250 1.000000
vt 0.812500 0.968750
vt 0.812500 1.000000
vt 0.812500 0.937500
vt 0.437500 0.937500
vt 0.406250 0.968750
s 1
usemtl m_2e7db249-42d2-96c9-fd6d-8c4d24a5017a
f 7/1/1 2/2/1 4/3/1
f 4/4/2 1/5/2 3/6/2
f 3/7/3 6/3/3 8/8/3
f 8/9/4 5/6/4 7/10/4
f 1/11/5 5/12/5 6/13/5
f 4/5/6 8/12/6 7/14/6
f 7/1/1 5/11/1 2/2/1
f 4/4/2 2/15/2 1/5/2
f 3/7/3 1/1/3 6/3/3
f 8/9/4 6/4/4 5/6/4
f 1/11/5 2/16/5 5/12/5
f 4/5/6 3/16/6 8/12/6
o cube.001
v 0.345646 0.890625 -0.033146
v 0.345646 0.890625 -0.033146
v 0.345646 0.640625 -0.033146
v 0.345646 0.640625 -0.033146
v 0.279354 0.890625 0.033146
v 0.279354 0.890625 0.033146
v 0.279354 0.640625 0.033146
v 0.279354 0.640625 0.033146
vn -0.7071 -0.0000 -0.7071
vn -0.0000 1.0000 -0.0000
vn -0.0000 -0.0000 1.0000
vn 0.7071 -0.0000 0.7071
vn -0.0000 -1.0000 -0.0000
vn -0.9239 -0.0000 -0.3827
vn -0.7071 -0.0000 0.7071
vn 0.9239 -0.0000 -0.3827
vn 0.7071 0.0001 0.7071
vn -0.7071 -0.0001 -0.7071
vn -0.9239 -0.0000 0.3827
vn 0.7071 -0.0000 -0.7071
vn 0.9239 -0.0000 0.3827
vt 0.000000 0.500000
vt 0.187500 1.000000
vt 0.187500 0.500000
vt 0.000000 1.000000
s 1
usemtl m_354127b2-32ee-e6a7-a465-ff51d7a51b13
f 15/17/7 10/18/7 12/19/7
s 0
f 11/20/8 10/20/9 9/20/8
s 1
f 11/19/10 14/20/10 16/17/10
s 0
f 15/20/8 14/20/9 13/20/11
f 14/20/12 10/20/13 13/20/9
f 15/20/14 11/20/15 16/20/9
s 1
f 15/17/7 13/20/7 10/18/7
s 0
f 11/20/9 12/20/8 10/20/11
s 1
f 11/19/10 9/18/10 14/20/10
s 0
f 15/20/9 16/20/11 14/20/11
f 14/20/16 9/20/9 10/20/17
f 15/20/18 12/20/9 11/20/19
o cube.002
v 0.345646 0.890625 0.033146
v 0.279354 0.890625 -0.033146
v 0.345646 0.640625 0.033146
v 0.279354 0.640625 -0.033146
v 0.279354 0.890625 -0.033146
v 0.345646 0.890625 0.033146
v 0.279354 0.640625 -0.033146
v 0.345646 0.640625 0.033146
vn 0.7071 -0.0000 -0.7071
vn -0.0000 1.0000 -0.0000
vn -0.0000 -0.0000 1.0000
vn -0.7071 -0.0000 0.7071
vn -0.0000 -1.0000 -0.0000
vt 0.375000 0.500000
vt 0.187500 1.000000
vt 0.187500 0.500000
vt 0.000000 1.000000
vt 0.375000 1.000000
s 1
usemtl m_354127b2-32ee-e6a7-a465-ff51d7a51b13
f 20/21/20 17/22/20 19/23/20
f 24/23/23 21/25/23 23/21/23
f 20/21/20 18/25/20 17/22/20
f 24/23/23 22/22/23 21/25/23
s 0
usemtl m_db0f1192-fd13-dbaa-f412-42b8a778d960
f 24/24/21 17/24/22 22/24/21
f 24/24/22 19/24/21 17/24/24
o cube.003
v 0.720646 0.890625 0.033146
v 0.654354 0.890625 -0.033146
v 0.720646 0.640625 0.033146
v 0.654354 0.640625 -0.033146
v 0.654354 0.890625 -0.033146
v 0.720646 0.890625 0.033146
v 0.654354 0.640625 -0.033146
v 0.720646 0.640625 0.033146
vn 0.7071 -0.0000 -0.7071
vn -0.0000 1.0000 -0.0000
vn -0.0000 -0.0000 1.0000
vn -0.7071 -0.0000 0.7071
vn -0.0000 -1.0000 -0.0000
vt 0.375000 0.500000
vt 0.187500 1.000000
vt 0.187500 0.500000
vt 0.000000 1.000000
vt 0.375000 1.000000
s 1
usemtl m_354127b2-32ee-e6a7-a465-ff51d7a51b13
f 28/26/25 25/27/25 27/28/25
f 32/28/28 29/30/28 31/26/28
f 28/26/25 26/30/25 25/27/25
f 32/28/28 30/27/28 29/30/28
s 0
usemtl m_db0f1192-fd13-dbaa-f412-42b8a778d960
f 32/29/26 25/29/27 30/29/26
f 32/29/27 27/29/26 25/29/29
o cube.004
v 0.720646 0.890625 -0.033146
v 0.720646 0.890625 -0.033146
v 0.720646 0.640625 -0.033146
v 0.720646 0.640625 -0.033146
v 0.654354 0.890625 0.033146
v 0.654354 0.890625 0.033146
v 0.654354 0.640625 0.033146
v 0.654354 0.640625 0.033146
vn -0.7071 -0.0000 -0.7071
vn -0.0000 1.0000 -0.0000
vn -0.0000 -0.0000 1.0000
vn 0.7071 -0.0000 0.7071
vn -0.0000 -1.0000 -0.0000
vn -0.9239 -0.0000 -0.3827
vn -0.7071 -0.0000 0.7071
vn 0.9239 -0.0000 -0.3827
vn 0.7071 0.0001 0.7071
vn -0.7071 -0.0001 -0.7071
vn -0.9239 -0.0000 0.3827
vn 0.7071 -0.0000 -0.7071
vn 0.9239 -0.0000 0.3827
vt 0.000000 0.500000
vt 0.187500 1.000000
vt 0.187500 0.500000
vt 0.000000 1.000000
s 1
usemtl m_354127b2-32ee-e6a7-a465-ff51d7a51b13
f 39/31/30 34/32/30 36/33/30
s 0
f 35/34/31 34/34/32 33/34/31
s 1
f 35/33/33 38/34/33 40/31/33
s 0
f 39/34/31 38/34/32 37/34/34
f 38/34/35 34/34/36 37/34/32
f 39/34/37 35/34/38 40/34/32
s 1
f 39/31/30 37/34/30 34/32/30
s 0
f 35/34/32 36/34/31 34/34/34
s 1
f 35/33/33 33/32/33 38/34/33
s 0
f 39/34/32 40/34/34 38/34/34
f 38/34/39 33/34/32 34/34/40
f 39/34/41 36/34/32 35/34/42
o hexadecagon
v 0.791044 0.165243 0.062500
v 0.791044 0.165243 -0.062500
v 0.814961 0.107501 0.062500
v 0.814961 0.107501 -0.062500
v 0.606958 0.088992 -0.062500
v 0.606958 0.088992 0.062500
v 0.630876 0.031250 -0.062500
v 0.630876 0.031250 0.062500
vn -0.0000 -0.0000 -1.0000
vn -0.0000 -0.0000 1.0000
vn -0.3827 0.9239 -0.0000
vn 0.3827 -0.9239 -0.0000
vt 0.468750 0.906250
vt 0.375000 0.937500
vt 0.375000 0.906250
vt 0.468750 0.875000
vt 0.375000 0.875000
vt 0.125000 0.937500
vt 0.218750 0.875000
vt 0.218750 0.937500
vt 0.125000 0.812500
vt 0.218750 0.812500
vt 0.468750 0.937500
vt 0.125000 0.875000
s 1
usemtl m_db0f1192-fd13-dbaa-f412-42b8a778d960
f 47/35/43 42/36/43 44/37/43
f 43/38/44 46/37/44 48/39/44
f 41/40/45 45/41/45 46/42/45
f 44/43/46 48/41/46 47/44/46
f 47/35/43 45/45/43 42/36/43
f 43/38/44 41/35/44 46/37/44
f 41/40/45 42/46/45 45/41/45
f 44/43/46 43/46/46 48/41/46
o hexadecagon.001
v 0.867466 0.248393 0.062500
v 0.867466 0.248393 -0.062500
v 0.911660 0.204199 0.062500
v 0.911660 0.204199 -0.062500
v 0.770767 0.151694 -0.062500
v 0.770767 0.151694 0.062500
v 0.814961 0.107500 -0.062500
v 0.814961 0.107500 0.062500
vn -0.0000 -0.0000 -1.0000
vn 0.7071 0.7071 -0.0000
vn -0.0000 -0.0000 1.0000
vn -0.7071 0.7071 -0.0000
vn 0.7071 -0.7071 -0.0000
vt 0.375000 0.625000
vt 0.437500 0.656250
vt 0.375000 0.656250
vt 0.187500 0.562500
vt 0.125000 0.593750
vt 0.125000 0.562500
vt 0.250000 0.562500
vt 0.187500 0.593750
vt 0.250000 1.000000
vt 0.312500 0.937500
vt 0.312500 1.000000
vt 0.093750 0.687500
vt 0.156250 0.750000
vt 0.156250 0.687500
vt 0.437500 0.625000
vt 0.250000 0.593750
vt 0.250000 0.937500
vt 0.093750 0.750000
s 1
usemtl m_db0f1192-fd13-dbaa-f412-42b8a778d960
f 52/47/47 53/48/47 50/49/47
f 52/50/48 49/51/48 51/52/48
f 51/53/49 54/54/49 56/50/49
f 49/55/50 53/56/50 54/57/50
f 52/58/51 56/59/51 55/60/51
f 52/47/47 55/61/47 53/48/47
f 52/50/48 50/54/48 49/51/48
f 51/53/49 49/62/49 54/54/49
f 49/55/50 50/63/50 53/56/50
f 52/58/51 51/64/51 56/59/51
o hexadecagon.002
v 0.906250 0.354459 0.062500
v 0.906250 0.354459 -0.062500
v 0.963993 0.330541 0.062500
v 0.963993 0.330541 -0.062500
v 0.853917 0.228116 -0.062500
v 0.853917 0.228116 0.062500
v 0.911660 0.204199 -0.062500
v 0.911660 0.204199 0.062500
vn -0.0000 -0.0000 -1.0000
vn 0.3827 0.9239 -0.0000
vn -0.0000 -0.0000 1.0000
vn -0.3827 -0.9239 -0.0000
vn -0.9239 0.3827 -0.0000
vn 0.9239 -0.3827 -0.0000
vt 0.406250 0.781250
vt 0.468750 0.812500
vt 0.406250 0.812500
vt 0.468750 0.750000
vt 0.406250 0.750000
vt 0.312500 0.562500
vt 0.250000 0.593750
vt 0.250000 0.562500
vt 0.468750 0.718750
vt 0.406250 0.718750
vt 0.156250 0.750000
vt 0.218750 0.687500
vt 0.218750 0.750000
vt 0.281250 0.750000
vt 0.281250 0.687500
vt 0.468750 0.781250
vt 0.312500 0.593750
vt 0.156250 0.687500
s 1
usemtl m_db0f1192-fd13-dbaa-f412-42b8a778d960
f 60/65/52 61/66/52 58/67/52
f 60/68/53 57/65/53 59/69/53
f 59/70/54 62/71/54 64/72/54
f 64/73/55 61/69/55 63/74/55
f 57/75/56 61/76/56 62/77/56
f 60/76/57 64/78/57 63/79/57
f 60/65/52 63/80/52 61/66/52
f 60/68/53 58/80/53 57/65/53
f 59/70/54 57/81/54 62/71/54
f 64/73/55 62/68/55 61/69/55
f 57/75/56 58/82/56 61/76/56
f 60/76/57 59/77/57 64/78/57
o hexadecagon.003
v 0.630876 0.093750 0.062500
v 0.630876 0.093750 -0.062500
v 0.630876 0.031250 0.062500
v 0.630876 0.031250 -0.062500
v 0.369124 0.093750 -0.062500
v 0.369124 0.093750 0.062500
v 0.369124 0.031250 -0.062500
v 0.369124 0.031250 0.062500
vn -0.0000 -0.0000 -1.0000
vn -0.0000 -0.0000 1.0000
vn -0.0000 1.0000 -0.0000
vn -0.0000 -1.0000 -0.0000
vt 0.406250 0.781250
vt 0.281250 0.812500
vt 0.281250 0.781250
vt 0.406250 0.750000
vt 0.281250 0.750000
vt 0.000000 1.000000
vt 0.125000 0.937500
vt 0.125000 1.000000
vt 0.000000 0.875000
vt 0.125000 0.875000
vt 0.406250 0.812500
vt 0.000000 0.937500
s 1
usemtl m_db0f1192-fd13-dbaa-f412-42b8a778d960
f 71/83/58 66/84/58 68/85/58
f 67/86/59 70/85/59 72/87/59
f 65/88/60 69/89/60 70/90/60
f 68/91/61 72/89/61 71/92/61
f 71/83/58 69/93/58 66/84/58
f 67/86/59 65/83/59 70/85/59
f 65/88/60 66/94/60 69/89/60
f 68/91/61 67/94/61 72/89/61
o hexadecagon.004
v 0.146083 0.228116 0.062500
v 0.146083 0.228116 -0.062500
v 0.088340 0.204199 0.062500
v 0.088340 0.204199 -0.062500
v 0.093750 0.354459 -0.062500
v 0.093750 0.354459 0.062500
v 0.036007 0.330541 -0.062500
v 0.036007 0.330541 0.062500
vn -0.0000 -0.0000 -1.0000
vn 0.3827 -0.9239 -0.0000
vn -0.0000 -0.0000 1.0000
vn -0.3827 0.9239 -0.0000
vn 0.9239 0.3827 -0.0000
vn -0.9239 -0.3827 -0.0000
vt 0.468750 0.687500
vt 0.406250 0.718750
vt 0.406250 0.687500
vt 0.375000 0.562500
vt 0.312500 0.593750
vt 0.312500 0.562500
vt 0.437500 0.562500
vt 0.375000 0.593750
vt 0.468750 0.593750
vt 0.406250 0.625000
vt 0.406250 0.593750
vt 0.281250 0.750000
vt 0.343750 0.687500
vt 0.343750 0.750000
vt 0.000000 0.625000
vt 0.062500 0.687500
vt 0.062500 0.625000
vt 0.468750 0.718750
vt 0.437500 0.593750
vt 0.468750 0.625000
vt 0.281250 0.687500
vt 0.000000 0.687500
s 1
usemtl m_db0f1192-fd13-dbaa-f412-42b8a778d960
f 79/95/62 74/96/62 76/97/62
f 76/98/63 73/99/63 75/100/63
f 75/101/64 78/102/64 80/98/64
f 80/103/65 77/104/65 79/105/65
f 73/106/66 77/107/66 78/108/66
f 76/109/67 80/110/67 79/111/67
f 79/95/62 77/112/62 74/96/62
f 76/98/63 74/102/63 73/99/63
f 75/101/64 73/113/64 78/102/64
f 80/103/65 78/114/65 77/104/65
f 73/106/66 74/115/66 77/107/66
f 76/109/67 75/116/67 80/110/67
o hexadecagon.005
v 0.229233 0.151694 0.062500
v 0.229233 0.151694 -0.062500
v 0.185039 0.107500 0.062500
v 0.185039 0.107500 -0.062500
v 0.132534 0.248393 -0.062500
v 0.132534 0.248393 0.062500
v 0.088340 0.204199 -0.062500
v 0.088340 0.204199 0.062500
vn -0.0000 -0.0000 -1.0000
vn -0.0000 -0.0000 1.0000
vn -0.7071 0.7071 -0.0000
vn 0.7071 0.7071 -0.0000
vn -0.7071 -0.7071 -0.0000
vt 0.000000 0.531250
vt 0.062500 0.562500
vt 0.000000 0.562500
vt 0.437500 0.968750
vt 0.500000 1.000000
vt 0.437500 1.000000
vt 0.500000 0.937500
vt 0.437500 0.937500
vt 0.312500 1.000000
vt 0.375000 0.937500
vt 0.375000 1.000000
vt 0.062500 0.625000
vt 0.125000 0.687500
vt 0.125000 0.625000
vt 0.062500 0.531250
vt 0.500000 0.968750
vt 0.312500 0.937500
vt 0.062500 0.687500
s 1
usemtl m_db0f1192-fd13-dbaa-f412-42b8a778d960
f 84/117/68 85/118/68 82/119/68
f 88/120/69 81/121/69 86/122/69
f 88/123/70 85/120/70 87/124/70
f 81/125/71 85/126/71 86/127/71
f 84/128/72 88/129/72 87/130/72
f 84/117/68 87/131/68 85/118/68
f 88/120/69 83/132/69 81/121/69
f 88/123/70 86/132/70 85/120/70
f 81/125/71 82/133/71 85/126/71
f 84/128/72 83/134/72 88/129/72
o hexadecagon.006
v 0.393042 0.088992 0.062500
v 0.393042 0.088992 -0.062500
v 0.369124 0.031250 0.062500
v 0.369124 0.031250 -0.062500
v 0.208956 0.165243 -0.062500
v 0.208956 0.165243 0.062500
v 0.185039 0.107501 -0.062500
v 0.185039 0.107501 0.062500
vn -0.0000 -0.0000 -1.0000
vn -0.0000 -0.0000 1.0000
vn 0.3827 0.9239 -0.0000
vn -0.3827 -0.9239 -0.0000
vt 0.218750 0.593750
vt 0.125000 0.625000
vt 0.125000 0.593750
vt 0.468750 0.843750
vt 0.375000 0.875000
vt 0.375000 0.843750
vt 0.000000 0.812500
vt 0.093750 0.750000
vt 0.093750 0.812500
vt 0.187500 0.812500
vt 0.187500 0.750000
vt 0.218750 0.625000
vt 0.468750 0.875000
vt 0.000000 0.750000
s 1
usemtl m_db0f1192-fd13-dbaa-f412-42b8a778d960
f 95/135/73 90/136/73 92/137/73
f 91/138/74 94/139/74 96/140/74
f 89/141/75 93/142/75 94/143/75
f 92/142/76 96/144/76 95/145/76
f 95/135/73 93/146/73 90/136/73
f 91/138/74 89/147/74 94/139/74
f 89/141/75 90/148/75 93/142/75
f 92/142/76 91/143/76 96/144/76
o hexadecagon.007
v 0.369124 0.704086 0.062500
v 0.369124 0.704086 -0.062500
v 0.393042 0.646343 0.062500
v 0.393042 0.646343 -0.062500
v 0.185039 0.627835 -0.062500
v 0.185039 0.627835 0.062500
v 0.208956 0.570093 -0.062500
v 0.208956 0.570093 0.062500
vn -0.0000 -0.0000 -1.0000
vn -0.0000 -0.0000 1.0000
vn -0.3827 0.9239 -0.0000
vn 0.3827 -0.9239 -0.0000
vt 0.375000 0.812500
vt 0.468750 0.843750
vt 0.375000 0.843750
vt 0.312500 0.593750
vt 0.218750 0.625000
vt 0.218750 0.593750
vt 0.187500 0.812500
vt 0.281250 0.750000
vt 0.281250 0.812500
vt 0.218750 0.875000
vt 0.312500 0.937500
vt 0.312500 0.875000
vt 0.468750 0.812500
vt 0.312500 0.625000
vt 0.187500 0.750000
vt 0.218750 0.937500
s 1
usemtl m_db0f1192-fd13-dbaa-f412-42b8a778d960
f 100/149/77 101/150/77 98/151/77
f 99/152/78 102/153/78 104/154/78
f 97/155/79 101/156/79 102/157/79
f 100/158/80 104/159/80 103/160/80
f 100/149/77 103/161/77 101/150/77
f 99/152/78 97/162/78 102/153/78
f 97/155/79 98/163/79 101/156/79
f 100/158/80 99/164/80 104/159/80
o hexadecagon.008
v 0.185039 0.627835 0.062500
v 0.185039 0.627835 -0.062500
v 0.229233 0.583641 0.062500
v 0.229233 0.583641 -0.062500
v 0.088340 0.531136 -0.062500
v 0.088340 0.531136 0.062500
v 0.132534 0.486942 -0.062500
v 0.132534 0.486942 0.062500
vn -0.0000 -0.0000 -1.0000
vn -0.0000 -0.0000 1.0000
vn -0.7071 -0.7071 -0.0000
vn -0.7071 0.7071 -0.0000
vn 0.7071 -0.7071 -0.0000
vt 0.125000 0.531250
vt 0.062500 0.562500
vt 0.062500 0.531250
vt 0.187500 0.531250
vt 0.125000 0.562500
vt 0.250000 0.531250
vt 0.187500 0.562500
vt 0.312500 0.937500
vt 0.375000 0.875000
vt 0.375000 0.937500
vt 0.125000 0.625000
vt 0.187500 0.687500
vt 0.187500 0.625000
vt 0.250000 0.562500
vt 0.312500 0.875000
vt 0.125000 0.687500
s 1
usemtl m_db0f1192-fd13-dbaa-f412-42b8a778d960
f 111/165/81 106/166/81 108/167/81
f 107/168/82 110/169/82 112/165/82
f 112/170/83 109/171/83 111/168/83
f 105/172/84 109/173/84 110/174/84
f 108/175/85 112/176/85 111/177/85
f 111/165/81 109/169/81 106/166/81
f 107/168/82 105/171/82 110/169/82
f 112/170/83 110/178/83 109/171/83
f 105/172/84 106/179/84 109/173/84
f 108/175/85 107/180/85 112/176/85
o hexadecagon.009
v 0.088340 0.531136 0.062500
v 0.088340 0.531136 -0.062500
v 0.146083 0.507219 0.062500
v 0.146083 0.507219 -0.062500
v 0.036007 0.404794 -0.062500
v 0.036007 0.404794 0.062500
v 0.093750 0.380876 -0.062500
v 0.093750 0.380876 0.062500
vn -0.0000 -0.0000 -1.0000
vn 0.3827 0.9239 -0.0000
vn -0.0000 -0.0000 1.0000
vn -0.3827 -0.9239 -0.0000
vn -0.9239 0.3827 -0.0000
vn 0.9239 -0.3827 -0.0000
vt 0.312500 0.531250
vt 0.250000 0.562500
vt 0.250000 0.531250
vt 0.375000 0.531250
vt 0.312500 0.562500
vt 0.500000 0.625000
vt 0.437500 0.656250
vt 0.437500 0.625000
vt 0.437500 0.531250
vt 0.375000 0.562500
vt 0.312500 0.875000
vt 0.375000 0.812500
vt 0.375000 0.875000
vt 0.187500 0.625000
vt 0.250000 0.687500
vt 0.250000 0.625000
vt 0.500000 0.656250
vt 0.437500 0.562500
vt 0.312500 0.812500
vt 0.187500 0.687500
s 1
usemtl m_db0f1192-fd13-dbaa-f412-42b8a778d960
f 119/181/86 114/182/86 116/183/86
f 116/184/87 113/185/87 115/181/87
f 115/186/88 118/187/88 120/188/88
f 120/189/89 117/190/89 119/184/89
f 113/191/90 117/192/90 118/193/90
f 116/194/91 120/195/91 119/196/91
f 119/181/86 117/185/86 114/182/86
f 116/184/87 114/190/87 113/185/87
f 115/186/88 113/197/88 118/187/88
f 120/189/89 118/198/89 117/190/89
f 113/191/90 114/199/90 117/192/90
f 116/194/91 115/200/91 120/195/91
o hexadecagon.010
v 0.036008 0.404794 0.062500
v 0.036008 0.404794 -0.062500
v 0.098508 0.404794 0.062500
v 0.098508 0.404794 -0.062500
v 0.036008 0.330541 -0.062500
v 0.036008 0.330541 0.062500
v 0.098508 0.330541 -0.062500
v 0.098508 0.330541 0.062500
vn -0.0000 -0.0000 -1.0000
vn -0.0000 1.0000 -0.0000
vn -0.0000 -0.0000 1.0000
vn -0.0000 -1.0000 -0.0000
vn -1.0000 -0.0000 -0.0000
vn 1.0000 -0.0000 -0.0000
vt 0.500000 0.687500
vt 0.468750 0.718750
vt 0.468750 0.687500
vt 0.500000 0.562500
vt 0.437500 0.593750
vt 0.437500 0.562500
vt 0.500000 0.656250
vt 0.468750 0.656250
vt 0.500000 0.531250
vt 0.437500 0.531250
vt 0.000000 0.531250
vt 0.031250 0.468750
vt 0.031250 0.531250
vt 0.062500 0.531250
vt 0.062500 0.468750
vt 0.500000 0.718750
vt 0.500000 0.593750
vt 0.000000 0.468750
s 1
usemtl m_db0f1192-fd13-dbaa-f412-42b8a778d960
f 127/201/92 122/202/92 124/203/92
f 124/204/93 121/205/93 123/206/93
f 123/207/94 126/203/94 128/208/94
f 128/209/95 125/206/95 127/210/95
f 121/211/96 125/212/96 126/213/96
f 124/212/97 128/214/97 127/215/97
f 127/201/92 125/216/92 122/202/92
f 124/204/93 122/217/93 121/205/93
f 123/207/94 121/201/94 126/203/94
f 128/209/95 126/204/95 125/206/95
f 121/211/96 122/218/96 125/212/96
f 124/212/97 123/213/97 128/214/97
o hexadecagon.011
v 0.630876 0.704086 0.062500
v 0.630876 0.704086 -0.062500
v 0.630876 0.641586 0.062500
v 0.630876 0.641586 -0.062500
v 0.369124 0.704086 -0.062500
v 0.369124 0.704086 0.062500
v 0.369124 0.641586 -0.062500
v 0.369124 0.641586 0.062500
vn -0.0000 -0.0000 -1.0000
vn -0.0000 -0.0000 1.0000
vn -0.0000 1.0000 -0.0000
vn -0.0000 -1.0000 -0.0000
vt 0.375000 0.656250
vt 0.250000 0.687500
vt 0.250000 0.656250
vt 0.375000 0.625000
vt 0.250000 0.625000
vt 0.000000 0.875000
vt 0.125000 0.812500
vt 0.125000 0.875000
vt 0.125000 0.937500
vt 0.250000 1.000000
vt 0.250000 0.937500
vt 0.375000 0.687500
vt 0.000000 0.812500
vt 0.125000 1.000000
s 1
usemtl m_db0f1192-fd13-dbaa-f412-42b8a778d960
f 135/219/98 130/220/98 132/221/98
f 131/222/99 134/221/99 136/223/99
f 129/224/100 133/225/100 134/226/100
f 132/227/101 136/228/101 135/229/101
f 135/219/98 133/230/98 130/220/98
f 131/222/99 129/219/99 134/221/99
f 129/224/100 130/231/100 133/225/100
f 132/227/101 131/232/101 136/228/101
o hexadecagon.012
v 0.963992 0.330541 0.062500
v 0.963992 0.330541 -0.062500
v 0.901492 0.330541 0.062500
v 0.901492 0.330541 -0.062500
v 0.963992 0.404794 -0.062500
v 0.963992 0.404794 0.062500
v 0.901492 0.404794 -0.062500
v 0.901492 0.404794 0.062500
vn -0.0000 -0.0000 -1.0000
vn -0.0000 -1.0000 -0.0000
vn -0.0000 -0.0000 1.0000
vn -0.0000 1.0000 -0.0000
vn 1.0000 -0.0000 -0.0000
vn -1.0000 -0.0000 -0.0000
vt 0.375000 0.500000
vt 0.343750 0.531250
vt 0.343750 0.500000
vt 0.125000 0.500000
vt 0.062500 0.531250
vt 0.062500 0.500000
vt 0.406250 0.500000
vt 0.375000 0.531250
vt 0.531250 0.906250
vt 0.468750 0.937500
vt 0.468750 0.906250
vt 0.500000 0.843750
vt 0.500000 0.906250
vt 0.125000 0.468750
vt 0.156250 0.531250
vt 0.156250 0.468750
vt 0.125000 0.531250
vt 0.406250 0.531250
vt 0.531250 0.937500
vt 0.468750 0.843750
s 1
usemtl m_db0f1192-fd13-dbaa-f412-42b8a778d960
f 143/233/102 138/234/102 140/235/102
f 140/236/103 137/237/103 139/238/103
f 139/239/104 142/240/104 144/233/104
f 144/241/105 141/242/105 143/243/105
f 137/243/106 141/244/106 142/245/106
f 140/246/107 144/247/107 143/248/107
f 143/233/102 141/240/102 138/234/102
f 140/236/103 138/249/103 137/237/103
f 139/239/104 137/250/104 142/240/104
f 144/241/105 142/251/105 141/242/105
f 137/243/106 138/252/106 141/244/106
f 140/246/107 139/249/107 144/247/107
o hexadecagon.013
v 0.963993 0.404794 0.062500
v 0.963993 0.404794 -0.062500
v 0.906250 0.380876 0.062500
v 0.906250 0.380876 -0.062500
v 0.911660 0.531136 -0.062500
v 0.911660 0.531136 0.062500
v 0.853917 0.507219 -0.062500
v 0.853917 0.507219 0.062500
vn -0.0000 -0.0000 -1.0000
vn 0.3827 -0.9239 -0.0000
vn -0.0000 -0.0000 1.0000
vn -0.3827 0.9239 -0.0000
vn 0.9239 0.3827 -0.0000
vn -0.9239 -0.3827 -0.0000
vt 0.218750 0.500000
vt 0.156250 0.531250
vt 0.156250 0.500000
vt 0.531250 0.812500
vt 0.468750 0.843750
vt 0.468750 0.812500
vt 0.531250 0.781250
vt 0.468750 0.781250
vt 0.281250 0.500000
vt 0.218750 0.531250
vt 0.343750 0.750000
vt 0.406250 0.687500
vt 0.406250 0.750000
vt 0.000000 0.562500
vt 0.062500 0.625000
vt 0.062500 0.562500
vt 0.531250 0.843750
vt 0.281250 0.531250
vt 0.343750 0.687500
vt 0.000000 0.625000
s 1
usemtl m_db0f1192-fd13-dbaa-f412-42b8a778d960
f 151/253/108 146/254/108 148/255/108
f 148/256/109 145/257/109 147/258/109
f 147/259/110 150/258/110 152/260/110
f 152/261/111 149/262/111 151/253/111
f 145/263/112 149/264/112 150/265/112
f 148/266/113 152/267/113 151/268/113
f 151/253/108 149/262/108 146/254/108
f 148/256/109 146/269/109 145/257/109
f 147/259/110 145/256/110 150/258/110
f 152/261/111 150/270/111 149/262/111
f 145/263/112 146/271/112 149/264/112
f 148/266/113 147/272/113 152/267/113
o hexadecagon.014
v 0.911660 0.531136 0.062500
v 0.911660 0.531136 -0.062500
v 0.867466 0.486942 0.062500
v 0.867466 0.486942 -0.062500
v 0.814961 0.627835 -0.062500
v 0.814961 0.627835 0.062500
v 0.770767 0.583641 -0.062500
v 0.770767 0.583641 0.062500
vn -0.0000 -0.0000 -1.0000
vn 0.7071 -0.7071 -0.0000
vn -0.0000 -0.0000 1.0000
vn 0.7071 0.7071 -0.0000
vn -0.7071 -0.7071 -0.0000
vt 0.468750 0.750000
vt 0.531250 0.781250
vt 0.468750 0.781250
vt 0.531250 0.718750
vt 0.468750 0.718750
vt 0.281250 0.500000
vt 0.343750 0.531250
vt 0.281250 0.531250
vt 0.375000 1.000000
vt 0.437500 0.937500
vt 0.437500 1.000000
vt 0.062500 0.562500
vt 0.125000 0.625000
vt 0.125000 0.562500
vt 0.531250 0.750000
vt 0.343750 0.500000
vt 0.375000 0.937500
vt 0.062500 0.625000
s 1
usemtl m_db0f1192-fd13-dbaa-f412-42b8a778d960
f 156/273/114 157/274/114 154/275/114
f 156/276/115 153/273/115 155/277/115
f 160/278/116 153/279/116 158/280/116
f 153/281/117 157/282/117 158/283/117
f 156/284/118 160/285/118 159/286/118
f 156/273/114 159/287/114 157/274/114
f 156/276/115 154/287/115 153/273/115
f 160/278/116 155/288/116 153/279/116
f 153/281/117 154/289/117 157/282/117
f 156/284/118 155/290/118 160/285/118
o hexadecagon.015
v 0.814961 0.627835 0.062500
v 0.814961 0.627835 -0.062500
v 0.791044 0.570093 0.062500
v 0.791044 0.570093 -0.062500
v 0.630876 0.704086 -0.062500
v 0.630876 0.704086 0.062500
v 0.606958 0.646343 -0.062500
v 0.606958 0.646343 0.062500
vn -0.0000 -0.0000 -1.0000
vn -0.0000 -0.0000 1.0000
vn 0.3827 0.9239 -0.0000
vn -0.3827 -0.9239 -0.0000
vt 0.406250 0.593750
vt 0.312500 0.625000
vt 0.312500 0.593750
vt 0.468750 0.656250
vt 0.375000 0.687500
vt 0.375000 0.656250
vt 0.218750 0.875000
vt 0.312500 0.812500
vt 0.312500 0.875000
vt 0.000000 0.687500
vt 0.093750 0.750000
vt 0.093750 0.687500
vt 0.406250 0.625000
vt 0.468750 0.687500
vt 0.218750 0.812500
vt 0.000000 0.750000
s 1
usemtl m_db0f1192-fd13-dbaa-f412-42b8a778d960
f 167/291/119 162/292/119 164/293/119
f 163/294/120 166/295/120 168/296/120
f 161/297/121 165/298/121 166/299/121
f 164/300/122 168/301/122 167/302/122
f 167/291/119 165/303/119 162/292/119
f 163/294/120 161/304/120 166/295/120
f 161/297/121 162/305/121 165/298/121
f 164/300/122 163/306/122 168/301/122
