# UltimaCraft sandstone battlement geometry
mtllib sandstone_battlement.mtl
v 0.000000 0.000000 0.000000
v 1.000000 0.000000 0.000000
v 1.000000 0.000000 1.000000
v 0.000000 0.000000 1.000000
v 0.937500 1.937500 0.937500
v 1.000000 1.937500 0.937500
v 0.937500 1.937500 1.000000
v 1.000000 1.937500 1.000000
v 0.937500 1.937500 0.937500
v 1.000000 1.937500 0.937500
v 1.000000 1.937500 1.000000
v 0.937500 1.937500 1.000000
v 0.937500 2.000000 0.937500
v 1.000000 2.000000 0.937500
v 1.000000 2.000000 1.000000
v 0.937500 2.000000 1.000000
vt 0.000000 0.000000
vt 0.000000 1.000000
vt 1.000000 1.000000
vt 1.000000 0.000000
vt 0.000000 0.000000
vt 0.000000 1.000000
vt 1.000000 1.000000
vt 1.000000 0.000000
vt 0.000000 0.000000
vt 0.000000 1.000000
vt 1.000000 1.000000
vt 1.000000 0.000000
vt 0.000000 0.000000
vt 0.000000 1.000000
vt 1.000000 1.000000
vt 1.000000 0.000000
vt 0.000000 0.000000
vt 0.000000 1.000000
vt 1.000000 1.000000
vt 1.000000 0.000000
vt 0.000000 0.000000
vt 0.000000 1.000000
vt 1.000000 1.000000
vt 1.000000 0.000000
vt 0.000000 0.000000
vt 0.000000 1.000000
vt 1.000000 1.000000
vt 1.000000 0.000000
vt 0.000000 0.000000
vt 0.000000 1.000000
vt 1.000000 1.000000
vt 1.000000 0.000000
vt 0.000000 0.000000
vt 0.000000 1.000000
vt 1.000000 1.000000
vt 1.000000 0.000000
vt 0.000000 0.000000
vt 0.000000 1.000000
vt 1.000000 1.000000
vt 1.000000 0.000000
vn 0.000000 -1.000000 0.000000
vn 0.000000 0.435561 -0.900159
vn -0.900159 0.435561 0.000000
vn 1.000000 0.000000 0.000000
vn 0.000000 0.000000 1.000000
vn 0.000000 1.000000 0.000000
vn 0.000000 0.000000 -1.000000
vn 1.000000 0.000000 0.000000
vn 0.000000 -0.000000 1.000000
vn -1.000000 0.000000 0.000000
usemtl bottom
f 1/1/1 2/2/1 3/3/1 4/4/1
usemtl side
f 1/5/2 5/6/2 6/7/2 2/8/2
usemtl side
f 1/9/3 4/10/3 7/11/3 5/12/3
usemtl side
f 2/13/4 6/14/4 8/15/4 3/16/4
usemtl side
f 4/17/5 3/18/5 8/19/5 7/20/5
usemtl top
f 13/21/6 16/22/6 15/23/6 14/24/6
usemtl side
f 9/25/7 13/26/7 14/27/7 10/28/7
usemtl side
f 10/29/8 14/30/8 15/31/8 11/32/8
usemtl side
f 11/33/9 15/34/9 16/35/9 12/36/9
usemtl side
f 12/37/10 16/38/10 13/39/10 9/40/10
