# Blender 4.4.3
# www.blender.org
mtllib statue_man.mtl
o cube
v 0.882288 2.278350 0.309534
v 0.722756 2.278350 -0.048782
v 0.882288 1.145425 0.309534
v 0.722756 1.145425 -0.048782
v -0.012076 2.278350 0.278387
v 0.147456 2.278350 0.636702
v -0.012076 1.145425 0.278387
v 0.147456 1.145425 0.636702
v -0.012076 2.278350 0.278387
v 0.722756 2.278350 -0.048782
v 0.147456 2.278350 0.636702
v 0.882288 2.278350 0.309534
v 0.147456 1.145425 0.636702
v 0.882288 1.145425 0.309534
v -0.012076 1.145425 0.278387
v 0.722756 1.145425 -0.048782
v 0.147456 2.278350 0.636702
v 0.882288 2.278350 0.309534
v 0.147456 1.145425 0.636702
v 0.882288 1.145425 0.309534
v 0.722756 2.278350 -0.048782
v -0.012076 2.278350 0.278387
v 0.722756 1.145425 -0.048782
v -0.012076 1.145425 0.278387
vn 0.9135 -0.0000 -0.4067
vn -0.9135 -0.0000 0.4067
vn -0.0000 1.0000 -0.0000
vn -0.0000 -1.0000 -0.0000
vn 0.4067 -0.0000 0.9135
vn -0.4067 -0.0000 -0.9135
vt 0.209263 0.984369
vt 0.209263 0.937494
vt 0.224888 0.984369
vt 0.224888 0.937494
vt 0.256138 0.984369
vt 0.256138 0.937494
vt 0.271763 0.984369
vt 0.271763 0.937494
vt 0.256138 0.999994
vt 0.224888 0.999994
vt 0.287388 0.999994
vt 0.287388 0.984369
vt 0.303013 0.984369
vt 0.303013 0.937494
s 1
usemtl texture0
f 1/1/1 3/2/1 2/3/1
f 3/2/1 4/4/1 2/3/1
f 5/5/2 7/6/2 6/7/2
f 7/6/2 8/8/2 6/7/2
f 9/5/3 11/9/3 10/3/3
f 11/9/3 12/10/3 10/3/3
f 13/11/4 15/12/4 14/9/4
f 15/12/4 16/5/4 14/9/4
f 17/7/5 19/8/5 18/13/5
f 19/8/5 20/14/5 18/13/5
f 21/3/6 23/4/6 22/5/6
f 23/4/6 24/6/6 22/5/6
o cube.001
v 0.845936 2.305743 0.395385
v 0.642568 2.305743 -0.061387
v 0.649287 1.786060 0.482939
v 0.445918 1.786060 0.026167
v 0.537067 2.353578 -0.014415
v 0.740435 2.353578 0.442357
v 0.340418 1.833896 0.073139
v 0.543786 1.833896 0.529911
v 0.537067 2.353578 -0.014415
v 0.642568 2.305743 -0.061387
v 0.740435 2.353578 0.442357
v 0.845936 2.305743 0.395385
v 0.543786 1.833896 0.529911
v 0.649287 1.786060 0.482939
v 0.340418 1.833896 0.073139
v 0.445918 1.786060 0.026167
v 0.740435 2.353578 0.442357
v 0.845936 2.305743 0.395385
v 0.543786 1.833896 0.529911
v 0.649287 1.786060 0.482939
v 0.642568 2.305743 -0.061387
v 0.537067 2.353578 -0.014415
v 0.445918 1.786060 0.026167
v 0.340418 1.833896 0.073139
vn 0.8440 -0.3827 -0.3758
vn -0.8440 0.3827 0.3758
vn 0.3496 0.9239 -0.1557
vn 0.3496 0.9239 -0.1556
vn -0.3496 -0.9239 0.1557
vn 0.4067 -0.0000 0.9135
vn -0.4067 -0.0000 -0.9135
vt 0.433458 0.353818
vt 0.433458 0.318784
vt 0.464586 0.353818
vt 0.464586 0.318784
vt 0.472520 0.353818
vt 0.472520 0.318784
vt 0.503648 0.353818
vt 0.503648 0.318784
vt 0.472398 0.353940
vt 0.472398 0.385068
vt 0.464708 0.353940
vt 0.464708 0.385068
vt 0.480211 0.385068
vt 0.480211 0.353940
vt 0.472520 0.385068
vt 0.472520 0.353940
vt 0.503770 0.353818
vt 0.503770 0.318784
vt 0.511461 0.353818
vt 0.511461 0.318784
vt 0.464708 0.353818
vt 0.464708 0.318784
vt 0.472398 0.353818
vt 0.472398 0.318784
s 1
usemtl texture0
f 25/15/7 27/16/7 26/17/7
f 27/16/7 28/18/7 26/17/7
f 29/19/8 31/20/8 30/21/8
f 31/20/8 32/22/8 30/21/8
f 33/23/9 35/24/10 34/25/9
f 35/24/10 36/26/10 34/25/9
f 37/27/11 39/28/11 38/29/11
f 39/28/11 40/30/11 38/29/11
f 41/31/12 43/32/12 42/33/12
f 43/32/12 44/34/12 42/33/12
f 45/35/13 47/36/13 46/37/13
f 47/36/13 48/38/13 46/37/13
o cube.002
v 0.336168 2.347627 0.622349
v 0.132799 2.347627 0.165576
v 0.553338 1.837829 0.525658
v 0.349970 1.837829 0.068886
v 0.029305 2.294800 0.211655
v 0.232673 2.294800 0.668428
v 0.246476 1.785002 0.114964
v 0.449844 1.785002 0.571737
v 0.029305 2.294800 0.211655
v 0.132799 2.347627 0.165576
v 0.232673 2.294800 0.668428
v 0.336168 2.347627 0.622349
v 0.449844 1.785002 0.571737
v 0.553338 1.837829 0.525658
v 0.246476 1.785002 0.114964
v 0.349970 1.837829 0.068886
v 0.232673 2.294800 0.668428
v 0.336168 2.347627 0.622349
v 0.449844 1.785002 0.571737
v 0.553338 1.837829 0.525658
v 0.132799 2.347627 0.165576
v 0.029305 2.294800 0.211655
v 0.349970 1.837829 0.068886
v 0.246476 1.785002 0.114964
vn 0.8280 0.4226 -0.3686
vn -0.8280 -0.4226 0.3686
vn -0.3861 0.9063 0.1719
vn 0.3861 -0.9063 -0.1719
vn 0.4067 -0.0000 0.9135
vn -0.4067 -0.0000 -0.9135
vt 0.433458 0.353818
vt 0.433458 0.318784
vt 0.464586 0.353818
vt 0.464586 0.318784
vt 0.472520 0.353818
vt 0.472520 0.318784
vt 0.503648 0.353818
vt 0.503648 0.318784
vt 0.472398 0.353940
vt 0.472398 0.385068
vt 0.464708 0.353940
vt 0.464708 0.385068
vt 0.480211 0.385068
vt 0.480211 0.353940
vt 0.472520 0.385068
vt 0.472520 0.353940
vt 0.503770 0.353818
vt 0.503770 0.318784
vt 0.511461 0.353818
vt 0.511461 0.318784
vt 0.464708 0.353818
vt 0.464708 0.318784
vt 0.472398 0.353818
vt 0.472398 0.318784
s 1
usemtl texture0
f 49/39/14 51/40/14 50/41/14
f 51/40/14 52/42/14 50/41/14
f 53/43/15 55/44/15 54/45/15
f 55/44/15 56/46/15 54/45/15
f 57/47/16 59/48/16 58/49/16
f 59/48/16 60/50/16 58/49/16
f 61/51/17 63/52/17 62/53/17
f 63/52/17 64/54/17 62/53/17
f 65/55/18 67/56/18 66/57/18
f 67/56/18 68/58/18 66/57/18
f 69/59/19 71/60/19 70/61/19
f 71/60/19 72/62/19 70/61/19
o cube.003
v 1.057781 2.276890 0.326667
v 0.836787 2.131305 -0.169693
v 1.042150 0.088191 0.975587
v 0.821157 -0.057395 0.479227
v -0.173009 2.260572 0.241982
v 0.047984 2.406158 0.738342
v -0.188640 0.071873 0.890902
v 0.032354 0.217459 1.387262
v -0.173009 2.260572 0.241982
v 0.836787 2.131305 -0.169693
v 0.047984 2.406158 0.738342
v 1.057781 2.276890 0.326667
v 0.032354 0.217459 1.387262
v 1.042150 0.088191 0.975587
v -0.188640 0.071873 0.890902
v 0.821157 -0.057395 0.479227
v 0.047984 2.406158 0.738342
v 1.057781 2.276890 0.326667
v 0.032354 0.217459 1.387262
v 1.042150 0.088191 0.975587
v 0.836787 2.131305 -0.169693
v -0.173009 2.260572 0.241982
v 0.821157 -0.057395 0.479227
v -0.188640 0.071873 0.890902
vn 0.9196 -0.1177 -0.3749
vn -0.9196 0.1177 0.3749
vn 0.0068 0.9587 -0.2842
vn -0.0068 -0.9587 0.2842
vn 0.3929 0.2588 0.8824
vn -0.3929 -0.2588 -0.8824
vt 0.452510 0.933588
vt 0.452510 0.886713
vt 0.468135 0.933588
vt 0.468135 0.886713
vt 0.595467 0.989024
vt 0.595467 0.942149
vt 0.611092 0.989024
vt 0.611092 0.942149
vt 0.175167 0.964838
vt 0.175167 0.980463
vt 0.143917 0.964838
vt 0.143917 0.980463
vt 0.568123 0.985117
vt 0.568123 0.969492
vt 0.536873 0.985117
vt 0.536873 0.969492
vt 0.473790 0.834601
vt 0.473790 0.787726
vt 0.505040 0.834601
vt 0.505040 0.787726
vt 0.745479 0.730463
vt 0.745479 0.683588
vt 0.776729 0.730463
vt 0.776729 0.683588
s 1
usemtl texture0
f 73/63/20 75/64/20 74/65/20
f 75/64/20 76/66/20 74/65/20
f 77/67/21 79/68/21 78/69/21
f 79/68/21 80/70/21 78/69/21
f 81/71/22 83/72/22 82/73/22
f 83/72/22 84/74/22 82/73/22
f 85/75/23 87/76/23 86/77/23
f 87/76/23 88/78/23 86/77/23
f 89/79/24 91/80/24 90/81/24
f 91/80/24 92/82/24 90/81/24
f 93/83/25 95/84/25 94/85/25
f 95/84/25 96/86/25 94/85/25
o cube.004
v 0.798654 3.044050 0.028701
v 0.813640 3.044050 -0.142594
v 0.798654 2.828350 0.028701
v 0.813640 2.828350 -0.142594
v 0.148135 3.044050 -0.200818
v 0.133149 3.044050 -0.029523
v 0.148135 2.828350 -0.200818
v 0.133149 2.828350 -0.029523
v 0.148135 3.044050 -0.200818
v 0.813640 3.044050 -0.142594
v 0.133149 3.044050 -0.029523
v 0.798654 3.044050 0.028701
v 0.133149 2.828350 -0.029523
v 0.798654 2.828350 0.028701
v 0.148135 2.828350 -0.200818
v 0.813640 2.828350 -0.142594
v 0.133149 3.044050 -0.029523
v 0.798654 3.044050 0.028701
v 0.133149 2.828350 -0.029523
v 0.798654 2.828350 0.028701
v 0.813640 3.044050 -0.142594
v 0.148135 3.044050 -0.200818
v 0.813640 2.828350 -0.142594
v 0.148135 2.828350 -0.200818
vn 0.9962 -0.0000 0.0872
vn -0.9962 -0.0000 -0.0872
vn -0.0000 1.0000 -0.0000
vn -0.0000 -1.0000 -0.0000
vn -0.0872 -0.0000 0.9962
vn 0.0872 -0.0000 -0.9962
vt 0.799401 0.057109
vt 0.799401 0.045512
vt 0.807092 0.057109
vt 0.807092 0.045512
vt 0.846276 0.057109
vt 0.846276 0.045512
vt 0.853967 0.057109
vt 0.853967 0.045512
vt 0.846154 0.057231
vt 0.846154 0.064921
vt 0.807214 0.057231
vt 0.807214 0.064921
vt 0.885217 0.064921
vt 0.885217 0.057231
vt 0.846276 0.064921
vt 0.846276 0.057231
vt 0.854089 0.057109
vt 0.854089 0.045512
vt 0.893029 0.057109
vt 0.893029 0.045512
vt 0.807214 0.057109
vt 0.807214 0.045512
vt 0.846154 0.057109
vt 0.846154 0.045512
s 1
usemtl texture0
f 97/87/26 99/88/26 98/89/26
f 99/88/26 100/90/26 98/89/26
f 101/91/27 103/92/27 102/93/27
f 103/92/27 104/94/27 102/93/27
f 105/95/28 107/96/28 106/97/28
f 107/96/28 108/98/28 106/97/28
f 109/99/29 111/100/29 110/101/29
f 111/100/29 112/102/29 110/101/29
f 113/103/30 115/104/30 114/105/30
f 115/104/30 116/106/30 114/105/30
f 117/107/31 119/108/31 118/109/31
f 119/108/31 120/110/31 118/109/31
o cube.005
v 0.897652 2.831550 0.187936
v 0.925712 2.831550 -0.132789
v 0.897652 2.722100 0.187936
v 0.925712 2.722100 -0.132789
v 0.590196 2.831550 -0.162143
v 0.562137 2.831550 0.158582
v 0.590196 2.722100 -0.162143
v 0.562137 2.722100 0.158582
v 0.590196 2.831550 -0.162143
v 0.925712 2.831550 -0.132789
v 0.562137 2.831550 0.158582
v 0.897652 2.831550 0.187936
v 0.562137 2.722100 0.158582
v 0.897652 2.722100 0.187936
v 0.590196 2.722100 -0.162143
v 0.925712 2.722100 -0.132789
v 0.562137 2.831550 0.158582
v 0.897652 2.831550 0.187936
v 0.562137 2.722100 0.158582
v 0.897652 2.722100 0.187936
v 0.925712 2.831550 -0.132789
v 0.590196 2.831550 -0.162143
v 0.925712 2.722100 -0.132789
v 0.590196 2.722100 -0.162143
vn 0.9962 -0.0000 0.0872
vn -0.9962 -0.0000 -0.0872
vn -0.0000 1.0000 -0.0000
vn -0.0000 -1.0000 -0.0000
vn -0.0872 -0.0000 0.9962
vn 0.0872 -0.0000 -0.9962
vt 0.810955 0.216351
vt 0.810955 0.212567
vt 0.830364 0.216351
vt 0.830364 0.212567
vt 0.850017 0.216351
vt 0.850017 0.212567
vt 0.869426 0.216351
vt 0.869426 0.212567
vt 0.849895 0.216473
vt 0.849895 0.235883
vt 0.830486 0.216473
vt 0.830486 0.235883
vt 0.869426 0.235883
vt 0.869426 0.216473
vt 0.850017 0.235883
vt 0.850017 0.216473
vt 0.869548 0.216351
vt 0.869548 0.212567
vt 0.888958 0.216351
vt 0.888958 0.212567
vt 0.830486 0.216351
vt 0.830486 0.212567
vt 0.849895 0.216351
vt 0.849895 0.212567
s 1
usemtl texture0
f 121/111/32 123/112/32 122/113/32
f 123/112/32 124/114/32 122/113/32
f 125/115/33 127/116/33 126/117/33
f 127/116/33 128/118/33 126/117/33
f 129/119/34 131/120/34 130/121/34
f 131/120/34 132/122/34 130/121/34
f 133/123/35 135/124/35 134/125/35
f 135/124/35 136/126/35 134/125/35
f 137/127/36 139/128/36 138/129/36
f 139/128/36 140/130/36 138/129/36
f 141/131/37 143/132/37 142/133/37
f 143/132/37 144/134/37 142/133/37
o cube.006
v 0.334259 2.831550 0.245301
v 0.371579 2.831550 -0.181270
v 0.334259 2.722100 0.245301
v 0.371579 2.722100 -0.181270
v 0.036063 2.831550 -0.210624
v -0.001257 2.831550 0.215947
v 0.036063 2.722100 -0.210624
v -0.001257 2.722100 0.215947
v 0.036063 2.831550 -0.210624
v 0.371579 2.831550 -0.181270
v -0.001257 2.831550 0.215947
v 0.334259 2.831550 0.245301
v -0.001257 2.722100 0.215947
v 0.334259 2.722100 0.245301
v 0.036063 2.722100 -0.210624
v 0.371579 2.722100 -0.181270
v -0.001257 2.831550 0.215947
v 0.334259 2.831550 0.245301
v -0.001257 2.722100 0.215947
v 0.334259 2.722100 0.245301
v 0.371579 2.831550 -0.181270
v 0.036063 2.831550 -0.210624
v 0.371579 2.722100 -0.181270
v 0.036063 2.722100 -0.210624
vn 0.9962 -0.0000 0.0872
vn -0.9962 -0.0000 -0.0872
vn -0.0000 1.0000 -0.0000
vn -0.0000 -1.0000 -0.0000
vn -0.0872 -0.0000 0.9962
vn 0.0872 -0.0000 -0.9962
vt 0.788431 0.132824
vt 0.788431 0.129040
vt 0.811746 0.132824
vt 0.811746 0.129040
vt 0.831400 0.132824
vt 0.831400 0.129040
vt 0.854715 0.132824
vt 0.854715 0.129040
vt 0.831277 0.132946
vt 0.831277 0.156261
vt 0.811868 0.132946
vt 0.811868 0.156261
vt 0.850809 0.156261
vt 0.850809 0.132946
vt 0.831400 0.156261
vt 0.831400 0.132946
vt 0.854837 0.132824
vt 0.854837 0.129040
vt 0.874246 0.132824
vt 0.874246 0.129040
vt 0.811868 0.132824
vt 0.811868 0.129040
vt 0.831277 0.132824
vt 0.831277 0.129040
s 1
usemtl texture0
f 145/135/38 147/136/38 146/137/38
f 147/136/38 148/138/38 146/137/38
f 149/139/39 151/140/39 150/141/39
f 151/140/39 152/142/39 150/141/39
f 153/143/40 155/144/40 154/145/40
f 155/144/40 156/146/40 154/145/40
f 157/147/41 159/148/41 158/149/41
f 159/148/41 160/150/41 158/149/41
f 161/151/42 163/152/42 162/153/42
f 163/152/42 164/154/42 162/153/42
f 165/155/43 167/156/43 166/157/43
f 167/156/43 168/158/43 166/157/43
o cube.007
v 0.869327 2.725300 0.511699
v 0.925712 2.725300 -0.132789
v 0.869327 2.615850 0.511699
v 0.925712 2.615850 -0.132789
v 0.776983 2.725300 -0.145801
v 0.720597 2.725300 0.498687
v 0.776983 2.615850 -0.145801
v 0.720597 2.615850 0.498687
v 0.776983 2.725300 -0.145801
v 0.925712 2.725300 -0.132789
v 0.720597 2.725300 0.498687
v 0.869327 2.725300 0.511699
v 0.720597 2.615850 0.498687
v 0.869327 2.615850 0.511699
v 0.776983 2.615850 -0.145801
v 0.925712 2.615850 -0.132789
v 0.720597 2.725300 0.498687
v 0.869327 2.725300 0.511699
v 0.720597 2.615850 0.498687
v 0.869327 2.615850 0.511699
v 0.925712 2.725300 -0.132789
v 0.776983 2.725300 -0.145801
v 0.925712 2.615850 -0.132789
v 0.776983 2.615850 -0.145801
vn 0.9962 -0.0000 0.0872
vn -0.9962 -0.0000 -0.0872
vn -0.0000 1.0000 -0.0000
vn -0.0000 -1.0000 -0.0000
vn -0.0872 -0.0000 0.9962
vn 0.0872 -0.0000 -0.9962
vt 0.413761 0.039239
vt 0.413761 0.035455
vt 0.452702 0.039239
vt 0.452702 0.035455
vt 0.460636 0.039239
vt 0.460636 0.035455
vt 0.499577 0.039239
vt 0.499577 0.035455
vt 0.460514 0.039361
vt 0.460514 0.078302
vt 0.452824 0.039361
vt 0.452824 0.078302
vt 0.468327 0.078302
vt 0.468327 0.039361
vt 0.460636 0.078302
vt 0.460636 0.039361
vt 0.499699 0.039239
vt 0.499699 0.035455
vt 0.507389 0.039239
vt 0.507389 0.035455
vt 0.452824 0.039239
vt 0.452824 0.035455
vt 0.460514 0.039239
vt 0.460514 0.035455
s 1
usemtl texture0
f 169/159/44 171/160/44 170/161/44
f 171/160/44 172/162/44 170/161/44
f 173/163/45 175/164/45 174/165/45
f 175/164/45 176/166/45 174/165/45
f 177/167/46 179/168/46 178/169/46
f 179/168/46 180/170/46 178/169/46
f 181/171/47 183/172/47 182/173/47
f 183/172/47 184/174/47 182/173/47
f 185/175/48 187/176/48 186/177/48
f 187/176/48 188/178/48 186/177/48
f 189/179/49 191/180/49 190/181/49
f 191/180/49 192/182/49 190/181/49
o cube.008
v 0.850806 2.619050 0.723390
v 0.916452 2.619050 -0.026944
v 0.850806 2.509600 0.723390
v 0.916452 2.509600 -0.026944
v 0.026803 2.619050 -0.104778
v -0.038843 2.619050 0.645556
v 0.026803 2.509600 -0.104778
v -0.038843 2.509600 0.645556
v 0.026803 2.619050 -0.104778
v 0.916452 2.619050 -0.026944
v -0.038843 2.619050 0.645556
v 0.850806 2.619050 0.723390
v -0.038843 2.509600 0.645556
v 0.850806 2.509600 0.723390
v 0.026803 2.509600 -0.104778
v 0.916452 2.509600 -0.026944
v -0.038843 2.619050 0.645556
v 0.850806 2.619050 0.723390
v -0.038843 2.509600 0.645556
v 0.850806 2.509600 0.723390
v 0.916452 2.619050 -0.026944
v 0.026803 2.619050 -0.104778
v 0.916452 2.509600 -0.026944
v 0.026803 2.509600 -0.104778
vn 0.9962 -0.0000 0.0872
vn -0.9962 -0.0000 -0.0872
vn -0.0000 1.0000 -0.0000
vn -0.0000 -1.0000 -0.0000
vn -0.0872 -0.0000 0.9962
vn 0.0872 -0.0000 -0.9962
vt 0.194272 0.109691
vt 0.194272 0.105907
vt 0.241025 0.109691
vt 0.241025 0.105907
vt 0.295834 0.109691
vt 0.295834 0.105907
vt 0.342587 0.109691
vt 0.342587 0.105907
vt 0.295712 0.109813
vt 0.295712 0.156566
vt 0.241147 0.109813
vt 0.241147 0.156566
vt 0.350400 0.156566
vt 0.350400 0.109813
vt 0.295834 0.156566
vt 0.295834 0.109813
vt 0.342709 0.109691
vt 0.342709 0.105907
vt 0.397275 0.109691
vt 0.397275 0.105907
vt 0.241147 0.109691
vt 0.241147 0.105907
vt 0.295712 0.109691
vt 0.295712 0.105907
s 1
usemtl texture0
f 193/183/50 195/184/50 194/185/50
f 195/184/50 196/186/50 194/185/50
f 197/187/51 199/188/51 198/189/51
f 199/188/51 200/190/51 198/189/51
f 201/191/52 203/192/52 202/193/52
f 203/192/52 204/194/52 202/193/52
f 205/195/53 207/196/53 206/197/53
f 207/196/53 208/198/53 206/197/53
f 209/199/54 211/200/54 210/201/54
f 211/200/54 212/202/54 210/201/54
f 213/203/55 215/204/55 214/205/55
f 215/204/55 216/206/55 214/205/55
o cube.009
v 0.850806 2.512800 0.723390
v 0.897387 2.512800 0.190974
v 0.850806 2.403350 0.723390
v 0.897387 2.403350 0.190974
v 0.007737 2.512800 0.113140
v -0.038843 2.512800 0.645556
v 0.007737 2.403350 0.113140
v -0.038843 2.403350 0.645556
v 0.007737 2.512800 0.113140
v 0.897387 2.512800 0.190974
v -0.038843 2.512800 0.645556
v 0.850806 2.512800 0.723390
v -0.038843 2.403350 0.645556
v 0.850806 2.403350 0.723390
v 0.007737 2.403350 0.113140
v 0.897387 2.403350 0.190974
v -0.038843 2.512800 0.645556
v 0.850806 2.512800 0.723390
v -0.038843 2.403350 0.645556
v 0.850806 2.403350 0.723390
v 0.897387 2.512800 0.190974
v 0.007737 2.512800 0.113140
v 0.897387 2.403350 0.190974
v 0.007737 2.403350 0.113140
vn 0.9962 -0.0000 0.0872
vn -0.9962 -0.0000 -0.0872
vn -0.0000 1.0000 -0.0000
vn -0.0000 -1.0000 -0.0000
vn -0.0872 -0.0000 0.9962
vn 0.0872 -0.0000 -0.9962
vt 0.810207 0.751760
vt 0.810207 0.747976
vt 0.841335 0.751760
vt 0.841335 0.747976
vt 0.896144 0.751760
vt 0.896144 0.747976
vt 0.927272 0.751760
vt 0.927272 0.747976
vt 0.896022 0.751882
vt 0.896022 0.783010
vt 0.841457 0.751882
vt 0.841457 0.783010
vt 0.950710 0.783010
vt 0.950710 0.751882
vt 0.896144 0.783010
vt 0.896144 0.751882
vt 0.927394 0.751760
vt 0.927394 0.747976
vt 0.981960 0.751760
vt 0.981960 0.747976
vt 0.841457 0.751760
vt 0.841457 0.747976
vt 0.896022 0.751760
vt 0.896022 0.747976
s 1
usemtl texture0
f 217/207/56 219/208/56 218/209/56
f 219/208/56 220/210/56 218/209/56
f 221/211/57 223/212/57 222/213/57
f 223/212/57 224/214/57 222/213/57
f 225/215/58 227/216/58 226/217/58
f 227/216/58 228/218/58 226/217/58
f 229/219/59 231/220/59 230/221/59
f 231/220/59 232/222/59 230/221/59
f 233/223/60 235/224/60 234/225/60
f 235/224/60 236/226/60 234/225/60
f 237/227/61 239/228/61 238/229/61
f 239/228/61 240/230/61 238/229/61
o cube.010
v 0.850806 2.406550 0.723390
v 0.878866 2.406550 0.402665
v 0.850806 2.297100 0.723390
v 0.878866 2.297100 0.402665
v -0.010783 2.406550 0.324831
v -0.038843 2.406550 0.645556
v -0.010783 2.297100 0.324831
v -0.038843 2.297100 0.645556
v -0.010783 2.406550 0.324831
v 0.878866 2.406550 0.402665
v -0.038843 2.406550 0.645556
v 0.850806 2.406550 0.723390
v -0.038843 2.297100 0.645556
v 0.850806 2.297100 0.723390
v -0.010783 2.297100 0.324831
v 0.878866 2.297100 0.402665
v -0.038843 2.406550 0.645556
v 0.850806 2.406550 0.723390
v -0.038843 2.297100 0.645556
v 0.850806 2.297100 0.723390
v 0.878866 2.406550 0.402665
v -0.010783 2.406550 0.324831
v 0.878866 2.297100 0.402665
v -0.010783 2.297100 0.324831
vn 0.9962 -0.0000 0.0872
vn -0.9962 -0.0000 -0.0872
vn -0.0000 1.0000 -0.0000
vn -0.0000 -1.0000 -0.0000
vn -0.0872 -0.0000 0.9962
vn 0.0872 -0.0000 -0.9962
vt 0.841457 0.927376
vt 0.841457 0.923592
vt 0.860866 0.927376
vt 0.860866 0.923592
vt 0.915675 0.927376
vt 0.915675 0.923592
vt 0.935085 0.927376
vt 0.935085 0.923592
vt 0.915553 0.927498
vt 0.915553 0.946907
vt 0.860988 0.927498
vt 0.860988 0.946907
vt 0.970241 0.946907
vt 0.970241 0.927498
vt 0.915675 0.946907
vt 0.915675 0.927498
vt 0.935207 0.927376
vt 0.935207 0.923592
vt 0.989772 0.927376
vt 0.989772 0.923592
vt 0.860988 0.927376
vt 0.860988 0.923592
vt 0.915553 0.927376
vt 0.915553 0.923592
s 1
usemtl texture0
f 241/231/62 243/232/62 242/233/62
f 243/232/62 244/234/62 242/233/62
f 245/235/63 247/236/63 246/237/63
f 247/236/63 248/238/63 246/237/63
f 249/239/64 251/240/64 250/241/64
f 251/240/64 252/242/64 250/241/64
f 253/243/65 255/244/65 254/245/65
f 255/244/65 256/246/65 254/245/65
f 257/247/66 259/248/66 258/249/66
f 259/248/66 260/250/66 258/249/66
f 261/251/67 263/252/67 262/253/67
f 263/252/67 264/254/67 262/253/67
o cube.011
v 0.916173 2.937800 -0.023756
v 0.925712 2.937800 -0.132789
v 0.916173 2.828350 -0.023756
v 0.925712 2.828350 -0.132789
v 0.813640 2.937800 -0.142594
v 0.804101 2.937800 -0.033561
v 0.813640 2.828350 -0.142594
v 0.804101 2.828350 -0.033561
v 0.813640 2.937800 -0.142594
v 0.925712 2.937800 -0.132789
v 0.804101 2.937800 -0.033561
v 0.916173 2.937800 -0.023756
v 0.804101 2.828350 -0.033561
v 0.916173 2.828350 -0.023756
v 0.813640 2.828350 -0.142594
v 0.925712 2.828350 -0.132789
v 0.804101 2.937800 -0.033561
v 0.916173 2.937800 -0.023756
v 0.804101 2.828350 -0.033561
v 0.916173 2.828350 -0.023756
v 0.925712 2.937800 -0.132789
v 0.813640 2.937800 -0.142594
v 0.925712 2.828350 -0.132789
v 0.813640 2.828350 -0.142594
vn 0.9962 -0.0000 0.0872
vn -0.9962 -0.0000 -0.0872
vn -0.0000 1.0000 -0.0000
vn -0.0000 -1.0000 -0.0000
vn -0.0872 -0.0000 0.9962
vn 0.0872 -0.0000 -0.9962
vt 0.900964 0.014140
vt 0.900964 0.010356
vt 0.904748 0.014140
vt 0.904748 0.010356
vt 0.908776 0.014140
vt 0.908776 0.010356
vt 0.912560 0.014140
vt 0.912560 0.010356
vt 0.908654 0.014262
vt 0.908654 0.018046
vt 0.904870 0.014262
vt 0.904870 0.018046
vt 0.912560 0.018046
vt 0.912560 0.014262
vt 0.908776 0.018046
vt 0.908776 0.014262
vt 0.912683 0.014140
vt 0.912683 0.010356
vt 0.916467 0.014140
vt 0.916467 0.010356
vt 0.904870 0.014140
vt 0.904870 0.010356
vt 0.908654 0.014140
vt 0.908654 0.010356
s 1
usemtl texture0
f 265/255/68 267/256/68 266/257/68
f 267/256/68 268/258/68 266/257/68
f 269/259/69 271/260/69 270/261/69
f 271/260/69 272/262/69 270/261/69
f 273/263/70 275/264/70 274/265/70
f 275/264/70 276/266/70 274/265/70
f 277/267/71 279/268/71 278/269/71
f 279/268/71 280/270/71 278/269/71
f 281/271/72 283/272/72 282/273/72
f 283/272/72 284/274/72 282/273/72
f 285/275/73 287/276/73 286/277/73
f 287/276/73 288/278/73 286/277/73
o cube.012
v 0.617315 3.150300 -0.049903
v 0.626854 3.150300 -0.158936
v 0.617315 3.040850 -0.049903
v 0.626854 3.040850 -0.158936
v 0.303091 3.150300 -0.187262
v 0.293551 3.150300 -0.078228
v 0.303091 3.040850 -0.187262
v 0.293551 3.040850 -0.078228
v 0.303091 3.150300 -0.187262
v 0.626854 3.150300 -0.158936
v 0.293551 3.150300 -0.078228
v 0.617315 3.150300 -0.049903
v 0.293551 3.040850 -0.078228
v 0.617315 3.040850 -0.049903
v 0.303091 3.040850 -0.187262
v 0.626854 3.040850 -0.158936
v 0.293551 3.150300 -0.078228
v 0.617315 3.150300 -0.049903
v 0.293551 3.040850 -0.078228
v 0.617315 3.040850 -0.049903
v 0.626854 3.150300 -0.158936
v 0.303091 3.150300 -0.187262
v 0.626854 3.040850 -0.158936
v 0.303091 3.040850 -0.187262
vn 0.9962 -0.0000 0.0872
vn -0.9962 -0.0000 -0.0872
vn -0.0000 1.0000 -0.0000
vn -0.0000 -1.0000 -0.0000
vn -0.0872 -0.0000 0.9962
vn 0.0872 -0.0000 -0.9962
vt 0.908611 0.263226
vt 0.908611 0.259442
vt 0.912395 0.263226
vt 0.912395 0.259442
vt 0.932048 0.263226
vt 0.932048 0.259442
vt 0.935833 0.263226
vt 0.935833 0.259442
vt 0.931926 0.263348
vt 0.931926 0.267133
vt 0.912517 0.263348
vt 0.912517 0.267133
vt 0.951458 0.267133
vt 0.951458 0.263348
vt 0.932048 0.267133
vt 0.932048 0.263348
vt 0.935955 0.263226
vt 0.935955 0.259442
vt 0.955364 0.263226
vt 0.955364 0.259442
vt 0.912517 0.263226
vt 0.912517 0.259442
vt 0.931926 0.263226
vt 0.931926 0.259442
s 1
usemtl texture0
f 289/279/74 291/280/74 290/281/74
f 291/280/74 292/282/74 290/281/74
f 293/283/75 295/284/75 294/285/75
f 295/284/75 296/286/75 294/285/75
f 297/287/76 299/288/76 298/289/76
f 299/288/76 300/290/76 298/289/76
f 301/291/77 303/292/77 302/293/77
f 303/292/77 304/294/77 302/293/77
f 305/295/78 307/296/78 306/297/78
f 307/296/78 308/298/78 306/297/78
f 309/299/79 311/300/79 310/301/79
f 311/300/79 312/302/79 310/301/79
o cube.013
v 0.128636 2.937800 0.013999
v 0.147435 2.937800 -0.200880
v 0.128636 2.828350 0.013999
v 0.147435 2.828350 -0.200880
v 0.035363 2.937800 -0.210685
v 0.016564 2.937800 0.004194
v 0.035363 2.828350 -0.210685
v 0.016564 2.828350 0.004194
v 0.035363 2.937800 -0.210685
v 0.147435 2.937800 -0.200880
v 0.016564 2.937800 0.004194
v 0.128636 2.937800 0.013999
v 0.016564 2.828350 0.004194
v 0.128636 2.828350 0.013999
v 0.035363 2.828350 -0.210685
v 0.147435 2.828350 -0.200880
v 0.016564 2.937800 0.004194
v 0.128636 2.937800 0.013999
v 0.016564 2.828350 0.004194
v 0.128636 2.828350 0.013999
v 0.147435 2.937800 -0.200880
v 0.035363 2.937800 -0.210685
v 0.147435 2.828350 -0.200880
v 0.035363 2.828350 -0.210685
vn 0.9962 -0.0000 0.0872
vn -0.9962 -0.0000 -0.0872
vn -0.0000 1.0000 -0.0000
vn -0.0000 -1.0000 -0.0000
vn -0.0872 -0.0000 0.9962
vn 0.0872 -0.0000 -0.9962
vt -0.000062 0.003668
vt -0.000062 -0.000116
vt 0.011535 0.003668
vt 0.011535 -0.000116
vt 0.015563 0.003668
vt 0.015563 -0.000116
vt 0.027160 0.003668
vt 0.027160 -0.000116
vt 0.015441 0.003790
vt 0.015441 0.015387
vt 0.011657 0.003790
vt 0.011657 0.015387
vt 0.019347 0.015387
vt 0.019347 0.003790
vt 0.015563 0.015387
vt 0.015563 0.003790
vt 0.027282 0.003668
vt 0.027282 -0.000116
vt 0.031066 0.003668
vt 0.031066 -0.000116
vt 0.011657 0.003668
vt 0.011657 -0.000116
vt 0.015441 0.003668
vt 0.015441 -0.000116
s 1
usemtl texture0
f 313/303/80 315/304/80 314/305/80
f 315/304/80 316/306/80 314/305/80
f 317/307/81 319/308/81 318/309/81
f 319/308/81 320/310/81 318/309/81
f 321/311/82 323/312/82 322/313/82
f 323/312/82 324/314/82 322/313/82
f 325/315/83 327/316/83 326/317/83
f 327/316/83 328/318/83 326/317/83
f 329/319/84 331/320/84 330/321/84
f 331/320/84 332/322/84 330/321/84
f 333/323/85 335/324/85 334/325/85
f 335/324/85 336/326/85 334/325/85
o cube.014
v 0.128407 2.725300 0.446877
v 0.184792 2.725300 -0.197611
v 0.128407 2.615850 0.446877
v 0.184792 2.615850 -0.197611
v 0.036063 2.725300 -0.210624
v -0.020322 2.725300 0.433865
v 0.036063 2.615850 -0.210624
v -0.020322 2.615850 0.433865
v 0.036063 2.725300 -0.210624
v 0.184792 2.725300 -0.197611
v -0.020322 2.725300 0.433865
v 0.128407 2.725300 0.446877
v -0.020322 2.615850 0.433865
v 0.128407 2.615850 0.446877
v 0.036063 2.615850 -0.210624
v 0.184792 2.615850 -0.197611
v -0.020322 2.725300 0.433865
v 0.128407 2.725300 0.446877
v -0.020322 2.615850 0.433865
v 0.128407 2.615850 0.446877
v 0.184792 2.725300 -0.197611
v 0.036063 2.725300 -0.210624
v 0.184792 2.615850 -0.197611
v 0.036063 2.615850 -0.210624
vn 0.9962 -0.0000 0.0872
vn -0.9962 -0.0000 -0.0872
vn -0.0000 1.0000 -0.0000
vn -0.0000 -1.0000 -0.0000
vn -0.0872 -0.0000 0.9962
vn 0.0872 -0.0000 -0.9962
vt 0.401294 0.098581
vt 0.401294 0.094797
vt 0.440235 0.098581
vt 0.440235 0.094797
vt 0.448169 0.098581
vt 0.448169 0.094797
vt 0.487110 0.098581
vt 0.487110 0.094797
vt 0.448047 0.098703
vt 0.448047 0.137644
vt 0.440357 0.098703
vt 0.440357 0.137644
vt 0.455860 0.137644
vt 0.455860 0.098703
vt 0.448169 0.137644
vt 0.448169 0.098703
vt 0.487232 0.098581
vt 0.487232 0.094797
vt 0.494922 0.098581
vt 0.494922 0.094797
vt 0.440357 0.098581
vt 0.440357 0.094797
vt 0.448047 0.098581
vt 0.448047 0.094797
s 1
usemtl texture0
f 337/327/86 339/328/86 338/329/86
f 339/328/86 340/330/86 338/329/86
f 341/331/87 343/332/87 342/333/87
f 343/332/87 344/334/87 342/333/87
f 345/335/88 347/336/88 346/337/88
f 347/336/88 348/338/88 346/337/88
f 349/339/89 351/340/89 350/341/89
f 351/340/89 352/342/89 350/341/89
f 353/343/90 355/344/90 354/345/90
f 355/344/90 356/346/90 354/345/90
f 357/347/91 359/348/91 358/349/91
f 359/348/91 360/350/91 358/349/91
o cube.015
v 0.822399 3.075300 0.689535
v 0.891858 3.075300 -0.104382
v 0.822399 2.278350 0.689535
v 0.891858 2.278350 -0.104382
v 0.058244 3.075300 -0.177314
v -0.011214 3.075300 0.616604
v 0.058244 2.278350 -0.177314
v -0.011214 2.278350 0.616604
v 0.058244 3.075300 -0.177314
v 0.891858 3.075300 -0.104382
v -0.011214 3.075300 0.616604
v 0.822399 3.075300 0.689535
v -0.011214 2.278350 0.616604
v 0.822399 2.278350 0.689535
v 0.058244 2.278350 -0.177314
v 0.891858 2.278350 -0.104382
v -0.011214 3.075300 0.616604
v 0.822399 3.075300 0.689535
v -0.011214 2.278350 0.616604
v 0.822399 2.278350 0.689535
v 0.891858 3.075300 -0.104382
v 0.058244 3.075300 -0.177314
v 0.891858 2.278350 -0.104382
v 0.058244 2.278350 -0.177314
vn 0.9962 -0.0000 0.0872
vn -0.9962 -0.0000 -0.0872
vn -0.0000 1.0000 -0.0000
vn -0.0000 -1.0000 -0.0000
vn -0.0872 -0.0000 0.9962
vn 0.0872 -0.0000 -0.9962
vt 0.105778 0.855597
vt 0.105778 0.824347
vt 0.137028 0.855597
vt 0.137028 0.824347
vt 0.168278 0.855597
vt 0.168278 0.824347
vt 0.199528 0.855597
vt 0.199528 0.824347
vt 0.168278 0.886847
vt 0.137028 0.886847
vt 0.199528 0.886847
vt 0.230778 0.855597
vt 0.230778 0.824347
s 1
usemtl texture0
f 361/351/92 363/352/92 362/353/92
f 363/352/92 364/354/92 362/353/92
f 365/355/93 367/356/93 366/357/93
f 367/356/93 368/358/93 366/357/93
f 369/355/94 371/359/94 370/353/94
f 371/359/94 372/360/94 370/353/94
f 373/361/95 375/357/95 374/359/95
f 375/357/95 376/355/95 374/359/95
f 377/357/96 379/358/96 378/362/96
f 379/358/96 380/363/96 378/362/96
f 381/353/97 383/354/97 382/355/97
f 383/354/97 384/356/97 382/355/97
o cube.016
v 0.885934 2.398011 -0.104355
v 0.885939 2.398022 -0.104416
v 0.893501 1.905607 -0.190849
v 0.893507 1.905618 -0.190910
v 0.070305 2.398022 -0.175775
v 0.070300 2.398011 -0.175714
v 0.077872 1.905618 -0.262269
v 0.077867 1.905607 -0.262207
v 0.070305 2.398022 -0.175775
v 0.885939 2.398022 -0.104416
v 0.070300 2.398011 -0.175714
v 0.885934 2.398011 -0.104355
v 0.077867 1.905607 -0.262207
v 0.893501 1.905607 -0.190849
v 0.077872 1.905618 -0.262269
v 0.893507 1.905618 -0.190910
v 0.070300 2.398011 -0.175714
v 0.885934 2.398011 -0.104355
v 0.077867 1.905607 -0.262207
v 0.893501 1.905607 -0.190849
v 0.885939 2.398022 -0.104416
v 0.070305 2.398022 -0.175775
v 0.893507 1.905618 -0.190910
v 0.077872 1.905618 -0.262269
vn 0.9962 -0.0000 0.0872
vn -0.9962 -0.0000 -0.0872
vn -0.0151 0.9848 0.1730
vn -0.0151 0.9848 0.1731
vn 0.0151 -0.9848 -0.1730
vn 0.0151 -0.9848 -0.1729
vn 0.0151 -0.9848 -0.1731
vn -0.0858 -0.1736 0.9811
vn 0.0858 0.1736 -0.9811
vt 0.874385 0.445307
vt 0.874385 0.414057
vt 0.925167 0.445307
vt 0.925167 0.414057
vt 0.975948 0.445307
vt 0.975948 0.414057
vt 0.872432 0.432807
vt 0.872432 0.414057
vt 0.908760 0.432807
vt 0.908760 0.414057
s 1
usemtl texture0
f 385/364/98 387/365/98 386/364/98
f 387/365/98 388/365/98 386/364/98
f 389/366/99 391/367/99 390/366/99
f 391/367/99 392/367/99 390/366/99
f 393/366/100 395/366/100 394/364/100
f 395/366/100 396/364/101 394/364/100
f 397/368/102 399/368/103 398/366/102
f 399/368/103 400/366/104 398/366/102
f 401/366/105 403/367/105 402/368/105
f 403/367/105 404/369/105 402/368/105
f 405/370/106 407/371/106 406/372/106
f 407/371/106 408/373/106 406/372/106
o cube.017
v 1.191027 2.284526 0.266288
v 0.949491 2.464984 0.005755
v 1.272135 1.340593 -0.462720
v 1.030599 1.521051 -0.723253
v 0.687898 2.328317 0.153610
v 0.929433 2.147859 0.414144
v 0.769006 1.384384 -0.575398
v 1.010541 1.203925 -0.314865
v 0.687898 2.328317 0.153610
v 0.949491 2.464984 0.005755
v 0.929433 2.147859 0.414144
v 1.191027 2.284526 0.266288
v 1.010541 1.203925 -0.314865
v 1.272135 1.340593 -0.462720
v 0.769006 1.384384 -0.575398
v 1.030599 1.521051 -0.723253
v 0.929433 2.147859 0.414144
v 1.191027 2.284526 0.266288
v 1.010541 1.203925 -0.314865
v 1.272135 1.340593 -0.462720
v 0.949491 2.464984 0.005755
v 0.687898 2.328317 0.153610
v 1.030599 1.521051 -0.723253
v 0.769006 1.384384 -0.575398
vn 0.7925 0.4140 -0.4479
vn -0.7925 -0.4140 0.4479
vn -0.0678 0.7896 0.6098
vn 0.0678 -0.7896 -0.6098
vn 0.6061 -0.4529 0.6538
vn -0.6061 0.4529 -0.6538
vt 0.168088 0.761907
vt 0.168088 0.715032
vt 0.183713 0.761907
vt 0.183713 0.715032
vt 0.195432 0.761907
vt 0.195432 0.715032
vt 0.211057 0.761907
vt 0.211057 0.715032
vt 0.195432 0.777532
vt 0.183713 0.777532
vt 0.207151 0.777532
vt 0.207151 0.761907
vt 0.222776 0.761907
vt 0.222776 0.715032
s 1
usemtl texture0
f 409/374/107 411/375/107 410/376/107
f 411/375/107 412/377/107 410/376/107
f 413/378/108 415/379/108 414/380/108
f 415/379/108 416/381/108 414/380/108
f 417/378/109 419/382/109 418/376/109
f 419/382/109 420/383/109 418/376/109
f 421/384/110 423/385/110 422/382/110
f 423/385/110 424/378/110 422/382/110
f 425/380/111 427/381/111 426/386/111
f 427/381/111 428/387/111 426/386/111
f 429/376/112 431/377/112 430/378/112
f 431/377/112 432/379/112 430/378/112
o cube.018
v 1.237728 2.196068 0.222667
v 0.959962 2.403595 -0.076946
v 1.271523 1.802762 -0.081086
v 0.993757 2.010289 -0.380700
v 0.666792 2.250430 0.088756
v 0.944557 2.042903 0.388370
v 0.700587 1.857125 -0.214997
v 0.978352 1.649597 0.084617
v 0.666792 2.250430 0.088756
v 0.959962 2.403595 -0.076946
v 0.944557 2.042903 0.388370
v 1.237728 2.196068 0.222667
v 0.978352 1.649597 0.084617
v 1.271523 1.802762 -0.081086
v 0.700587 1.857125 -0.214997
v 0.993757 2.010289 -0.380700
v 0.944557 2.042903 0.388370
v 1.237728 2.196068 0.222667
v 0.978352 1.649597 0.084617
v 1.271523 1.802762 -0.081086
v 0.959962 2.403595 -0.076946
v 0.666792 2.250430 0.088756
v 0.993757 2.010289 -0.380700
v 0.700587 1.857125 -0.214997
vn 0.7925 0.4140 -0.4479
vn -0.7925 -0.4140 0.4479
vn -0.0679 0.7896 0.6098
vn -0.0678 0.7896 0.6098
vn 0.0678 -0.7896 -0.6098
vn 0.6061 -0.4529 0.6538
vn -0.6061 0.4529 -0.6538
vt 0.054094 0.654518
vt 0.054094 0.634987
vt 0.069719 0.654518
vt 0.069719 0.634987
vt 0.081438 0.654518
vt 0.081438 0.634987
vt 0.097063 0.654518
vt 0.097063 0.634987
vt 0.081438 0.670143
vt 0.069719 0.670143
vt 0.093157 0.670143
vt 0.093157 0.654518
vt 0.108782 0.654518
vt 0.108782 0.634987
s 1
usemtl texture0
f 433/388/113 435/389/113 434/390/113
f 435/389/113 436/391/113 434/390/113
f 437/392/114 439/393/114 438/394/114
f 439/393/114 440/395/114 438/394/114
f 441/392/115 443/396/116 442/390/116
f 443/396/116 444/397/116 442/390/116
f 445/398/117 447/399/117 446/396/117
f 447/399/117 448/392/117 446/396/117
f 449/394/118 451/395/118 450/400/118
f 451/395/118 452/401/118 450/400/118
f 453/390/119 455/391/119 454/392/119
f 455/391/119 456/393/119 454/392/119
o cube.019
v 0.239814 2.136007 0.639435
v 0.076205 1.991017 0.236695
v 0.090966 1.711261 0.852816
v -0.072644 1.566270 0.450077
v -0.251204 2.144766 0.314350
v -0.087595 2.289757 0.717090
v -0.400052 1.720019 0.527732
v -0.236443 1.865010 0.930472
v -0.251204 2.144766 0.314350
v 0.076205 1.991017 0.236695
v -0.087595 2.289757 0.717090
v 0.239814 2.136007 0.639435
v -0.236443 1.865010 0.930472
v 0.090966 1.711261 0.852816
v -0.400052 1.720019 0.527732
v -0.072644 1.566270 0.450077
v -0.087595 2.289757 0.717090
v 0.239814 2.136007 0.639435
v -0.236443 1.865010 0.930472
v 0.090966 1.711261 0.852816
v 0.076205 1.991017 0.236695
v -0.251204 2.144766 0.314350
v -0.072644 1.566270 0.450077
v -0.400052 1.720019 0.527732
vn 0.8850 -0.4156 -0.2099
vn -0.8850 0.4156 0.2099
vn 0.2988 0.8527 -0.4284
vn -0.2988 -0.8527 0.4284
vn 0.3570 0.3164 0.8789
vn -0.3570 -0.3164 -0.8789
vt 0.054094 0.654518
vt 0.054094 0.634987
vt 0.069719 0.654518
vt 0.069719 0.634987
vt 0.081438 0.654518
vt 0.081438 0.634987
vt 0.097063 0.654518
vt 0.097063 0.634987
vt 0.081438 0.670143
vt 0.069719 0.670143
vt 0.093157 0.670143
vt 0.093157 0.654518
vt 0.108782 0.654518
vt 0.108782 0.634987
s 1
usemtl texture0
f 457/402/120 459/403/120 458/404/120
f 459/403/120 460/405/120 458/404/120
f 461/406/121 463/407/121 462/408/121
f 463/407/121 464/409/121 462/408/121
f 465/406/122 467/410/122 466/404/122
f 467/410/122 468/411/122 466/404/122
f 469/412/123 471/413/123 470/410/123
f 471/413/123 472/406/123 470/410/123
f 473/408/124 475/409/124 474/414/124
f 475/409/124 476/415/124 474/414/124
f 477/404/125 479/405/125 478/406/125
f 479/405/125 480/407/125 478/406/125
o cube.020
v -0.151705 3.100109 -0.339373
v -0.184065 3.054338 -0.421724
v -0.318684 -0.002878 1.450868
v -0.351045 -0.048648 1.368517
v -0.278167 3.074327 -0.395856
v -0.245807 3.120097 -0.313504
v -0.445147 -0.028660 1.394385
v -0.412786 0.017111 1.476737
v -0.278167 3.074327 -0.395856
v -0.184065 3.054338 -0.421724
v -0.245807 3.120097 -0.313504
v -0.151705 3.100109 -0.339373
v -0.412786 0.017111 1.476737
v -0.318684 -0.002878 1.450868
v -0.445147 -0.028660 1.394385
v -0.351045 -0.048648 1.368517
v -0.245807 3.120097 -0.313504
v -0.151705 3.100109 -0.339373
v -0.412786 0.017111 1.476737
v -0.318684 -0.002878 1.450868
v -0.184065 3.054338 -0.421724
v -0.278167 3.074327 -0.395856
v -0.351045 -0.048648 1.368517
v -0.445147 -0.028660 1.394385
vn 0.9446 -0.2006 -0.2597
vn 0.9446 -0.2007 -0.2597
vn -0.9446 0.2006 0.2597
vn -0.9446 0.2007 0.2597
vn 0.0466 0.8652 -0.4992
vn -0.0466 -0.8652 0.4992
vn 0.3248 0.4595 0.8267
vn -0.3248 -0.4595 -0.8267
vt 0.011392 0.767566
vt 0.011392 0.626941
vt 0.015299 0.767566
vt 0.015299 0.626941
vt 0.019205 0.767566
vt 0.019205 0.626941
vt 0.023111 0.767566
vt 0.023111 0.626941
vt 0.019205 0.771472
vt 0.015299 0.771472
vt 0.023111 0.771472
vt 0.027017 0.767566
vt 0.027017 0.626941
s 1
usemtl texture0
f 481/416/126 483/417/127 482/418/126
f 483/417/127 484/419/127 482/418/126
f 485/420/128 487/421/129 486/422/128
f 487/421/129 488/423/129 486/422/128
f 489/420/130 491/424/130 490/418/130
f 491/424/130 492/425/130 490/418/130
f 493/426/131 495/422/131 494/424/131
f 495/422/131 496/420/131 494/424/131
f 497/422/132 499/423/132 498/427/132
f 499/423/132 500/428/132 498/427/132
f 501/418/133 503/419/133 502/420/133
f 503/419/133 504/421/133 502/420/133
o cube.021
v -0.073588 3.611856 -0.642445
v -0.112420 3.556931 -0.741267
v -0.101418 3.094691 -0.344072
v -0.140250 3.039767 -0.442894
v -0.206522 3.576920 -0.715399
v -0.167690 3.631844 -0.616577
v -0.234352 3.059755 -0.417025
v -0.195520 3.114680 -0.318203
v -0.206522 3.576920 -0.715399
v -0.112420 3.556931 -0.741267
v -0.167690 3.631844 -0.616577
v -0.073588 3.611856 -0.642445
v -0.195520 3.114680 -0.318203
v -0.101418 3.094691 -0.344072
v -0.234352 3.059755 -0.417025
v -0.140250 3.039767 -0.442894
v -0.167690 3.631844 -0.616577
v -0.073588 3.611856 -0.642445
v -0.195520 3.114680 -0.318203
v -0.101418 3.094691 -0.344072
v -0.112420 3.556931 -0.741267
v -0.206522 3.576920 -0.715399
v -0.140250 3.039767 -0.442894
v -0.234352 3.059755 -0.417025
vn 0.9446 -0.2006 -0.2597
vn -0.9446 0.2006 0.2597
vn 0.0466 0.8652 -0.4992
vn -0.0466 -0.8652 0.4992
vn 0.3248 0.4595 0.8267
vn 0.3249 0.4595 0.8267
vn -0.3248 -0.4595 -0.8267
vt 0.038448 0.710932
vt 0.038448 0.687494
vt 0.042354 0.710932
vt 0.042354 0.687494
vt 0.046260 0.710932
vt 0.046260 0.687494
vt 0.050167 0.710932
vt 0.050167 0.687494
vt 0.046260 0.714838
vt 0.042354 0.714838
vt 0.050167 0.714838
vt 0.054073 0.710932
vt 0.054073 0.687494
s 1
usemtl texture0
f 505/429/134 507/430/134 506/431/134
f 507/430/134 508/432/134 506/431/134
f 509/433/135 511/434/135 510/435/135
f 511/434/135 512/436/135 510/435/135
f 513/433/136 515/437/136 514/431/136
f 515/437/136 516/438/136 514/431/136
f 517/439/137 519/435/137 518/437/137
f 519/435/137 520/433/137 518/437/137
f 521/435/138 523/436/138 522/440/138
f 523/436/138 524/441/139 522/440/138
f 525/431/140 527/432/140 526/433/140
f 527/432/140 528/434/140 526/433/140
o cube.022
v -0.186243 3.287068 -0.417661
v -0.225076 3.232143 -0.516483
v -0.200158 3.028486 -0.268474
v -0.238991 2.973561 -0.367296
v -0.413280 3.272120 -0.464746
v -0.374447 3.327045 -0.365924
v -0.427194 3.013538 -0.315559
v -0.388362 3.068463 -0.216738
v -0.413280 3.272120 -0.464746
v -0.225076 3.232143 -0.516483
v -0.374447 3.327045 -0.365924
v -0.186243 3.287068 -0.417661
v -0.388362 3.068463 -0.216738
v -0.200158 3.028486 -0.268474
v -0.427194 3.013538 -0.315559
v -0.238991 2.973561 -0.367296
v -0.374447 3.327045 -0.365924
v -0.186243 3.287068 -0.417661
v -0.388362 3.068463 -0.216738
v -0.200158 3.028486 -0.268474
v -0.225076 3.232143 -0.516483
v -0.413280 3.272120 -0.464746
v -0.238991 2.973561 -0.367296
v -0.427194 3.013538 -0.315559
vn 0.9446 -0.2007 -0.2597
vn -0.9446 0.2006 0.2597
vn 0.0466 0.8652 -0.4992
vn -0.0466 -0.8652 0.4992
vn 0.3248 0.4595 0.8267
vn -0.3248 -0.4595 -0.8267
vt 0.296799 0.769274
vt 0.296799 0.757555
vt 0.300705 0.769274
vt 0.300705 0.757555
vt 0.308517 0.769274
vt 0.308517 0.757555
vt 0.312424 0.769274
vt 0.312424 0.757555
vt 0.308517 0.773180
vt 0.300705 0.773180
vt 0.316330 0.773180
vt 0.316330 0.769274
vt 0.320236 0.769274
vt 0.320236 0.757555
s 1
usemtl texture0
f 529/442/141 531/443/141 530/444/141
f 531/443/141 532/445/141 530/444/141
f 533/446/142 535/447/142 534/448/142
f 535/447/142 536/449/142 534/448/142
f 537/446/143 539/450/143 538/444/143
f 539/450/143 540/451/143 538/444/143
f 541/452/144 543/453/144 542/450/144
f 543/453/144 544/446/144 542/450/144
f 545/448/145 547/449/145 546/454/145
f 547/449/145 548/455/145 546/454/145
f 549/444/146 551/445/146 550/446/146
f 551/445/146 552/447/146 550/446/146
o cube.023
v -0.294260 3.048475 -0.242606
v -0.333093 2.993550 -0.341428
v -0.303537 2.876086 -0.143148
v -0.342369 2.821162 -0.241970
v -0.427194 3.013538 -0.315559
v -0.388362 3.068463 -0.216738
v -0.436471 2.841150 -0.216101
v -0.397639 2.896075 -0.117280
v -0.427194 3.013538 -0.315559
v -0.333093 2.993550 -0.341428
v -0.388362 3.068463 -0.216738
v -0.294260 3.048475 -0.242606
v -0.397639 2.896075 -0.117280
v -0.303537 2.876086 -0.143148
v -0.436471 2.841150 -0.216101
v -0.342369 2.821162 -0.241970
v -0.388362 3.068463 -0.216738
v -0.294260 3.048475 -0.242606
v -0.397639 2.896075 -0.117280
v -0.303537 2.876086 -0.143148
v -0.333093 2.993550 -0.341428
v -0.427194 3.013538 -0.315559
v -0.342369 2.821162 -0.241970
v -0.436471 2.841150 -0.216101
vn 0.9446 -0.2007 -0.2597
vn 0.9446 -0.2006 -0.2597
vn -0.9446 0.2006 0.2597
vn 0.0466 0.8652 -0.4992
vn -0.0466 -0.8652 0.4992
vn 0.3248 0.4595 0.8267
vn -0.3248 -0.4595 -0.8267
vt 0.065792 0.703119
vt 0.065792 0.695307
vt 0.069698 0.703119
vt 0.069698 0.695307
vt 0.073604 0.703119
vt 0.073604 0.695307
vt 0.077510 0.703119
vt 0.077510 0.695307
vt 0.073604 0.707025
vt 0.069698 0.707025
vt 0.077510 0.707025
vt 0.081417 0.703119
vt 0.081417 0.695307
s 1
usemtl texture0
f 553/456/147 555/457/148 554/458/148
f 555/457/148 556/459/148 554/458/148
f 557/460/149 559/461/149 558/462/149
f 559/461/149 560/463/149 558/462/149
f 561/460/150 563/464/150 562/458/150
f 563/464/150 564/465/150 562/458/150
f 565/466/151 567/462/151 566/464/151
f 567/462/151 568/460/151 566/464/151
f 569/462/152 571/463/152 570/467/152
f 571/463/152 572/468/152 570/467/152
f 573/458/153 575/459/153 574/460/153
f 575/459/153 576/461/153 574/460/153
o cube.024
v -0.176966 3.459456 -0.517119
v -0.215799 3.404532 -0.615941
v -0.186243 3.287068 -0.417661
v -0.225076 3.232143 -0.516483
v -0.309901 3.424520 -0.590072
v -0.271068 3.479445 -0.491251
v -0.319178 3.252132 -0.490614
v -0.280345 3.307056 -0.391793
v -0.309901 3.424520 -0.590072
v -0.215799 3.404532 -0.615941
v -0.271068 3.479445 -0.491251
v -0.176966 3.459456 -0.517119
v -0.280345 3.307056 -0.391793
v -0.186243 3.287068 -0.417661
v -0.319178 3.252132 -0.490614
v -0.225076 3.232143 -0.516483
v -0.271068 3.479445 -0.491251
v -0.176966 3.459456 -0.517119
v -0.280345 3.307056 -0.391793
v -0.186243 3.287068 -0.417661
v -0.215799 3.404532 -0.615941
v -0.309901 3.424520 -0.590072
v -0.225076 3.232143 -0.516483
v -0.319178 3.252132 -0.490614
vn 0.9446 -0.2007 -0.2597
vn -0.9446 0.2007 0.2597
vn 0.0466 0.8652 -0.4992
vn -0.0466 -0.8652 0.4992
vn 0.3248 0.4595 0.8267
vn -0.3248 -0.4595 -0.8267
vn -0.3249 -0.4595 -0.8267
vt 0.292354 0.878900
vt 0.292354 0.871088
vt 0.296260 0.878900
vt 0.296260 0.871088
vt 0.300167 0.878900
vt 0.300167 0.871088
vt 0.304073 0.878900
vt 0.304073 0.871088
vt 0.300167 0.882807
vt 0.296260 0.882807
vt 0.304073 0.882807
vt 0.307979 0.878900
vt 0.307979 0.871088
s 1
usemtl texture0
f 577/469/154 579/470/154 578/471/154
f 579/470/154 580/472/154 578/471/154
f 581/473/155 583/474/155 582/475/155
f 583/474/155 584/476/155 582/475/155
f 585/473/156 587/477/156 586/471/156
f 587/477/156 588/478/156 586/471/156
f 589/479/157 591/475/157 590/477/157
f 591/475/157 592/473/157 590/477/157
f 593/475/158 595/476/158 594/480/158
f 595/476/158 596/481/158 594/480/158
f 597/471/159 599/472/159 598/473/159
f 599/472/159 600/474/160 598/473/159
o cube.025
v -0.393000 2.982269 -0.167009
v -0.431833 2.927344 -0.265830
v -0.402277 2.809880 -0.067551
v -0.441109 2.754956 -0.166372
v -0.525935 2.947333 -0.239962
v -0.487102 3.002257 -0.141140
v -0.535211 2.774944 -0.140504
v -0.496379 2.829869 -0.041682
v -0.525935 2.947333 -0.239962
v -0.431833 2.927344 -0.265830
v -0.487102 3.002257 -0.141140
v -0.393000 2.982269 -0.167009
v -0.496379 2.829869 -0.041682
v -0.402277 2.809880 -0.067551
v -0.535211 2.774944 -0.140504
v -0.441109 2.754956 -0.166372
v -0.487102 3.002257 -0.141140
v -0.393000 2.982269 -0.167009
v -0.496379 2.829869 -0.041682
v -0.402277 2.809880 -0.067551
v -0.431833 2.927344 -0.265830
v -0.525935 2.947333 -0.239962
v -0.441109 2.754956 -0.166372
v -0.535211 2.774944 -0.140504
vn 0.9446 -0.2007 -0.2597
vn 0.9446 -0.2006 -0.2597
vn -0.9446 0.2006 0.2597
vn 0.0466 0.8652 -0.4992
vn -0.0466 -0.8652 0.4992
vn 0.3248 0.4595 0.8267
vn 0.3249 0.4595 0.8267
vn -0.3248 -0.4595 -0.8267
vt 0.089229 0.703119
vt 0.089229 0.695307
vt 0.093135 0.703119
vt 0.093135 0.695307
vt 0.097042 0.703119
vt 0.097042 0.695307
vt 0.100948 0.703119
vt 0.100948 0.695307
vt 0.097042 0.707025
vt 0.093135 0.707025
vt 0.100948 0.707025
vt 0.104854 0.703119
vt 0.104854 0.695307
s 1
usemtl texture0
f 601/482/161 603/483/162 602/484/162
f 603/483/162 604/485/162 602/484/162
f 605/486/163 607/487/163 606/488/163
f 607/487/163 608/489/163 606/488/163
f 609/486/164 611/490/164 610/484/164
f 611/490/164 612/491/164 610/484/164
f 613/492/165 615/488/165 614/490/165
f 615/488/165 616/486/165 614/490/165
f 617/488/166 619/489/166 618/493/166
f 619/489/166 620/494/167 618/493/166
f 621/484/168 623/485/168 622/486/168
f 623/485/168 624/487/168 622/486/168
o Left_Arm.001
v 0.241246 2.215678 0.581039
v 0.098978 2.089600 0.230831
v -0.115990 1.196286 1.093155
v -0.258259 1.070208 0.742947
v -0.193166 2.226789 0.300122
v -0.050897 2.352868 0.650330
v -0.550403 1.207397 0.812238
v -0.408134 1.333476 1.162446
v -0.193166 2.226789 0.300122
v 0.098978 2.089600 0.230831
v -0.050897 2.352868 0.650330
v 0.241246 2.215678 0.581039
v -0.408134 1.333476 1.162446
v -0.115990 1.196286 1.093155
v -0.550403 1.207397 0.812238
v -0.258259 1.070208 0.742947
v -0.050897 2.352868 0.650330
v 0.241246 2.215678 0.581039
v -0.408134 1.333476 1.162446
v -0.115990 1.196286 1.093155
v 0.098978 2.089600 0.230831
v -0.193166 2.226789 0.300122
v -0.258259 1.070208 0.742947
v -0.550403 1.207397 0.812238
vn 0.8850 -0.4156 -0.2099
vn -0.8850 0.4156 0.2099
vn 0.2988 0.8527 -0.4284
vn -0.2988 -0.8527 0.4284
vn 0.3570 0.3164 0.8789
vn -0.3570 -0.3164 -0.8789
vt 0.113401 0.761907
vt 0.113401 0.715032
vt 0.129026 0.761907
vt 0.129026 0.715032
vt 0.140744 0.761907
vt 0.140744 0.715032
vt 0.156369 0.761907
vt 0.156369 0.715032
vt 0.140744 0.777532
vt 0.129026 0.777532
vt 0.152463 0.777532
vt 0.152463 0.761907
vt 0.168088 0.761907
vt 0.168088 0.715032
s 1
usemtl texture0
f 625/495/169 627/496/169 626/497/169
f 627/496/169 628/498/169 626/497/169
f 629/499/170 631/500/170 630/501/170
f 631/500/170 632/502/170 630/501/170
f 633/499/171 635/503/171 634/497/171
f 635/503/171 636/504/171 634/497/171
f 637/505/172 639/506/172 638/503/172
f 639/506/172 640/499/172 638/503/172
f 641/501/173 643/502/173 642/507/173
f 643/502/173 644/508/173 642/507/173
f 645/497/174 647/498/174 646/499/174
f 647/498/174 648/500/174 646/499/174
o Left_Leg.001
v 0.494702 0.918732 0.530148
v 0.372532 0.862643 0.197669
v 0.496046 0.623962 0.579382
v 0.373876 0.567873 0.246903
v 0.035359 0.881275 0.318421
v 0.157530 0.937364 0.650900
v 0.036703 0.586505 0.367655
v 0.158873 0.642594 0.700134
v 0.035359 0.881275 0.318421
v 0.372532 0.862643 0.197669
v 0.157530 0.937364 0.650900
v 0.494702 0.918732 0.530148
v 0.158873 0.642594 0.700134
v 0.496046 0.623962 0.579382
v 0.036703 0.586505 0.367655
v 0.373876 0.567873 0.246903
v 0.157530 0.937364 0.650900
v 0.494702 0.918732 0.530148
v 0.158873 0.642594 0.700134
v 0.496046 0.623962 0.579382
v 0.372532 0.862643 0.197669
v 0.035359 0.881275 0.318421
v 0.373876 0.567873 0.246903
v 0.036703 0.586505 0.367655
vn 0.9402 -0.0520 -0.3367
vn -0.9402 0.0520 0.3367
vn -0.0045 0.9863 -0.1647
vn 0.0045 -0.9863 0.1647
vn 0.3407 0.1564 0.9271
vn -0.3407 -0.1564 -0.9271
vt 0.360821 0.708378
vt 0.360821 0.696659
vt 0.372539 0.708378
vt 0.372539 0.696659
vt 0.384258 0.708378
vt 0.384258 0.696659
vt 0.395977 0.708378
vt 0.395977 0.696659
vt 0.384258 0.720097
vt 0.372539 0.720097
vt 0.395977 0.720097
vt 0.407696 0.708378
vt 0.407696 0.696659
s 1
usemtl texture0
f 649/509/175 651/510/175 650/511/175
f 651/510/175 652/512/175 650/511/175
f 653/513/176 655/514/176 654/515/176
f 655/514/176 656/516/176 654/515/176
f 657/513/177 659/517/177 658/511/177
f 659/517/177 660/518/177 658/511/177
f 661/519/178 663/515/178 662/517/178
f 663/515/178 664/513/178 662/517/178
f 665/515/179 667/516/179 666/520/179
f 667/516/179 668/521/179 666/520/179
f 669/511/180 671/512/180 670/513/180
f 671/512/180 672/514/180 670/513/180
o Left_Leg.002
v 0.502261 0.610221 0.579416
v 0.380090 0.554132 0.246938
v 0.504167 0.192161 0.649243
v 0.381996 0.136071 0.316764
v 0.042917 0.572764 0.367690
v 0.165088 0.628853 0.700168
v 0.044823 0.154703 0.437517
v 0.166994 0.210792 0.769995
v 0.042917 0.572764 0.367690
v 0.380090 0.554132 0.246938
v 0.165088 0.628853 0.700168
v 0.502261 0.610221 0.579416
v 0.166994 0.210792 0.769995
v 0.504167 0.192161 0.649243
v 0.044823 0.154703 0.437517
v 0.381996 0.136071 0.316764
v 0.165088 0.628853 0.700168
v 0.502261 0.610221 0.579416
v 0.166994 0.210792 0.769995
v 0.504167 0.192161 0.649243
v 0.380090 0.554132 0.246938
v 0.042917 0.572764 0.367690
v 0.381996 0.136071 0.316764
v 0.044823 0.154703 0.437517
vn 0.9402 -0.0520 -0.3367
vn -0.9402 0.0520 0.3367
vn -0.0045 0.9863 -0.1647
vn 0.0045 -0.9863 0.1647
vn 0.3407 0.1564 0.9271
vn -0.3407 -0.1564 -0.9271
vt 0.360821 0.708378
vt 0.360821 0.696659
vt 0.372539 0.708378
vt 0.372539 0.696659
vt 0.384258 0.708378
vt 0.384258 0.696659
vt 0.395977 0.708378
vt 0.395977 0.696659
vt 0.384258 0.720097
vt 0.372539 0.720097
vt 0.395977 0.720097
vt 0.407696 0.708378
vt 0.407696 0.696659
s 1
usemtl texture0
f 673/522/181 675/523/181 674/524/181
f 675/523/181 676/525/181 674/524/181
f 677/526/182 679/527/182 678/528/182
f 679/527/182 680/529/182 678/528/182
f 681/526/183 683/530/183 682/524/183
f 683/530/183 684/531/183 682/524/183
f 685/532/184 687/528/184 686/530/184
f 687/528/184 688/526/184 686/530/184
f 689/528/185 691/529/185 690/533/185
f 691/529/185 692/534/185 690/533/185
f 693/524/186 695/525/186 694/526/186
f 695/525/186 696/527/186 694/526/186
o Left_Leg.003
v 0.521565 0.626043 0.591144
v 0.385820 0.563722 0.221724
v 0.524253 0.036504 0.689612
v 0.388508 -0.025818 0.320192
v 0.011184 0.584424 0.355893
v 0.146929 0.646745 0.725313
v 0.013871 -0.005116 0.454361
v 0.149616 0.057206 0.823782
v 0.011184 0.584424 0.355893
v 0.385820 0.563722 0.221724
v 0.146929 0.646745 0.725313
v 0.521565 0.626043 0.591144
v 0.149616 0.057206 0.823782
v 0.524253 0.036504 0.689612
v 0.013871 -0.005116 0.454361
v 0.388508 -0.025818 0.320192
v 0.146929 0.646745 0.725313
v 0.521565 0.626043 0.591144
v 0.149616 0.057206 0.823782
v 0.524253 0.036504 0.689612
v 0.385820 0.563722 0.221724
v 0.011184 0.584424 0.355893
v 0.388508 -0.025818 0.320192
v 0.013871 -0.005116 0.454361
vn 0.9402 -0.0520 -0.3367
vn -0.9402 0.0520 0.3367
vn -0.0045 0.9863 -0.1647
vn 0.0045 -0.9863 0.1647
vn 0.3407 0.1564 0.9271
vn -0.3407 -0.1564 -0.9271
vt 0.016694 0.518339
vt 0.016694 0.494902
vt 0.032319 0.518339
vt 0.032319 0.494902
vt 0.047944 0.518339
vt 0.047944 0.494902
vt 0.063569 0.518339
vt 0.063569 0.494902
vt 0.047944 0.533964
vt 0.032319 0.533964
vt 0.063569 0.533964
vt 0.079194 0.518339
vt 0.079194 0.494902
s 1
usemtl texture0
f 697/535/187 699/536/187 698/537/187
f 699/536/187 700/538/187 698/537/187
f 701/539/188 703/540/188 702/541/188
f 703/540/188 704/542/188 702/541/188
f 705/539/189 707/543/189 706/537/189
f 707/543/189 708/544/189 706/537/189
f 709/545/190 711/541/190 710/543/190
f 711/541/190 712/539/190 710/543/190
f 713/541/191 715/542/191 714/546/191
f 715/542/191 716/547/191 714/546/191
f 717/537/192 719/538/192 718/539/192
f 719/538/192 720/540/192 718/539/192
o Left_Leg.004
v 0.387612 0.170695 0.287369
v 0.353676 0.155115 0.195014
v 0.388508 -0.025818 0.320192
v 0.354572 -0.041398 0.227837
v -0.020961 0.175817 0.329183
v 0.012976 0.191397 0.421538
v -0.020065 -0.020696 0.362006
v 0.013871 -0.005116 0.454361
v -0.020961 0.175817 0.329183
v 0.353676 0.155115 0.195014
v 0.012976 0.191397 0.421538
v 0.387612 0.170695 0.287369
v 0.013871 -0.005116 0.454361
v 0.388508 -0.025818 0.320192
v -0.020065 -0.020696 0.362006
v 0.354572 -0.041398 0.227837
v 0.012976 0.191397 0.421538
v 0.387612 0.170695 0.287369
v 0.013871 -0.005116 0.454361
v 0.388508 -0.025818 0.320192
v 0.353676 0.155115 0.195014
v -0.020961 0.175817 0.329183
v 0.354572 -0.041398 0.227837
v -0.020065 -0.020696 0.362006
vn 0.9402 -0.0520 -0.3367
vn -0.9402 0.0520 0.3367
vn -0.0045 0.9863 -0.1647
vn 0.0045 -0.9863 0.1647
vn 0.3407 0.1564 0.9271
vn -0.3407 -0.1564 -0.9271
vt 0.176330 0.754095
vt 0.176330 0.746282
vt 0.180236 0.754095
vt 0.180236 0.746282
vt 0.195861 0.754095
vt 0.195861 0.746282
vt 0.199768 0.754095
vt 0.199768 0.746282
vt 0.195861 0.758001
vt 0.180236 0.758001
vt 0.211486 0.758001
vt 0.211486 0.754095
vt 0.215393 0.754095
vt 0.215393 0.746282
s 1
usemtl texture0
f 721/548/193 723/549/193 722/550/193
f 723/549/193 724/551/193 722/550/193
f 725/552/194 727/553/194 726/554/194
f 727/553/194 728/555/194 726/554/194
f 729/552/195 731/556/195 730/550/195
f 731/556/195 732/557/195 730/550/195
f 733/558/196 735/559/196 734/556/196
f 735/559/196 736/552/196 734/556/196
f 737/554/197 739/555/197 738/560/197
f 739/555/197 740/561/197 738/560/197
f 741/550/198 743/551/198 742/552/198
f 743/551/198 744/553/198 742/552/198
o Left_Leg.005
v 0.537964 1.519358 0.499098
v 0.372941 1.443594 0.049999
v 0.540651 0.929818 0.597566
v 0.375628 0.854055 0.148467
v -0.062664 1.467665 0.206003
v 0.102359 1.543428 0.655102
v -0.059976 0.878125 0.304471
v 0.105047 0.953889 0.753570
v -0.062664 1.467665 0.206003
v 0.372941 1.443594 0.049999
v 0.102359 1.543428 0.655102
v 0.537964 1.519358 0.499098
v 0.105047 0.953889 0.753570
v 0.540651 0.929818 0.597566
v -0.059976 0.878125 0.304471
v 0.375628 0.854055 0.148467
v 0.102359 1.543428 0.655102
v 0.537964 1.519358 0.499098
v 0.105047 0.953889 0.753570
v 0.540651 0.929818 0.597566
v 0.372941 1.443594 0.049999
v -0.062664 1.467665 0.206003
v 0.375628 0.854055 0.148467
v -0.059976 0.878125 0.304471
vn 0.9402 -0.0520 -0.3367
vn -0.9402 0.0520 0.3367
vn -0.0045 0.9863 -0.1647
vn 0.0045 -0.9863 0.1647
vn 0.3407 0.1564 0.9271
vn -0.3407 -0.1564 -0.9271
vt 0.249959 0.816113
vt 0.249959 0.792676
vt 0.265584 0.816113
vt 0.265584 0.792676
vt 0.281209 0.816113
vt 0.281209 0.792676
vt 0.296834 0.816113
vt 0.296834 0.792676
vt 0.281209 0.831738
vt 0.265584 0.831738
vt 0.296834 0.831738
vt 0.312459 0.816113
vt 0.312459 0.792676
s 1
usemtl texture0
f 745/562/199 747/563/199 746/564/199
f 747/563/199 748/565/199 746/564/199
f 749/566/200 751/567/200 750/568/200
f 751/567/200 752/569/200 750/568/200
f 753/566/201 755/570/201 754/564/201
f 755/570/201 756/571/201 754/564/201
f 757/572/202 759/568/202 758/570/202
f 759/568/202 760/566/202 758/570/202
f 761/568/203 763/569/203 762/573/203
f 763/569/203 764/574/203 762/573/203
f 765/564/204 767/565/204 766/566/204
f 767/565/204 768/567/204 766/566/204
o Right_Leg.001
v 0.836920 0.876106 0.330355
v 0.774439 0.895436 -0.022259
v 0.834271 0.577684 0.314464
v 0.771789 0.597014 -0.038149
v 0.421311 0.895240 0.040303
v 0.483792 0.875910 0.392916
v 0.418661 0.596818 0.024413
v 0.481142 0.577488 0.377026
v 0.421311 0.895240 0.040303
v 0.774439 0.895436 -0.022259
v 0.483792 0.875910 0.392916
v 0.836920 0.876106 0.330355
v 0.481142 0.577488 0.377026
v 0.834271 0.577684 0.314464
v 0.418661 0.596818 0.024413
v 0.771789 0.597014 -0.038149
v 0.483792 0.875910 0.392916
v 0.836920 0.876106 0.330355
v 0.481142 0.577488 0.377026
v 0.834271 0.577684 0.314464
v 0.774439 0.895436 -0.022259
v 0.421311 0.895240 0.040303
v 0.771789 0.597014 -0.038149
v 0.418661 0.596818 0.024413
vn 0.9847 0.0005 -0.1744
vn 0.9847 0.0005 -0.1745
vn -0.9847 -0.0005 0.1744
vn 0.0089 0.9985 0.0532
vn -0.0089 -0.9985 -0.0532
vn 0.1742 -0.0539 0.9832
vn -0.1742 0.0539 -0.9832
vt 0.222776 0.718603
vt 0.222776 0.706884
vt 0.234494 0.718603
vt 0.234494 0.706884
vt 0.246213 0.718603
vt 0.246213 0.706884
vt 0.257932 0.718603
vt 0.257932 0.706884
vt 0.246213 0.730322
vt 0.234494 0.730322
vt 0.257932 0.730322
vt 0.269651 0.718603
vt 0.269651 0.706884
s 1
usemtl texture0
f 769/575/205 771/576/205 770/577/205
f 771/576/205 772/578/206 770/577/205
f 773/579/207 775/580/207 774/581/207
f 775/580/207 776/582/207 774/581/207
f 777/579/208 779/583/208 778/577/208
f 779/583/208 780/584/208 778/577/208
f 781/585/209 783/581/209 782/583/209
f 783/581/209 784/579/209 782/583/209
f 785/581/210 787/582/210 786/586/210
f 787/582/210 788/587/210 786/586/210
f 789/577/211 791/578/211 790/579/211
f 791/578/211 792/580/211 790/579/211
o Right_Leg.002
v 0.827706 0.564113 0.314884
v 0.765225 0.583444 -0.037730
v 0.822840 0.016055 0.285701
v 0.760359 0.035385 -0.066912
v 0.412097 0.583248 0.024832
v 0.474578 0.563917 0.377445
v 0.407231 0.035189 -0.004351
v 0.469712 0.015859 0.348263
v 0.412097 0.583248 0.024832
v 0.765225 0.583444 -0.037730
v 0.474578 0.563917 0.377445
v 0.827706 0.564113 0.314884
v 0.469712 0.015859 0.348263
v 0.822840 0.016055 0.285701
v 0.407231 0.035189 -0.004351
v 0.760359 0.035385 -0.066912
v 0.474578 0.563917 0.377445
v 0.827706 0.564113 0.314884
v 0.469712 0.015859 0.348263
v 0.822840 0.016055 0.285701
v 0.765225 0.583444 -0.037730
v 0.412097 0.583248 0.024832
v 0.760359 0.035385 -0.066912
v 0.407231 0.035189 -0.004351
vn 0.9847 0.0005 -0.1744
vn -0.9847 -0.0005 0.1744
vn 0.0089 0.9985 0.0532
vn -0.0089 -0.9985 -0.0532
vn 0.1742 -0.0539 0.9832
vn -0.1742 0.0539 -0.9832
vt 0.222776 0.718603
vt 0.222776 0.706884
vt 0.234494 0.718603
vt 0.234494 0.706884
vt 0.246213 0.718603
vt 0.246213 0.706884
vt 0.257932 0.718603
vt 0.257932 0.706884
vt 0.246213 0.730322
vt 0.234494 0.730322
vt 0.257932 0.730322
vt 0.269651 0.718603
vt 0.269651 0.706884
s 1
usemtl texture0
f 793/588/212 795/589/212 794/590/212
f 795/589/212 796/591/212 794/590/212
f 797/592/213 799/593/213 798/594/213
f 799/593/213 800/595/213 798/594/213
f 801/592/214 803/596/214 802/590/214
f 803/596/214 804/597/214 802/590/214
f 805/598/215 807/594/215 806/596/215
f 807/594/215 808/592/215 806/596/215
f 809/594/216 811/595/216 810/599/216
f 811/595/216 812/600/216 810/599/216
f 813/590/217 815/591/217 814/592/217
f 815/591/217 816/593/217 814/592/217
o Right_Leg.003
v 0.857360 0.576621 0.330578
v 0.787937 0.598099 -0.061214
v 0.852061 -0.020223 0.298798
v 0.782637 0.001255 -0.092994
v 0.395572 0.597881 0.008299
v 0.464995 0.576403 0.400091
v 0.390272 0.001038 -0.023481
v 0.459696 -0.020440 0.368311
v 0.395572 0.597881 0.008299
v 0.787937 0.598099 -0.061214
v 0.464995 0.576403 0.400091
v 0.857360 0.576621 0.330578
v 0.459696 -0.020440 0.368311
v 0.852061 -0.020223 0.298798
v 0.390272 0.001038 -0.023481
v 0.782637 0.001255 -0.092994
v 0.464995 0.576403 0.400091
v 0.857360 0.576621 0.330578
v 0.459696 -0.020440 0.368311
v 0.852061 -0.020223 0.298798
v 0.787937 0.598099 -0.061214
v 0.395572 0.597881 0.008299
v 0.782637 0.001255 -0.092994
v 0.390272 0.001038 -0.023481
vn 0.9847 0.0005 -0.1744
vn -0.9847 -0.0005 0.1744
vn 0.0089 0.9985 0.0532
vn -0.0089 -0.9985 -0.0532
vn 0.1742 -0.0539 0.9832
vn -0.1742 0.0539 -0.9832
vt 0.016694 0.518339
vt 0.016694 0.494902
vt 0.032319 0.518339
vt 0.032319 0.494902
vt 0.047944 0.518339
vt 0.047944 0.494902
vt 0.063569 0.518339
vt 0.063569 0.494902
vt 0.047944 0.533964
vt 0.032319 0.533964
vt 0.063569 0.533964
vt 0.079194 0.518339
vt 0.079194 0.494902
s 1
usemtl texture0
f 817/601/218 819/602/218 818/603/218
f 819/602/218 820/604/218 818/603/218
f 821/605/219 823/606/219 822/607/219
f 823/606/219 824/608/219 822/607/219
f 825/605/220 827/609/220 826/603/220
f 827/609/220 828/610/220 826/603/220
f 829/611/221 831/607/221 830/609/221
f 831/607/221 832/605/221 830/609/221
f 833/607/222 835/608/222 834/612/222
f 835/608/222 836/613/222 834/612/222
f 837/603/223 839/604/223 838/605/223
f 839/604/223 840/606/223 838/605/223
o Right_Leg.004
v 0.784404 0.200203 -0.082401
v 0.767048 0.205573 -0.180349
v 0.782637 0.001255 -0.092994
v 0.765281 0.006625 -0.190943
v 0.374683 0.205355 -0.110836
v 0.392039 0.199986 -0.012888
v 0.372917 0.006407 -0.121430
v 0.390272 0.001038 -0.023481
v 0.374683 0.205355 -0.110836
v 0.767048 0.205573 -0.180349
v 0.392039 0.199986 -0.012888
v 0.784404 0.200203 -0.082401
v 0.390272 0.001038 -0.023481
v 0.782637 0.001255 -0.092994
v 0.372917 0.006407 -0.121430
v 0.765281 0.006625 -0.190943
v 0.392039 0.199986 -0.012888
v 0.784404 0.200203 -0.082401
v 0.390272 0.001038 -0.023481
v 0.782637 0.001255 -0.092994
v 0.767048 0.205573 -0.180349
v 0.374683 0.205355 -0.110836
v 0.765281 0.006625 -0.190943
v 0.372917 0.006407 -0.121430
vn 0.9847 0.0005 -0.1744
vn -0.9847 -0.0005 0.1744
vn 0.0089 0.9985 0.0532
vn -0.0089 -0.9985 -0.0532
vn 0.1742 -0.0539 0.9832
vn -0.1742 0.0539 -0.9832
vt 0.121643 0.754095
vt 0.121643 0.746282
vt 0.125549 0.754095
vt 0.125549 0.746282
vt 0.141174 0.754095
vt 0.141174 0.746282
vt 0.145080 0.754095
vt 0.145080 0.746282
vt 0.141174 0.758001
vt 0.125549 0.758001
vt 0.156799 0.758001
vt 0.156799 0.754095
vt 0.160705 0.754095
vt 0.160705 0.746282
s 1
usemtl texture0
f 841/614/224 843/615/224 842/616/224
f 843/615/224 844/617/224 842/616/224
f 845/618/225 847/619/225 846/620/225
f 847/619/225 848/621/225 846/620/225
f 849/618/226 851/622/226 850/616/226
f 851/622/226 852/623/226 850/616/226
f 853/624/227 855/625/227 854/622/227
f 855/625/227 856/618/227 854/622/227
f 857/620/228 859/621/228 858/626/228
f 859/621/228 860/627/228 858/626/228
f 861/616/229 863/617/229 862/618/229
f 863/617/229 864/619/229 862/618/229
o Right_Leg.005
v 0.906313 1.465734 0.425455
v 0.817560 1.493193 -0.075422
v 0.901014 0.868891 0.393674
v 0.812261 0.896349 -0.107203
v 0.367496 1.492943 0.004313
v 0.456249 1.465485 0.505190
v 0.362197 0.896099 -0.027467
v 0.450950 0.868641 0.473410
v 0.367496 1.492943 0.004313
v 0.817560 1.493193 -0.075422
v 0.456249 1.465485 0.505190
v 0.906313 1.465734 0.425455
v 0.450950 0.868641 0.473410
v 0.901014 0.868891 0.393674
v 0.362197 0.896099 -0.027467
v 0.812261 0.896349 -0.107203
v 0.456249 1.465485 0.505190
v 0.906313 1.465734 0.425455
v 0.450950 0.868641 0.473410
v 0.901014 0.868891 0.393674
v 0.817560 1.493193 -0.075422
v 0.367496 1.492943 0.004313
v 0.812261 0.896349 -0.107203
v 0.362197 0.896099 -0.027467
vn 0.9847 0.0005 -0.1744
vn -0.9847 -0.0005 0.1744
vn 0.0089 0.9985 0.0532
vn -0.0089 -0.9985 -0.0532
vn 0.1742 -0.0539 0.9832
vn -0.1742 0.0539 -0.9832
vt 0.249959 0.816113
vt 0.249959 0.792676
vt 0.265584 0.816113
vt 0.265584 0.792676
vt 0.281209 0.816113
vt 0.281209 0.792676
vt 0.296834 0.816113
vt 0.296834 0.792676
vt 0.281209 0.831738
vt 0.265584 0.831738
vt 0.296834 0.831738
vt 0.312459 0.816113
vt 0.312459 0.792676
s 1
usemtl texture0
f 865/628/230 867/629/230 866/630/230
f 867/629/230 868/631/230 866/630/230
f 869/632/231 871/633/231 870/634/231
f 871/633/231 872/635/231 870/634/231
f 873/632/232 875/636/232 874/630/232
f 875/636/232 876/637/232 874/630/232
f 877/638/233 879/634/233 878/636/233
f 879/634/233 880/632/233 878/636/233
f 881/634/234 883/635/234 882/639/234
f 883/635/234 884/640/234 882/639/234
f 885/630/235 887/631/235 886/632/235
f 887/631/235 888/633/235 886/632/235
