# Blender 4.4.3
# www.blender.org
mtllib statue_pillar.mtl
o cube
v 0.439806 0.918750 0.439806
v 0.439806 0.918750 -0.439806
v 0.439806 0.855000 0.439806
v 0.439806 0.855000 -0.439806
v -0.439806 0.918750 -0.439806
v -0.439806 0.918750 0.439806
v -0.439806 0.855000 -0.439806
v -0.439806 0.855000 0.439806
v -0.439806 0.918750 -0.439806
v 0.439806 0.918750 -0.439806
v -0.439806 0.918750 0.439806
v 0.439806 0.918750 0.439806
v -0.439806 0.855000 0.439806
v 0.439806 0.855000 0.439806
v -0.439806 0.855000 -0.439806
v 0.439806 0.855000 -0.439806
v -0.439806 0.918750 0.439806
v 0.439806 0.918750 0.439806
v -0.439806 0.855000 0.439806
v 0.439806 0.855000 0.439806
v 0.439806 0.918750 -0.439806
v -0.439806 0.918750 -0.439806
v 0.439806 0.855000 -0.439806
v -0.439806 0.855000 -0.439806
vn 1.0000 -0.0000 -0.0000
vn -1.0000 -0.0000 -0.0000
vn -0.0000 1.0000 -0.0000
vn -0.0000 -1.0000 -0.0000
vn -0.0000 -0.0000 1.0000
vn -0.0000 -0.0000 -1.0000
vt 0.421875 0.585938
vt 0.421875 0.582031
vt 0.460937 0.585938
vt 0.460937 0.582031
vt 0.359375 0.503906
vt 0.359375 0.542969
vt 0.320312 0.503906
vt 0.320312 0.542969
vt 0.398438 0.542969
vt 0.398438 0.503906
s 0
usemtl Material_0
f 1/1/1 3/2/1 2/3/1
f 3/2/1 4/4/1 2/3/1
f 5/1/2 7/2/2 6/3/2
f 7/2/2 8/4/2 6/3/2
f 9/5/3 11/6/3 10/7/3
f 11/6/3 12/8/3 10/7/3
f 13/9/4 15/10/4 14/6/4
f 15/10/4 16/5/4 14/6/4
f 17/1/5 19/2/5 18/3/5
f 19/2/5 20/4/5 18/3/5
f 21/1/6 23/2/6 22/3/6
f 23/2/6 24/4/6 22/3/6
o cube.001
v 0.465268 3.070000 0.465268
v 0.465268 3.070000 -0.465268
v 0.465268 0.918750 0.465268
v 0.465268 0.918750 -0.465268
v -0.465268 3.070000 -0.465268
v -0.465268 3.070000 0.465268
v -0.465268 0.918750 -0.465268
v -0.465268 0.918750 0.465268
v -0.465268 3.070000 -0.465268
v 0.465268 3.070000 -0.465268
v -0.465268 3.070000 0.465268
v 0.465268 3.070000 0.465268
v -0.465268 0.918750 0.465268
v 0.465268 0.918750 0.465268
v -0.465268 0.918750 -0.465268
v 0.465268 0.918750 -0.465268
v -0.465268 3.070000 0.465268
v 0.465268 3.070000 0.465268
v -0.465268 0.918750 0.465268
v 0.465268 0.918750 0.465268
v 0.465268 3.070000 -0.465268
v -0.465268 3.070000 -0.465268
v 0.465268 0.918750 -0.465268
v -0.465268 0.918750 -0.465268
vn 1.0000 -0.0000 -0.0000
vn -1.0000 -0.0000 -0.0000
vn -0.0000 1.0000 -0.0000
vn -0.0000 -1.0000 -0.0000
vn -0.0000 -0.0000 1.0000
vn -0.0000 -0.0000 -1.0000
vt 0.265625 0.355469
vt 0.265625 0.273438
vt 0.312500 0.355469
vt 0.312500 0.273438
vt 0.410156 0.503906
vt 0.410156 0.550781
vt 0.363281 0.503906
vt 0.363281 0.550781
s 0
usemtl Material_0
f 25/11/7 27/12/7 26/13/7
f 27/12/7 28/14/7 26/13/7
f 29/11/8 31/12/8 30/13/8
f 31/12/8 32/14/8 30/13/8
f 33/15/9 35/16/9 34/17/9
f 35/16/9 36/18/9 34/17/9
f 37/16/10 39/15/10 38/18/10
f 39/15/10 40/17/10 38/18/10
f 41/11/11 43/12/11 42/13/11
f 43/12/11 44/14/11 42/13/11
f 45/11/12 47/12/12 46/13/12
f 47/12/12 48/14/12 46/13/12
o cube.002
v 0.439806 3.133750 0.439806
v 0.439806 3.133750 -0.439806
v 0.439806 3.070000 0.439806
v 0.439806 3.070000 -0.439806
v -0.439806 3.133750 -0.439806
v -0.439806 3.133750 0.439806
v -0.439806 3.070000 -0.439806
v -0.439806 3.070000 0.439806
v -0.439806 3.133750 -0.439806
v 0.439806 3.133750 -0.439806
v -0.439806 3.133750 0.439806
v 0.439806 3.133750 0.439806
v -0.439806 3.070000 0.439806
v 0.439806 3.070000 0.439806
v -0.439806 3.070000 -0.439806
v 0.439806 3.070000 -0.439806
v -0.439806 3.133750 0.439806
v 0.439806 3.133750 0.439806
v -0.439806 3.070000 0.439806
v 0.439806 3.070000 0.439806
v 0.439806 3.133750 -0.439806
v -0.439806 3.133750 -0.439806
v 0.439806 3.070000 -0.439806
v -0.439806 3.070000 -0.439806
vn 1.0000 -0.0000 -0.0000
vn -1.0000 -0.0000 -0.0000
vn -0.0000 1.0000 -0.0000
vn -0.0000 -1.0000 -0.0000
vn -0.0000 -0.0000 1.0000
vn -0.0000 -0.0000 -1.0000
vt 0.281250 0.503906
vt 0.281250 0.500000
vt 0.320312 0.503906
vt 0.320312 0.500000
vt 0.359375 0.503906
vt 0.359375 0.500000
vt 0.398438 0.503906
vt 0.398438 0.500000
vt 0.359375 0.542969
vt 0.320312 0.542969
vt 0.398438 0.542969
vt 0.437500 0.503906
vt 0.437500 0.500000
s 0
usemtl Material_0
f 49/19/13 51/20/13 50/21/13
f 51/20/13 52/22/13 50/21/13
f 53/23/14 55/24/14 54/25/14
f 55/24/14 56/26/14 54/25/14
f 57/23/15 59/27/15 58/21/15
f 59/27/15 60/28/15 58/21/15
f 61/29/16 63/25/16 62/27/16
f 63/25/16 64/23/16 62/27/16
f 65/25/17 67/26/17 66/30/17
f 67/26/17 68/31/17 66/30/17
f 69/21/18 71/22/18 70/23/18
f 71/22/18 72/24/18 70/23/18
o cube.003
v -0.527767 3.135000 0.527767
v -0.527767 3.135000 -0.527767
v -0.527767 3.326250 0.527767
v -0.527767 3.326250 -0.527767
v 0.527767 3.135000 -0.527767
v 0.527767 3.135000 0.527767
v 0.527767 3.326250 -0.527767
v 0.527767 3.326250 0.527767
v 0.527767 3.135000 -0.527767
v -0.527767 3.135000 -0.527767
v 0.527767 3.135000 0.527767
v -0.527767 3.135000 0.527767
v 0.527767 3.326250 0.527767
v -0.527767 3.326250 0.527767
v 0.527767 3.326250 -0.527767
v -0.527767 3.326250 -0.527767
v 0.527767 3.135000 0.527767
v -0.527767 3.135000 0.527767
v 0.527767 3.326250 0.527767
v -0.527767 3.326250 0.527767
v -0.527767 3.135000 -0.527767
v 0.527767 3.135000 -0.527767
v -0.527767 3.326250 -0.527767
v 0.527767 3.326250 -0.527767
vn -1.0000 -0.0000 -0.0000
vn 1.0000 -0.0000 -0.0000
vn -0.0000 -1.0000 -0.0000
vn -0.0000 1.0000 -0.0000
vn -0.0000 -0.0000 1.0000
vn -0.0000 -0.0000 -1.0000
vt 0.269531 0.503906
vt 0.269531 0.492188
vt 0.316406 0.503906
vt 0.316406 0.492188
vt 0.363281 0.503906
vt 0.363281 0.492188
vt 0.410156 0.503906
vt 0.410156 0.492188
vt 0.410156 0.574219
vt 0.410156 0.621094
vt 0.363281 0.574219
vt 0.363281 0.621094
vt 0.410156 0.351562
vt 0.410156 0.304688
vt 0.363281 0.351562
vt 0.363281 0.304688
vt 0.457031 0.503906
vt 0.457031 0.492188
s 0
usemtl Material_0
f 73/32/19 75/33/19 74/34/19
f 75/33/19 76/35/19 74/34/19
f 77/36/20 79/37/20 78/38/20
f 79/37/20 80/39/20 78/38/20
f 81/40/21 83/41/21 82/42/21
f 83/41/21 84/43/21 82/42/21
f 85/44/22 87/45/22 86/46/22
f 87/45/22 88/47/22 86/46/22
f 89/38/23 91/39/23 90/48/23
f 91/39/23 92/49/23 90/48/23
f 93/34/24 95/35/24 94/36/24
f 95/35/24 96/37/24 94/36/24
o cube.004
v 0.615729 4.026250 0.615729
v 0.615729 4.026250 -0.615729
v 0.615729 3.325000 0.615729
v 0.615729 3.325000 -0.615729
v -0.615729 4.026250 -0.615729
v -0.615729 4.026250 0.615729
v -0.615729 3.325000 -0.615729
v -0.615729 3.325000 0.615729
v -0.615729 4.026250 -0.615729
v 0.615729 4.026250 -0.615729
v -0.615729 4.026250 0.615729
v 0.615729 4.026250 0.615729
v -0.615729 3.325000 0.615729
v 0.615729 3.325000 0.615729
v -0.615729 3.325000 -0.615729
v 0.615729 3.325000 -0.615729
v -0.615729 4.026250 0.615729
v 0.615729 4.026250 0.615729
v -0.615729 3.325000 0.615729
v 0.615729 3.325000 0.615729
v 0.615729 4.026250 -0.615729
v -0.615729 4.026250 -0.615729
v 0.615729 3.325000 -0.615729
v -0.615729 3.325000 -0.615729
vn 1.0000 -0.0000 -0.0000
vn -1.0000 -0.0000 -0.0000
vn -0.0000 1.0000 -0.0000
vn -0.0000 -1.0000 -0.0000
vn -0.0000 -0.0000 1.0000
vn -0.0000 -0.0000 -1.0000
vt 0.675781 0.378906
vt 0.675781 0.335938
vt 0.730469 0.378906
vt 0.730469 0.335938
vt 0.621094 0.378906
vt 0.621094 0.433594
vt 0.566406 0.378906
vt 0.566406 0.433594
s 0
usemtl Material_0
f 97/50/25 99/51/25 98/52/25
f 99/51/25 100/53/25 98/52/25
f 101/50/26 103/51/26 102/52/26
f 103/51/26 104/53/26 102/52/26
f 105/54/27 107/55/27 106/56/27
f 107/55/27 108/57/27 106/56/27
f 109/55/28 111/54/28 110/57/28
f 111/54/28 112/56/28 110/57/28
f 113/50/29 115/51/29 114/52/29
f 115/51/29 116/53/29 114/52/29
f 117/50/30 119/51/30 118/52/30
f 119/51/30 120/53/30 118/52/30
o cube.005
v 0.527767 0.862500 0.527767
v 0.527767 0.862500 -0.527767
v 0.527767 0.671250 0.527767
v 0.527767 0.671250 -0.527767
v -0.527767 0.862500 -0.527767
v -0.527767 0.862500 0.527767
v -0.527767 0.671250 -0.527767
v -0.527767 0.671250 0.527767
v -0.527767 0.862500 -0.527767
v 0.527767 0.862500 -0.527767
v -0.527767 0.862500 0.527767
v 0.527767 0.862500 0.527767
v -0.527767 0.671250 0.527767
v 0.527767 0.671250 0.527767
v -0.527767 0.671250 -0.527767
v 0.527767 0.671250 -0.527767
v -0.527767 0.862500 0.527767
v 0.527767 0.862500 0.527767
v -0.527767 0.671250 0.527767
v 0.527767 0.671250 0.527767
v 0.527767 0.862500 -0.527767
v -0.527767 0.862500 -0.527767
v 0.527767 0.671250 -0.527767
v -0.527767 0.671250 -0.527767
vn 1.0000 -0.0000 -0.0000
vn -1.0000 -0.0000 -0.0000
vn -0.0000 1.0000 -0.0000
vn -0.0000 -1.0000 -0.0000
vn -0.0000 -0.0000 1.0000
vn -0.0000 -0.0000 -1.0000
vt 0.269531 0.503906
vt 0.269531 0.492188
vt 0.316406 0.503906
vt 0.316406 0.492188
vt 0.363281 0.503906
vt 0.363281 0.492188
vt 0.410156 0.503906
vt 0.410156 0.492188
vt 0.410156 0.574219
vt 0.410156 0.621094
vt 0.363281 0.574219
vt 0.363281 0.621094
vt 0.410156 0.351562
vt 0.410156 0.304688
vt 0.363281 0.351562
vt 0.363281 0.304688
vt 0.457031 0.503906
vt 0.457031 0.492188
s 0
usemtl Material_0
f 121/58/31 123/59/31 122/60/31
f 123/59/31 124/61/31 122/60/31
f 125/62/32 127/63/32 126/64/32
f 127/63/32 128/65/32 126/64/32
f 129/66/33 131/67/33 130/68/33
f 131/67/33 132/69/33 130/68/33
f 133/70/34 135/71/34 134/72/34
f 135/71/34 136/73/34 134/72/34
f 137/64/35 139/65/35 138/74/35
f 139/65/35 140/75/35 138/74/35
f 141/60/36 143/61/36 142/62/36
f 143/61/36 144/63/36 142/62/36
o cube.006
v 0.615729 0.682500 0.615729
v 0.615729 0.682500 -0.615729
v 0.615729 -0.018750 0.615729
v 0.615729 -0.018750 -0.615729
v -0.615729 0.682500 -0.615729
v -0.615729 0.682500 0.615729
v -0.615729 -0.018750 -0.615729
v -0.615729 -0.018750 0.615729
v -0.615729 0.682500 -0.615729
v 0.615729 0.682500 -0.615729
v -0.615729 0.682500 0.615729
v 0.615729 0.682500 0.615729
v -0.615729 -0.018750 0.615729
v 0.615729 -0.018750 0.615729
v -0.615729 -0.018750 -0.615729
v 0.615729 -0.018750 -0.615729
v -0.615729 0.682500 0.615729
v 0.615729 0.682500 0.615729
v -0.615729 -0.018750 0.615729
v 0.615729 -0.018750 0.615729
v 0.615729 0.682500 -0.615729
v -0.615729 0.682500 -0.615729
v 0.615729 -0.018750 -0.615729
v -0.615729 -0.018750 -0.615729
vn 1.0000 -0.0000 -0.0000
vn -1.0000 -0.0000 -0.0000
vn -0.0000 1.0000 -0.0000
vn -0.0000 -1.0000 -0.0000
vn -0.0000 -0.0000 1.0000
vn -0.0000 -0.0000 -1.0000
vt 0.675781 0.378906
vt 0.675781 0.335938
vt 0.730469 0.378906
vt 0.730469 0.335938
vt 0.621094 0.378906
vt 0.621094 0.433594
vt 0.566406 0.378906
vt 0.566406 0.433594
s 0
usemtl Material_0
f 145/76/37 147/77/37 146/78/37
f 147/77/37 148/79/37 146/78/37
f 149/76/38 151/77/38 150/78/38
f 151/77/38 152/79/38 150/78/38
f 153/80/39 155/81/39 154/82/39
f 155/81/39 156/83/39 154/82/39
f 157/81/40 159/80/40 158/83/40
f 159/80/40 160/82/40 158/83/40
f 161/76/41 163/77/41 162/78/41
f 163/77/41 164/79/41 162/78/41
f 165/76/42 167/77/42 166/78/42
f 167/77/42 168/79/42 166/78/42
