# Blender 4.4.3
# www.blender.org
mtllib statue_woman.mtl
o cube
v 1.002849 3.795387 -0.011160
v 1.079415 3.790173 -0.102815
v 0.994491 3.496815 -0.001156
v 1.071058 3.491601 -0.092811
v 0.926511 3.790173 -0.230549
v 0.849944 3.795387 -0.138893
v 0.918153 3.491601 -0.220545
v 0.841586 3.496815 -0.128888
vn 0.6405 -0.0436 -0.7667
vn 0.7674 -0.0000 0.6411
vn 0.7675 -0.0000 0.6411
vn -0.6405 0.0436 0.7667
vn -0.7675 -0.0000 -0.6411
vn 0.0280 0.9990 -0.0335
vn -0.0280 -0.9990 0.0335
vt 0.370000 0.700000
vt 0.380000 0.715000
vt 0.370000 0.715000
vt 0.365000 0.715000
vt 0.365000 0.700000
vt 0.395000 0.700000
vt 0.385000 0.715000
vt 0.385000 0.700000
vt 0.380000 0.700000
vt 0.380000 0.720000
vt 0.390000 0.720000
vt 0.390000 0.715000
vt 0.395000 0.715000
vt 0.370000 0.720000
s 1
usemtl texture0
f 4/1/1 5/2/1 2/3/1
f 4/1/2 1/4/3 3/5/2
f 3/6/4 6/7/4 8/8/4
f 7/9/5 6/7/5 5/2/5
f 6/10/6 2/3/6 5/2/6
f 4/2/7 8/11/7 7/12/7
f 4/1/1 7/9/1 5/2/1
f 4/1/2 2/3/3 1/4/3
f 3/6/4 1/13/4 6/7/4
f 7/9/5 8/8/5 6/7/5
f 6/10/6 1/14/6 2/3/6
f 4/2/7 3/10/7 8/11/7
o cube.001
v 0.546389 2.901062 1.312175
v 0.840175 2.901062 0.960494
v 0.546389 2.801444 1.312175
v 0.840175 2.801444 0.960494
v 0.106234 2.901062 0.347376
v -0.187553 2.901062 0.699056
v 0.106234 2.801444 0.347376
v -0.187553 2.801444 0.699056
vn 0.6411 -0.0000 -0.7674
vn 0.7674 -0.0000 0.6411
vn -0.6411 -0.0000 0.7674
vn -0.7674 -0.0000 -0.6411
vn -0.0000 1.0000 -0.0000
vn -0.0000 -1.0000 -0.0000
vt 0.325000 0.895000
vt 0.280000 0.900000
vt 0.280000 0.895000
vt 0.260000 0.900000
vt 0.260000 0.895000
vt 0.390000 0.895000
vt 0.345000 0.900000
vt 0.345000 0.895000
vt 0.325000 0.900000
vt 0.280000 0.920000
vt 0.325000 0.920000
vt 0.370000 0.920000
vt 0.370000 0.900000
vt 0.390000 0.900000
s 1
usemtl texture0
f 15/15/8 10/16/8 12/17/8
f 12/17/9 9/18/9 11/19/9
f 11/20/10 14/21/10 16/22/10
f 16/22/11 13/23/11 15/15/11
f 9/24/12 13/23/12 14/25/12
f 12/23/13 16/26/13 15/27/13
f 15/15/8 13/23/8 10/16/8
f 12/17/9 10/16/9 9/18/9
f 11/20/10 9/28/10 14/21/10
f 16/22/11 14/21/11 13/23/11
f 9/24/12 10/16/12 13/23/12
f 12/23/13 11/25/13 16/26/13
o cube.002
v 0.482523 2.901062 1.388627
v 0.546389 2.901062 1.312175
v 0.482523 2.701825 1.388627
v 0.546389 2.701825 1.312175
v -0.187553 2.901062 0.699056
v -0.251420 2.901062 0.775508
v -0.187553 2.701825 0.699056
v -0.251420 2.701825 0.775508
vn 0.6411 -0.0000 -0.7674
vn 0.7674 -0.0000 0.6411
vn 0.7675 -0.0000 0.6411
vn -0.6411 -0.0000 0.7674
vn -0.7674 -0.0000 -0.6411
vn -0.0000 1.0000 -0.0000
vn -0.0000 -1.0000 -0.0000
vt 0.360000 0.725000
vt 0.315000 0.735000
vt 0.315000 0.725000
vt 0.310000 0.735000
vt 0.310000 0.725000
vt 0.410000 0.725000
vt 0.365000 0.735000
vt 0.365000 0.725000
vt 0.360000 0.735000
vt 0.315000 0.740000
vt 0.360000 0.740000
vt 0.405000 0.735000
vt 0.405000 0.740000
vt 0.410000 0.735000
s 1
usemtl texture0
f 23/29/14 18/30/14 20/31/14
f 20/31/15 17/32/16 19/33/15
f 19/34/17 22/35/17 24/36/17
f 24/36/18 21/37/18 23/29/18
f 17/38/19 21/37/19 22/39/19
f 23/40/20 19/39/20 24/41/20
f 23/29/14 21/37/14 18/30/14
f 20/31/15 18/30/16 17/32/16
f 19/34/17 17/42/17 22/35/17
f 24/36/18 22/35/18 21/37/18
f 17/38/19 18/30/19 21/37/19
f 23/40/20 20/37/20 19/39/20
o cube.003
v 0.329618 2.701825 1.260894
v 0.393485 2.701825 1.184442
v 0.329618 2.602206 1.260894
v 0.393485 2.602206 1.184442
v -0.034649 2.701825 0.826789
v -0.098515 2.701825 0.903242
v -0.034649 2.602206 0.826789
v -0.098515 2.602206 0.903242
vn 0.6411 -0.0000 -0.7674
vn 0.7674 -0.0000 0.6411
vn -0.6411 -0.0000 0.7674
vn -0.7675 -0.0000 -0.6411
vn -0.0000 1.0000 -0.0000
vn -0.0000 -1.0000 -0.0000
vt 0.110000 0.630000
vt 0.085000 0.635000
vt 0.085000 0.630000
vt 0.080000 0.635000
vt 0.080000 0.630000
vt 0.140000 0.630000
vt 0.115000 0.635000
vt 0.115000 0.630000
vt 0.110000 0.635000
vt 0.085000 0.640000
vt 0.110000 0.640000
vt 0.135000 0.635000
vt 0.135000 0.640000
vt 0.140000 0.635000
s 1
usemtl texture0
f 31/43/21 26/44/21 28/45/21
f 28/45/22 25/46/22 27/47/22
f 27/48/23 30/49/23 32/50/23
f 32/50/24 29/51/24 31/43/24
f 25/52/25 29/51/25 30/53/25
f 31/54/26 27/53/26 32/55/26
f 31/43/21 29/51/21 26/44/21
f 28/45/22 26/44/22 25/46/22
f 27/48/23 25/56/23 30/49/23
f 32/50/24 30/49/24 29/51/24
f 25/52/25 26/44/25 29/51/25
f 31/54/26 28/51/26 27/53/26
o cube.004
v 0.587414 2.303350 1.138758
v 0.842880 2.303350 0.832949
v 0.587413 1.107925 1.138759
v 0.842880 1.107925 0.832949
v 0.215971 2.303350 0.309243
v -0.039495 2.303350 0.615053
v 0.215971 1.107925 0.309243
v -0.039495 1.107925 0.615053
vn 0.6411 -0.0000 -0.7674
vn 0.7674 -0.0000 0.6411
vn -0.6411 -0.0000 0.7674
vn -0.7675 -0.0000 -0.6411
vn -0.0000 1.0000 -0.0000
vn -0.0000 -1.0000 -0.0000
vt 0.320000 0.920000
vt 0.280000 0.980000
vt 0.280000 0.920000
vt 0.260000 0.980000
vt 0.260000 0.920000
vt 0.380000 0.920000
vt 0.340000 0.980000
vt 0.340000 0.920000
vt 0.320000 0.980000
vt 0.280000 1.000000
vt 0.320000 1.000000
vt 0.360000 1.000000
vt 0.360000 0.980000
vt 0.380000 0.980000
s 1
usemtl texture0
f 39/57/27 34/58/27 36/59/27
f 36/59/28 33/60/28 35/61/28
f 35/62/29 38/63/29 40/64/29
f 40/64/30 37/65/30 39/57/30
f 33/66/31 37/65/31 38/67/31
f 36/65/32 40/68/32 39/69/32
f 39/57/27 37/65/27 34/58/27
f 36/59/28 34/58/28 33/60/28
f 35/62/29 33/70/29 38/63/29
f 40/64/30 38/63/30 37/65/30
f 33/66/31 34/58/31 37/65/31
f 36/65/32 35/67/32 40/68/32
o cube.005
v 0.432934 2.249354 1.048651
v 0.720333 2.249354 0.704615
v 0.595105 1.997524 1.184124
v 0.882504 1.997524 0.840089
v 0.216666 1.698665 0.283863
v -0.070733 1.698665 0.627899
v 0.378837 1.446834 0.419336
v 0.091438 1.446834 0.763372
vn 0.6411 -0.0000 -0.7674
vn 0.5879 0.6428 0.4911
vn -0.6411 -0.0000 0.7675
vn -0.6411 -0.0000 0.7674
vn -0.5879 -0.6428 -0.4911
vn -0.4933 0.7660 -0.4121
vn 0.4933 -0.7660 0.4121
vn 0.6411 -0.0000 -0.7675
vt 0.515000 0.935000
vt 0.475000 0.950000
vt 0.475000 0.935000
vt 0.455000 0.950000
vt 0.455000 0.935000
vt 0.575000 0.935000
vt 0.535000 0.950000
vt 0.535000 0.935000
vt 0.515000 0.950000
vt 0.475000 0.970000
vt 0.515000 0.970000
vt 0.555000 0.950000
vt 0.555000 0.970000
vt 0.575000 0.950000
s 1
usemtl texture0
f 47/71/33 42/72/33 44/73/33
f 44/73/34 41/74/34 43/75/34
f 43/76/35 46/77/36 48/78/36
f 48/78/37 45/79/37 47/71/37
f 41/80/38 45/79/38 46/81/38
f 47/82/39 43/81/39 48/83/39
f 47/71/33 45/79/40 42/72/33
f 44/73/34 42/72/34 41/74/34
f 43/76/35 41/84/35 46/77/36
f 48/78/37 46/77/37 45/79/37
f 41/80/38 42/72/38 45/79/38
f 47/82/39 44/79/39 43/81/39
o cube.006
v 0.094702 1.783653 0.779081
v 0.394875 1.783653 0.419754
v 0.083698 1.455225 0.769887
v 0.383871 1.455225 0.410562
v 0.219203 1.793648 0.273001
v -0.080970 1.793648 0.632327
v 0.208198 1.465219 0.263808
v -0.091975 1.465219 0.623133
vn 0.6411 -0.0000 -0.7674
vn 0.7667 -0.0436 0.6405
vn -0.6411 -0.0000 0.7674
vn -0.7667 0.0436 -0.6405
vn 0.0335 0.9990 0.0280
vn -0.0335 -0.9990 -0.0280
vt 0.580000 0.405000
vt 0.570000 0.420000
vt 0.570000 0.405000
vt 0.550000 0.420000
vt 0.550000 0.405000
vt 0.600000 0.405000
vt 0.610000 0.420000
vt 0.600000 0.420000
vt 0.580000 0.420000
vt 0.570000 0.440000
vt 0.580000 0.440000
vt 0.590000 0.440000
vt 0.590000 0.420000
vt 0.610000 0.405000
s 1
usemtl texture0
f 55/85/41 50/86/41 52/87/41
f 52/87/42 49/88/42 51/89/42
f 56/90/43 49/91/43 54/92/43
f 55/85/44 54/92/44 53/93/44
f 49/94/45 53/93/45 54/95/45
f 52/93/46 56/96/46 55/97/46
f 55/85/41 53/93/41 50/86/41
f 52/87/42 50/86/42 49/88/42
f 56/90/43 51/98/43 49/91/43
f 55/85/44 56/90/44 54/92/44
f 49/94/45 50/86/45 53/93/45
f 52/93/46 51/95/46 56/96/46
o cube.007
v 0.609594 2.311122 1.209209
v 0.909767 2.311122 0.849883
v 0.595921 1.903074 1.197787
v 0.896094 1.903074 0.838461
v 0.726456 2.321551 0.696749
v 0.426283 2.321551 1.056075
v 0.712783 1.913503 0.685327
v 0.412610 1.913503 1.044653
vn 0.6411 -0.0000 -0.7674
vn 0.7667 -0.0436 0.6405
vn -0.6411 -0.0000 0.7674
vn -0.7667 0.0436 -0.6405
vn 0.0335 0.9990 0.0280
vn -0.0335 -0.9990 -0.0280
vt 0.605000 0.500000
vt 0.595000 0.520000
vt 0.595000 0.500000
vt 0.575000 0.520000
vt 0.575000 0.500000
vt 0.625000 0.500000
vt 0.635000 0.520000
vt 0.625000 0.520000
vt 0.605000 0.520000
vt 0.605000 0.540000
vt 0.615000 0.540000
vt 0.615000 0.520000
vt 0.635000 0.500000
vt 0.595000 0.540000
s 1
usemtl texture0
f 63/99/47 58/100/47 60/101/47
f 60/101/48 57/102/48 59/103/48
f 64/104/49 57/105/49 62/106/49
f 64/104/50 61/107/50 63/99/50
f 62/108/51 58/100/51 61/107/51
f 60/107/52 64/109/52 63/110/52
f 63/99/47 61/107/47 58/100/47
f 60/101/48 58/100/48 57/102/48
f 64/104/49 59/111/49 57/105/49
f 64/104/50 62/106/50 61/107/50
f 62/108/51 57/112/51 58/100/51
f 60/107/52 59/108/52 64/109/52
o cube.008
v 0.474971 3.100300 1.304436
v 0.985904 3.100300 0.692817
v 0.474971 2.303350 1.304436
v 0.985904 2.303350 0.692817
v 0.343704 3.100300 0.156338
v -0.167228 3.100300 0.767956
v 0.343704 2.303350 0.156338
v -0.167228 2.303350 0.767956
vn 0.6411 -0.0000 -0.7674
vn 0.7674 -0.0000 0.6411
vn -0.6411 -0.0000 0.7674
vn -0.7674 -0.0000 -0.6411
vn -0.0000 1.0000 -0.0000
vn -0.0000 -1.0000 -0.0000
vt 0.210000 0.780000
vt 0.170000 0.820000
vt 0.170000 0.780000
vt 0.130000 0.820000
vt 0.130000 0.780000
vt 0.290000 0.780000
vt 0.250000 0.820000
vt 0.250000 0.780000
vt 0.210000 0.820000
vt 0.170000 0.860000
vt 0.210000 0.860000
vt 0.250000 0.860000
vt 0.290000 0.820000
s 1
usemtl texture0
f 71/113/53 66/114/53 68/115/53
f 68/115/54 65/116/54 67/117/54
f 67/118/55 70/119/55 72/120/55
f 72/120/56 69/121/56 71/113/56
f 65/122/57 69/121/57 70/123/57
f 68/121/58 72/124/58 71/119/58
f 71/113/53 69/121/53 66/114/53
f 68/115/54 66/114/54 65/116/54
f 67/118/55 65/125/55 70/119/55
f 72/120/56 70/119/56 69/121/56
f 65/122/57 66/114/57 69/121/57
f 68/121/58 67/123/58 72/124/58
o cube.009
v 0.850870 1.921316 1.212175
v 0.923325 2.312853 1.196966
v 1.183122 1.815416 0.068744
v 1.255576 2.206953 0.053535
v 0.641434 2.361660 1.110536
v 0.568979 1.970123 1.125744
v 0.973684 2.255760 -0.032895
v 0.901230 1.864223 -0.017686
vn 0.1818 0.9826 -0.0382
vn 0.9432 -0.1633 0.2892
vn -0.1818 -0.9826 0.0382
vn -0.9432 0.1633 -0.2892
vn -0.2779 0.0886 0.9565
vn 0.2779 -0.0886 -0.9565
vt 0.245000 0.640000
vt 0.230000 0.700000
vt 0.230000 0.640000
vt 0.210000 0.700000
vt 0.210000 0.640000
vt 0.265000 0.640000
vt 0.280000 0.700000
vt 0.265000 0.700000
vt 0.245000 0.700000
vt 0.230000 0.720000
vt 0.245000 0.720000
vt 0.260000 0.700000
vt 0.260000 0.720000
vt 0.280000 0.640000
s 1
usemtl texture0
f 79/126/59 74/127/59 76/128/59
f 76/128/60 73/129/60 75/130/60
f 80/131/61 73/132/61 78/133/61
f 80/131/62 77/134/62 79/126/62
f 73/135/63 77/134/63 78/136/63
f 79/137/64 75/136/64 80/138/64
f 79/126/59 77/134/59 74/127/59
f 76/128/60 74/127/60 73/129/60
f 80/131/61 75/139/61 73/132/61
f 80/131/62 78/133/62 77/134/62
f 73/135/63 74/127/63 77/134/63
f 79/137/64 76/134/64 75/136/64
o cube.010
v 0.890105 1.870083 1.124172
v 0.973428 2.320351 1.106682
v 1.028543 1.825958 0.647742
v 1.111866 2.276226 0.630252
v 0.653952 2.375666 1.008727
v 0.570629 1.925398 1.026218
v 0.792389 2.331541 0.532297
v 0.709066 1.881273 0.549788
vn 0.1818 0.9826 -0.0382
vn 0.9432 -0.1633 0.2892
vn -0.1818 -0.9826 0.0382
vn -0.9432 0.1633 -0.2892
vn -0.2779 0.0886 0.9565
vn 0.2779 -0.0886 -0.9565
vt 0.100000 0.545000
vt 0.085000 0.570000
vt 0.085000 0.545000
vt 0.065000 0.545000
vt 0.065000 0.570000
vt 0.135000 0.545000
vt 0.120000 0.570000
vt 0.120000 0.545000
vt 0.100000 0.570000
vt 0.085000 0.590000
vt 0.100000 0.590000
vt 0.115000 0.570000
vt 0.115000 0.590000
vt 0.135000 0.570000
s 1
usemtl texture0
f 87/140/65 82/141/65 84/142/65
f 83/143/66 82/141/66 81/144/66
f 83/145/67 86/146/67 88/147/67
f 88/147/68 85/148/68 87/140/68
f 81/149/69 85/148/69 86/150/69
f 87/151/70 83/150/70 88/152/70
f 87/140/65 85/148/65 82/141/65
f 83/143/66 84/142/66 82/141/66
f 83/145/67 81/153/67 86/146/67
f 88/147/68 86/146/68 85/148/68
f 81/149/69 82/141/69 85/148/69
f 87/151/70 84/148/70 83/150/70
o cube.011
v 0.955135 2.901062 0.822881
v 1.019002 2.901062 0.746428
v 0.955135 2.801444 0.822881
v 1.019002 2.801444 0.746428
v 0.927259 2.901062 0.669788
v 0.863392 2.901062 0.746240
v 0.927259 2.801444 0.669788
v 0.863392 2.801444 0.746240
vn 0.6411 -0.0000 -0.7675
vn 0.7674 -0.0000 0.6411
vn -0.6411 -0.0000 0.7674
vn -0.7674 -0.0000 -0.6411
vn -0.0000 1.0000 -0.0000
vn -0.0000 -1.0000 -0.0000
vt 0.380000 0.790000
vt 0.375000 0.795000
vt 0.375000 0.790000
vt 0.370000 0.795000
vt 0.370000 0.790000
vt 0.390000 0.790000
vt 0.385000 0.795000
vt 0.385000 0.790000
vt 0.380000 0.795000
vt 0.380000 0.800000
vt 0.385000 0.800000
vt 0.390000 0.795000
vt 0.375000 0.800000
s 1
usemtl texture0
f 95/154/71 90/155/71 92/156/71
f 92/156/72 89/157/72 91/158/72
f 91/159/73 94/160/73 96/161/73
f 96/161/74 93/162/74 95/154/74
f 94/163/75 90/155/75 93/162/75
f 92/162/76 96/164/76 95/160/76
f 95/154/71 93/162/71 90/155/71
f 92/156/72 90/155/72 89/157/72
f 91/159/73 89/165/73 94/160/73
f 96/161/74 94/160/74 93/162/74
f 94/163/75 89/166/75 90/155/75
f 92/162/76 91/163/76 96/164/76
o cube.012
v 1.006229 2.901062 0.761719
v 1.070095 2.901062 0.685266
v 1.006229 2.402969 0.761719
v 1.070095 2.402969 0.685266
v 0.985998 2.901062 0.615013
v 0.922131 2.901062 0.691465
v 0.985998 2.402969 0.615013
v 0.922131 2.402969 0.691465
vn 0.6411 -0.0000 -0.7674
vn 0.7675 -0.0000 0.6411
vn -0.6411 -0.0000 0.7674
vn -0.7674 -0.0000 -0.6411
vn -0.0000 1.0000 -0.0000
vn -0.0000 -1.0000 -0.0000
vt 0.270000 0.865000
vt 0.265000 0.890000
vt 0.265000 0.865000
vt 0.260000 0.890000
vt 0.260000 0.865000
vt 0.280000 0.865000
vt 0.275000 0.890000
vt 0.275000 0.865000
vt 0.270000 0.890000
vt 0.270000 0.895000
vt 0.275000 0.895000
vt 0.280000 0.890000
vt 0.265000 0.895000
s 1
usemtl texture0
f 103/167/77 98/168/77 100/169/77
f 100/169/78 97/170/78 99/171/78
f 99/172/79 102/173/79 104/174/79
f 104/174/80 101/175/80 103/167/80
f 102/176/81 98/168/81 101/175/81
f 100/175/82 104/177/82 103/173/82
f 103/167/77 101/175/77 98/168/77
f 100/169/78 98/168/78 97/170/78
f 99/172/79 97/178/79 102/173/79
f 104/174/80 102/173/80 101/175/80
f 102/176/81 97/179/81 98/168/81
f 100/175/82 99/176/82 104/177/82
o cube.013
v 0.732259 2.901062 0.545831
v 0.802512 2.901062 0.461733
v 0.732259 2.701825 0.545831
v 0.802512 2.701825 0.461733
v 0.634317 2.901062 0.321227
v 0.564063 2.901062 0.405324
v 0.634317 2.701825 0.321227
v 0.564063 2.701825 0.405324
vn 0.6411 -0.0000 -0.7675
vn 0.7675 -0.0000 0.6411
vn -0.6411 -0.0000 0.7674
vn -0.7674 -0.0000 -0.6411
vn -0.0000 1.0000 -0.0000
vn -0.0000 -1.0000 -0.0000
vt 0.385000 0.800000
vt 0.375000 0.810000
vt 0.375000 0.800000
vt 0.370000 0.810000
vt 0.370000 0.800000
vt 0.400000 0.800000
vt 0.390000 0.810000
vt 0.390000 0.800000
vt 0.385000 0.810000
vt 0.375000 0.815000
vt 0.385000 0.815000
vt 0.395000 0.815000
vt 0.395000 0.810000
vt 0.400000 0.810000
s 1
usemtl texture0
f 111/180/83 106/181/83 108/182/83
f 108/182/84 105/183/84 107/184/84
f 107/185/85 110/186/85 112/187/85
f 112/187/86 109/188/86 111/180/86
f 105/189/87 109/188/87 110/190/87
f 108/188/88 112/191/88 111/192/88
f 111/180/83 109/188/83 106/181/83
f 108/182/84 106/181/84 105/183/84
f 107/185/85 105/193/85 110/186/85
f 112/187/86 110/186/86 109/188/86
f 105/189/87 106/181/87 109/188/87
f 108/188/88 107/190/88 112/191/88
o cube.014
v 0.922131 2.602206 0.691465
v 0.985998 2.602206 0.615013
v 0.922131 2.402969 0.691465
v 0.985998 2.402969 0.615013
v 0.909545 2.602206 0.551147
v 0.845679 2.602206 0.627599
v 0.909545 2.402969 0.551147
v 0.845679 2.402969 0.627599
vn 0.6411 -0.0000 -0.7675
vn 0.7674 -0.0000 0.6411
vn -0.6411 -0.0000 0.7674
vn -0.7675 -0.0000 -0.6411
vn -0.0000 1.0000 -0.0000
vn -0.0000 -1.0000 -0.0000
vt 0.150000 0.610000
vt 0.145000 0.620000
vt 0.145000 0.610000
vt 0.140000 0.620000
vt 0.140000 0.610000
vt 0.160000 0.610000
vt 0.155000 0.620000
vt 0.155000 0.610000
vt 0.150000 0.620000
vt 0.150000 0.625000
vt 0.155000 0.625000
vt 0.160000 0.620000
vt 0.145000 0.625000
s 1
usemtl texture0
f 119/194/89 114/195/89 116/196/89
f 116/196/90 113/197/90 115/198/90
f 115/199/91 118/200/91 120/201/91
f 120/201/92 117/202/92 119/194/92
f 118/203/93 114/195/93 117/202/93
f 116/202/94 120/204/94 119/200/94
f 119/194/89 117/202/89 114/195/89
f 116/196/90 114/195/90 113/197/90
f 115/199/91 113/205/91 118/200/91
f 120/201/92 118/200/92 117/202/92
f 118/203/93 113/206/93 114/195/93
f 116/202/94 115/203/94 120/204/94
o cube.015
v 0.432836 2.602206 0.282719
v 0.496702 2.602206 0.206267
v 0.432836 2.402969 0.282719
v 0.496702 2.402969 0.206267
v 0.420250 2.602206 0.142401
v 0.356384 2.602206 0.218853
v 0.420250 2.402969 0.142401
v 0.356384 2.402969 0.218853
vn 0.6411 -0.0000 -0.7674
vn 0.7675 -0.0000 0.6411
vn 0.7674 -0.0000 0.6411
vn -0.6411 -0.0000 0.7674
vn -0.7675 -0.0000 -0.6411
vn -0.7674 -0.0000 -0.6411
vn -0.0000 1.0000 -0.0000
vn -0.0000 -1.0000 -0.0000
vn 0.6411 -0.0000 -0.7675
vt 0.170000 0.610000
vt 0.165000 0.620000
vt 0.165000 0.610000
vt 0.160000 0.620000
vt 0.160000 0.610000
vt 0.180000 0.610000
vt 0.175000 0.620000
vt 0.175000 0.610000
vt 0.170000 0.620000
vt 0.165000 0.625000
vt 0.170000 0.625000
vt 0.175000 0.625000
vt 0.180000 0.620000
s 1
usemtl texture0
f 127/207/95 122/208/95 124/209/95
f 124/209/96 121/210/97 123/211/96
f 123/212/98 126/213/98 128/214/98
f 128/214/99 125/215/100 127/207/99
f 121/216/101 125/215/101 126/217/101
f 124/215/102 128/218/102 127/213/102
f 127/207/95 125/215/103 122/208/95
f 124/209/96 122/208/97 121/210/97
f 123/212/98 121/219/98 126/213/98
f 128/214/99 126/213/100 125/215/100
f 121/216/101 122/208/101 125/215/101
f 124/215/102 123/217/102 128/218/102
o cube.016
v 1.041884 3.595905 0.019805
v 1.105690 3.591559 -0.056574
v 0.941594 0.013043 0.139858
v 1.005400 0.008698 0.063479
v 1.029237 3.591559 -0.120441
v 0.965431 3.595905 -0.044062
v 0.928948 0.008698 -0.000388
v 0.865142 0.013043 0.075992
vn 0.6405 -0.0436 -0.7667
vn 0.7674 -0.0000 0.6411
vn -0.6405 0.0436 0.7667
vn -0.7674 -0.0000 -0.6411
vn 0.0280 0.9990 -0.0335
vn -0.0280 -0.9990 0.0335
vt 0.015000 0.530000
vt 0.010000 0.710000
vt 0.010000 0.530000
vt 0.005000 0.710000
vt 0.005000 0.530000
vt 0.020000 0.530000
vt 0.025000 0.710000
vt 0.020000 0.710000
vt 0.015000 0.710000
vt 0.015000 0.715000
vt 0.020000 0.715000
vt 0.025000 0.530000
vt 0.010000 0.715000
s 1
usemtl texture0
f 135/220/104 130/221/104 132/222/104
f 132/222/105 129/223/105 131/224/105
f 136/225/106 129/226/106 134/227/106
f 136/225/107 133/228/107 135/220/107
f 134/229/108 130/221/108 133/228/108
f 132/228/109 136/230/109 135/227/109
f 135/220/104 133/228/104 130/221/104
f 132/222/105 130/221/105 129/223/105
f 136/225/106 131/231/106 129/226/106
f 136/225/107 134/227/107 133/228/107
f 134/229/108 129/232/108 130/221/108
f 132/228/109 131/229/109 136/230/109
o cube.017
v 1.090444 4.193483 0.039368
v 1.167011 4.188269 -0.052289
v 1.073729 3.596339 0.059377
v 1.150296 3.591125 -0.032280
v 1.090559 4.188269 -0.116155
v 1.013992 4.193483 -0.024500
v 1.073844 3.591125 -0.096146
v 0.997277 3.596339 -0.004491
vn 0.6405 -0.0436 -0.7667
vn 0.7675 -0.0000 0.6411
vn -0.6405 0.0436 0.7667
vn -0.7674 -0.0000 -0.6411
vn 0.0280 0.9990 -0.0335
vn -0.0280 -0.9990 0.0335
vt 0.055000 0.600000
vt 0.060000 0.630000
vt 0.055000 0.630000
vt 0.050000 0.630000
vt 0.050000 0.600000
vt 0.065000 0.600000
vt 0.070000 0.630000
vt 0.065000 0.630000
vt 0.060000 0.600000
vt 0.055000 0.635000
vt 0.060000 0.635000
vt 0.065000 0.635000
vt 0.070000 0.600000
s 1
usemtl texture0
f 140/233/110 141/234/110 138/235/110
f 140/233/111 137/236/111 139/237/111
f 144/238/112 137/239/112 142/240/112
f 143/241/113 142/240/113 141/234/113
f 137/242/114 141/234/114 142/243/114
f 143/240/115 139/243/115 144/244/115
f 140/233/110 143/241/110 141/234/110
f 140/233/111 138/235/111 137/236/111
f 144/238/112 139/245/112 137/239/112
f 143/241/113 144/238/113 142/240/113
f 137/242/114 138/235/114 141/234/114
f 143/240/115 140/234/115 139/243/115
o cube.018
v 0.189299 3.299537 1.273479
v 0.776872 3.299537 0.570118
v 0.189299 2.652016 1.273479
v 0.776872 2.652016 0.570119
v 0.501643 3.299537 0.340199
v -0.085929 3.299537 1.043561
v 0.501643 2.652016 0.340199
v -0.085929 2.652016 1.043561
vn 0.6411 -0.0000 -0.7674
vn 0.6411 -0.0000 -0.7675
vn 0.7674 -0.0000 0.6411
vn -0.6411 -0.0000 0.7674
vn -0.7674 -0.0000 -0.6411
vn -0.0000 1.0000 -0.0000
vn -0.0000 -1.0000 -0.0000
vt 0.220000 0.535000
vt 0.205000 0.565000
vt 0.205000 0.535000
vt 0.160000 0.565000
vt 0.160000 0.535000
vt 0.280000 0.535000
vt 0.265000 0.565000
vt 0.265000 0.535000
vt 0.220000 0.565000
vt 0.205000 0.610000
vt 0.220000 0.610000
vt 0.235000 0.565000
vt 0.235000 0.610000
vt 0.280000 0.565000
s 1
usemtl texture0
f 151/246/116 146/247/117 148/248/116
f 148/248/118 145/249/118 147/250/118
f 147/251/119 150/252/119 152/253/119
f 152/253/120 149/254/120 151/246/120
f 145/255/121 149/254/121 150/256/121
f 151/257/122 147/256/122 152/258/122
f 151/246/116 149/254/117 146/247/117
f 148/248/118 146/247/118 145/249/118
f 147/251/119 145/259/119 150/252/119
f 152/253/120 150/252/120 149/254/120
f 145/255/121 146/247/121 149/254/121
f 151/257/122 148/254/122 147/256/122
o cube.019
v 0.918038 3.496815 -0.065022
v 0.994606 3.491601 -0.156677
v 0.912467 3.297767 -0.058353
v 0.989035 3.292553 -0.150008
v 0.918153 3.491601 -0.220545
v 0.841586 3.496815 -0.128888
v 0.912582 3.292553 -0.213874
v 0.836015 3.297767 -0.122219
vn 0.6405 -0.0436 -0.7667
vn 0.7674 -0.0000 0.6411
vn -0.6405 0.0436 0.7667
vn -0.7675 -0.0000 -0.6411
vn 0.0280 0.9990 -0.0335
vn -0.0280 -0.9990 0.0335
vn -0.7674 -0.0000 -0.6411
vt 0.095000 0.610000
vt 0.090000 0.620000
vt 0.090000 0.610000
vt 0.085000 0.620000
vt 0.085000 0.610000
vt 0.105000 0.610000
vt 0.100000 0.620000
vt 0.100000 0.610000
vt 0.095000 0.620000
vt 0.090000 0.625000
vt 0.095000 0.625000
vt 0.100000 0.625000
vt 0.105000 0.620000
s 1
usemtl texture0
f 159/260/123 154/261/123 156/262/123
f 156/262/124 153/263/124 155/264/124
f 155/265/125 158/266/125 160/267/125
f 159/260/126 158/266/126 157/268/126
f 153/269/127 157/268/127 158/270/127
f 159/266/128 155/270/128 160/271/128
f 159/260/123 157/268/123 154/261/123
f 156/262/124 154/261/124 153/263/124
f 155/265/125 153/272/125 158/266/125
f 159/260/126 160/267/129 158/266/126
f 153/269/127 154/261/127 157/268/127
f 159/266/128 156/268/128 155/270/128
o cube.020
v 1.008420 3.994435 -0.017829
v 1.084987 3.989221 -0.109486
v 1.002849 3.795387 -0.011160
v 1.079415 3.790173 -0.102815
v 1.008535 3.989221 -0.173352
v 0.931968 3.994435 -0.081696
v 1.002964 3.790173 -0.166682
v 0.926396 3.795387 -0.075026
vn 0.6405 -0.0436 -0.7667
vn 0.7675 -0.0000 0.6411
vn 0.7674 -0.0000 0.6411
vn -0.6405 0.0436 0.7667
vn -0.7674 -0.0000 -0.6411
vn 0.0280 0.9990 -0.0335
vn -0.0280 -0.9990 0.0335
vt 0.385000 0.835000
vt 0.380000 0.845000
vt 0.380000 0.835000
vt 0.375000 0.845000
vt 0.375000 0.835000
vt 0.395000 0.835000
vt 0.390000 0.845000
vt 0.390000 0.835000
vt 0.385000 0.845000
vt 0.385000 0.850000
vt 0.390000 0.850000
vt 0.395000 0.845000
vt 0.380000 0.850000
s 1
usemtl texture0
f 167/273/130 162/274/130 164/275/130
f 164/275/131 161/276/131 163/277/132
f 163/278/133 166/279/133 168/280/133
f 167/273/134 166/279/134 165/281/134
f 166/282/135 162/274/135 165/281/135
f 167/279/136 163/282/136 168/283/136
f 167/273/130 165/281/130 162/274/130
f 164/275/131 162/274/131 161/276/131
f 163/278/133 161/284/133 166/279/133
f 167/273/134 168/280/134 166/279/134
f 166/282/135 161/285/135 162/274/135
f 167/279/136 164/281/136 163/282/136
o cube.021
v 0.838800 3.397291 -0.125554
v 0.915368 3.392077 -0.217209
v 0.833229 3.198244 -0.118884
v 0.909796 3.193029 -0.210540
v 0.838915 3.392077 -0.281076
v 0.762348 3.397291 -0.189421
v 0.833344 3.193029 -0.274407
v 0.756777 3.198244 -0.182750
vn 0.6405 -0.0436 -0.7667
vn 0.7674 -0.0000 0.6411
vn -0.6405 0.0436 0.7667
vn -0.7675 -0.0000 -0.6411
vn 0.0280 0.9990 -0.0335
vn -0.0280 -0.9990 0.0335
vt 0.120000 0.610000
vt 0.125000 0.620000
vt 0.120000 0.620000
vt 0.115000 0.610000
vt 0.115000 0.620000
vt 0.135000 0.610000
vt 0.130000 0.620000
vt 0.130000 0.610000
vt 0.125000 0.610000
vt 0.125000 0.625000
vt 0.130000 0.625000
vt 0.135000 0.620000
vt 0.120000 0.625000
s 1
usemtl texture0
f 172/286/137 173/287/137 170/288/137
f 171/289/138 170/288/138 169/290/138
f 171/291/139 174/292/139 176/293/139
f 176/293/140 173/287/140 175/294/140
f 174/295/141 170/288/141 173/287/141
f 172/287/142 176/296/142 175/292/142
f 172/286/137 175/294/137 173/287/137
f 171/289/138 172/286/138 170/288/138
f 171/291/139 169/297/139 174/292/139
f 176/293/140 174/292/140 173/287/140
f 174/295/141 169/298/141 170/288/141
f 172/287/142 171/295/142 176/296/142
o cube.022
v 0.294096 3.907212 1.101415
v 0.690070 3.907212 0.627411
v 0.294096 2.701825 1.101415
v 0.690070 2.701825 0.627411
v 0.445422 3.907212 0.423038
v 0.049449 3.907212 0.897042
v 0.445422 2.701825 0.423038
v 0.049449 2.701825 0.897043
vn 0.6411 -0.0000 -0.7674
vn 0.7674 -0.0000 0.6411
vn -0.6411 -0.0000 0.7674
vn -0.7674 -0.0000 -0.6411
vn -0.0000 1.0000 -0.0000
vn -0.0000 -1.0000 -0.0000
vt 0.265000 0.365000
vt 0.250000 0.420000
vt 0.250000 0.365000
vt 0.250000 0.360000
vt 0.220000 0.420000
vt 0.220000 0.360000
vt 0.310000 0.360000
vt 0.295000 0.420000
vt 0.295000 0.360000
vt 0.265000 0.420000
vt 0.265000 0.360000
vt 0.250000 0.450000
vt 0.265000 0.450000
vt 0.280000 0.420000
vt 0.280000 0.450000
vt 0.310000 0.420000
s 1
usemtl texture0
f 183/299/143 178/300/143 180/301/143
f 180/302/144 177/303/144 179/304/144
f 179/305/145 182/306/145 184/307/145
f 184/307/146 181/308/146 183/309/146
f 177/310/147 181/308/147 182/311/147
f 183/312/148 179/311/148 184/313/148
f 183/299/143 181/308/143 178/300/143
f 180/302/144 178/300/144 177/303/144
f 179/305/145 177/314/145 182/306/145
f 184/307/146 182/306/146 181/308/146
f 177/310/147 178/300/147 181/308/147
f 183/312/148 180/308/148 179/311/148
o cube.023
v -0.053172 3.590335 1.501579
v 0.289751 3.899153 1.091078
v 0.330029 2.555066 1.042864
v 0.672951 2.863884 0.632365
v 0.060395 3.899153 0.899479
v -0.282528 3.590335 1.309978
v 0.443594 2.863884 0.440765
v 0.100671 2.555066 0.851264
vn 0.5552 0.5000 -0.6646
vn 0.7674 -0.0000 0.6411
vn -0.5552 -0.5000 0.6646
vn -0.7674 -0.0000 -0.6411
vn -0.3206 0.8660 0.3837
vn 0.3206 -0.8660 -0.3837
vt 0.510000 0.765000
vt 0.495000 0.825000
vt 0.495000 0.765000
vt 0.465000 0.765000
vt 0.465000 0.825000
vt 0.555000 0.765000
vt 0.540000 0.825000
vt 0.540000 0.765000
vt 0.510000 0.825000
vt 0.495000 0.855000
vt 0.510000 0.855000
vt 0.525000 0.855000
vt 0.525000 0.825000
vt 0.555000 0.825000
s 1
usemtl texture0
f 191/315/149 186/316/149 188/317/149
f 187/318/150 186/316/150 185/319/150
f 187/320/151 190/321/151 192/322/151
f 192/322/152 189/323/152 191/315/152
f 185/324/153 189/323/153 190/325/153
f 188/323/154 192/326/154 191/327/154
f 191/315/149 189/323/149 186/316/149
f 187/318/150 188/317/150 186/316/150
f 187/320/151 185/328/151 190/321/151
f 192/322/152 190/321/152 189/323/152
f 185/324/153 186/316/153 189/323/153
f 188/323/154 187/325/154 192/326/154
o cube.024
v -0.044396 2.781520 1.506612
v -0.044396 3.598394 1.506612
v 0.294096 2.781520 1.101415
v 0.294096 3.598394 1.101415
v -0.289044 3.598394 1.302239
v -0.289044 2.781520 1.302239
v 0.049449 3.598394 0.897043
v 0.049449 2.781520 0.897043
vn -0.0000 1.0000 -0.0000
vn 0.7674 -0.0000 0.6411
vn -0.0000 -1.0000 -0.0000
vn -0.7674 -0.0000 -0.6411
vn -0.6411 -0.0000 0.7674
vn 0.6411 -0.0000 -0.7674
vt 0.135000 0.450000
vt 0.120000 0.475000
vt 0.120000 0.450000
vt 0.080000 0.475000
vt 0.080000 0.450000
vt 0.190000 0.450000
vt 0.175000 0.475000
vt 0.175000 0.450000
vt 0.135000 0.475000
vt 0.120000 0.515000
vt 0.135000 0.515000
vt 0.150000 0.515000
vt 0.150000 0.475000
vt 0.190000 0.475000
s 1
usemtl texture0
f 199/329/155 194/330/155 196/331/155
f 196/331/156 193/332/156 195/333/156
f 195/334/157 198/335/157 200/336/157
f 200/336/158 197/337/158 199/329/158
f 193/338/159 197/337/159 198/339/159
f 196/337/160 200/340/160 199/341/160
f 199/329/155 197/337/155 194/330/155
f 196/331/156 194/330/156 193/332/156
f 195/334/157 193/342/157 198/335/157
f 200/336/158 198/335/158 197/337/158
f 193/338/159 194/330/159 197/337/159
f 196/337/160 195/339/160 200/340/160
o cube.025
v 0.343611 2.901062 0.234143
v 0.420250 2.901062 0.142401
v 0.343611 2.402969 0.234143
v 0.420250 2.402969 0.142401
v 0.336152 2.901062 0.072147
v 0.259513 2.901062 0.163890
v 0.336152 2.402969 0.072147
v 0.259513 2.402969 0.163890
vn 0.6411 -0.0000 -0.7674
vn 0.7674 -0.0000 0.6411
vn -0.6411 -0.0000 0.7675
vn -0.7675 -0.0000 -0.6411
vn -0.0000 1.0000 -0.0000
vn -0.0000 -1.0000 -0.0000
vt 0.370000 0.670000
vt 0.365000 0.695000
vt 0.365000 0.670000
vt 0.360000 0.695000
vt 0.360000 0.670000
vt 0.380000 0.670000
vt 0.375000 0.695000
vt 0.375000 0.670000
vt 0.370000 0.695000
vt 0.365000 0.700000
vt 0.370000 0.700000
vt 0.375000 0.700000
vt 0.380000 0.695000
s 1
usemtl texture0
f 207/343/161 202/344/161 204/345/161
f 204/345/162 201/346/162 203/347/162
f 203/348/163 206/349/163 208/350/163
f 208/350/164 205/351/164 207/343/164
f 201/352/165 205/351/165 206/353/165
f 207/349/166 203/353/166 208/354/166
f 207/343/161 205/351/161 202/344/161
f 204/345/162 202/344/162 201/346/162
f 203/348/163 201/355/163 206/349/163
f 208/350/164 206/349/164 205/351/164
f 201/352/165 202/344/165 205/351/165
f 207/349/166 204/351/166 203/353/166
o cube.026
v 0.287390 2.901062 0.316982
v 0.351256 2.901062 0.240529
v 0.287390 2.801444 0.316982
v 0.351256 2.801444 0.240529
v 0.259513 2.901062 0.163890
v 0.195647 2.901062 0.240342
v 0.259513 2.801444 0.163890
v 0.195647 2.801444 0.240342
vn 0.6411 -0.0000 -0.7675
vn 0.7675 -0.0000 0.6411
vn -0.6411 -0.0000 0.7674
vn -0.7675 -0.0000 -0.6411
vn -0.7674 -0.0000 -0.6411
vn -0.0000 1.0000 -0.0000
vn -0.0000 -1.0000 -0.0000
vt 0.300000 0.780000
vt 0.295000 0.785000
vt 0.295000 0.780000
vt 0.290000 0.785000
vt 0.290000 0.780000
vt 0.310000 0.780000
vt 0.305000 0.785000
vt 0.305000 0.780000
vt 0.300000 0.785000
vt 0.300000 0.790000
vt 0.305000 0.790000
vt 0.310000 0.785000
vt 0.295000 0.790000
s 1
usemtl texture0
f 215/356/167 210/357/167 212/358/167
f 212/358/168 209/359/168 211/360/168
f 211/361/169 214/362/169 216/363/169
f 216/363/170 213/364/170 215/356/171
f 214/365/172 210/357/172 213/364/172
f 212/364/173 216/366/173 215/362/173
f 215/356/167 213/364/167 210/357/167
f 212/358/168 210/357/168 209/359/168
f 211/361/169 209/367/169 214/362/169
f 216/363/170 214/362/170 213/364/170
f 214/365/172 209/368/172 210/357/172
f 212/364/173 211/365/173 216/366/173
o cube.027
v 0.482523 3.199919 1.388627
v 1.070095 3.199919 0.685266
v 0.482523 2.901062 1.388627
v 1.070095 2.901062 0.685266
v 0.336152 3.199919 0.072147
v -0.251420 3.199919 0.775508
v 0.336152 2.901062 0.072147
v -0.251420 2.901062 0.775508
vn 0.6411 -0.0000 -0.7674
vn 0.7674 -0.0000 0.6411
vn -0.6411 -0.0000 0.7674
vn -0.7674 -0.0000 -0.6411
vn -0.0000 1.0000 -0.0000
vn -0.0000 -1.0000 -0.0000
vt 0.220000 0.720000
vt 0.175000 0.735000
vt 0.175000 0.720000
vt 0.130000 0.735000
vt 0.130000 0.720000
vt 0.310000 0.720000
vt 0.265000 0.735000
vt 0.265000 0.720000
vt 0.220000 0.735000
vt 0.175000 0.780000
vt 0.220000 0.780000
vt 0.265000 0.780000
vt 0.310000 0.735000
s 1
usemtl texture0
f 223/369/174 218/370/174 220/371/174
f 220/371/175 217/372/175 219/373/175
f 219/374/176 222/375/176 224/376/176
f 224/376/177 221/377/177 223/369/177
f 217/378/178 221/377/178 222/379/178
f 223/375/179 219/379/179 224/380/179
f 223/369/174 221/377/174 218/370/174
f 220/371/175 218/370/175 217/372/175
f 219/374/176 217/381/176 222/375/176
f 224/376/177 222/375/177 221/377/177
f 217/378/178 218/370/178 221/377/178
f 223/375/179 220/377/179 219/379/179
o Left_Arm
v -0.041072 1.934554 0.719543
v -0.046075 2.327736 0.655003
v 0.983705 1.847570 0.110193
v 0.978702 2.240752 0.045654
v -0.199911 2.284328 0.402485
v -0.194908 1.891147 0.467025
v 0.824866 2.197344 -0.206864
v 0.829869 1.804163 -0.142325
vn -0.0126 0.9867 -0.1620
vn 0.5147 0.1452 0.8449
vn 0.0126 -0.9867 0.1620
vn -0.5147 -0.1452 -0.8449
vn -0.8572 0.0728 0.5097
vn 0.8572 -0.0728 -0.5097
vt 0.175000 0.640000
vt 0.160000 0.700000
vt 0.160000 0.640000
vt 0.140000 0.700000
vt 0.140000 0.640000
vt 0.210000 0.640000
vt 0.195000 0.700000
vt 0.195000 0.640000
vt 0.175000 0.700000
vt 0.160000 0.720000
vt 0.175000 0.720000
vt 0.190000 0.720000
vt 0.190000 0.700000
vt 0.210000 0.700000
s 1
usemtl texture0
f 231/382/180 226/383/180 228/384/180
f 228/384/181 225/385/181 227/386/181
f 227/387/182 230/388/182 232/389/182
f 232/389/183 229/390/183 231/382/183
f 225/391/184 229/390/184 230/392/184
f 228/390/185 232/393/185 231/394/185
f 231/382/180 229/390/180 226/383/180
f 228/384/181 226/383/181 225/385/181
f 227/387/182 225/395/182 230/388/182
f 232/389/183 230/388/183 229/390/183
f 225/391/184 226/383/184 229/390/184
f 228/390/185 227/392/185 232/393/185
o Left_Leg
v 0.270010 0.905415 0.860626
v 0.499930 0.905415 0.585397
v 0.266007 0.606604 0.857282
v 0.495927 0.606604 0.582053
v 0.224743 0.911673 0.355513
v -0.005176 0.911673 0.630741
v 0.220740 0.612863 0.352169
v -0.009179 0.612863 0.627397
vn 0.6411 -0.0000 -0.7675
vn 0.7673 -0.0175 0.6410
vn -0.6411 -0.0000 0.7674
vn -0.7673 0.0175 -0.6410
vn 0.0134 0.9998 0.0112
vn -0.0134 -0.9998 -0.0112
vt 0.480000 0.625000
vt 0.465000 0.640000
vt 0.465000 0.625000
vt 0.450000 0.640000
vt 0.450000 0.625000
vt 0.510000 0.625000
vt 0.495000 0.640000
vt 0.495000 0.625000
vt 0.480000 0.640000
vt 0.465000 0.655000
vt 0.480000 0.655000
vt 0.495000 0.655000
vt 0.510000 0.640000
s 1
usemtl texture0
f 239/396/186 234/397/186 236/398/186
f 236/398/187 233/399/187 235/400/187
f 235/401/188 238/402/188 240/403/188
f 240/403/189 237/404/189 239/396/189
f 233/405/190 237/404/190 238/406/190
f 236/404/191 240/407/191 239/402/191
f 239/396/186 237/404/186 234/397/186
f 236/398/187 234/397/187 233/399/187
f 235/401/188 233/408/188 238/402/188
f 240/403/189 238/402/189 237/404/189
f 233/405/190 234/397/190 237/404/190
f 236/404/191 235/406/191 240/407/191
o Left_Leg.001
v 0.268522 0.606256 0.885344
v 0.523988 0.606256 0.579534
v 0.260516 0.008635 0.878656
v 0.515982 0.008635 0.572846
v 0.218225 0.613210 0.324107
v -0.037241 0.613210 0.629916
v 0.210220 0.015589 0.317419
v -0.045246 0.015589 0.623229
vn 0.6411 -0.0000 -0.7674
vn 0.7673 -0.0175 0.6410
vn -0.6411 -0.0000 0.7674
vn -0.7673 0.0175 -0.6410
vn 0.0134 0.9998 0.0112
vn -0.0134 -0.9998 -0.0112
vt 0.060000 0.370000
vt 0.040000 0.400000
vt 0.040000 0.370000
vt 0.020000 0.400000
vt 0.020000 0.370000
vt 0.100000 0.370000
vt 0.080000 0.400000
vt 0.080000 0.370000
vt 0.060000 0.400000
vt 0.040000 0.420000
vt 0.060000 0.420000
vt 0.080000 0.420000
vt 0.100000 0.400000
s 1
usemtl texture0
f 247/409/192 242/410/192 244/411/192
f 244/411/193 241/412/193 243/413/193
f 243/414/194 246/415/194 248/416/194
f 247/409/195 246/415/195 245/417/195
f 241/418/196 245/417/196 246/419/196
f 244/417/197 248/420/197 247/415/197
f 247/409/192 245/417/192 242/410/192
f 244/411/193 242/410/193 241/412/193
f 243/414/194 241/421/194 246/415/194
f 247/409/195 248/416/195 246/415/195
f 241/418/196 242/410/196 245/417/196
f 244/417/197 243/419/197 248/420/197
o Left_Leg.002
v 0.518651 0.207842 0.575076
v 0.582518 0.207842 0.498624
v 0.515982 0.008635 0.572846
v 0.579849 0.008635 0.496394
v 0.276755 0.214796 0.243196
v 0.212889 0.214796 0.319649
v 0.274087 0.015589 0.240967
v 0.210220 0.015589 0.317419
vn 0.6411 -0.0000 -0.7674
vn 0.7673 -0.0175 0.6410
vn -0.6411 -0.0000 0.7674
vn -0.7673 0.0175 -0.6410
vn -0.7673 0.0174 -0.6410
vn 0.0134 0.9998 0.0112
vn -0.0134 -0.9998 -0.0112
vt 0.260000 0.680000
vt 0.240000 0.690000
vt 0.240000 0.680000
vt 0.235000 0.690000
vt 0.235000 0.680000
vt 0.265000 0.680000
vt 0.285000 0.690000
vt 0.265000 0.690000
vt 0.260000 0.690000
vt 0.240000 0.695000
vt 0.260000 0.695000
vt 0.280000 0.690000
vt 0.280000 0.695000
vt 0.285000 0.680000
s 1
usemtl texture0
f 255/422/198 250/423/198 252/424/198
f 252/424/199 249/425/199 251/426/199
f 256/427/200 249/428/200 254/429/200
f 256/427/201 253/430/201 255/422/202
f 249/431/203 253/430/203 254/432/203
f 255/433/204 251/432/204 256/434/204
f 255/422/198 253/430/198 250/423/198
f 252/424/199 250/423/199 249/425/199
f 256/427/200 251/435/200 249/428/200
f 256/427/201 254/429/201 253/430/201
f 249/431/203 250/423/203 253/430/203
f 255/433/204 252/430/204 251/432/204
o Left_Leg.003
v 0.266122 1.502309 0.912612
v 0.572682 1.502309 0.545641
v 0.258116 0.904688 0.905924
v 0.564676 0.904688 0.538953
v 0.236342 1.509959 0.264671
v -0.070217 1.509959 0.631642
v 0.228337 0.912337 0.257983
v -0.078223 0.912337 0.624955
vn 0.6411 -0.0000 -0.7674
vn 0.7673 -0.0175 0.6410
vn -0.6411 -0.0000 0.7675
vn -0.6411 -0.0000 0.7674
vn -0.7673 0.0175 -0.6410
vn 0.0134 0.9998 0.0112
vn -0.0134 -0.9998 -0.0112
vt 0.350000 0.740000
vt 0.330000 0.770000
vt 0.330000 0.740000
vt 0.310000 0.740000
vt 0.310000 0.770000
vt 0.390000 0.740000
vt 0.370000 0.770000
vt 0.370000 0.740000
vt 0.350000 0.770000
vt 0.330000 0.790000
vt 0.350000 0.790000
vt 0.370000 0.790000
vt 0.390000 0.770000
s 1
usemtl texture0
f 263/436/205 258/437/205 260/438/205
f 259/439/206 258/437/206 257/440/206
f 259/441/207 262/442/208 264/443/207
f 263/436/209 262/442/209 261/444/209
f 257/445/210 261/444/210 262/446/210
f 260/444/211 264/447/211 263/442/211
f 263/436/205 261/444/205 258/437/205
f 259/439/206 260/438/206 258/437/206
f 259/441/207 257/448/208 262/442/208
f 263/436/209 264/443/209 262/442/209
f 257/445/210 258/437/210 261/444/210
f 260/444/211 259/446/211 264/447/211
o Right_Leg
v 0.606702 0.613383 1.128911
v 0.862168 0.613383 0.823101
v 0.614708 0.015761 1.135598
v 0.870173 0.015761 0.829789
v 0.556405 0.606429 0.567674
v 0.300939 0.606429 0.873482
v 0.564411 0.008807 0.574362
v 0.308945 0.008807 0.880170
vn 0.6411 -0.0000 -0.7674
vn 0.7673 0.0175 0.6410
vn -0.6411 -0.0000 0.7674
vn -0.7673 -0.0175 -0.6410
vn -0.0134 0.9998 -0.0112
vn 0.0134 -0.9998 0.0112
vt 0.060000 0.370000
vt 0.040000 0.400000
vt 0.040000 0.370000
vt 0.020000 0.400000
vt 0.020000 0.370000
vt 0.100000 0.370000
vt 0.080000 0.400000
vt 0.080000 0.370000
vt 0.060000 0.400000
vt 0.040000 0.420000
vt 0.060000 0.420000
vt 0.080000 0.420000
vt 0.100000 0.400000
s 1
usemtl texture0
f 271/449/212 266/450/212 268/451/212
f 268/451/213 265/452/213 267/453/213
f 267/454/214 270/455/214 272/456/214
f 272/456/215 269/457/215 271/449/215
f 265/458/216 269/457/216 270/459/216
f 271/455/217 267/459/217 272/460/217
f 271/449/212 269/457/212 266/450/212
f 268/451/213 266/450/213 265/452/213
f 267/454/214 265/461/214 270/455/214
f 272/456/215 270/455/215 269/457/215
f 265/458/216 266/450/216 269/457/216
f 271/455/217 268/457/217 267/459/217
o Right_Leg.001
v 0.867505 0.214969 0.827559
v 0.931371 0.214969 0.751107
v 0.870173 0.015761 0.829789
v 0.934040 0.015761 0.753337
v 0.625609 0.208014 0.495680
v 0.561743 0.208014 0.572132
v 0.628278 0.008807 0.497909
v 0.564411 0.008807 0.574362
vn 0.6411 -0.0000 -0.7674
vn 0.7673 0.0175 0.6410
vn -0.6411 -0.0000 0.7674
vn -0.7673 -0.0175 -0.6410
vn -0.0134 0.9998 -0.0112
vn 0.0134 -0.9998 0.0112
vt 0.190000 0.680000
vt 0.170000 0.690000
vt 0.170000 0.680000
vt 0.165000 0.690000
vt 0.165000 0.680000
vt 0.215000 0.680000
vt 0.195000 0.690000
vt 0.195000 0.680000
vt 0.190000 0.690000
vt 0.190000 0.695000
vt 0.210000 0.695000
vt 0.210000 0.690000
vt 0.215000 0.690000
vt 0.170000 0.695000
s 1
usemtl texture0
f 279/462/218 274/463/218 276/464/218
f 276/464/219 273/465/219 275/466/219
f 275/467/220 278/468/220 280/469/220
f 280/469/221 277/470/221 279/462/221
f 278/471/222 274/463/222 277/470/222
f 276/470/223 280/472/223 279/473/223
f 279/462/218 277/470/218 274/463/218
f 276/464/219 274/463/219 273/465/219
f 275/467/220 273/474/220 278/468/220
f 280/469/221 278/468/221 277/470/221
f 278/471/222 273/475/222 274/463/222
f 276/470/223 275/471/223 280/472/223
o Right_Leg.002
v 0.570460 1.506780 1.168854
v 0.877020 1.506780 0.801882
v 0.578466 0.909158 1.175541
v 0.885025 0.909158 0.808570
v 0.540680 1.499130 0.520912
v 0.234121 1.499130 0.887884
v 0.548686 0.901509 0.527600
v 0.242126 0.901509 0.894572
vn 0.6411 -0.0000 -0.7674
vn 0.7673 0.0175 0.6410
vn -0.6411 -0.0000 0.7674
vn -0.6411 -0.0000 0.7675
vn -0.7673 -0.0175 -0.6410
vn -0.0134 0.9998 -0.0112
vn 0.0134 -0.9998 0.0112
vt 0.350000 0.740000
vt 0.330000 0.770000
vt 0.330000 0.740000
vt 0.310000 0.770000
vt 0.310000 0.740000
vt 0.390000 0.740000
vt 0.370000 0.770000
vt 0.370000 0.740000
vt 0.350000 0.770000
vt 0.350000 0.790000
vt 0.370000 0.790000
vt 0.390000 0.770000
vt 0.330000 0.790000
s 1
usemtl texture0
f 287/476/224 282/477/224 284/478/224
f 284/478/225 281/479/225 283/480/225
f 283/481/226 286/482/226 288/483/227
f 288/483/228 285/484/228 287/476/228
f 286/485/229 282/477/229 285/484/229
f 287/482/230 283/485/230 288/486/230
f 287/476/224 285/484/224 282/477/224
f 284/478/225 282/477/225 281/479/225
f 283/481/226 281/487/226 286/482/226
f 288/483/228 286/482/228 285/484/228
f 286/485/229 281/488/229 282/477/229
f 287/482/230 284/484/230 283/485/230
o Right_Leg.003
v 0.600184 0.911846 1.097505
v 0.830103 0.911846 0.822276
v 0.604187 0.613035 1.100849
v 0.834106 0.613035 0.825620
v 0.554917 0.905587 0.592392
v 0.324997 0.905587 0.867619
v 0.558920 0.606776 0.595736
v 0.329000 0.606776 0.870963
vn 0.6411 -0.0000 -0.7674
vn 0.7673 0.0175 0.6410
vn -0.6411 -0.0000 0.7674
vn -0.7673 -0.0175 -0.6410
vn -0.0134 0.9998 -0.0112
vn 0.0134 -0.9998 0.0112
vt 0.310000 0.635000
vt 0.295000 0.650000
vt 0.295000 0.635000
vt 0.280000 0.635000
vt 0.280000 0.650000
vt 0.340000 0.635000
vt 0.325000 0.650000
vt 0.325000 0.635000
vt 0.310000 0.650000
vt 0.295000 0.665000
vt 0.310000 0.665000
vt 0.325000 0.665000
vt 0.340000 0.650000
s 1
usemtl texture0
f 295/489/231 290/490/231 292/491/231
f 291/492/232 290/490/232 289/493/232
f 291/494/233 294/495/233 296/496/233
f 296/496/234 293/497/234 295/489/234
f 289/498/235 293/497/235 294/499/235
f 292/497/236 296/500/236 295/495/236
f 295/489/231 293/497/231 290/490/231
f 291/492/232 292/491/232 290/490/232
f 291/494/233 289/501/233 294/495/233
f 296/496/234 294/495/234 293/497/234
f 289/498/235 290/490/235 293/497/235
f 292/497/236 291/499/236 296/500/236
