# Made in Blockbench 4.12.4
mtllib statue_couple.mtl

o Right Leg
v 0.04106885876756983 3.064806717897281 0.5356411398829735
v -0.12706409171970034 3.1168237006976645 -0.4132199650664231
v 0.033129519249646355 2.170602417706535 0.4880272742820731
v -0.13500343123762382 2.2226194005069186 -0.46083383066732353
v -0.8115321740515062 3.064333673960898 0.6866914044269146
v -0.9796651245387765 3.1163506567612815 -0.26216970052248206
v -0.8194715135694296 2.170129373770152 0.6390775388260143
v -0.9876044640566999 2.2221463565705353 -0.3097835661233824
v -0.09218027473109158 2.4648559366377425 0.38744139613430206
v -0.20955435969745917 2.50116913842961 -0.2749612062755329
v -0.11185355255901075 0.24906335176868888 0.26945666902784365
v -0.22922763752537834 0.28537655356055636 -0.39294593338199135
v -0.7555518253602845 2.464487881853013 0.5049669964518977
v -0.8729259103266521 2.500801083644881 -0.1574356059579372
v -0.7752251031882036 0.24869529698395976 0.38698226934543933
v -0.8925991881545711 0.28500849877582723 -0.2754203330643956
v -0.004443543940968242 4.604226250000002 0.3160406209143376
v -0.30666132605598184 4.604226250000001 -0.36275163144375533
v -0.004443543940968242 2.458013125000001 0.3160406209143376
v -0.30666132605598184 2.458013125000001 -0.36275163144375544
v -1.3965092509899626 4.604226250000001 0.9358282055268594
v -1.6987270331049764 4.604226250000002 0.25703595316876626
v -1.3965092509899626 2.458013125000001 0.9358282055268593
v -1.6987270331049764 2.4580131250000004 0.25703595316876626
v -0.1178979400682385 6.1139681249999995 1.0359160737206496
v 0.013684734404628696 6.113968125 -0.4680807776414416
v -0.1178979400682385 4.604226250000001 1.0359160737206494
v 0.013684734404628696 4.604226250000002 -0.4680807776414414
v -1.6970944160808439 6.1139681249999995 0.8977542845894574
v -1.5655117416079765 6.1139681249999995 -0.6062425667726336
v -1.6970944160808434 4.60422625 0.8977542845894574
v -1.5655117416079767 4.604226250000001 -0.6062425667726337
v 0.002473416902215808 4.830932531677526 -0.4681464066555826
v 0.002473416902215808 4.830932531677526 -0.4681464066555826
v 0.016808754587963604 3.898122628024364 -0.6320000661814271
v 0.016808754587963604 3.898122628024364 -0.6320000661814271
v -1.542664407626005 4.830932531677526 -0.6033284498869107
v -1.542664407626005 4.830932531677526 -0.6033284498869107
v -1.5283290699402572 3.8981226280243635 -0.7671821094127551
v -1.5283290699402572 3.8981226280243635 -0.7671821094127551
v -0.22102133902536458 3.9586756799411345 0.5219641536972169
v -0.2601142906276064 4.709535664292719 0.4548025164148213
v 1.9748208026310343 4.023804404122161 -0.02804325001173308
v 1.9357278510287927 4.774664388473747 -0.09520488729412874
v -0.37049416674228475 3.896861405256261 -0.08210884011938574
v -0.4095871183445269 4.647721389607845 -0.14927047740178134
v 1.8253479749141133 3.961990129437287 -0.6321162438283359
v 1.7862550233118717 4.712850113788872 -0.6992778811107314
v -1.2265305102560593 4.398865299547621 0.8958232510892055
v -1.4408309707406568 4.305008015932506 0.17812151398919546
v -2.2337339778998753 2.4482101201360993 1.4516632925791493
v -2.4480344383844725 2.354352836520984 0.7339615554791393
v -1.7577489703068248 4.706875677492752 1.0141611884485073
v -1.9720494307914223 4.613018393877636 0.29645945134849705
v -2.7649524379506403 2.7562204980812295 1.570001229938451
v -2.9792528984352384 2.6623632144661142 0.8522994928384411
v -0.8198805479423752 2.46280714031935 0.5352513565141421
v -1.0500804242567048 2.433420731789206 -0.09721760562072601
v -0.9686383932815135 0.25433640390738343 0.6920069711300331
v -1.1988382695958435 0.22494999537723892 0.059538008995164676
v -1.4514201774640887 2.5214682420641688 0.7623874123577191
v -1.6816200537784183 2.4920818335340247 0.12991845022285078
v -1.600178022803227 0.3129975056522021 0.9191430269736097
v -1.8303778991175572 0.283611097122058 0.2866740648387415
v -0.6556454579030514 3.088459138296375 0.6902084685696183
v -0.9661291492754125 3.0643050778726266 -0.17301932175101237
v -0.6914723218523373 2.194472893294029 0.7281093043813383
v -1.0019560132246985 2.1703188328702807 -0.1351184859392922
v -1.4808544403779065 3.134058952814765 0.9857417139282707
v -1.7913381317502677 3.1099048923910164 0.1225139236076402
v -1.5166813043271927 2.240072707812418 1.023642549739991
v -1.827164995699554 2.21591864738867 0.1604147594193604
v 3.3741550000000005 0.26100000000000056 1.9882962500000003
v 3.3741549999999996 0.261000000000001 -3.27779625
v 3.3741550000000013 8.881784197001252e-16 1.9882962500000003
v 3.3741549999999996 8.881784197001252e-16 -3.27779625
v -2.5794374999999996 0.26100000000000056 1.9882962499999999
v -2.5794374999999996 0.26100000000000056 -3.2777962500000006
v -2.579437499999999 8.881784197001252e-16 1.9882962499999999
v -2.579437499999999 8.881784197001252e-16 -3.27779625
v 1.9069884125274914 3.235684284994907 -0.5908862976571756
v 2.0242360120552574 3.2356842849949063 -1.4814702339773511
v 1.951001190754997 0.6924360680209705 -0.5850919054777644
v 2.068248790282762 0.6924360680209705 -1.47567584179794
v 1.0907446574260953 3.221313755379367 -0.6983468266563889
v 1.2079922569538608 3.2213137553793674 -1.588930762976565
v 1.1347574356536008 0.6780655384054306 -0.6925524344769776
v 1.2520050351813667 0.6780655384054306 -1.5831363707971535
v 1.872014869216721 2.012724645401266 -0.740853967546745
v 1.9599504464942399 2.0127246454012666 -1.4087909903073195
v 1.90221602208738 0.2675717311310164 -0.736877910341304
v 1.9901515993648995 0.26757173113101684 -1.4048149331018784
v 1.2041783373826145 2.0009669264612064 -0.8287763149428097
v 1.292113914660133 2.000966926461206 -1.496713337703384
v 1.234379490253274 0.2558140121909567 -0.8248002577373686
v 1.3223150675307926 0.2558140121909567 -1.492737280497943
v 1.9056630154863465 4.613703125000001 -0.6554179866797007
v 2.0033694571979774 4.613703125000001 -1.3975720931505649
v 1.9056630154863465 2.3680312500000014 -0.6554179866797007
v 2.0033694571979774 2.3680312500000014 -1.3975720931505649
v 0.38424873930162584 4.613703125000002 -0.8557159760045393
v 0.4819551810132574 4.613703125000001 -1.5978700824754037
v 0.38424873930162606 2.368031250000001 -0.8557159760045395
v 0.4819551810132574 2.368031250000001 -1.5978700824754037
v 1.8939185404328516 6.110817500000001 -0.2794570503598083
v 2.0893312606983736 6.1108175 -1.7637640239954608
v 1.8939185404328516 4.613703125000002 -0.2794570503598084
v 2.0893312606983736 4.613703125000002 -1.7637640239954604
v 0.3353957223929862 6.1108175000000005 -0.4846404719017031
v 0.5308084426585087 6.110817500000001 -1.968947445537355
v 0.3353957223929862 4.613703125000001 -0.4846404719017031
v 0.5308084426585085 4.613703125000002 -1.968947445537355
v 1.899557171005748 5.245852738693965 -0.32228670172402096
v 1.899557171005748 5.245852738693965 -0.32228670172402096
v 1.8656241224047236 3.7714828950479378 -0.06453960825549415
v 1.8656241224047236 3.7714828950479378 -0.06453960825549415
v 0.3410343529658826 5.245852738693964 -0.5274701232659157
v 0.3410343529658826 5.245852738693964 -0.5274701232659157
v 0.3071013043648587 3.771482895047938 -0.26972302979738905
v 0.3071013043648587 3.771482895047938 -0.26972302979738905
v 2.1764911778517373 3.962791873790892 -0.5248004891831589
v 2.27614643928943 4.698315612488454 -0.6218110751514456
v 3.1606933781413358 3.568348211047896 -2.504396303722978
v 3.260348639579028 4.303871949745458 -2.601406889691265
v 1.6774289799244975 3.9967903468333135 -0.7796952468956934
v 1.7770842413621901 4.732314085530877 -0.8767058328639802
v 2.6616311802140964 3.6023466840903184 -2.7592910614355124
v 2.7612864416517886 4.337870422787881 -2.856301647403799
v 0.4368646486585144 4.361782701355455 -0.6257134403253249
v 0.6606832535174565 4.470829915535903 -1.3316534748241806
v -0.6028708506866597 2.4709005958920054 -1.2474483659295688
v -0.37905224582771724 2.579947810072454 -1.9533884004284245
v -0.03158574784912904 4.653392564634603 -0.7291906018461097
v 0.1922328570098133 4.762439778815052 -1.4351306363449656
v -1.0713212471943032 2.762510459171153 -1.3509255274503538
v -0.8475026423353611 2.8715576733516017 -2.056865561949209
v 1.1191326113921747 2.0346909219223894 -0.74695302708566
v 1.205717583309156 1.9759829864259297 -1.412482104642208
v 1.0691903121632338 0.2961788413670088 -0.6000921222733523
v 1.1557752840802156 0.23747090587054887 -1.2656211998299
v 0.45129607955806783 2.04644864086245 -0.8348753744817249
v 0.5378810514750496 1.9877407053659892 -1.5004044520382727
v 0.40135378032912694 0.30793656030706895 -0.6880144696694169
v 0.48793875224610894 0.2492286248106086 -1.3535435472259647
v 1.1731024154734402 3.282282184346266 -0.7032690528223636
v 1.288549205347878 3.2040048280895665 -1.5906423910694127
v 1.100320447528416 0.7487117946655446 -0.4892455530746267
v 1.2157672374028534 0.670434438408845 -1.3766188913216757
v 0.35685866037204406 3.296652713961806 -0.8107295818215773
v 0.47230545024648163 3.2183753577051064 -1.6981029200686262
v 0.2840766924270195 0.7630823242810849 -0.5967060820738402
v 0.3995234823014573 0.6848049680243848 -1.4840794203208891
v 3.026888063189992 1.4759983808105734 -2.3641297226698668
v 3.0133264688290686 0.6801106521938483 -2.3632484680173453
v 3.301582339033241 1.473648293248586 -0.25930510110815486
v 3.2880207446723175 0.6777605646318605 -0.2584238464556333
v 2.500759255327682 1.4850394353681406 -2.2954561535443667
v 2.4871976609667588 0.689151706751415 -2.2945748988918453
v 2.7754535311709314 1.482689347806153 -0.19063153198265476
v 2.761891936810008 0.6868016191894282 -0.18975027733013328
v 3.1483063792160233 1.6064537559187921 -2.510366533742089
v 2.8427078649120845 1.6110091490156586 -3.0990971826920326
v 3.1392653234075323 1.0758623534469103 -2.5097790311016985
v 2.8336668091035935 1.0804177465437768 -3.098509680051642
v 2.5596665838652353 1.6168223457168123 -2.204734951213311
v 2.2540680695612956 1.621377738813679 -2.7934656001632545
v 2.5506255280567443 1.0862309432449315 -2.204147448572921
v 2.2450270137528054 1.0907863363417971 -2.792878097522864
v 2.7816142728637145 1.3489476623250742 -2.919932941776334
v 2.6593749247295455 1.3507698187053965 -3.1554250904150933
v 2.7770937449594695 1.0836519610891338 -2.9196391904561385
v 2.6548543968252996 1.085474117469456 -3.1551313390948983
v 2.4284308393496286 1.3551688083884013 -2.7365542226336186
v 2.30619149121546 1.3569909647687233 -2.9720463712723793
v 2.423910311445383 1.08987310715246 -2.736260471313424
v 2.3016709633112136 1.0916952635327828 -2.9717526199521833
v 3.0917025580330635 1.7401387799248873 -2.479950193901639
v 2.9694632098988953 1.7419609363052089 -2.715442342540399
v 3.0894422887568482 1.6074906168524652 -2.479803317895574
v 2.9672029406226783 1.609312773232787 -2.715295466534333
v 2.973974931735197 1.7422124920228768 -2.4188240501767972
v 2.851735583601028 1.744034648403199 -2.654316198815557
v 2.97171466245898 1.6095643289504549 -2.418677174170732
v 2.849475314324811 1.611386485330777 -2.6541693228094916
v 2.738518569898494 1.746359935757571 -2.2965711867907337
v 2.616279221764325 1.7481820921378928 -2.532063335429494
v 2.736258300622278 1.613711772685149 -2.2964243107846682
v 2.614018952488109 1.6155339290654709 -2.5319164594234285
v 2.620790943600627 1.7484336478555607 -2.2354450430658925
v 2.4985515954664574 1.750255804235883 -2.4709371917046523
v 2.618530674324411 1.6157854847831388 -2.2352981670598266
v 2.496291326190242 1.6176076411634608 -2.470790315698587
v 3.0848555721372013 1.4760692948896006 -0.3822733856512972
v 3.0848555699221802 1.34453740309985 -0.3649568858757961
v 3.2233878754306597 1.613416454549748 0.6609820229537814
v 3.223387873215637 1.4818845627599975 0.6782985227292826
v 2.953323060345103 1.4783295638530851 -0.36510495292945844
v 2.953323058130082 1.3467976720633341 -0.3477884531539574
v 3.0918553636385613 1.615676723513232 0.6781504556756199
v 3.0918553614235393 1.4841448317234816 0.6954669554511209
v 3.223756758563152 1.610363960406681 0.6642100160761106
v 3.215760850397183 1.4857656966053512 0.619354652221321
v 3.346636404147296 1.24631388539498 1.653555974015668
v 3.3386404959813283 1.1217156215936501 1.6087006101608794
v 3.0922242467710537 1.6126242293701651 0.6813784487979493
v 3.0842283386050853 1.4880259655688353 0.6365230849431596
v 3.2151038923551973 1.248574154358464 1.6707244067375076
v 3.2071079841892307 1.1239758905571344 1.6258690428827172
v 3.0000152054483613 0.9866858785741299 -0.21378978468042853
v 2.991995340651752 1.019887089998885 -0.4769165447889616
v 2.903208668029776 0.20244573087351148 -0.3097942640410428
v 2.8951888032331667 0.23564694229826744 -0.5729210241495759
v 2.7367724773140014 1.0177189823749933 -0.20185064277220433
v 2.728752612517392 1.0509201937997488 -0.4649774028807374
v 2.6399659398954154 0.2334788346743757 -0.2978551221328185
v 2.631946075098806 0.26668004609913165 -0.5609818822413518
v 3.30675444394261 1.0931127467321446 -0.31551841227092803
v 3.257415284323787 1.0018638155614532 -0.5597347312280264
v 3.45722274053437 0.3514211618437808 -0.06879212742003205
v 3.407883580915548 0.2601722306730889 -0.31300844637713054
v 3.0509178874626923 1.0622415790304256 -0.252296913317871
v 3.0015787278438704 0.9709926478597346 -0.49651323227496913
v 3.201386184054455 0.3205499941420613 -0.005570628466974981
v 3.1520470244356313 0.22930106297136987 -0.24978694742407315
v 2.8783868733833535 1.2429751044567754 -1.869401153412745
v 2.8483937521241534 1.344770773722215 -2.1125891155995538
v 2.592710087272339 0.14787552389090886 -2.2925637775157734
v 2.5627169660131393 0.249671193156348 -2.5357517397025826
v 2.6223259947684876 1.2899688222914565 -1.8181493487255085
v 2.5923328735092896 1.391764491556896 -2.0613373109123176
v 2.336649208657474 0.1948692417255904 -2.241311972828537
v 2.3066560873982747 0.29666491099102954 -2.484499935015346
v 3.0298377954769333 1.3142383969200175 -2.100557169402279
v 3.026306413196583 1.281600092614285 -2.363852822590624
v 3.1692530487284967 0.24130385119855102 -1.9694253590956747
v 3.1657216664481482 0.20866554689281802 -2.2327210122840193
v 2.7667069371152366 1.2809827872934438 -2.0929056098983505
v 2.7631755548348864 1.2483444829877104 -2.3562012630866955
v 2.906122190366801 0.20804824157197688 -1.9617737995917461
v 2.9025908080864515 0.17540993726624388 -2.2250694527800907
v -1.4748073601791492 1.5132832337615953 -2.6055804636513447
v -1.4748073009554168 0.7240894021990987 -2.5016811554834617
v -1.8434059994891352 1.786138577053406 -0.5330375424164353
v -1.8434059402654028 0.9969447454909091 -0.4291382342485519
v -1.9974140597345964 1.5012552545090923 -2.6969417657514483
v -1.9974140005108638 0.7120614229465958 -2.5930424575835644
v -2.366012699044583 1.774110597800903 -0.6243988445165383
v -2.36601263982085 0.9849167662384062 -0.5204995363486546
v -1.4094813787290978 1.6463186268680619 -2.6114767709638445
v -1.2942942496796723 1.5610512919196349 -3.259146738969315
v -1.4094813392466405 1.1201898189284254 -2.5422106199044867
v -1.294294210197215 1.0349224839799982 -3.1898805879099568
v -2.0627400609258304 1.6312836457194013 -2.7256784523897797
v -1.9475529318764049 1.5460163107709743 -3.373348420395251
v -2.062740021443373 1.1051548377797649 -2.6564123013304224
v -1.9475528923939471 1.0198875028313377 -3.304082269335892
v -1.4479836819558076 1.3140875350116794 -3.1180902389443332
v -1.4019088520420593 1.279980617100203 -3.3771581040986973
v -1.4479836622145787 1.0510231310418607 -3.0834571634146544
v -1.4019088323008306 1.0169162131303842 -3.342525028569018
v -1.83993839886997 1.3050665576553342 -3.186611161718604
v -1.793863568956222 1.270959639743858 -3.4456790268729676
v -1.8399383791287416 1.042002153685515 -3.1519780861889246
v -1.793863549214993 1.0078952357740394 -3.4110459513432883
v -1.4748073799203776 1.776347637731413 -2.640213539181024
v -1.4287325500066295 1.7422407198199368 -2.8992814043353885
v -1.4748073700497402 1.644815125919983 -2.622896960626762
v -1.4287325401359923 1.6107082080085067 -2.881964825781126
v -1.6054587470568167 1.7733406500013191 -2.6630538109052435
v -1.5593839171430686 1.7392337320898428 -2.9221216760596067
v -1.605458737186179 1.641808138189889 -2.6457372323509802
v -1.5593839072724307 1.6077012202784127 -2.9048050975053443
v -1.8667627123393866 1.7673266462090043 -2.7087345695569085
v -1.8206878824256383 1.7332197282975281 -2.967802434711272
v -1.866762702468749 1.6357941343975744 -2.6914179910026457
v -1.8206878725550002 1.601687216486098 -2.9504858561570098
v -1.997414079475825 1.7643196584789103 -2.7315748412811276
v -1.9513392495620767 1.7302127405674337 -2.9906427064354912
v -1.9974140696051874 1.6327871466674801 -2.7142582627268648
v -1.951339239691439 1.5986802287560036 -2.9733261278812284
v -2.0133390182000026 1.761222858546539 -0.7135909358066953
v -2.016345987383759 1.6330421577778014 -0.6795150527069294
v -2.196061641933625 2.033830552384337 0.29573298491577965
v -2.199068611117381 1.9056498516155995 0.3298088680155453
v -2.1439910008412877 1.7582158566503816 -0.7364313151325278
v -2.146997970025044 1.6300351558816442 -0.7023554320327619
v -2.3267136245749103 2.0308235504881793 0.2728926055899471
v -2.329720593758666 1.902642849719442 0.3069684886897128
v -2.196626339354991 2.03122531938595 0.2993061645506605
v -2.188747051554481 1.901792548428216 0.2712751070927396
v -2.36981102304306 1.7995320951040552 1.3204636470497961
v -2.3619317352425497 1.6700993241463202 1.292432589591876
v -2.3272783219962765 2.028218317489793 0.27646578522482795
v -2.319399034195766 1.8987855465320584 0.24843472776690712
v -2.500463005684345 1.7965250932078982 1.297623267723964
v -2.492583717883835 1.6670923222501632 1.269592210266043
v -2.0923981276289196 1.3054520919591537 -0.6703017745509927
v -2.0571027345485344 1.1102301438257645 -0.8464975655079453
v -2.2828077260476314 0.7689199502427915 -0.11397595208268119
v -2.247512332967247 0.5736980021094018 -0.2901717430396336
v -2.3476002864680776 1.322931459536251 -0.7407904998166592
v -2.3123048933876924 1.1277095114028615 -0.9169862907736118
v -2.5380098848867894 0.7863993178198885 -0.18446467734834776
v -2.5027144918064046 0.5911773696864993 -0.3606604683053002
v -1.801327017411007 1.3393617197009058 -0.649565983941538
v -1.7660316460072032 1.1441397542351308 -0.8257617600367334
v -1.752701555914776 0.8118935302187098 -0.05539946806537502
v -1.7174061845109725 0.6166715647529353 -0.2315952441605703
v -2.063803401601884 1.3022526583767202 -0.6610287875410737
v -2.02850803019808 1.107030692910945 -0.837224563636269
v -2.0151779401056538 0.774784468894524 -0.06686227166491068
v -1.9798825687018498 0.579562503428749 -0.24305804776010598
v -1.760835511280622 1.3351596186127355 -2.149983402159924
v -1.7182679265140122 1.4043193242815266 -2.4025844045244913
v -1.8883894914219674 0.1819369018464645 -2.4872196273794835
v -1.8458219066553574 0.2510966075152554 -2.7398206297440515
v -2.021230856725362 1.373706899076993 -2.1833105952035172
v -1.9786632719587522 1.4428666047457839 -2.435911597568085
v -2.148784836866708 0.22048418231072153 -2.5205468204230774
v -2.1062172521000977 0.2896438879795129 -2.773147822787645
v -1.656338059395389 1.372698717110912 -1.971321292204339
v -1.6185957796043782 1.4956475089391499 -2.203401979597311
v -1.2993340042271557 0.2205118561876538 -2.5236543493585004
v -1.261591724436145 0.3434606480158915 -2.755735036751472
v -1.90908254510488 1.325959625921099 -2.0371848849915217
v -1.871340265313869 1.4489084177493368 -2.2692655723844934
v -1.5520784899366473 0.17377276499784067 -2.5895179421456826
v -1.5143362101456361 0.29672155682607837 -2.8215986295386553
vt 0.508 0.744
vt 0.508 0.756
vt 0.5 0.756
vt 0.5 0.744
vt 0.408 0.8240000000000001
vt 0.408 0.836
vt 0.4 0.836
vt 0.4 0.8240000000000001
vt 0.512 0.764
vt 0.512 0.756
vt 0.52 0.756
vt 0.52 0.764
vt 0.474 0.77
vt 0.474 0.778
vt 0.482 0.778
vt 0.482 0.77
vt 0.466 0.758
vt 0.466 0.77
vt 0.458 0.77
vt 0.458 0.758
vt 0.458 0.762
vt 0.458 0.774
vt 0.45 0.774
vt 0.45 0.762
vt 0.276 0.79
vt 0.276 0.808
vt 0.27 0.808
vt 0.27 0.79
vt 0.274 0.79
vt 0.274 0.806
vt 0.27 0.806
vt 0.27 0.79
vt 0.27 0.8280000000000001
vt 0.27 0.8180000000000001
vt 0.28 0.8180000000000001
vt 0.28 0.8280000000000001
vt 0.276 0.8140000000000001
vt 0.276 0.8180000000000001
vt 0.28 0.8180000000000001
vt 0.28 0.8140000000000001
vt 0.28 0.79
vt 0.28 0.806
vt 0.274 0.806
vt 0.274 0.79
vt 0.28 0.79
vt 0.28 0.808
vt 0.274 0.808
vt 0.274 0.79
vt 0.112 0.968
vt 0.112 0.992
vt 0.104 0.992
vt 0.104 0.968
vt 0.136 0.968
vt 0.136 0.992
vt 0.128 0.992
vt 0.128 0.968
vt 0.112 1
vt 0.112 0.992
vt 0.128 0.992
vt 0.128 1
vt 0.128 0.992
vt 0.128 1
vt 0.144 1
vt 0.144 0.992
vt 0.152 0.968
vt 0.152 0.992
vt 0.136 0.992
vt 0.136 0.968
vt 0.152 0.968
vt 0.152 0.992
vt 0.136 0.992
vt 0.136 0.968
vt 0.068 0.912
vt 0.068 0.928
vt 0.052 0.928
vt 0.052 0.912
vt 0.1 0.912
vt 0.1 0.928
vt 0.084 0.928
vt 0.084 0.912
vt 0.068 0.944
vt 0.068 0.928
vt 0.084 0.928
vt 0.084 0.944
vt 0.084 0.928
vt 0.084 0.944
vt 0.1 0.944
vt 0.1 0.928
vt 0.116 0.912
vt 0.116 0.928
vt 0.1 0.928
vt 0.1 0.912
vt 0.084 0.912
vt 0.084 0.928
vt 0.068 0.928
vt 0.068 0.912
vt 0.448 0.716
vt 0.448 0.716
vt 0.448 0.7
vt 0.448 0.7
vt 0.474 0.716
vt 0.474 0.716
vt 0.474 0.7
vt 0.474 0.7
vt 0.448 0.716
vt 0.474 0.716
vt 0.448 0.716
vt 0.474 0.716
vt 0.474 0.716
vt 0.5 0.716
vt 0.474 0.716
vt 0.5 0.716
vt 0.5 0.7
vt 0.5 0.716
vt 0.474 0.716
vt 0.474 0.7
vt 0.4656 0.7
vt 0.4656 0.7096
vt 0.447 0.7096
vt 0.447 0.7
vt 0.092 0.856
vt 0.092 0.88
vt 0.084 0.88
vt 0.084 0.856
vt 0.106 0.856
vt 0.106 0.88
vt 0.098 0.88
vt 0.098 0.856
vt 0.092 0.888
vt 0.092 0.88
vt 0.098 0.88
vt 0.098 0.888
vt 0.098 0.88
vt 0.098 0.888
vt 0.104 0.888
vt 0.104 0.88
vt 0.112 0.856
vt 0.112 0.88
vt 0.106 0.88
vt 0.106 0.856
vt 0.098 0.856
vt 0.098 0.88
vt 0.092 0.88
vt 0.092 0.856
vt 0.064 0.856
vt 0.064 0.88
vt 0.056 0.88
vt 0.056 0.856
vt 0.078 0.856
vt 0.078 0.88
vt 0.07 0.88
vt 0.07 0.856
vt 0.064 0.888
vt 0.064 0.88
vt 0.07 0.88
vt 0.07 0.888
vt 0.07 0.88
vt 0.07 0.888
vt 0.076 0.888
vt 0.076 0.88
vt 0.084 0.856
vt 0.084 0.88
vt 0.078 0.88
vt 0.078 0.856
vt 0.07 0.856
vt 0.07 0.88
vt 0.064 0.88
vt 0.064 0.856
vt 0.276 0.79
vt 0.276 0.808
vt 0.27 0.808
vt 0.27 0.79
vt 0.274 0.79
vt 0.274 0.806
vt 0.27 0.806
vt 0.27 0.79
vt 0.27 0.8280000000000001
vt 0.27 0.8180000000000001
vt 0.28 0.8180000000000001
vt 0.28 0.8280000000000001
vt 0.276 0.8140000000000001
vt 0.276 0.8180000000000001
vt 0.28 0.8180000000000001
vt 0.28 0.8140000000000001
vt 0.28 0.79
vt 0.28 0.806
vt 0.274 0.806
vt 0.274 0.79
vt 0.28 0.79
vt 0.28 0.808
vt 0.274 0.808
vt 0.274 0.79
vt 0.522 0.746
vt 0.522 0.758
vt 0.514 0.758
vt 0.514 0.746
vt 0.408 0.8240000000000001
vt 0.408 0.836
vt 0.4 0.836
vt 0.4 0.8240000000000001
vt 0.512 0.764
vt 0.512 0.756
vt 0.52 0.756
vt 0.52 0.764
vt 0.474 0.77
vt 0.474 0.778
vt 0.482 0.778
vt 0.482 0.77
vt 0.466 0.758
vt 0.466 0.77
vt 0.458 0.77
vt 0.458 0.758
vt 0.458 0.762
vt 0.458 0.774
vt 0.45 0.774
vt 0.45 0.762
vt 0.3 0.5900000000000001
vt 0.3 0.594
vt 0.268 0.594
vt 0.268 0.5900000000000001
vt 0.422 0.6739999999999999
vt 0.422 0.6779999999999999
vt 0.39 0.6779999999999999
vt 0.39 0.6739999999999999
vt 0.368 0.742
vt 0.368 0.71
vt 0.4 0.71
vt 0.4 0.742
vt 0.368 0.71
vt 0.368 0.742
vt 0.4 0.742
vt 0.4 0.71
vt 0.4 0.696
vt 0.4 0.7
vt 0.368 0.7
vt 0.368 0.696
vt 0.1 0.704
vt 0.1 0.708
vt 0.068 0.708
vt 0.068 0.704
vt 0.132 0.896
vt 0.132 0.908
vt 0.124 0.908
vt 0.124 0.896
vt 0.148 0.896
vt 0.148 0.908
vt 0.14 0.908
vt 0.14 0.896
vt 0.132 0.916
vt 0.132 0.908
vt 0.14 0.908
vt 0.14 0.916
vt 0.14 0.908
vt 0.14 0.916
vt 0.148 0.916
vt 0.148 0.908
vt 0.156 0.896
vt 0.156 0.908
vt 0.148 0.908
vt 0.148 0.896
vt 0.14 0.896
vt 0.14 0.908
vt 0.132 0.908
vt 0.132 0.896
vt 0.276 0.79
vt 0.276 0.808
vt 0.27 0.808
vt 0.27 0.79
vt 0.274 0.79
vt 0.274 0.806
vt 0.27 0.806
vt 0.27 0.79
vt 0.27 0.8280000000000001
vt 0.27 0.8180000000000001
vt 0.28 0.8180000000000001
vt 0.28 0.8280000000000001
vt 0.276 0.8140000000000001
vt 0.276 0.8180000000000001
vt 0.28 0.8180000000000001
vt 0.28 0.8140000000000001
vt 0.28 0.79
vt 0.28 0.804
vt 0.276 0.804
vt 0.276 0.79
vt 0.28 0.79
vt 0.28 0.808
vt 0.274 0.808
vt 0.274 0.79
vt 0.112 0.968
vt 0.112 0.992
vt 0.104 0.992
vt 0.104 0.968
vt 0.136 0.968
vt 0.136 0.992
vt 0.128 0.992
vt 0.128 0.968
vt 0.112 1
vt 0.112 0.992
vt 0.128 0.992
vt 0.128 1
vt 0.128 0.992
vt 0.128 1
vt 0.144 1
vt 0.144 0.992
vt 0.152 0.968
vt 0.152 0.992
vt 0.136 0.992
vt 0.136 0.968
vt 0.128 0.968
vt 0.128 0.992
vt 0.112 0.992
vt 0.112 0.968
vt 0.218 0.812
vt 0.218 0.8280000000000001
vt 0.202 0.8280000000000001
vt 0.202 0.812
vt 0.214 0.95
vt 0.214 0.966
vt 0.198 0.966
vt 0.198 0.95
vt 0.084 0.972
vt 0.084 0.956
vt 0.1 0.956
vt 0.1 0.972
vt 0.24 0.776
vt 0.24 0.792
vt 0.256 0.792
vt 0.256 0.776
vt 0.256 0.968
vt 0.256 0.984
vt 0.24 0.984
vt 0.24 0.968
vt 0.23 0.868
vt 0.23 0.884
vt 0.214 0.884
vt 0.214 0.868
vt 0.218 0.8280000000000001
vt 0.202 0.8280000000000001
vt 0.218 0.812
vt 0.202 0.812
vt 0.214 0.966
vt 0.198 0.966
vt 0.214 0.95
vt 0.198 0.95
vt 0.084 0.956
vt 0.1 0.956
vt 0.084 0.972
vt 0.1 0.972
vt 0.24 0.792
vt 0.256 0.792
vt 0.24 0.776
vt 0.256 0.776
vt 0.246 0.84
vt 0.246 0.856
vt 0.23 0.856
vt 0.23 0.84
vt 0.282 0.808
vt 0.282 0.8240000000000001
vt 0.266 0.8240000000000001
vt 0.266 0.808
vt 0.092 0.856
vt 0.092 0.88
vt 0.084 0.88
vt 0.084 0.856
vt 0.106 0.856
vt 0.106 0.88
vt 0.098 0.88
vt 0.098 0.856
vt 0.092 0.888
vt 0.092 0.88
vt 0.098 0.88
vt 0.098 0.888
vt 0.098 0.88
vt 0.098 0.888
vt 0.104 0.888
vt 0.104 0.88
vt 0.112 0.856
vt 0.112 0.88
vt 0.106 0.88
vt 0.106 0.856
vt 0.098 0.856
vt 0.098 0.88
vt 0.092 0.88
vt 0.092 0.856
vt 0.064 0.856
vt 0.064 0.88
vt 0.056 0.88
vt 0.056 0.856
vt 0.078 0.856
vt 0.078 0.88
vt 0.07 0.88
vt 0.07 0.856
vt 0.064 0.888
vt 0.064 0.88
vt 0.07 0.88
vt 0.07 0.888
vt 0.07 0.88
vt 0.07 0.888
vt 0.076 0.888
vt 0.076 0.88
vt 0.084 0.856
vt 0.084 0.88
vt 0.078 0.88
vt 0.078 0.856
vt 0.07 0.856
vt 0.07 0.88
vt 0.064 0.88
vt 0.064 0.856
vt 0.276 0.79
vt 0.276 0.808
vt 0.27 0.808
vt 0.27 0.79
vt 0.274 0.79
vt 0.274 0.806
vt 0.27 0.806
vt 0.27 0.79
vt 0.27 0.8280000000000001
vt 0.27 0.8180000000000001
vt 0.28 0.8180000000000001
vt 0.28 0.8280000000000001
vt 0.276 0.8140000000000001
vt 0.276 0.8180000000000001
vt 0.28 0.8180000000000001
vt 0.28 0.8140000000000001
vt 0.28 0.79
vt 0.28 0.804
vt 0.276 0.804
vt 0.276 0.79
vt 0.28 0.79
vt 0.28 0.808
vt 0.274 0.808
vt 0.274 0.79
vt 0.132 0.896
vt 0.132 0.908
vt 0.124 0.908
vt 0.124 0.896
vt 0.148 0.896
vt 0.148 0.908
vt 0.14 0.908
vt 0.14 0.896
vt 0.132 0.916
vt 0.132 0.908
vt 0.14 0.908
vt 0.14 0.916
vt 0.14 0.908
vt 0.14 0.916
vt 0.148 0.916
vt 0.148 0.908
vt 0.156 0.896
vt 0.156 0.908
vt 0.148 0.908
vt 0.148 0.896
vt 0.14 0.896
vt 0.14 0.908
vt 0.132 0.908
vt 0.132 0.896
vt 0.598 0.858
vt 0.598 0.89
vt 0.586 0.89
vt 0.586 0.858
vt 0.618 0.858
vt 0.618 0.89
vt 0.606 0.89
vt 0.606 0.858
vt 0.598 0.902
vt 0.598 0.89
vt 0.606 0.89
vt 0.606 0.902
vt 0.606 0.89
vt 0.606 0.902
vt 0.614 0.902
vt 0.614 0.89
vt 0.626 0.858
vt 0.626 0.89
vt 0.618 0.89
vt 0.618 0.858
vt 0.606 0.858
vt 0.606 0.89
vt 0.598 0.89
vt 0.598 0.858
vt 0.556 0.884
vt 0.556 0.892
vt 0.546 0.892
vt 0.546 0.884
vt 0.576 0.884
vt 0.576 0.892
vt 0.566 0.892
vt 0.566 0.884
vt 0.556 0.902
vt 0.556 0.892
vt 0.566 0.892
vt 0.566 0.902
vt 0.566 0.892
vt 0.566 0.902
vt 0.576 0.902
vt 0.576 0.892
vt 0.586 0.884
vt 0.586 0.892
vt 0.576 0.892
vt 0.576 0.884
vt 0.566 0.884
vt 0.566 0.892
vt 0.556 0.892
vt 0.556 0.884
vt 0.55 0.846
vt 0.55 0.85
vt 0.546 0.85
vt 0.546 0.846
vt 0.56 0.846
vt 0.56 0.85
vt 0.556 0.85
vt 0.556 0.846
vt 0.55 0.854
vt 0.55 0.85
vt 0.556 0.85
vt 0.556 0.854
vt 0.556 0.85
vt 0.556 0.854
vt 0.562 0.854
vt 0.562 0.85
vt 0.566 0.846
vt 0.566 0.85
vt 0.56 0.85
vt 0.56 0.846
vt 0.556 0.846
vt 0.556 0.85
vt 0.55 0.85
vt 0.55 0.846
vt 0.55 0.876
vt 0.55 0.878
vt 0.546 0.878
vt 0.546 0.876
vt 0.556 0.876
vt 0.556 0.878
vt 0.552 0.878
vt 0.552 0.876
vt 0.55 0.882
vt 0.55 0.878
vt 0.552 0.878
vt 0.552 0.882
vt 0.552 0.878
vt 0.552 0.882
vt 0.554 0.882
vt 0.554 0.878
vt 0.558 0.876
vt 0.558 0.878
vt 0.556 0.878
vt 0.556 0.876
vt 0.552 0.876
vt 0.552 0.878
vt 0.55 0.878
vt 0.55 0.876
vt 0.562 0.876
vt 0.562 0.878
vt 0.558 0.878
vt 0.558 0.876
vt 0.568 0.876
vt 0.568 0.878
vt 0.564 0.878
vt 0.564 0.876
vt 0.562 0.882
vt 0.562 0.878
vt 0.564 0.878
vt 0.564 0.882
vt 0.564 0.878
vt 0.564 0.882
vt 0.566 0.882
vt 0.566 0.878
vt 0.57 0.876
vt 0.57 0.878
vt 0.568 0.878
vt 0.568 0.876
vt 0.564 0.876
vt 0.564 0.878
vt 0.562 0.878
vt 0.562 0.876
vt 0.548 0.854
vt 0.548 0.87
vt 0.546 0.87
vt 0.546 0.854
vt 0.552 0.854
vt 0.552 0.87
vt 0.55 0.87
vt 0.55 0.854
vt 0.548 0.872
vt 0.548 0.87
vt 0.55 0.87
vt 0.55 0.872
vt 0.55 0.87
vt 0.55 0.872
vt 0.552 0.872
vt 0.552 0.87
vt 0.554 0.854
vt 0.554 0.87
vt 0.552 0.87
vt 0.552 0.854
vt 0.55 0.854
vt 0.55 0.87
vt 0.548 0.87
vt 0.548 0.854
vt 0.556 0.854
vt 0.556 0.87
vt 0.554 0.87
vt 0.554 0.854
vt 0.56 0.854
vt 0.56 0.87
vt 0.558 0.87
vt 0.558 0.854
vt 0.556 0.872
vt 0.556 0.87
vt 0.558 0.87
vt 0.558 0.872
vt 0.558 0.87
vt 0.558 0.872
vt 0.56 0.872
vt 0.56 0.87
vt 0.562 0.854
vt 0.562 0.87
vt 0.56 0.87
vt 0.56 0.854
vt 0.558 0.854
vt 0.558 0.87
vt 0.556 0.87
vt 0.556 0.854
vt 0.566 0.86
vt 0.566 0.872
vt 0.562 0.872
vt 0.562 0.86
vt 0.574 0.86
vt 0.574 0.872
vt 0.57 0.872
vt 0.57 0.86
vt 0.566 0.876
vt 0.566 0.872
vt 0.57 0.872
vt 0.57 0.876
vt 0.57 0.872
vt 0.57 0.876
vt 0.574 0.876
vt 0.574 0.872
vt 0.578 0.86
vt 0.578 0.872
vt 0.574 0.872
vt 0.574 0.86
vt 0.57 0.86
vt 0.57 0.872
vt 0.566 0.872
vt 0.566 0.86
vt 0.566 0.86
vt 0.566 0.872
vt 0.562 0.872
vt 0.562 0.86
vt 0.574 0.86
vt 0.574 0.872
vt 0.57 0.872
vt 0.57 0.86
vt 0.566 0.876
vt 0.566 0.872
vt 0.57 0.872
vt 0.57 0.876
vt 0.57 0.872
vt 0.57 0.876
vt 0.574 0.876
vt 0.574 0.872
vt 0.578 0.86
vt 0.578 0.872
vt 0.574 0.872
vt 0.574 0.86
vt 0.57 0.86
vt 0.57 0.872
vt 0.566 0.872
vt 0.566 0.86
vt 0.63 0.878
vt 0.63 0.898
vt 0.626 0.898
vt 0.626 0.878
vt 0.638 0.878
vt 0.638 0.898
vt 0.634 0.898
vt 0.634 0.878
vt 0.63 0.902
vt 0.63 0.898
vt 0.634 0.898
vt 0.634 0.902
vt 0.634 0.898
vt 0.634 0.902
vt 0.638 0.902
vt 0.638 0.898
vt 0.642 0.878
vt 0.642 0.898
vt 0.638 0.898
vt 0.638 0.878
vt 0.634 0.878
vt 0.634 0.898
vt 0.63 0.898
vt 0.63 0.878
vt 0.63 0.878
vt 0.63 0.898
vt 0.626 0.898
vt 0.626 0.878
vt 0.638 0.878
vt 0.638 0.898
vt 0.634 0.898
vt 0.634 0.878
vt 0.63 0.902
vt 0.63 0.898
vt 0.634 0.898
vt 0.634 0.902
vt 0.634 0.898
vt 0.634 0.902
vt 0.638 0.902
vt 0.638 0.898
vt 0.642 0.878
vt 0.642 0.898
vt 0.638 0.898
vt 0.638 0.878
vt 0.634 0.878
vt 0.634 0.898
vt 0.63 0.898
vt 0.63 0.878
vt 0.598 0.858
vt 0.598 0.89
vt 0.586 0.89
vt 0.586 0.858
vt 0.618 0.858
vt 0.618 0.89
vt 0.606 0.89
vt 0.606 0.858
vt 0.598 0.902
vt 0.598 0.89
vt 0.606 0.89
vt 0.606 0.902
vt 0.606 0.89
vt 0.606 0.902
vt 0.614 0.902
vt 0.614 0.89
vt 0.626 0.858
vt 0.626 0.89
vt 0.618 0.89
vt 0.618 0.858
vt 0.606 0.858
vt 0.606 0.89
vt 0.598 0.89
vt 0.598 0.858
vt 0.556 0.884
vt 0.556 0.892
vt 0.546 0.892
vt 0.546 0.884
vt 0.576 0.884
vt 0.576 0.892
vt 0.566 0.892
vt 0.566 0.884
vt 0.556 0.902
vt 0.556 0.892
vt 0.566 0.892
vt 0.566 0.902
vt 0.566 0.892
vt 0.566 0.902
vt 0.576 0.902
vt 0.576 0.892
vt 0.586 0.884
vt 0.586 0.892
vt 0.576 0.892
vt 0.576 0.884
vt 0.566 0.884
vt 0.566 0.892
vt 0.556 0.892
vt 0.556 0.884
vt 0.55 0.846
vt 0.55 0.85
vt 0.546 0.85
vt 0.546 0.846
vt 0.56 0.846
vt 0.56 0.85
vt 0.556 0.85
vt 0.556 0.846
vt 0.55 0.854
vt 0.55 0.85
vt 0.556 0.85
vt 0.556 0.854
vt 0.556 0.85
vt 0.556 0.854
vt 0.562 0.854
vt 0.562 0.85
vt 0.566 0.846
vt 0.566 0.85
vt 0.56 0.85
vt 0.56 0.846
vt 0.556 0.846
vt 0.556 0.85
vt 0.55 0.85
vt 0.55 0.846
vt 0.55 0.876
vt 0.55 0.878
vt 0.546 0.878
vt 0.546 0.876
vt 0.556 0.876
vt 0.556 0.878
vt 0.552 0.878
vt 0.552 0.876
vt 0.55 0.882
vt 0.55 0.878
vt 0.552 0.878
vt 0.552 0.882
vt 0.552 0.878
vt 0.552 0.882
vt 0.554 0.882
vt 0.554 0.878
vt 0.558 0.876
vt 0.558 0.878
vt 0.556 0.878
vt 0.556 0.876
vt 0.552 0.876
vt 0.552 0.878
vt 0.55 0.878
vt 0.55 0.876
vt 0.562 0.876
vt 0.562 0.878
vt 0.558 0.878
vt 0.558 0.876
vt 0.568 0.876
vt 0.568 0.878
vt 0.564 0.878
vt 0.564 0.876
vt 0.562 0.882
vt 0.562 0.878
vt 0.564 0.878
vt 0.564 0.882
vt 0.564 0.878
vt 0.564 0.882
vt 0.566 0.882
vt 0.566 0.878
vt 0.57 0.876
vt 0.57 0.878
vt 0.568 0.878
vt 0.568 0.876
vt 0.564 0.876
vt 0.564 0.878
vt 0.562 0.878
vt 0.562 0.876
vt 0.548 0.854
vt 0.548 0.87
vt 0.546 0.87
vt 0.546 0.854
vt 0.552 0.854
vt 0.552 0.87
vt 0.55 0.87
vt 0.55 0.854
vt 0.548 0.872
vt 0.548 0.87
vt 0.55 0.87
vt 0.55 0.872
vt 0.55 0.87
vt 0.55 0.872
vt 0.552 0.872
vt 0.552 0.87
vt 0.554 0.854
vt 0.554 0.87
vt 0.552 0.87
vt 0.552 0.854
vt 0.55 0.854
vt 0.55 0.87
vt 0.548 0.87
vt 0.548 0.854
vt 0.556 0.854
vt 0.556 0.87
vt 0.554 0.87
vt 0.554 0.854
vt 0.56 0.854
vt 0.56 0.87
vt 0.558 0.87
vt 0.558 0.854
vt 0.556 0.872
vt 0.556 0.87
vt 0.558 0.87
vt 0.558 0.872
vt 0.558 0.87
vt 0.558 0.872
vt 0.56 0.872
vt 0.56 0.87
vt 0.562 0.854
vt 0.562 0.87
vt 0.56 0.87
vt 0.56 0.854
vt 0.558 0.854
vt 0.558 0.87
vt 0.556 0.87
vt 0.556 0.854
vt 0.566 0.86
vt 0.566 0.872
vt 0.562 0.872
vt 0.562 0.86
vt 0.574 0.86
vt 0.574 0.872
vt 0.57 0.872
vt 0.57 0.86
vt 0.566 0.876
vt 0.566 0.872
vt 0.57 0.872
vt 0.57 0.876
vt 0.57 0.872
vt 0.57 0.876
vt 0.574 0.876
vt 0.574 0.872
vt 0.578 0.86
vt 0.578 0.872
vt 0.574 0.872
vt 0.574 0.86
vt 0.57 0.86
vt 0.57 0.872
vt 0.566 0.872
vt 0.566 0.86
vt 0.566 0.86
vt 0.566 0.872
vt 0.562 0.872
vt 0.562 0.86
vt 0.574 0.86
vt 0.574 0.872
vt 0.57 0.872
vt 0.57 0.86
vt 0.566 0.876
vt 0.566 0.872
vt 0.57 0.872
vt 0.57 0.876
vt 0.57 0.872
vt 0.57 0.876
vt 0.574 0.876
vt 0.574 0.872
vt 0.578 0.86
vt 0.578 0.872
vt 0.574 0.872
vt 0.574 0.86
vt 0.57 0.86
vt 0.57 0.872
vt 0.566 0.872
vt 0.566 0.86
vt 0.63 0.878
vt 0.63 0.898
vt 0.626 0.898
vt 0.626 0.878
vt 0.638 0.878
vt 0.638 0.898
vt 0.634 0.898
vt 0.634 0.878
vt 0.63 0.902
vt 0.63 0.898
vt 0.634 0.898
vt 0.634 0.902
vt 0.634 0.898
vt 0.634 0.902
vt 0.638 0.902
vt 0.638 0.898
vt 0.642 0.878
vt 0.642 0.898
vt 0.638 0.898
vt 0.638 0.878
vt 0.634 0.878
vt 0.634 0.898
vt 0.63 0.898
vt 0.63 0.878
vt 0.63 0.878
vt 0.63 0.898
vt 0.626 0.898
vt 0.626 0.878
vt 0.638 0.878
vt 0.638 0.898
vt 0.634 0.898
vt 0.634 0.878
vt 0.63 0.902
vt 0.63 0.898
vt 0.634 0.898
vt 0.634 0.902
vt 0.634 0.898
vt 0.634 0.902
vt 0.638 0.902
vt 0.638 0.898
vt 0.642 0.878
vt 0.642 0.898
vt 0.638 0.898
vt 0.638 0.878
vt 0.634 0.878
vt 0.634 0.898
vt 0.63 0.898
vt 0.63 0.878
vn 0.9846663268217754 0.000546316996266706 -0.17444748883561537
vn -0.9846663268217754 -0.000546316996266706 0.17444748883561537
vn 0.008865755563317815 0.998546129846381 0.05316977475132122
vn -0.008865755563317815 -0.998546129846381 -0.05316977475132122
vn 0.17422291238985782 -0.05390109559697584 0.9832299063249866
vn -0.17422291238985782 0.05390109559697584 -0.9832299063249866
vn 0.9846663268217754 0.000546316996266706 -0.17444748883561537
vn -0.9846663268217754 -0.0005463169962667149 0.17444748883561553
vn 0.008865755563317928 0.9985461298463808 0.05316977475132185
vn -0.008865755563317815 -0.998546129846381 -0.05316977475132122
vn 0.17422291238985782 -0.05390109559697584 0.9832299063249866
vn -0.17422291238985782 0.05390109559697584 -0.9832299063249866
vn 0.9135454576426012 1.0408340855860846e-17 -0.40673664307580004
vn -0.9135454576426012 -1.2143064331837653e-17 0.4067366430758
vn 6.418476861114187e-17 1 -6.522560269672796e-16
vn -4.163336342344336e-17 -1 -2.7755575615628907e-17
vn 0.40673664307580026 -1.3877787807814457e-17 0.9135454576426009
vn -0.40673664307580026 -1.387778780781446e-17 -0.9135454576426011
vn 0.9961946980917457 2.6020852139652113e-17 0.08715574274765826
vn -0.9961946980917457 -1.5785983631388947e-16 -0.08715574274765832
vn -3.191891195797325e-16 1 4.0939474033052647e-16
vn 3.139849491518021e-16 -1 -4.0245584642661925e-16
vn -0.08715574274765857 -6.93889390390723e-17 0.9961946980917457
vn 0.08715574274765828 6.938893903907228e-17 -0.9961946980917455
vn 0 0 0
vn 0 0 0
vn 0 0 0
vn 0 0 0
vn -0.08583165117743151 -0.17364817766693041 0.981060262190407
vn 0.08583165117743152 0.17364817766693028 -0.981060262190407
vn 0.2390212383261803 0.09884689215483926 0.9659700510576656
vn -0.23902123832618044 -0.09884689215483944 -0.9659700510576655
vn -0.9696323479783765 -0.02875931586814687 0.24287035946104463
vn 0.9696323479783764 0.02875931586814679 -0.24287035946104496
vn 0.051787618046790294 -0.9946869827549397 0.0889710568382434
vn -0.05178761804679065 0.9946869827549396 -0.08897105683824401
vn 0.8494687367762097 -0.4925378283013889 -0.18923359356092712
vn -0.84946873677621 0.49253782830138865 0.18923359356092678
vn 0.4447574097866351 0.8613635405877643 -0.24544591539888003
vn -0.4447574097866354 -0.8613635405877643 0.24544591539887994
vn 0.28389031628379774 0.12433558878399223 0.9507612474654316
vn -0.2838903162837972 -0.12433558878399265 -0.9507612474654317
vn 0.9374170578369159 -0.08707278979269387 -0.33714624268127036
vn -0.9374170578369159 0.08707278979269374 0.33714624268127014
vn 0.06703766939289674 0.9952465414778341 -0.07064186123523775
vn -0.06703766939289593 -0.9952465414778343 0.07064186123523816
vn 0.3416946159346815 0.04361938736533604 0.938798241629757
vn -0.3416946159346813 -0.04361938736533592 -0.938798241629757
vn 0.9401753922705604 -0.05195268642582667 -0.3367063262578205
vn -0.9401753922705604 0.051952686425826816 0.33670632625782065
vn 0.04000738570979948 0.9983026304979403 -0.04232336269201961
vn -0.04000738570979897 -0.9983026304979403 0.04232336269201944
vn 0.3383336235989051 0.026320644255652226 0.9406580583976316
vn -0.3383336235989051 -0.026320644255652274 -0.9406580583976315
vn 1 1.5612511283791266e-16 -1.6653345369377353e-16
vn -1 -1.6826817716975034e-16 -5.551115123125784e-17
vn -6.591949208711867e-17 1 7.632783294297951e-17
vn 0 -1 -1.3877787807814457e-17
vn -2.775557561562892e-17 1.5265566588595905e-16 1
vn 5.551115123125784e-17 -1.387778780781446e-16 -1
vn 0.9912938595192523 0.017452406437283418 0.1305063124487588
vn -0.9912938595192523 -0.01745240643728343 -0.13050631244875854
vn -0.017303098680851243 0.9998476951563914 -0.0022779961573353717
vn 0.01730309868085188 -0.9998476951563914 0.0022779961573349415
vn -0.13052619222005152 5.551115123125784e-17 0.9914448613738106
vn 0.130526192220052 -8.326672684688677e-17 -0.9914448613738105
vn 0.9912938595192522 0.017452406437283605 0.13050631244875885
vn -0.9912938595192522 -0.017452406437283602 -0.13050631244875832
vn -0.017303098680852672 0.9998476951563914 -0.0022779961573349415
vn 0.017303098680851302 -0.9998476951563914 0.002277996157335434
vn -0.13052619222005193 -1.3877787807814457e-17 0.9914448613738104
vn 0.13052619222005174 5.551115123125784e-17 -0.9914448613738105
vn 0.9914448613738106 1.0408340855860846e-17 0.13052619222005094
vn -0.9914448613738106 2.4286128663675305e-17 -0.13052619222005152
vn 9.367506770274758e-17 1 -6.036837696399289e-16
vn 2.740863092043355e-16 -1 6.938893903907228e-17
vn -0.13052619222005155 3.469446951953614e-17 0.9914448613738104
vn 0.13052619222005166 2.0816681711721685e-17 -0.9914448613738104
vn 0.9914448613738104 -1.5265566588595902e-16 0.13052619222005166
vn -0.9914448613738104 -8.326672684688674e-17 -0.13052619222005166
vn 3.2092384305570936e-16 1 -1.1102230246251568e-16
vn 2.4459601011272985e-16 -1 1.9428902930940244e-16
vn -0.13052619222005163 -2.775557561562892e-17 0.9914448613738105
vn 0.13052619222005157 -8.326672684688677e-17 -0.9914448613738105
vn 0 0 0
vn 0 0 0
vn 0 0 0
vn 0 0 0
vn -0.12854320606946856 0.1736481776669304 0.9763825861650425
vn 0.1285432060694685 -0.17364817766693044 -0.9763825861650425
vn 0.8889313965900904 -0.06055820346452638 0.4540194667076961
vn -0.8889313965900901 0.06055820346452659 -0.4540194667076964
vn -0.4382663759397546 0.175646218360321 0.8815163014354032
vn 0.4382663759397534 -0.17564621836031985 -0.8815163014354037
vn -0.13312984592879684 -0.982588983231986 0.12959681382698876
vn 0.13312984592879987 0.9825889832319856 -0.12959681382698773
vn 0.8344064738054005 -0.5194171241173414 0.18431410050592473
vn -0.8344064738054006 0.5194171241173411 -0.18431410050592448
vn 0.46299541811615375 0.8420119843736918 0.276859280094646
vn -0.46299541811615336 -0.8420119843736921 -0.27685928009464633
vn -0.2990001325670042 -0.14567659161563223 0.9430679993405386
vn 0.2990001325670044 0.14567659161563185 -0.9430679993405386
vn 0.9912938595192522 -0.017452406437283376 0.1305063124487584
vn -0.9912938595192522 0.01745240643728335 -0.13050631244875852
vn 0.02861336239738452 0.996042972814049 -0.08414078559217199
vn -0.028613362397385215 -0.9960429728140489 0.08414078559217189
vn -0.12852143623435403 0.08714246850588928 0.9878706547979644
vn 0.1285214362343538 -0.08714246850588922 -0.9878706547979645
vn 0.9912938595192523 -0.01745240643728349 0.13050631244875846
vn -0.9912938595192522 0.01745240643728355 -0.1305063124487588
vn 0.02861336239738525 0.9960429728140489 -0.0841407855921724
vn -0.02861336239738577 -0.9960429728140487 0.0841407855921723
vn -0.12852143623435378 0.08714246850588935 0.9878706547979645
vn 0.12852143623435378 -0.08714246850588937 -0.9878706547979645
vn 0.9914448662415292 -0.01703709622540719 -0.12940948402463773
vn -0.991444866241529 0.017037096225407146 0.12940948402463856
vn -0.1294094837142994 0.0011071348944080852 -0.9915906210614965
vn 0.1294094837142995 -0.0011071348944080711 0.9915906210614963
vn 0.01703709858266833 0.9998542451800322 -0.001107098619223375
vn -0.017037098582667148 -0.9998542451800322 0.0011070986192231113
vn 0.8873927745555714 -0.01563097116737013 -0.4607491035335065
vn -0.8873927745555715 0.015630971167368442 0.4607491035335064
vn 0.01703709858266658 0.9998542451800323 -0.0011070986192228893
vn -0.017037098582668237 -0.9998542451800322 0.001107098619223382
vn 0.460699252157467 -0.006867396583356654 0.8875297391781968
vn -0.46069925215746677 0.006867396583355322 -0.8875297391781969
vn 0.8873927745555709 -0.015630971167368807 -0.4607491035335076
vn -0.8873927745555726 0.01563097116736828 0.4607491035335043
vn 0.017037098582667585 0.9998542451800323 -0.0011070986192227782
vn -0.01703709858266755 -0.9998542451800323 0.0011070986192227644
vn 0.46069925215746765 -0.006867396583355279 0.8875297391781962
vn -0.46069925215746715 0.006867396583356292 -0.8875297391781964
vn 0.8873927745555712 -0.01563097116736825 -0.4607491035335071
vn -0.8873927745555726 0.015630971167361934 0.4607491035335042
vn 0.017037098582668175 0.9998542451800322 -0.0011070986192248877
vn -0.01703709858266649 -0.9998542451800322 0.0011070986192241174
vn 0.4606992521574637 -0.006867396583359881 0.8875297391781984
vn -0.46069925215746566 0.006867396583356717 -0.8875297391781973
vn 0.8873927745555712 -0.01563097116736825 -0.4607491035335071
vn -0.887392774555571 0.015630971167374642 0.46074910353350723
vn 0.017037098582668175 0.9998542451800322 -0.0011070986192248877
vn -0.01703709858266712 -0.9998542451800323 0.0011070986192233195
vn 0.46069925215746543 -0.006867396583358805 0.8875297391781974
vn -0.4606992521574657 0.006867396583356802 -0.8875297391781974
vn 0.9914448662415289 -0.017037096225402875 -0.12940948402463878
vn -0.9914448662415289 0.01703709622540971 0.12940948402463875
vn -0.13052615524605188 -0.12940950419649505 -0.9829629204707068
vn 0.1305261552460509 0.1294095041964947 0.982962920470707
vn 1.669611489341083e-8 0.9914448636085739 -0.13052617524533625
vn -1.6696113394609743e-8 -0.9914448636085738 0.13052617524533597
vn 0.9914448662415283 -0.017037096225416715 -0.12940948402464234
vn -0.9914448662415289 0.017037096225411007 0.1294094840246385
vn -0.11577810600694251 0.3430106587317423 -0.9321690394804268
vn 0.11577810600694613 -0.34301065873173864 0.9321690394804278
vn 0.06027028598539887 0.9391769936218745 0.3381036339328759
vn -0.06027028598539845 -0.9391769936218746 -0.33810363393287574
vn 0.9921169397457843 -0.1169584747579873 -0.04499658933458626
vn -0.9921169397457841 0.11695847475798722 0.044996589334586445
vn 0.12161577558955727 0.9852224483422953 0.1206081689197046
vn -0.12161577558955733 -0.985222448342295 -0.12060816891970624
vn 0.030225502431071916 -0.12512970256777237 0.9916798760376708
vn -0.030225502431071534 0.12512970256777262 -0.9916798760376709
vn 0.9642043420869107 0.11634816522253906 -0.23827104555546952
vn -0.9642043420869106 -0.11634816522253912 0.2382710455554693
vn -0.18902978124835867 0.9317696898342761 -0.30995642743349355
vn 0.1890297812483624 -0.9317696898342753 0.30995642743349383
vn 0.18595087658288928 0.3439016568082888 0.9204096489838475
vn -0.18595087658289042 -0.3439016568082888 -0.9204096489838473
vn 0.9650497739498111 -0.17711130657187116 -0.19315930959656927
vn -0.9650497739498113 0.17711130657187313 0.1931593095965666
vn 0.2364341933482597 0.9063354061484435 0.350221363964984
vn -0.23643419334825877 -0.9063354061484438 -0.3502213639649837
vn 0.11303895795333611 -0.38365051367897307 0.9165339477284429
vn -0.1130389579533353 0.3836505136789733 -0.916533947728443
vn 0.9916953216547869 0.12533472011146035 -0.028837422606583812
vn -0.991695321654787 -0.1253347201114594 0.02883742260658409
vn -0.1279189384087607 0.9844593390589761 -0.12031855607486305
vn 0.12791893840875984 -0.9844593390589761 0.12031855607486341
vn 0.013309177449584153 0.12300820165398091 0.9923164052465672
vn -0.013309177449582241 -0.12300820165398074 -0.9923164052465672
vn 0.9848077535288207 0.02266570106587765 0.17216258183679148
vn -0.9848077535288207 -0.022665701065877657 -0.1721625818367916
vn 0.17364817473705912 -0.12854315582546091 -0.9763825933008633
vn -0.17364817473705896 0.12854315582546091 0.9763825933008634
vn -7.440132352570794e-8 0.9914448663872458 -0.13052615413920302
vn 7.44013231163132e-8 -0.9914448663872458 0.13052615413920293
vn 0.9848077535288207 0.022665701065877782 0.1721625818367917
vn -0.9848077535288209 -0.022665701065876558 -0.17216258183679126
vn -7.440132373387476e-8 0.9914448663872457 -0.13052615413920304
vn 7.440132343550233e-8 -0.9914448663872458 0.1305261541392028
vn -0.1736481747370587 0.1285431558254603 0.9763825933008636
vn 0.1736481747370592 -0.1285431558254618 -0.9763825933008632
vn 0.9848077535288209 0.022665701065878122 0.17216258183679106
vn -0.9848077535288209 -0.02266570106587692 -0.17216258183679128
vn -7.440132267916288e-8 0.9914448663872457 -0.13052615413920304
vn 7.440132350489127e-8 -0.9914448663872458 0.1305261541392035
vn -0.17364817473706085 0.12854315582546005 0.9763825933008632
vn 0.17364817473705854 -0.12854315582546152 -0.9763825933008634
vn 0.9848077535288209 0.022665701065875024 0.17216258183679128
vn -0.9848077535288209 -0.022665701065877744 -0.17216258183679103
vn -7.440132186731231e-8 0.9914448663872459 -0.1305261541392024
vn 7.440132192282346e-8 -0.9914448663872459 0.13052615413920246
vn -0.17364817473706068 0.1285431558254586 0.9763825933008634
vn 0.17364817473705743 -0.1285431558254584 -0.9763825933008641
vn 0.9848077535288207 0.022665701065879847 0.17216258183679164
vn -0.9848077535288207 -0.022665701065877758 -0.17216258183679123
vn -7.440132453184757e-8 0.9914448663872459 -0.13052615413920235
vn 7.440132346325791e-8 -0.9914448663872459 0.13052615413920268
vn -0.17364817473705857 0.1285431558254623 0.9763825933008634
vn 0.1736481747370622 -0.12854315582546194 -0.9763825933008627
vn 0.9848077535288208 0.02266570106587601 0.17216258183679192
vn -0.9848077535288206 -0.022665701065874896 -0.17216258183679278
vn 0.17216260024131907 -0.2568529745135722 -0.9509924229780583
vn -0.1721626002413206 0.25685297451357086 0.9509924229780584
vn 0.02266556126957762 0.9661846694492326 -0.2568529868497004
vn -0.02266556126958086 -0.9661846694492325 0.25685298684969987
vn 0.9848077535288207 0.022665701065877803 0.1721625818367913
vn -0.9848077535288207 -0.022665701065880946 -0.1721625818367916
vn 0.16317588296660382 0.21830306031954644 -0.9621420919350686
vn -0.16317588296660482 -0.21830306031954388 0.9621420919350688
vn -0.059391243526185175 0.9756177734391237 0.21128805063727601
vn 0.05939124352618536 -0.9756177734391238 -0.21128805063727574
vn 0.9618134055911819 -0.0658767548573278 0.2656599819215536
vn -0.961813405591182 0.06587675485732672 -0.2656599819215535
vn 0.23920709911623922 0.674032707743909 -0.6988990432271373
vn -0.23920709911623955 -0.6740327077439079 0.6988990432271383
vn -0.13302231601308684 0.7357582225574394 0.6640518815436276
vn 0.13302231601308762 -0.7357582225574397 -0.6640518815436272
vn 0.9892287201418102 0.139857722257758 0.04320135150048102
vn -0.9892287201418104 -0.13985772225775694 -0.04320135150048122
vn -0.0610870233659324 0.6626458777811908 -0.746437416154821
vn 0.06108702336593276 -0.6626458777811904 0.7464374161548213
vn -0.13302223431774998 0.7357582878802436 0.6640518255321992
vn 0.13302223431774918 -0.7357582878802433 -0.6640518255321994
vn 0.9813856400805216 -0.14527812487265301 0.12560450579987553
vn -0.9813856400805215 0.14527812487265365 -0.12560450579987484
vn 0.10556728397021187 0.9544397586563629 0.2791062443786178
vn -0.1055672839702117 -0.9544397586563628 -0.27910624437861775
vn -0.1604299660253573 -0.26065113375826615 0.9520100905303647
vn 0.1604299660253587 0.260651133758266 -0.9520100905303647
vn 0.952550854782729 0.17615166218027012 0.24822864654149082
vn -0.9525508547827288 -0.17615166218026915 -0.24822864654149268
vn -0.26909747760216435 0.8684791489404697 0.4163298156555569
vn 0.2690974776021648 -0.8684791489404703 -0.4163298156555555
vn -0.14224421464806852 -0.46337302442715056 0.8746725236523608
vn 0.14224421464806736 0.46337302442715056 -0.8746725236523609
usemtl m_cd691c73-cb2a-3c69-3087-31ec41884691
f 4/1/1 2/2/1 1/3/1 3/4/1
f 7/5/2 5/6/2 6/7/2 8/8/2
f 1/9/3 2/10/3 6/11/3 5/12/3
f 4/13/4 3/14/4 7/15/4 8/16/4
f 3/17/5 1/18/5 5/19/5 7/20/5
f 8/21/6 6/22/6 2/23/6 4/24/6
f 12/25/7 10/26/7 9/27/7 11/28/7
f 15/29/8 13/30/8 14/31/8 16/32/8
f 9/33/9 10/34/9 14/35/9 13/36/9
f 12/37/10 11/38/10 15/39/10 16/40/10
f 11/41/11 9/42/11 13/43/11 15/44/11
f 16/45/12 14/46/12 10/47/12 12/48/12
f 20/49/13 18/50/13 17/51/13 19/52/13
f 23/53/14 21/54/14 22/55/14 24/56/14
f 17/57/15 18/58/15 22/59/15 21/60/15
f 20/61/16 19/62/16 23/63/16 24/64/16
f 19/65/17 17/66/17 21/67/17 23/68/17
f 24/69/18 22/70/18 18/71/18 20/72/18
f 28/73/19 26/74/19 25/75/19 27/76/19
f 31/77/20 29/78/20 30/79/20 32/80/20
f 25/81/21 26/82/21 30/83/21 29/84/21
f 28/85/22 27/86/22 31/87/22 32/88/22
f 27/89/23 25/90/23 29/91/23 31/92/23
f 32/93/24 30/94/24 26/95/24 28/96/24
f 34/97/25 33/98/25 36/99/25 35/100/25
f 37/101/26 38/102/26 39/103/26 40/104/26
f 34/105/27 38/106/27 33/107/27 37/108/27
f 35/109/28 39/110/28 36/111/28 40/112/28
f 35/113/29 33/114/29 37/115/29 39/116/29
f 40/117/30 38/118/30 34/119/30 36/120/30
f 44/121/31 42/122/31 41/123/31 43/124/31
f 47/125/32 45/126/32 46/127/32 48/128/32
f 41/129/33 42/130/33 46/131/33 45/132/33
f 44/133/34 43/134/34 47/135/34 48/136/34
f 43/137/35 41/138/35 45/139/35 47/140/35
f 48/141/36 46/142/36 42/143/36 44/144/36
f 52/145/37 50/146/37 49/147/37 51/148/37
f 55/149/38 53/150/38 54/151/38 56/152/38
f 49/153/39 50/154/39 54/155/39 53/156/39
f 52/157/40 51/158/40 55/159/40 56/160/40
f 51/161/41 49/162/41 53/163/41 55/164/41
f 56/165/42 54/166/42 50/167/42 52/168/42
f 60/169/43 58/170/43 57/171/43 59/172/43
f 63/173/44 61/174/44 62/175/44 64/176/44
f 57/177/45 58/178/45 62/179/45 61/180/45
f 60/181/46 59/182/46 63/183/46 64/184/46
f 59/185/47 57/186/47 61/187/47 63/188/47
f 64/189/48 62/190/48 58/191/48 60/192/48
f 68/193/49 66/194/49 65/195/49 67/196/49
f 71/197/50 69/198/50 70/199/50 72/200/50
f 65/201/51 66/202/51 70/203/51 69/204/51
f 68/205/52 67/206/52 71/207/52 72/208/52
f 67/209/53 65/210/53 69/211/53 71/212/53
f 72/213/54 70/214/54 66/215/54 68/216/54
f 76/217/55 74/218/55 73/219/55 75/220/55
f 79/221/56 77/222/56 78/223/56 80/224/56
f 73/225/57 74/226/57 78/227/57 77/228/57
f 76/229/58 75/230/58 79/231/58 80/232/58
f 75/233/59 73/234/59 77/235/59 79/236/59
f 80/237/60 78/238/60 74/239/60 76/240/60
f 84/241/61 82/242/61 81/243/61 83/244/61
f 87/245/62 85/246/62 86/247/62 88/248/62
f 81/249/63 82/250/63 86/251/63 85/252/63
f 84/253/64 83/254/64 87/255/64 88/256/64
f 83/257/65 81/258/65 85/259/65 87/260/65
f 88/261/66 86/262/66 82/263/66 84/264/66
f 92/265/67 90/266/67 89/267/67 91/268/67
f 95/269/68 93/270/68 94/271/68 96/272/68
f 89/273/69 90/274/69 94/275/69 93/276/69
f 92/277/70 91/278/70 95/279/70 96/280/70
f 91/281/71 89/282/71 93/283/71 95/284/71
f 96/285/72 94/286/72 90/287/72 92/288/72
f 100/289/73 98/290/73 97/291/73 99/292/73
f 103/293/74 101/294/74 102/295/74 104/296/74
f 97/297/75 98/298/75 102/299/75 101/300/75
f 100/301/76 99/302/76 103/303/76 104/304/76
f 99/305/77 97/306/77 101/307/77 103/308/77
f 104/309/78 102/310/78 98/311/78 100/312/78
f 108/313/79 106/314/79 105/315/79 107/316/79
f 111/317/80 109/318/80 110/319/80 112/320/80
f 105/321/81 106/322/81 110/323/81 109/324/81
f 108/325/82 107/326/82 111/327/82 112/328/82
f 107/329/83 105/330/83 109/331/83 111/332/83
f 112/333/84 110/334/84 106/335/84 108/336/84
f 114/337/85 113/338/85 116/339/85 115/340/85
f 117/341/86 118/342/86 119/343/86 120/344/86
f 114/345/87 118/346/87 113/347/87 117/348/87
f 115/349/88 119/350/88 116/351/88 120/352/88
f 115/353/89 113/354/89 117/355/89 119/356/89
f 120/357/90 118/358/90 114/359/90 116/360/90
f 124/361/91 122/362/91 121/363/91 123/364/91
f 127/365/92 125/366/92 126/367/92 128/368/92
f 121/369/93 122/370/93 126/371/93 125/372/93
f 124/373/94 123/374/94 127/375/94 128/376/94
f 123/377/95 121/378/95 125/379/95 127/380/95
f 128/381/96 126/382/96 122/383/96 124/384/96
f 132/385/97 130/386/97 129/387/97 131/388/97
f 135/389/98 133/390/98 134/391/98 136/392/98
f 129/393/99 130/394/99 134/395/99 133/396/99
f 132/397/100 131/398/100 135/399/100 136/400/100
f 131/401/101 129/402/101 133/403/101 135/404/101
f 136/405/102 134/406/102 130/407/102 132/408/102
f 140/409/103 138/410/103 137/411/103 139/412/103
f 143/413/104 141/414/104 142/415/104 144/416/104
f 137/417/105 138/418/105 142/419/105 141/420/105
f 140/421/106 139/422/106 143/423/106 144/424/106
f 139/425/107 137/426/107 141/427/107 143/428/107
f 144/429/108 142/430/108 138/431/108 140/432/108
f 148/433/109 146/434/109 145/435/109 147/436/109
f 151/437/110 149/438/110 150/439/110 152/440/110
f 145/441/111 146/442/111 150/443/111 149/444/111
f 148/445/112 147/446/112 151/447/112 152/448/112
f 147/449/113 145/450/113 149/451/113 151/452/113
f 152/453/114 150/454/114 146/455/114 148/456/114
f 156/457/115 154/458/115 153/459/115 155/460/115
f 159/461/116 157/462/116 158/463/116 160/464/116
f 153/465/117 154/466/117 158/467/117 157/468/117
f 156/469/118 155/470/118 159/471/118 160/472/118
f 155/473/119 153/474/119 157/475/119 159/476/119
f 160/477/120 158/478/120 154/479/120 156/480/120
f 164/481/121 162/482/121 161/483/121 163/484/121
f 167/485/122 165/486/122 166/487/122 168/488/122
f 161/489/123 162/490/123 166/491/123 165/492/123
f 164/493/124 163/494/124 167/495/124 168/496/124
f 163/497/125 161/498/125 165/499/125 167/500/125
f 168/501/126 166/502/126 162/503/126 164/504/126
f 172/505/127 170/506/127 169/507/127 171/508/127
f 175/509/128 173/510/128 174/511/128 176/512/128
f 169/513/129 170/514/129 174/515/129 173/516/129
f 172/517/130 171/518/130 175/519/130 176/520/130
f 171/521/131 169/522/131 173/523/131 175/524/131
f 176/525/132 174/526/132 170/527/132 172/528/132
f 180/529/133 178/530/133 177/531/133 179/532/133
f 183/533/134 181/534/134 182/535/134 184/536/134
f 177/537/135 178/538/135 182/539/135 181/540/135
f 180/541/136 179/542/136 183/543/136 184/544/136
f 179/545/137 177/546/137 181/547/137 183/548/137
f 184/549/138 182/550/138 178/551/138 180/552/138
f 188/553/139 186/554/139 185/555/139 187/556/139
f 191/557/140 189/558/140 190/559/140 192/560/140
f 185/561/141 186/562/141 190/563/141 189/564/141
f 188/565/142 187/566/142 191/567/142 192/568/142
f 187/569/143 185/570/143 189/571/143 191/572/143
f 192/573/144 190/574/144 186/575/144 188/576/144
f 196/577/145 194/578/145 193/579/145 195/580/145
f 199/581/146 197/582/146 198/583/146 200/584/146
f 193/585/147 194/586/147 198/587/147 197/588/147
f 196/589/148 195/590/148 199/591/148 200/592/148
f 195/593/149 193/594/149 197/595/149 199/596/149
f 200/597/150 198/598/150 194/599/150 196/600/150
f 204/601/151 202/602/151 201/603/151 203/604/151
f 207/605/152 205/606/152 206/607/152 208/608/152
f 201/609/153 202/610/153 206/611/153 205/612/153
f 204/613/154 203/614/154 207/615/154 208/616/154
f 203/617/155 201/618/155 205/619/155 207/620/155
f 208/621/156 206/622/156 202/623/156 204/624/156
f 212/625/157 210/626/157 209/627/157 211/628/157
f 215/629/158 213/630/158 214/631/158 216/632/158
f 209/633/159 210/634/159 214/635/159 213/636/159
f 212/637/160 211/638/160 215/639/160 216/640/160
f 211/641/161 209/642/161 213/643/161 215/644/161
f 216/645/162 214/646/162 210/647/162 212/648/162
f 220/649/163 218/650/163 217/651/163 219/652/163
f 223/653/164 221/654/164 222/655/164 224/656/164
f 217/657/165 218/658/165 222/659/165 221/660/165
f 220/661/166 219/662/166 223/663/166 224/664/166
f 219/665/167 217/666/167 221/667/167 223/668/167
f 224/669/168 222/670/168 218/671/168 220/672/168
f 228/673/169 226/674/169 225/675/169 227/676/169
f 231/677/170 229/678/170 230/679/170 232/680/170
f 225/681/171 226/682/171 230/683/171 229/684/171
f 228/685/172 227/686/172 231/687/172 232/688/172
f 227/689/173 225/690/173 229/691/173 231/692/173
f 232/693/174 230/694/174 226/695/174 228/696/174
f 236/697/175 234/698/175 233/699/175 235/700/175
f 239/701/176 237/702/176 238/703/176 240/704/176
f 233/705/177 234/706/177 238/707/177 237/708/177
f 236/709/178 235/710/178 239/711/178 240/712/178
f 235/713/179 233/714/179 237/715/179 239/716/179
f 240/717/180 238/718/180 234/719/180 236/720/180
f 244/721/181 242/722/181 241/723/181 243/724/181
f 247/725/182 245/726/182 246/727/182 248/728/182
f 241/729/183 242/730/183 246/731/183 245/732/183
f 244/733/184 243/734/184 247/735/184 248/736/184
f 243/737/185 241/738/185 245/739/185 247/740/185
f 248/741/186 246/742/186 242/743/186 244/744/186
f 252/745/187 250/746/187 249/747/187 251/748/187
f 255/749/188 253/750/188 254/751/188 256/752/188
f 249/753/189 250/754/189 254/755/189 253/756/189
f 252/757/190 251/758/190 255/759/190 256/760/190
f 251/761/191 249/762/191 253/763/191 255/764/191
f 256/765/192 254/766/192 250/767/192 252/768/192
f 260/769/193 258/770/193 257/771/193 259/772/193
f 263/773/194 261/774/194 262/775/194 264/776/194
f 257/777/195 258/778/195 262/779/195 261/780/195
f 260/781/196 259/782/196 263/783/196 264/784/196
f 259/785/197 257/786/197 261/787/197 263/788/197
f 264/789/198 262/790/198 258/791/198 260/792/198
f 268/793/199 266/794/199 265/795/199 267/796/199
f 271/797/200 269/798/200 270/799/200 272/800/200
f 265/801/201 266/802/201 270/803/201 269/804/201
f 268/805/202 267/806/202 271/807/202 272/808/202
f 267/809/203 265/810/203 269/811/203 271/812/203
f 272/813/204 270/814/204 266/815/204 268/816/204
f 276/817/205 274/818/205 273/819/205 275/820/205
f 279/821/206 277/822/206 278/823/206 280/824/206
f 273/825/207 274/826/207 278/827/207 277/828/207
f 276/829/208 275/830/208 279/831/208 280/832/208
f 275/833/209 273/834/209 277/835/209 279/836/209
f 280/837/210 278/838/210 274/839/210 276/840/210
f 284/841/211 282/842/211 281/843/211 283/844/211
f 287/845/212 285/846/212 286/847/212 288/848/212
f 281/849/213 282/850/213 286/851/213 285/852/213
f 284/853/214 283/854/214 287/855/214 288/856/214
f 283/857/215 281/858/215 285/859/215 287/860/215
f 288/861/216 286/862/216 282/863/216 284/864/216
f 292/865/217 290/866/217 289/867/217 291/868/217
f 295/869/218 293/870/218 294/871/218 296/872/218
f 289/873/219 290/874/219 294/875/219 293/876/219
f 292/877/220 291/878/220 295/879/220 296/880/220
f 291/881/221 289/882/221 293/883/221 295/884/221
f 296/885/222 294/886/222 290/887/222 292/888/222
f 300/889/223 298/890/223 297/891/223 299/892/223
f 303/893/224 301/894/224 302/895/224 304/896/224
f 297/897/225 298/898/225 302/899/225 301/900/225
f 300/901/226 299/902/226 303/903/226 304/904/226
f 299/905/227 297/906/227 301/907/227 303/908/227
f 304/909/228 302/910/228 298/911/228 300/912/228
f 308/913/229 306/914/229 305/915/229 307/916/229
f 311/917/230 309/918/230 310/919/230 312/920/230
f 305/921/231 306/922/231 310/923/231 309/924/231
f 308/925/232 307/926/232 311/927/232 312/928/232
f 307/929/233 305/930/233 309/931/233 311/932/233
f 312/933/234 310/934/234 306/935/234 308/936/234
f 316/937/235 314/938/235 313/939/235 315/940/235
f 319/941/236 317/942/236 318/943/236 320/944/236
f 313/945/237 314/946/237 318/947/237 317/948/237
f 316/949/238 315/950/238 319/951/238 320/952/238
f 315/953/239 313/954/239 317/955/239 319/956/239
f 320/957/240 318/958/240 314/959/240 316/960/240
f 324/961/241 322/962/241 321/963/241 323/964/241
f 327/965/242 325/966/242 326/967/242 328/968/242
f 321/969/243 322/970/243 326/971/243 325/972/243
f 324/973/244 323/974/244 327/975/244 328/976/244
f 323/977/245 321/978/245 325/979/245 327/980/245
f 328/981/246 326/982/246 322/983/246 324/984/246